<svg width="1478" height="226" viewBox="0 0 1478 226" fill="none" xmlns="http://www.w3.org/2000/svg">
<path fill-rule="evenodd" clip-rule="evenodd" d="M90.7717 2.23404C85.6307 3.26204 79.8287 4.63104 77.8797 5.27404L74.3347 6.44404L74.9927 16.069C75.7587 27.271 78.3397 39.597 82.1397 50.195C85.5587 59.73 85.5357 59.711 89.6557 56.325C139.25 15.577 206.956 78.097 171.113 131.541C166.674 138.16 166.646 138.255 168.868 139.086C185.11 145.163 201.723 148.996 213.69 149.427L221.119 149.695L223.452 140.695C244.074 61.152 172.036 -14.026 90.7717 2.23404ZM53.5727 16.786C-32.6903 69.911 -10.2453 203.111 88.4337 223.671C100.098 226.101 100.486 225.969 96.4207 220.945C62.8437 179.448 53.2397 117.792 73.3547 72.862L75.9657 67.03L71.3657 53.362C66.7767 39.727 63.6187 24.708 63.6187 16.519C63.6187 11.02 62.9037 11.039 53.5727 16.786ZM260.369 13.765C259.956 14.185 259.619 16.69 259.619 19.333V24.137L272.869 24.416L286.119 24.695V114.066V203.437L274.58 203.266C260.059 203.051 259.619 203.214 259.619 208.813V213.217L300.369 212.956L341.119 212.695L341.421 208.566C341.796 203.433 340.682 203.04 326.233 203.202C320.67 203.264 315.551 203.288 314.857 203.255C313.859 203.208 313.65 195.284 313.857 165.445L314.119 127.695L337.119 127.13C360.508 126.556 364.607 126.005 378.619 121.552C439.869 102.085 432.668 26.892 368.425 15.099C361.185 13.77 261.573 12.541 260.369 13.765ZM578.811 18.427L579.119 22.695L588.461 23.195C603.275 23.988 602.119 10.394 602.119 183.864C602.119 205.253 603.14 203.57 589.79 204.195L579.119 204.695L578.811 208.958L578.503 213.22L614.297 212.958C653.729 212.668 651.793 213.01 650.189 206.616C649.594 204.247 649.354 204.195 639.1 204.195C633.335 204.195 628.512 204.082 628.382 203.945C628.251 203.808 627.914 161.17 627.632 109.195L627.119 14.695L602.811 14.427L578.502 14.159L578.811 18.427ZM689.04 22.044C674.741 28.704 676.121 46.619 691.338 51.884C699.938 54.86 711.345 46.082 711.549 36.331C711.775 25.52 698.995 17.408 689.04 22.044ZM1290.63 22.388C1276.62 29.582 1278.2 46.557 1293.38 51.834C1300.56 54.329 1310.4 48.482 1312.54 40.452C1316.07 27.194 1302.71 16.181 1290.63 22.388ZM364.046 27.005C379.2 32.536 385.812 42.618 388.53 64.338C392.993 100.007 373.641 118.071 330.869 118.159L313.619 118.195V71.862C313.619 46.378 313.956 25.184 314.369 24.763C316.218 22.877 357.888 24.758 364.046 27.005ZM115.367 72.561C85.6027 83.665 92.9667 127.727 124.58 127.683C160.988 127.632 162.474 73.383 126.119 71.52C121.724 71.295 117.723 71.682 115.367 72.561ZM486.619 78.706C451.556 83.321 428.506 107.5 426.097 142.195C422.285 197.101 464.126 229.177 516.714 211.663C576.209 191.85 579.185 102.028 521.018 81.778C514.917 79.654 500.632 76.969 497.328 77.325C496.663 77.397 491.844 78.018 486.619 78.706ZM1105.62 78.555C1095.1 81.42 1083.01 90.849 1076.88 100.982L1074.63 104.695L1074.62 92.945L1074.62 81.195H1050.12H1025.62V85.695V90.195H1034.51C1041.77 90.195 1043.83 90.545 1045.76 92.106L1048.12 94.017L1048.39 146.742C1048.72 209.718 1049.9 204.195 1036.11 204.195C1025.97 204.195 1024.67 205.035 1025.79 210.866C1026.34 213.71 1096.9 213.71 1097.44 210.866C1098.57 204.992 1097.3 204.195 1086.8 204.195C1080.53 204.195 1076.59 203.765 1075.82 202.995C1073.86 201.034 1074.14 127.959 1076.13 122.123C1082.72 102.809 1104.91 96.654 1114.54 111.472C1120.65 120.895 1132.12 112.191 1132.12 98.122C1132.12 82.838 1120.74 74.438 1105.62 78.555ZM1191.12 78.807C1153.81 82.6 1134.93 118.562 1158.09 141.721C1163.88 147.504 1181.27 155.384 1210.12 165.292C1218.72 168.245 1226.56 175.083 1226.72 179.761C1227.19 193.994 1222.99 199.705 1209.1 203.743C1185.51 210.6 1161.14 195.907 1159.81 174.026C1159.36 166.744 1157.87 165.341 1152.1 166.789L1149.58 167.421L1149.85 191.058L1150.12 214.695H1153.62C1156.33 214.695 1157.34 214.17 1158.12 212.372C1159.27 209.703 1161.97 209.78 1169.62 212.701C1207.96 227.335 1249.1 207.408 1249.11 174.195C1249.12 152.995 1243.75 148.918 1187.91 127.779C1170.96 121.362 1165.28 111.412 1171.9 99.725C1183.36 79.496 1228.53 89.072 1228.6 111.745C1228.62 117.445 1229.82 119.195 1233.7 119.195C1238.39 119.195 1238.69 117.853 1238.39 98.065L1238.12 79.695L1233.87 79.388C1230.15 79.118 1229.62 79.335 1229.62 81.138C1229.62 83.704 1228.43 83.708 1219.36 81.177C1212.14 79.165 1198.7 78.036 1191.12 78.807ZM938.389 80.737C883.65 95.705 872.223 185.034 921.978 209.017C950.437 222.734 978.38 217.997 1002.45 195.375C1010.3 187.995 1004.17 186.409 992.009 192.674C954.325 212.092 917.888 191.403 917.639 150.445L917.619 147.195H963.012C1003.48 147.195 1008.47 147.023 1009.01 145.613C1009.35 144.743 1009.6 140.131 1009.58 135.363C1009.42 96.376 975.732 70.525 938.389 80.737ZM1389.12 81.12C1364.24 88.202 1352.32 110.378 1367.13 122.027C1377.37 130.082 1393.09 120.879 1386.19 110.866C1377.61 98.405 1385.57 88.889 1404.69 88.76C1420.99 88.649 1427.58 96.028 1429.23 116.195C1430.48 131.578 1431.87 129.915 1415.4 132.719C1363.42 141.57 1346.62 153.65 1346.62 182.186C1346.62 221.283 1387.61 229.199 1423.35 197.003C1429.36 191.583 1429.62 191.836 1429.62 203.213V213.231L1453.37 212.963L1477.12 212.695L1477.44 209.885C1478 205.01 1476.36 204.195 1466.02 204.195C1452.78 204.195 1453.86 208.148 1453.34 157.695C1452.83 108.773 1452.27 105.366 1442.73 92.73C1433.72 80.787 1409.05 75.446 1389.12 81.12ZM661.02 82.592C660.717 83.381 660.616 85.302 660.794 86.861L661.119 89.695L671.409 90.195C679.06 90.567 681.94 91.08 682.643 92.195C684.23 94.714 683.912 201.707 682.313 203.034C681.595 203.63 676.532 204.248 671.063 204.406L661.119 204.695L660.812 208.945L660.504 213.195H696.042H731.581L732.185 210.788C733.53 205.429 731.553 204.292 720.352 203.98L710.119 203.695L709.619 142.695L709.119 81.695L685.345 81.427C665.447 81.202 661.48 81.392 661.02 82.592ZM737.119 83.195C735.75 87.508 737.267 88.893 743.948 89.429C747.401 89.706 751.2 90.541 752.389 91.283C754.873 92.834 752.942 88.389 783.618 163.195C790.742 180.566 798.666 199.97 801.383 206.695C803.938 213.019 804.226 213.195 812.026 213.195H819.188L824.083 202.445C826.775 196.532 830.4 188.095 832.139 183.695C833.878 179.295 837.151 171.645 839.412 166.695C843.444 157.871 849.408 144.108 858.263 123.195C870.252 94.88 873.472 90.479 882.904 89.505C888.931 88.883 890.437 87.348 889.114 83.179C888.49 81.215 887.785 81.169 861.796 81.429L835.119 81.695V85.195V88.695L843.119 89.223C855.955 90.071 856.203 91.144 848.176 111.137C845.183 118.594 841.184 128.745 839.29 133.695C837.396 138.645 834.283 146.52 832.371 151.195C830.46 155.87 826.764 165.225 824.158 171.985C820.241 182.144 819.177 184.073 818.019 183.112C817.249 182.473 816.619 181.498 816.619 180.946C816.619 180.393 812.752 169.986 808.025 157.818C780.721 87.533 782.023 92.01 788.369 90.248C790.432 89.675 794.923 89.204 798.35 89.201C804.868 89.195 806.986 87.201 805.258 82.697C804.225 80.004 737.978 80.488 737.119 83.195ZM1262.81 85.427L1263.12 89.695L1273.12 90.195C1278.62 90.47 1283.68 91.059 1284.37 91.504C1286.24 92.716 1286.19 201.479 1284.31 203.034C1283.59 203.63 1278.53 204.248 1273.06 204.406L1263.12 204.695L1262.81 208.945L1262.5 213.195H1298.09C1337.12 213.195 1336.11 213.359 1334 207.328C1333.1 204.758 1332.83 204.683 1322.6 204.195L1312.12 203.695L1311.62 142.695L1311.12 81.695L1286.81 81.427L1262.5 81.159L1262.81 85.427ZM505.983 91.674C534.68 105.25 545.449 161.77 525.272 192.905C512.019 213.355 478.826 209.423 464.417 185.695C452.836 166.623 450.2 127.983 459.097 107.695C465.945 92.078 489.688 83.965 505.983 91.674ZM965.243 91.993C975.111 97.052 981.722 111.064 982.794 129.195L983.119 134.695L958.619 135.003C945.144 135.172 930.375 135.017 925.8 134.657L917.48 134.004L918.125 127.349C920.865 99.094 944.5 81.359 965.243 91.993ZM86.6187 142.524C86.6187 160.815 105.055 198.119 123.616 217.384L131.119 225.173L138.119 223.661C163.397 218.2 187.631 202.691 203.8 181.625C208.388 175.647 216.206 162.384 215.487 161.798C215.285 161.633 211.069 160.951 206.119 160.282C193.049 158.515 178.598 154.858 166.693 150.305L156.267 146.317L152.16 148.724C132.776 160.084 109.932 157.867 88.8687 142.584C86.8477 141.117 86.6187 141.111 86.6187 142.524ZM1429.39 160.242L1429.67 178.625L1422.68 185.334C1409.91 197.608 1396.55 202.157 1386.12 197.778C1363.66 188.344 1369.07 156.826 1394.53 148.784C1403.9 145.822 1425.68 141.21 1428.12 141.671C1428.73 141.787 1429.22 149 1429.39 160.242Z" fill="black"/>
</svg>
