<svg width="50" height="50" viewBox="0 0 50 50" fill="none" xmlns="http://www.w3.org/2000/svg">
<g clip-path="url(#clip0_103_357)">
<path d="M49.6563 36.4506C49.6535 34.501 49.6437 30.5115 49.6437 29.094C49.6437 29.094 49.6437 29.0742 49.6447 29.0359C40.8526 23.9776 27.6137 16.3258 21.601 12.8457C16.5096 15.7907 6.26278 21.7117 0.334717 25.1171C0.334717 26.7707 0.346788 31.6703 0.345809 33.1238C5.7532 36.2557 19.9131 44.4397 28.6184 49.4452C34.7981 45.8928 44.9024 40.0536 49.6571 37.3015V37.2266C49.6571 37.0369 49.6568 36.7713 49.6563 36.4506Z" fill="white"/>
<path d="M21.4837 12.9126C16.3722 15.8696 6.29098 21.6949 0.398804 25.0799C4.86369 27.6659 21.0084 36.9992 28.4923 41.2915C33.9568 38.1596 45.923 31.2468 49.6437 29.093C49.6437 29.093 49.6437 29.0733 49.6447 29.0349C40.8526 23.9766 27.6137 16.3249 21.601 12.8447L21.4837 12.9126Z" fill="#5199D1"/>
<path d="M49.9826 36.4507C49.9808 35.1349 49.9782 33.8191 49.9751 32.5032C49.9728 31.3483 49.9457 30.1902 49.971 29.0355C49.971 28.9785 49.9561 28.9225 49.9278 28.8731C49.8995 28.8237 49.8587 28.7825 49.8095 28.7538C45.9273 26.5202 42.047 24.2834 38.1686 22.0434C34.3216 19.8228 30.4754 17.6008 26.6302 15.3774C25.0084 14.4398 23.3869 13.5018 21.7656 12.5636C21.7156 12.5347 21.6588 12.5195 21.601 12.5195C21.5432 12.5195 21.4864 12.5347 21.4363 12.5636C18.8524 14.0586 16.2678 15.5526 13.6826 17.0456C10.6548 18.7946 7.62623 20.5422 4.5969 22.2884C3.12187 23.1382 1.64635 23.9873 0.170344 24.8357C0.121295 24.8646 0.0806134 24.9057 0.0522992 24.9551C0.0239851 25.0045 0.00901351 25.0604 0.00885667 25.1174C0.00885667 27.0014 0.0116841 28.8855 0.0173388 30.7696C0.0182088 31.2348 0.0189157 31.7 0.0194594 32.1651C-0.00502308 32.4988 -0.00289582 32.834 0.025821 33.1674C0.0633384 33.3896 0.306875 33.4782 0.482554 33.5803L0.929826 33.8387L1.91376 34.4081C3.56322 35.3628 5.21333 36.3172 6.86409 37.2712C8.89351 38.4446 10.9231 39.6173 12.953 40.7895C15.1107 42.0357 17.2686 43.2814 19.4267 44.5264C21.5013 45.7231 23.5764 46.9193 25.652 48.115C26.5736 48.6458 27.4821 49.2253 28.4274 49.7123C28.7062 49.8558 28.968 49.6211 29.2068 49.4839L29.8919 49.0901C30.3726 48.8136 30.8532 48.5369 31.3339 48.2602C33.475 47.0271 35.6153 45.7928 37.7547 44.5574C39.903 43.3177 42.0507 42.0772 44.1979 40.8358C45.956 39.8197 47.7139 38.8029 49.4715 37.7855C49.6577 37.6777 49.9389 37.5788 49.9772 37.3443C50.0028 37.0468 50.0045 36.7478 49.9823 36.45C49.9823 36.0302 49.3298 36.0294 49.3298 36.45C49.3298 36.7335 49.3298 37.0172 49.3298 37.3009L49.4913 37.0192C47.0063 38.4576 44.5207 39.8948 42.0343 41.3309C39.022 43.0708 36.0093 44.8096 32.9961 46.5471C31.482 47.4198 29.9675 48.2917 28.4525 49.1629H28.7819C24.8189 46.8842 20.8582 44.6015 16.8998 42.3148C12.9895 40.0577 9.0799 37.7988 5.17092 35.538C3.61705 34.6398 2.06361 33.7412 0.51061 32.8422L0.672098 33.1239C0.673403 30.9521 0.66541 28.7804 0.662311 26.6086C0.66155 26.1114 0.661115 25.6143 0.661006 25.1172L0.499355 25.3989C3.28499 23.7987 6.06888 22.1953 8.85104 20.5887C11.824 18.873 14.7968 17.1561 17.7692 15.4379C19.1016 14.6676 20.4337 13.8972 21.7656 13.1267H21.4363C24.6543 14.9894 27.8732 16.8506 31.0929 18.7104C35.1245 21.0397 39.1569 23.3675 43.1903 25.6937C45.2864 26.9024 47.3831 28.1102 49.4804 29.317L49.3187 29.0353C49.2934 30.19 49.3205 31.3482 49.3228 32.5031C49.3254 33.8189 49.3279 35.1347 49.3303 36.4505C49.3308 36.8704 49.9832 36.8712 49.9826 36.4507Z" fill="#211715"/>
<path d="M28.231 41.2701C28.231 43.525 28.2349 45.78 28.2427 48.0349C28.2435 48.491 28.244 48.9471 28.2443 49.4033C28.2443 49.8232 28.8968 49.8239 28.8968 49.4033C28.8968 47.2012 28.8887 44.9991 28.8851 42.797C28.8842 42.2878 28.8836 41.7785 28.8834 41.2692C28.8834 40.8494 28.231 40.8487 28.231 41.2692V41.2701Z" fill="#211715"/>
<path d="M0.55971 25.5488C1.87662 26.3119 3.19386 27.0744 4.51143 27.8362C6.36424 28.9079 8.21743 29.9791 10.071 31.0497C12.175 32.2655 14.2793 33.4806 16.3837 34.6952C18.4541 35.8901 20.5249 37.0842 22.5961 38.2773C24.3479 39.2864 26.1003 40.2942 27.8534 41.3009L28.3927 41.6108C28.7574 41.8201 29.0866 41.2565 28.7218 41.0474C27.0274 40.0759 25.3339 39.1026 23.6413 38.1276C21.5938 36.9485 19.5468 35.7687 17.5004 34.5879C15.3844 33.3669 13.2688 32.1454 11.1535 30.9234C9.25411 29.8251 7.35475 28.7268 5.4554 27.6284C4.05671 26.8194 2.65818 26.01 1.25982 25.2002L0.889047 24.9854C0.524966 24.7745 0.196119 25.3382 0.55971 25.5488Z" fill="#211715"/>
<path d="M28.561 43.7368C27.0993 42.8987 25.6386 42.0589 24.1788 41.2176C22.3978 40.1921 20.6174 39.1657 18.8375 38.1384C17.0015 37.0791 15.1659 36.0193 13.3307 34.959C11.6739 34.0021 10.0172 33.0446 8.36082 32.0867C7.14656 31.3845 5.93236 30.6821 4.71821 29.9797C4.61033 29.917 4.5024 29.8545 4.39442 29.7921C4.03034 29.5811 3.70149 30.1447 4.06508 30.3555C5.20789 31.0174 6.35098 31.6789 7.49433 32.3398C9.11029 33.275 10.7264 34.2092 12.3427 35.1424C14.1686 36.1972 15.9946 37.2517 17.8209 38.3057C19.6224 39.3452 21.4242 40.3842 23.2263 41.4226C24.7379 42.2937 26.2507 43.1636 27.7646 44.0325L28.2316 44.3003C28.5965 44.5095 28.9255 43.9459 28.561 43.7369V43.7368Z" fill="#211715"/>
<path d="M26.7703 45.3482C25.3545 44.5364 23.9408 43.7208 22.5292 42.9014C22.1651 42.6906 21.8363 43.2542 22.1998 43.4648C23.6121 44.2828 25.0258 45.0984 26.4409 45.9116C26.8058 46.1208 27.1348 45.5573 26.7703 45.3482Z" fill="#211715"/>
<path d="M40.6856 43.4042C39.9323 43.8368 37.4894 45.2474 36.3783 45.8876C35.3061 45.2719 33.4044 44.176 31.9845 43.3565C33.3263 42.5847 34.8022 41.7348 36.2951 40.873C37.7524 41.7139 39.6659 42.8184 40.6856 43.4042Z" fill="#7ABEE6"/>
<path d="M31.9845 43.6824H31.9862L31.8216 43.6379C33.1859 44.427 34.5514 45.2141 35.918 45.9992C36.0434 46.0931 36.1846 46.1637 36.3349 46.2077C36.498 46.2297 36.6494 46.1079 36.7845 46.0299L37.556 45.5852L39.3099 44.5739C39.8232 44.2777 40.3366 43.9818 40.8502 43.6862C40.8987 43.6569 40.9387 43.6155 40.9665 43.5662C40.9943 43.5168 41.0089 43.4611 41.0089 43.4045C41.0089 43.3478 40.9943 43.2922 40.9665 43.2428C40.9387 43.1935 40.8987 43.1521 40.8502 43.1228C39.3853 42.2817 37.9218 41.438 36.4599 40.5917C36.0955 40.3812 35.7666 40.945 36.1305 41.1551C37.5934 41.9997 39.0568 42.8434 40.5209 43.6862V43.1221C39.0838 43.9475 37.6484 44.7753 36.2145 45.6056H36.5437C35.826 45.1933 35.1083 44.78 34.3905 44.3659C33.9882 44.1343 33.5858 43.9024 33.1835 43.6704L32.5845 43.3244C32.417 43.2277 32.1827 43.0293 31.9847 43.0293C31.5648 43.0293 31.5642 43.6818 31.9847 43.6818L31.9845 43.6824Z" fill="#211715"/>
<path d="M46.7842 34.4378C44.7769 35.6002 42.7689 36.7609 40.76 37.92C38.0587 39.4798 35.3563 41.038 32.653 42.5949C31.255 43.3996 29.8564 44.2035 28.4574 45.0066C28.093 45.2152 28.4214 45.7791 28.7868 45.57C31.3703 44.091 33.9507 42.606 36.5277 41.1149C39.0812 39.6428 41.6339 38.1693 44.1858 36.6944C45.1617 36.1303 46.1375 35.5658 47.1133 35.001C47.4766 34.7906 47.1484 34.2265 46.784 34.4376L46.7842 34.4378Z" fill="#211715"/>
<path d="M28.6926 41.5531C31.5275 39.9282 34.3596 38.2985 37.1888 36.6639C40.2411 34.9039 43.2925 33.1422 46.3429 31.3789C47.4981 30.7113 48.6531 30.0433 49.808 29.375C50.1713 29.1647 49.8431 28.6007 49.4787 28.8116C47.0685 30.2067 44.6575 31.6002 42.2457 32.9921C39.0768 34.822 35.9069 36.6501 32.7358 38.4765C31.2786 39.3153 29.8211 40.1529 28.3631 40.9895C27.9989 41.1983 28.3271 41.7622 28.6924 41.5529L28.6926 41.5531Z" fill="#211715"/>
<path d="M42.7777 24.4922C42.7756 23.0368 42.7683 20.0583 42.7683 18.9996C42.7683 18.9996 42.7683 18.9848 42.7691 18.9562C36.2055 15.18 26.3216 9.46762 21.8329 6.86914C18.0323 9.06831 10.382 13.4885 5.95642 16.0309C5.95642 17.2654 5.96556 20.9231 5.96474 22.0082C10.0018 24.3457 20.5728 30.4563 27.0723 34.1932C31.686 31.5412 39.2292 27.1818 42.7789 25.1274V25.0714C42.7782 24.9298 42.7781 24.7316 42.7777 24.4922Z" fill="white"/>
<path d="M21.548 7.03389C17.6609 9.28265 10.2742 13.5505 5.95642 16.0309C5.95642 17.2654 5.96556 20.9231 5.96474 22.0082C7.72039 23.0248 10.7115 24.755 14.0669 26.6933C14.0644 25.2037 14.058 21.9128 14.0574 20.6607C20.8811 16.7187 26.6301 13.3945 29.8726 11.5175C26.6603 9.66174 23.753 7.98047 21.8329 6.86865L21.548 7.03389Z" fill="#7ABEE6"/>
<path d="M43.104 24.4921C43.1012 22.6488 43.0551 20.7996 43.0954 18.9562C43.0954 18.8992 43.0804 18.8432 43.0521 18.7938C43.0237 18.7443 42.9829 18.7032 42.9337 18.6744C40.0363 17.0074 37.1401 15.3381 34.2452 13.6667C31.3736 12.0092 28.5027 10.3508 25.6325 8.69157C24.4211 7.99005 23.2094 7.28902 21.9976 6.58848C21.9475 6.55962 21.8907 6.54443 21.8329 6.54443C21.7751 6.54443 21.7183 6.55962 21.6682 6.58848C19.7365 7.70563 17.8042 8.82234 15.8715 9.93862C13.6167 11.241 11.3615 12.5422 9.10563 13.8424C8.00131 14.4786 6.89673 15.1143 5.79187 15.7494C5.7428 15.7783 5.70209 15.8195 5.67375 15.8689C5.64541 15.9182 5.63041 15.9742 5.63022 16.0311C5.63022 17.4544 5.63239 18.8775 5.63674 20.3006C5.63739 20.6451 5.63788 20.9896 5.63821 21.3341C5.63821 21.5662 5.58813 21.8695 5.65028 22.0952C5.71667 22.3363 6.17063 22.5046 6.37616 22.6237L7.12651 23.0583C9.87593 24.6492 12.6261 26.2389 15.3769 27.8274C18.532 29.6496 21.6881 31.4701 24.8451 33.2889L25.9253 33.9107L26.4226 34.1968C26.5893 34.3079 26.7641 34.4064 26.9454 34.4914C27.1608 34.5748 27.3621 34.4024 27.5416 34.2991L28.0843 33.9869C28.4502 33.7765 28.8159 33.5659 29.1816 33.3553C30.7747 32.4379 32.3672 31.5196 33.9594 30.6004C36.8753 28.9175 39.7903 27.233 42.7045 25.5466C42.8826 25.4436 43.0872 25.3631 43.1038 25.1274C43.1187 24.9178 43.1038 24.702 43.1038 24.4913C43.1038 24.0716 42.4514 24.0707 42.4514 24.4913C42.4514 24.703 42.4514 24.915 42.4514 25.1274L42.613 24.8457C40.7619 25.9171 38.9103 26.9876 37.0582 28.0574C34.8051 29.3593 32.5513 30.66 30.2969 31.9597C29.1669 32.6108 28.0368 33.2615 26.9065 33.9117H27.2358C24.2808 32.2124 21.3276 30.5106 18.3762 28.8061C15.4601 27.1225 12.5447 25.4377 9.62973 23.7518C8.46278 23.0776 7.29604 22.4026 6.12952 21.7267L6.29101 22.0084C6.29199 20.3918 6.28612 18.7751 6.28367 17.1583C6.28367 16.7826 6.28334 16.4069 6.28269 16.0311L6.1212 16.3128C8.20358 15.1166 10.2846 13.9179 12.3643 12.7167C14.5785 11.4391 16.7922 10.1607 19.0053 8.88128C20.0029 8.30493 21.0004 7.72819 21.9976 7.15108H21.6682C24.07 8.54118 26.4724 9.93046 28.8755 11.3189C31.8846 13.0576 34.8944 14.795 37.9049 16.5312C39.4709 17.4338 41.0373 18.3364 42.6044 19.239L42.4429 18.9573C42.4024 20.8005 42.4487 22.6495 42.4515 24.4932C42.4522 24.9119 43.1046 24.9128 43.104 24.4921Z" fill="#211715"/>
<path d="M26.7 28.09C26.7 29.4706 26.7097 30.8511 26.7099 32.2317C26.7099 32.6514 27.3624 32.6523 27.3624 32.2317C27.3624 30.8511 27.3526 29.4706 27.3524 28.09C27.3524 27.6703 26.7 27.6695 26.7 28.09Z" fill="#211715"/>
<path d="M27.2536 27.8881C24.7777 26.4686 22.3045 25.0446 19.8339 23.6162C17.1685 22.0783 14.5037 20.5391 11.8396 18.9985C10.8306 18.4151 9.82169 17.8313 8.81297 17.2471C8.44905 17.0363 8.12004 17.5999 8.48363 17.8105C10.5884 19.0296 12.6939 20.2473 14.8001 21.4634C17.5676 23.0619 20.3358 24.6593 23.1049 26.2555C24.3773 26.9885 25.6504 27.7206 26.9242 28.4515C27.2891 28.6608 27.6181 28.0973 27.2536 27.8881Z" fill="#211715"/>
<path d="M27.1691 28.3725C28.9583 27.3471 30.7458 26.3186 32.5316 25.2868C34.4512 24.1797 36.3703 23.0718 38.2889 21.9629C39.0236 21.5388 39.7581 21.114 40.4925 20.6885C40.8559 20.4782 40.5277 19.9141 40.1633 20.125C38.6421 21.0059 37.1203 21.8855 35.5979 22.7638C33.6056 23.9142 31.6126 25.0637 29.6188 26.2121C28.6927 26.745 27.7664 27.2773 26.8398 27.8091C26.4755 28.0179 26.8039 28.5819 27.1691 28.3725Z" fill="#211715"/>
<path d="M14.2403 20.9316C16.628 19.5525 19.0153 18.173 21.4024 16.7931C23.341 15.673 25.2795 14.5521 27.2179 13.4304C28.047 12.9508 28.876 12.4711 29.705 11.9912C30.0682 11.7809 29.7402 11.2169 29.3756 11.4278C27.7728 12.3556 26.1695 13.2833 24.5658 14.2107C22.4087 15.4581 20.2514 16.7051 18.094 17.9517C16.6999 18.7573 15.3058 19.5628 13.9117 20.3682C13.5481 20.5783 13.8763 21.1422 14.2408 20.9316H14.2403Z" fill="#211715"/>
<path d="M13.7303 20.6579C13.7325 22.5081 13.7403 24.3584 13.7405 26.2086C13.7405 26.6285 14.3929 26.6292 14.3929 26.2086C14.3929 24.3584 14.3849 22.5081 14.3828 20.6579C14.3828 20.2382 13.7303 20.2373 13.7303 20.6579Z" fill="#211715"/>
<path d="M24.0275 20.7682C24.0097 21.1177 23.9209 21.4598 23.7665 21.7738C23.4425 22.41 22.8174 22.8454 22.1593 23.1227C21.5011 23.4 21.4068 23.3279 20.7258 23.5427C20.1948 23.7104 19.6389 23.9516 19.4114 24.4888C19.316 24.764 19.2594 25.0512 19.2432 25.3421C19.1943 26.4428 19.2031 27.5876 19.1894 28.7204C19.1902 28.7995 19.1658 28.8767 19.1198 28.9409C19.0737 29.0052 19.0084 29.0531 18.9333 29.0776C18.1569 29.3038 17.3388 29.3474 16.5428 29.205C16.4604 29.1777 16.3871 29.1285 16.3307 29.0626C16.2447 28.9814 16.1826 28.8781 16.1513 28.764C16.0899 28.2498 16.0604 27.7546 16.043 27.2587C15.4732 27.3853 14.822 27.6039 14.216 27.4559C13.7947 27.3532 13.4004 27.0318 13.3352 26.603L13.2817 26.2488C13.1876 24.5165 13.0936 24.7346 12.9995 23.0028C12.9678 22.42 12.9424 21.8053 13.2086 21.2858C13.4376 20.8972 13.7539 20.5672 14.1325 20.3219C14.863 19.7879 15.6551 19.3439 16.4919 18.9995C16.4919 18.9995 22.9377 20.5457 24.0275 20.7682Z" fill="#5199D1"/>
<path d="M22.7096 21.3489C23.0848 21.1388 23.5681 20.9023 24.0346 20.6227C24.8088 20.1594 25.5448 19.574 25.697 18.7882C25.7491 18.4482 25.7474 18.1021 25.6921 17.7626C25.5431 16.56 25.2587 15.0251 24.5093 14.0358C24.0526 13.4304 23.3316 12.6493 22.6285 12.2891C22.6285 12.2891 21.4089 11.6986 20.224 11.6213C18.3217 11.4973 17.3482 12.3082 17.3482 12.3082C16.2459 13.1434 15.4814 14.348 15.195 15.7011L14.8629 17.6122L14.743 18.3018L22.7096 21.3489Z" fill="white"/>
<path d="M15.0839 30.7628C15.0492 30.592 15.052 30.4157 15.0923 30.2461C15.1325 30.0765 15.2092 29.9177 15.317 29.7808C15.5637 29.4878 15.8648 29.2455 16.2037 29.0671C16.5463 29.3353 17.938 29.3872 18.934 29.0785C18.9679 29.0681 18.9999 29.0527 19.0291 29.0327C19.0414 29.1489 19.0492 29.2208 19.0492 29.2208C19.1528 30.1669 18.5797 30.5473 18.216 30.7637C17.7828 31.021 17.3163 31.2174 16.8295 31.3474C16.5369 31.4377 16.2292 31.4679 15.9247 31.4361C15.7726 31.4181 15.6263 31.3672 15.496 31.2869C15.3657 31.2066 15.2545 31.0988 15.1701 30.9711C15.1318 30.906 15.1028 30.8359 15.0839 30.7628Z" fill="white"/>
<path d="M12.1701 28.7123C12.2143 28.5876 12.2772 28.4703 12.3566 28.3644C12.6247 28.0532 12.9512 27.7975 13.3177 27.6118C13.5044 27.4832 13.716 27.3953 13.9388 27.3539C14.0276 27.3984 14.121 27.4327 14.2175 27.4563C14.8234 27.6043 15.4744 27.3859 16.0444 27.2593C16.0566 27.6165 16.0755 27.9736 16.108 28.3375L15.8521 28.3797C15.8712 28.7875 15.5095 29.1058 15.1586 29.3144C14.7398 29.5632 14.2887 29.753 13.818 29.8786C13.5352 29.9661 13.2375 29.9949 12.9432 29.9635C12.7962 29.9465 12.6548 29.8975 12.5288 29.82C12.4029 29.7424 12.2955 29.6381 12.2142 29.5146C12.1488 29.3921 12.111 29.2569 12.1034 29.1183C12.0958 28.9797 12.1185 28.8412 12.1701 28.7123Z" fill="white"/>
<path d="M18.723 29.2204C18.756 29.4249 18.7341 29.6345 18.6596 29.8278C18.5851 30.021 18.4606 30.1911 18.2989 30.3205C17.8297 30.6545 17.3013 30.8962 16.7417 31.0325C16.2892 31.1522 15.39 31.231 15.3812 30.5373C15.3733 29.9174 16.0131 29.5585 16.475 29.285C16.8363 29.0716 16.5077 28.5072 16.1457 28.7216C15.5997 29.0444 15.0515 29.4059 14.8203 30.0265C14.7039 30.3106 14.6963 30.6277 14.7991 30.917C14.9019 31.2064 15.1078 31.4476 15.3774 31.5946C16.0043 31.9229 16.7434 31.7469 17.3732 31.5184C17.8879 31.3483 18.3691 31.0897 18.7951 30.7544C19.0099 30.5658 19.1752 30.3274 19.2764 30.0601C19.3776 29.7927 19.4115 29.5046 19.3753 29.221C19.3731 29.1352 19.338 29.0535 19.2773 28.9928C19.2166 28.9321 19.1349 28.897 19.049 28.8948C18.9627 28.8954 18.8801 28.93 18.819 28.991C18.758 29.0521 18.7234 29.1347 18.7228 29.221L18.723 29.2204Z" fill="#211715"/>
<path d="M13.8086 27.0457C13.5202 27.1237 13.2472 27.2506 13.0017 27.4209C12.757 27.5613 12.5284 27.728 12.3198 27.9179C11.9182 28.3006 11.6541 28.8981 11.8319 29.4512C12.0199 30.0362 12.6335 30.3202 13.2142 30.305C13.8404 30.2887 14.4823 30.0388 15.0335 29.7568C15.5758 29.4795 16.1833 29.0583 16.1787 28.38C16.176 27.9603 15.5235 27.9595 15.5263 28.38C15.5295 28.8594 14.8222 29.1483 14.466 29.3084C14.2081 29.4227 13.9407 29.5141 13.6667 29.5814C13.3909 29.6717 13.0942 29.6769 12.8154 29.5964C12.344 29.4194 12.3557 28.9068 12.6242 28.5494C12.7942 28.3458 13 28.175 13.2315 28.0455C13.4582 27.8786 13.7126 27.7531 13.983 27.6749C14.3942 27.5912 14.2202 26.9621 13.8096 27.0457H13.8086Z" fill="#211715"/>
<path d="M16.4063 18.6853C15.4792 19.0623 14.6053 19.5588 13.8068 20.1623C13.4071 20.4384 13.0847 20.8121 12.8701 21.2479C12.6939 21.7056 12.6222 22.1969 12.66 22.6859C12.6836 23.3898 12.7513 24.0887 12.8358 24.7872C12.9121 25.4186 12.9084 26.0618 13.0218 26.6875C13.0721 26.9105 13.1762 27.1177 13.3252 27.291C13.4742 27.4643 13.6633 27.5985 13.8762 27.6818C14.4242 27.9173 15.0279 27.8297 15.5915 27.7023C16.001 27.6097 15.8277 26.9805 15.4181 27.0732C14.8092 27.2108 13.7816 27.3178 13.6462 26.4835C13.5569 25.9328 13.5576 25.365 13.4904 24.8055C13.4199 24.2183 13.3622 23.6335 13.3294 23.043C13.2833 22.6272 13.2974 22.2069 13.3715 21.7951C13.4803 21.3991 13.7169 21.0502 14.0445 20.8025C14.8099 20.1814 15.6649 19.6797 16.5805 19.3144C16.6625 19.2891 16.7318 19.2335 16.7742 19.1589C16.8167 19.0843 16.829 18.9964 16.8089 18.913C16.7856 18.8297 16.7303 18.7591 16.6552 18.7163C16.5801 18.6735 16.4911 18.6622 16.4076 18.6846L16.4063 18.6853Z" fill="#211715"/>
<path d="M16.3386 21.831C15.7796 22.2196 15.6393 22.8288 15.6292 23.4692C15.6189 24.1188 15.6535 24.7682 15.6737 25.4172C15.7003 26.2685 15.6966 27.1213 15.7536 27.9715C15.7801 28.3654 15.7512 28.8468 16.0013 29.1732C16.2412 29.4864 16.5353 29.5521 16.9074 29.5913C17.2645 29.6261 17.6243 29.6249 17.9812 29.5875C18.3525 29.5652 18.7191 29.4932 19.0712 29.3733C19.4969 29.2074 19.5155 28.7993 19.5194 28.4046C19.5236 27.956 19.5253 27.5074 19.5297 27.0592C19.5339 26.6156 19.5406 26.172 19.5553 25.7286C19.5457 25.3655 19.5935 25.0032 19.697 24.6551C19.9148 24.0653 20.6878 23.8712 21.232 23.7399C21.9376 23.5696 22.6169 23.3484 23.2044 22.9034C23.5598 22.6379 23.849 22.2939 24.0496 21.8982C24.2502 21.5025 24.3567 21.0659 24.3608 20.6223C24.3771 20.2023 23.7246 20.2031 23.7083 20.6223C23.7067 20.956 23.6294 21.285 23.4822 21.5845C23.335 21.8841 23.1218 22.1462 22.8586 22.3514C22.3918 22.7004 21.8537 22.942 21.2827 23.059C20.7012 23.1882 20.0836 23.3526 19.6075 23.7278C19.0788 24.1437 18.9483 24.7794 18.9146 25.4198C18.8717 26.2284 18.8767 27.0404 18.8712 27.8503C18.8699 28.0483 18.8683 28.2463 18.8664 28.4442C18.8776 28.5364 18.8766 28.6296 18.8633 28.7215C18.8449 28.7739 18.8526 28.7541 18.8182 28.7731C18.6685 28.8322 18.5112 28.8695 18.351 28.8838C18.1854 28.9137 18.0184 28.9347 17.8505 28.9468C17.5366 28.9727 17.2209 28.9702 16.9074 28.9393C16.8046 28.9383 16.7031 28.9172 16.6084 28.8773C16.4565 28.7869 16.4606 28.6119 16.4453 28.4599C16.3706 27.6917 16.3587 26.92 16.3433 26.149C16.3286 25.4164 16.2913 24.6846 16.2815 23.9519C16.2779 23.6762 16.2733 23.3973 16.2945 23.1228C16.2963 23.1001 16.2981 23.0773 16.3004 23.0544C16.3071 22.9892 16.2962 23.0743 16.3022 23.0437C16.3182 22.9568 16.3419 22.8715 16.3728 22.7887C16.4301 22.6313 16.5325 22.4943 16.6673 22.3948C17.0098 22.1568 16.6836 21.5909 16.3379 21.8315L16.3386 21.831Z" fill="#211715"/>
<path d="M17.1836 12.0262C16.0116 12.9079 15.1946 14.1807 14.8808 15.6134C14.7936 16.023 15.4224 16.198 15.51 15.7868C15.776 14.5167 16.4862 13.3831 17.5129 12.5896C17.5856 12.5441 17.6381 12.4726 17.6598 12.3897C17.6815 12.3067 17.6708 12.2186 17.6299 12.1433C17.5858 12.069 17.5143 12.0151 17.4308 11.9932C17.3472 11.9713 17.2584 11.9831 17.1836 12.0262Z" fill="#211715"/>
<path d="M15.182 18.9989C14.8192 18.7727 14.6683 18.3905 14.6091 17.9848C14.5427 17.53 14.6205 16.9511 15.2823 16.7857C15.52 16.7384 15.7669 16.7845 15.9715 16.9144C16.1869 17.0398 16.3615 17.2248 16.4741 17.4471C16.5867 17.6695 16.6326 17.9197 16.6062 18.1675C16.5615 18.7066 16.053 19.201 15.5177 19.1229C15.3984 19.1054 15.284 19.0632 15.182 18.9989Z" fill="white"/>
<path d="M15.3466 18.7171C15.2717 18.6694 15.2055 18.6092 15.1509 18.5392C15.18 18.5757 15.1378 18.5194 15.1316 18.5103C15.1162 18.4869 15.1015 18.4631 15.0876 18.4388C15.0765 18.4193 15.0659 18.3995 15.0558 18.3795C15.0558 18.3795 15.0155 18.2876 15.0337 18.3336C14.9965 18.2371 14.9677 18.1375 14.9478 18.0359C14.9419 18.0074 14.9367 17.9788 14.9315 17.95C14.9277 17.9278 14.9191 17.849 14.9285 17.9364C14.9241 17.8952 14.9199 17.8549 14.9178 17.8126C14.9146 17.7365 14.9163 17.6602 14.9228 17.5843C14.9274 17.5231 14.9228 17.5843 14.9212 17.5952C14.9254 17.5745 14.9287 17.5534 14.9334 17.5327C14.9435 17.4869 14.9582 17.4433 14.9727 17.3988C14.9491 17.4722 14.9868 17.3716 14.999 17.3499C15.0112 17.3282 15.0774 17.2459 15.0292 17.2995C15.0559 17.2695 15.0841 17.2409 15.1137 17.2138C15.1515 17.1797 15.05 17.2504 15.1254 17.2052C15.1507 17.1902 15.1743 17.1737 15.2011 17.1597C15.2192 17.15 15.2376 17.1406 15.2564 17.1324C15.2096 17.1528 15.261 17.1324 15.2688 17.1295C15.3173 17.1136 15.3667 17.1005 15.4167 17.0903C15.3438 17.1027 15.4469 17.0923 15.4738 17.0928C15.5007 17.0933 15.5277 17.0947 15.5544 17.0977C15.5774 17.1 15.5764 17.1 15.5516 17.0977C15.5689 17.1006 15.5861 17.1044 15.6029 17.1086C15.698 17.1311 15.7871 17.1742 15.8638 17.2349C15.8676 17.2375 15.9128 17.2717 15.8802 17.2455C15.8978 17.259 15.9147 17.2735 15.9315 17.2882C15.9765 17.3272 16.0189 17.3688 16.0588 17.413C16.1634 17.5296 16.2348 17.6722 16.2653 17.8258C16.2641 17.8205 16.2835 17.9218 16.2764 17.8762C16.2692 17.8307 16.2819 17.9353 16.2814 17.9294C16.2851 17.9796 16.2861 18.03 16.2845 18.0803C16.2845 18.1093 16.2822 18.1382 16.2798 18.1671C16.2809 18.1529 16.2917 18.1116 16.2782 18.1788C16.267 18.2329 16.2524 18.2863 16.2344 18.3385C16.2018 18.4364 16.2485 18.3141 16.2217 18.3677C16.207 18.3977 16.1912 18.4269 16.1741 18.4556C16.1543 18.4955 16.1282 18.5319 16.0968 18.5635C16.0601 18.6045 16.0203 18.6426 15.9779 18.6776C16.0131 18.6488 15.9712 18.682 15.9653 18.6858C15.9379 18.7034 15.9108 18.7214 15.8821 18.737C15.8099 18.7763 15.7299 18.7991 15.6479 18.8039C15.5407 18.8073 15.4352 18.7767 15.3464 18.7165C15.2717 18.6728 15.1827 18.6606 15.099 18.6825C15.0153 18.7045 14.9437 18.7588 14.9001 18.8335C14.8564 18.9082 14.8442 18.9972 14.8661 19.0809C14.8881 19.1646 14.9424 19.2362 15.0171 19.2799C15.6206 19.6387 16.322 19.395 16.7015 18.8406C16.8582 18.5914 16.9409 18.3028 16.9398 18.0084C16.9386 17.714 16.8538 17.426 16.6951 17.1781C16.372 16.6812 15.7653 16.3118 15.1618 16.4795C14.908 16.5497 14.6837 16.7001 14.5225 16.9083C14.3612 17.1165 14.2716 17.3712 14.2671 17.6345C14.2268 18.2601 14.4814 18.9331 15.0174 19.2799C15.0921 19.3236 15.1811 19.3358 15.2648 19.3138C15.3063 19.3029 15.3452 19.284 15.3793 19.2581C15.4135 19.2322 15.4422 19.1998 15.4638 19.1628C15.4854 19.1258 15.4995 19.085 15.5054 19.0425C15.5112 19 15.5086 18.9569 15.4977 18.9154C15.4869 18.874 15.4679 18.8351 15.442 18.8009C15.4161 18.7668 15.3838 18.7381 15.3468 18.7165L15.3466 18.7171Z" fill="#211715"/>
<path d="M17.2802 14.694V18.3306C17.2802 18.7503 17.9326 18.7511 17.9326 18.3306V14.694C17.9326 14.2743 17.2802 14.2735 17.2802 14.694Z" fill="#211715"/>
<path d="M17.493 18.9492C16.4897 19.1192 15.4656 19.5107 13.986 19.7562C14.898 20.1958 16.6132 21.0402 18.2533 21.8604C19.6785 21.2802 20.0842 21.1791 20.9761 20.837C19.4839 20.0672 17.496 18.9487 17.493 18.9492Z" fill="white"/>
<path d="M17.4064 18.6348C16.2235 18.8397 15.0852 19.2419 13.8993 19.4419C13.6279 19.4876 13.5778 19.9207 13.8215 20.0381C14.7857 20.5033 15.7463 20.9775 16.7045 21.4532C16.9923 21.5961 17.28 21.7392 17.5676 21.8825C17.7183 21.9577 17.8682 22.0345 18.0196 22.1081C18.0968 22.1501 18.1835 22.1716 18.2714 22.1705C18.3594 22.1695 18.4456 22.146 18.5218 22.1022C18.9718 21.9208 19.4248 21.7474 19.8809 21.582C20.2753 21.4401 20.6712 21.3021 21.0629 21.1524C21.3041 21.0601 21.4116 20.6956 21.1408 20.556C20.368 20.1565 19.6031 19.7417 18.8409 19.3228C18.4481 19.1069 18.0618 18.8624 17.6579 18.6678C17.2813 18.4862 16.95 19.0486 17.3286 19.2312C17.7325 19.4258 18.1187 19.6703 18.5117 19.8862C19.2739 20.3051 20.0388 20.7199 20.8117 21.1194L20.8896 20.5232C19.9835 20.8697 19.0663 21.1811 18.167 21.5466L18.4184 21.5793C16.9993 20.8697 15.5801 20.1637 14.151 19.475L14.0731 20.0714C15.2589 19.8714 16.397 19.4693 17.5801 19.2643C17.6633 19.2408 17.7338 19.1855 17.7766 19.1105C17.8193 19.0354 17.8308 18.9465 17.8085 18.863C17.7839 18.7804 17.7283 18.7105 17.6534 18.668C17.5784 18.6255 17.4899 18.6136 17.4064 18.6348Z" fill="#211715"/>
<path d="M20.12 20.46C20.2163 19.6805 21.0322 19.0303 22.0799 19.4813C22.2381 19.9677 22.513 20.7031 22.682 21.3177C22.4516 21.504 22.2525 21.6658 22.2525 21.6658C21.9155 22.0726 21.171 21.9994 20.7661 21.753C20.5466 21.6213 20.3691 21.4297 20.2547 21.2007C20.1402 20.9716 20.0935 20.7147 20.12 20.46Z" fill="white"/>
<path d="M21.967 19.0926C21.5299 18.9532 21.0558 18.9887 20.6443 19.1914C20.2916 19.3789 20.0206 19.69 19.8833 20.0651C19.5604 20.9133 20.0712 21.8685 20.9022 22.1729C21.4106 22.359 22.106 22.332 22.4831 21.8956C22.5424 21.8335 22.5755 21.7509 22.5755 21.665C22.5755 21.5791 22.5424 21.4965 22.4831 21.4343C22.4216 21.3739 22.3387 21.34 22.2525 21.34C22.1662 21.34 22.0834 21.3739 22.0218 21.4343C22.0055 21.4524 21.9892 21.4689 21.9729 21.4867C21.9621 21.4987 21.9127 21.5382 21.9634 21.4997C21.929 21.5244 21.8927 21.5465 21.855 21.5658C21.8386 21.5744 21.7817 21.5929 21.8411 21.5728C21.8227 21.579 21.8047 21.5855 21.7861 21.5911C21.7391 21.6052 21.6911 21.6161 21.6426 21.6237C21.7078 21.6133 21.6426 21.6237 21.6251 21.6237C21.5998 21.6247 21.5747 21.6266 21.5494 21.6271C21.5036 21.6271 21.4581 21.6248 21.4124 21.6229C21.3961 21.6229 21.3292 21.6146 21.3928 21.6229C21.3728 21.6201 21.3527 21.6167 21.3328 21.6129C21.2787 21.6031 21.2251 21.5904 21.1723 21.5749C21.1304 21.5627 21.0893 21.5482 21.0483 21.533C21.1113 21.5563 21.0053 21.5123 20.9876 21.5028C20.9503 21.4824 20.9142 21.4597 20.8795 21.435C20.8001 21.3798 20.9058 21.4578 20.8622 21.4216C20.8397 21.403 20.8175 21.3841 20.796 21.3645C20.7647 21.3359 20.7345 21.3062 20.7055 21.2754C20.6931 21.2621 20.6808 21.2485 20.6688 21.2347C20.6688 21.2347 20.6128 21.1663 20.6433 21.2055C20.6738 21.2446 20.6223 21.1754 20.6219 21.175C20.6121 21.1608 20.6025 21.1464 20.5934 21.1319C20.5685 21.0929 20.5457 21.0525 20.525 21.011C20.5159 20.9926 20.5073 20.974 20.4988 20.9552C20.5032 20.9652 20.5223 21.0205 20.504 20.9655C20.4916 20.9275 20.4779 20.8903 20.4675 20.8513C20.4593 20.8208 20.4528 20.7902 20.4464 20.7593C20.4453 20.7535 20.4342 20.6778 20.4414 20.7337C20.4485 20.7897 20.4397 20.7071 20.4391 20.6965C20.436 20.6241 20.4375 20.5516 20.4435 20.4794C20.4392 20.5527 20.4417 20.4905 20.4489 20.4541C20.4575 20.4101 20.4684 20.3666 20.4815 20.3236C20.4905 20.2949 20.5017 20.2672 20.5112 20.2387C20.534 20.1693 20.4844 20.2824 20.5092 20.244C20.519 20.2287 20.5255 20.2096 20.5339 20.1933C20.5493 20.1633 20.5659 20.1339 20.5838 20.1051C20.5953 20.0863 20.6733 19.9804 20.6164 20.0509C20.6588 19.9976 20.705 19.9475 20.7549 19.901C20.7673 19.8897 20.8456 19.8255 20.8094 19.853C20.7668 19.8857 20.8281 19.8405 20.832 19.8379C20.8514 19.8253 20.8705 19.8123 20.8904 19.8002C20.9231 19.7801 20.958 19.7614 20.9929 19.7444C20.9969 19.7424 21.0679 19.7118 21.0186 19.7318C20.9722 19.7511 21.0483 19.7216 21.0578 19.7185C21.0999 19.7039 21.1429 19.6916 21.1863 19.6816C21.215 19.6749 21.3284 19.6604 21.2475 19.6679C21.344 19.6602 21.441 19.6592 21.5377 19.665C21.5517 19.665 21.6016 19.6726 21.5339 19.6632C21.5623 19.6671 21.5905 19.6721 21.6186 19.6777C21.6772 19.6893 21.7347 19.7046 21.792 19.7217C21.8333 19.7331 21.8764 19.7363 21.919 19.731C21.9615 19.7257 22.0026 19.7121 22.0398 19.6909C22.0771 19.6697 22.1098 19.6414 22.1361 19.6076C22.1625 19.5738 22.1819 19.5352 22.1933 19.4939C22.2046 19.4525 22.2078 19.4094 22.2025 19.3669C22.1972 19.3243 22.1836 19.2833 22.1624 19.246C22.1413 19.2088 22.113 19.176 22.0792 19.1497C22.0454 19.1234 22.0067 19.104 21.9654 19.0926H21.967Z" fill="#211715"/>
<path d="M22.966 16.8044C22.9536 16.7173 22.9611 16.7664 22.966 16.8172C22.9695 16.86 22.973 16.9026 22.9761 16.9453C22.9847 17.0675 22.9912 17.19 22.9969 17.3121C23.0092 17.5798 23.0182 17.8485 23.0118 18.1167C23.0106 18.169 23.009 18.2215 23.0054 18.2739C23.0035 18.3044 23.0015 18.4207 23.0018 18.3333C23.0018 18.4196 22.9723 18.3333 23.0139 18.3263C22.9681 18.3347 22.8803 18.4285 22.8325 18.467C22.5045 18.7319 22.1858 19.0079 21.8571 19.2719C21.8155 19.3121 21.7857 19.3629 21.7709 19.4189C21.7561 19.4748 21.7569 19.5338 21.7732 19.5893C21.977 20.2073 22.2075 20.8166 22.3794 21.4449C22.3933 21.4927 22.4178 21.5367 22.4512 21.5737C22.4845 21.6106 22.5258 21.6395 22.5719 21.6583C22.618 21.677 22.6677 21.6851 22.7174 21.6819C22.767 21.6787 22.8153 21.6643 22.8586 21.6399C24.2114 20.8831 26.1017 20.1121 26.0616 18.2763C26.0265 17.4688 25.8996 16.6679 25.6835 15.8891C25.514 15.1467 25.1991 14.4452 24.757 13.8252C24.222 13.1237 23.584 12.4236 22.794 12.007C22.4228 11.8113 22.0926 12.3742 22.4647 12.5704C23.095 12.9029 23.6091 13.4384 24.0571 13.9839C24.4761 14.5052 24.7855 15.1057 24.9669 15.7495C25.1601 16.4207 25.2954 17.1073 25.3713 17.8017C25.418 18.1901 25.4548 18.6088 25.3025 18.9797C25.1699 19.2674 24.9753 19.5221 24.7325 19.7255C24.0913 20.3068 23.277 20.6582 22.5293 21.0764L23.0085 21.2722C22.8366 20.6439 22.6061 20.0344 22.4024 19.4164L22.3184 19.7338C22.6699 19.4516 23.0097 19.1549 23.3623 18.8742C23.607 18.6799 23.6502 18.4902 23.6621 18.1909C23.6866 17.6701 23.6644 17.1482 23.5959 16.6315C23.5726 16.5482 23.5173 16.4776 23.4422 16.4348C23.3671 16.3921 23.2781 16.3807 23.1946 16.4031C23.1123 16.4279 23.0427 16.4835 23.0002 16.5582C22.9577 16.6329 22.9456 16.7211 22.9663 16.8045L22.966 16.8044Z" fill="#211715"/>
<path d="M22.9218 15.3815C22.9409 15.4086 22.9499 15.4415 22.9473 15.4745C22.9344 15.5277 22.8727 15.549 22.8196 15.5596C22.3009 15.7232 21.7706 15.8471 21.2332 15.9302C21.2154 15.9333 21.1971 15.9326 21.1796 15.9282C21.162 15.9238 21.1456 15.9159 21.1313 15.9048C21.113 15.8811 21.1039 15.8516 21.1057 15.8218C21.0654 15.3306 20.9907 14.4912 20.9328 14.1025C19.9197 14.2172 18.8967 14.0006 18.017 13.4852C17.7609 13.3221 17.4148 12.9931 17.3482 12.6969C17.3271 12.5622 17.3456 12.4242 17.4016 12.2998C17.4577 12.1755 17.5487 12.0702 17.6637 11.9968C17.8774 11.8453 18.6863 11.8702 18.506 11.8878C18.7227 12.1089 18.9705 12.2972 19.2415 12.4468C19.7982 12.7427 20.4275 12.8741 21.0561 12.8256C21.6846 12.7771 22.2863 12.5507 22.791 12.173L22.9514 12.2219C23.0841 12.2765 23.2004 12.3648 23.2886 12.478C23.3768 12.5913 23.434 12.7256 23.4544 12.8677C23.457 12.9399 23.4415 13.0117 23.4095 13.0765C23.3775 13.1414 23.3298 13.1972 23.2709 13.2391C22.8993 13.5043 22.4912 13.7141 22.0593 13.8619C22.4013 14.3318 22.6892 14.8388 22.9174 15.3733L22.9218 15.3815Z" fill="white"/>
<path d="M17.4687 9.12192C17.4235 10.0761 17.7434 11.0118 18.3634 11.7385C18.9255 12.3833 19.7196 12.7798 20.5727 12.8417C21.4259 12.9036 22.2689 12.6258 22.9182 12.069C23.3666 12.0925 23.8086 11.9541 24.1636 11.6791C24.3227 11.5553 24.4477 11.393 24.5268 11.2075C24.6058 11.022 24.6364 10.8194 24.6156 10.6189C24.5902 10.4797 24.5311 10.3489 24.4433 10.238C24.3556 10.1271 24.2419 10.0394 24.1124 9.98269C24.3572 9.34599 24.3849 8.64625 24.1912 7.99218C23.9974 7.33811 23.5931 6.76634 23.041 6.3657C21.5892 5.33462 19.5382 5.47654 18.3456 6.8332C17.7992 7.47281 17.4896 8.28096 17.4687 9.12192Z" fill="white"/>
<path d="M17.9413 7.40379C17.7293 7.78356 17.5857 8.19767 17.5172 8.62718C18.3796 8.70362 19.2485 8.59889 20.0681 8.3197C20.091 8.31196 20.1154 8.30904 20.1395 8.31112C20.1637 8.31319 20.1872 8.32022 20.2085 8.33177C20.3114 8.38968 20.1871 8.61445 20.1291 8.71722C20.4945 8.82015 21.3892 8.65197 21.7846 8.4347C22.0044 8.96907 22.2287 9.24752 22.6597 9.4493L23.8165 9.91011C23.9188 9.91575 24.019 9.94036 24.1123 9.98269C24.3567 9.34578 24.3842 8.64598 24.1903 7.99189C23.9964 7.33781 23.592 6.766 23.0399 6.36521C21.5882 5.33413 19.5371 5.47605 18.3446 6.83271C18.1906 7.0085 18.0555 7.1999 17.9413 7.40379Z" fill="white"/>
<path d="M24.4773 9.93217C24.6901 9.26496 24.6948 8.54877 24.4906 7.87885C24.2865 7.20894 23.8832 6.61705 23.3345 6.1819C22.7933 5.7678 22.1543 5.50052 21.4795 5.40596C20.8046 5.31139 20.1168 5.39275 19.4826 5.64214C18.1451 6.19103 17.3063 7.43987 17.1608 8.86015C17.0829 9.56503 17.1929 10.278 17.4798 10.9266C17.7666 11.5751 18.22 12.1362 18.7939 12.5528C20.1292 13.4854 22.0601 13.3213 23.2411 12.2145C23.5482 11.9268 23.0861 11.4661 22.7798 11.7532C22.3422 12.1458 21.798 12.3997 21.216 12.4828C20.634 12.5659 20.0405 12.4745 19.5105 12.2201C18.4124 11.6717 17.7992 10.4933 17.7926 9.29029C17.7862 8.13394 18.3364 7.00859 19.3557 6.42429C19.8465 6.15406 20.3984 6.01411 20.9587 6.01779C21.5189 6.02147 22.0689 6.16867 22.5561 6.44534C23.1214 6.76284 23.5591 7.26651 23.7947 7.87054C24.0302 8.47457 24.0491 9.14158 23.848 9.75795C23.7188 10.1586 24.3486 10.33 24.4772 9.93151L24.4773 9.93217Z" fill="#211715"/>
<path d="M23.8169 10.2371C23.8938 10.2425 23.7812 10.2229 23.8496 10.2407C23.8786 10.2484 23.908 10.2544 23.9367 10.2637C23.953 10.2691 24.0199 10.3009 23.9704 10.2756C23.9973 10.2893 24.0241 10.3033 24.0497 10.3192C24.0614 10.3265 24.1254 10.3728 24.0823 10.3382C24.1058 10.3573 24.1282 10.3776 24.1495 10.3991C24.171 10.4204 24.1913 10.4429 24.2102 10.4665C24.172 10.4175 24.222 10.4883 24.2286 10.4991C24.2444 10.525 24.2586 10.5518 24.2712 10.5793C24.2451 10.5213 24.2768 10.602 24.2805 10.6152C24.2892 10.6446 24.2959 10.6746 24.3006 10.7049C24.2913 10.6397 24.2996 10.7309 24.3006 10.7444C24.3006 10.777 24.2991 10.808 24.2973 10.8398C24.2934 10.9128 24.3084 10.8149 24.2905 10.8801C24.2759 10.9333 24.2476 11.0361 24.2381 11.0581C24.1933 11.1549 24.1348 11.2448 24.0645 11.3251C23.9848 11.415 23.8888 11.489 23.7817 11.5434C23.6726 11.6083 23.5545 11.657 23.4313 11.6877C23.3629 11.7069 23.2935 11.7224 23.2233 11.7339C23.2002 11.7375 23.2002 11.7375 23.2233 11.7339C23.2061 11.7358 23.1888 11.7376 23.1715 11.7389C23.1315 11.7424 23.0917 11.7442 23.0516 11.7451C22.9651 11.7451 22.8821 11.7795 22.8209 11.8407C22.7597 11.9019 22.7253 11.9849 22.7253 12.0714C22.7253 12.1579 22.7597 12.2409 22.8209 12.3021C22.8821 12.3633 22.9651 12.3976 23.0516 12.3976C23.8298 12.3785 24.6162 11.9572 24.8806 11.1938C24.944 11.0198 24.9668 10.8337 24.9473 10.6495C24.9279 10.4654 24.8666 10.2881 24.7682 10.1312C24.6627 9.97294 24.522 9.84118 24.3571 9.74625C24.1922 9.65131 24.0076 9.59578 23.8177 9.58398C23.7314 9.58441 23.6486 9.61892 23.5875 9.68001C23.5264 9.7411 23.4919 9.82383 23.4915 9.91022C23.4935 9.99611 23.5286 10.0779 23.5893 10.1387C23.6501 10.1994 23.7319 10.2344 23.8177 10.2365L23.8169 10.2371Z" fill="#211715"/>
<path d="M19.5267 10.3086C19.5226 10.3849 19.5016 10.4593 19.4652 10.5265C19.4288 10.5937 19.3779 10.652 19.3163 10.6971C19.2288 10.7534 19.1229 10.7734 19.0209 10.7531C18.9513 10.7407 18.8856 10.7121 18.8291 10.6695C18.7726 10.627 18.7269 10.5718 18.6958 10.5084C18.6507 10.4066 18.639 10.2931 18.6624 10.1842C18.6859 10.0754 18.7432 9.97677 18.8263 9.90256C18.9072 9.83522 19.0106 9.801 19.1157 9.80678C19.2208 9.81256 19.3199 9.85791 19.3929 9.93372C19.4416 9.98237 19.4789 10.0412 19.502 10.1061C19.5252 10.1709 19.5336 10.2401 19.5267 10.3086Z" fill="#211715"/>
<path d="M21.51 10.714C21.5057 10.7903 21.4847 10.8647 21.4483 10.9319C21.4119 10.999 21.3611 11.0573 21.2995 11.1025C21.2119 11.1587 21.106 11.1787 21.004 11.1583C20.9344 11.1459 20.8687 11.1173 20.8122 11.0748C20.7558 11.0323 20.7102 10.9771 20.679 10.9136C20.6339 10.8118 20.6223 10.6984 20.6457 10.5895C20.6692 10.4806 20.7265 10.382 20.8095 10.3078C20.8904 10.2405 20.9938 10.2063 21.0989 10.2121C21.204 10.2178 21.303 10.2632 21.376 10.339C21.4247 10.3877 21.462 10.4466 21.4852 10.5114C21.5083 10.5763 21.5168 10.6455 21.51 10.714Z" fill="#211715"/>
<path d="M21.4705 8.52205C21.5753 8.80049 21.7231 9.06073 21.9086 9.29328C22.071 9.47951 22.2712 9.62894 22.4959 9.73158C22.5727 9.77339 22.6623 9.78503 22.7472 9.7642C22.8091 9.74716 22.8646 9.71224 22.9067 9.66382C22.9489 9.6154 22.9758 9.55562 22.9841 9.49198C22.9924 9.42834 22.9818 9.36365 22.9535 9.30602C22.9253 9.2484 22.8806 9.20038 22.8252 9.168C22.7147 9.11691 22.61 9.05413 22.5128 8.98074L22.5781 9.0318C22.4839 8.95793 22.3993 8.87255 22.3264 8.77766L22.3773 8.84291C22.2591 8.68033 22.1613 8.50381 22.0863 8.31734L22.1189 8.39531C22.1124 8.37981 22.1058 8.36432 22.0995 8.34882C22.0742 8.26792 22.0211 8.19857 21.9496 8.15308C21.9126 8.13143 21.8717 8.11728 21.8292 8.11144C21.7868 8.1056 21.7436 8.10819 21.7021 8.11905C21.6607 8.12991 21.6217 8.14883 21.5876 8.17474C21.5535 8.20065 21.5247 8.23303 21.5031 8.27003C21.4806 8.30738 21.466 8.34901 21.4604 8.39229C21.4548 8.43556 21.4582 8.47953 21.4705 8.5214V8.52205Z" fill="#211715"/>
<path d="M21.6204 8.15422C21.248 8.34996 20.6112 8.50248 20.2163 8.40379L20.4112 8.88303C20.5368 8.65858 20.6739 8.34654 20.4641 8.12453C20.2217 7.86795 19.8769 8.04868 19.5996 8.12453C18.9553 8.29261 18.2881 8.35519 17.6239 8.30983C17.2043 8.28667 17.2056 8.93915 17.6239 8.96231C18.0658 8.98853 18.5092 8.97329 18.9482 8.9168C19.1551 8.8894 19.3604 8.85416 19.5637 8.80669C19.669 8.78212 19.7736 8.75493 19.8773 8.72514C19.9355 8.70817 19.9934 8.69028 20.0509 8.67147C20.0741 8.66413 20.0972 8.65646 20.1202 8.64847C20.1659 8.63259 20.1664 8.63259 20.1219 8.64847L19.978 8.56463L20.0023 8.58665L19.9185 8.44261C19.8858 8.36464 19.9468 8.37149 19.9098 8.4369C19.8879 8.4754 19.8692 8.51585 19.8475 8.55451C19.823 8.59782 19.8086 8.64612 19.8054 8.69579C19.8021 8.74546 19.8102 8.79521 19.829 8.84131C19.8477 8.88741 19.8767 8.92868 19.9136 8.962C19.9506 8.99533 19.9946 9.01986 20.0424 9.03376C20.361 9.09416 20.6885 9.08861 21.0048 9.01744C21.3336 8.96817 21.6526 8.86726 21.9499 8.71845C22.3215 8.5227 21.9922 7.95913 21.6206 8.15504L21.6204 8.15422Z" fill="#211715"/>
<path d="M18.3976 11.5484C18.0893 11.5508 17.7147 11.558 17.4569 11.7472C17.3021 11.8539 17.1796 12.0012 17.1031 12.173C17.0265 12.3448 16.9988 12.5344 17.023 12.7209C17.1439 13.4519 17.9822 13.8973 18.6042 14.1335C19.3132 14.3937 20.0697 14.4995 20.823 14.4438C21.5763 14.3882 22.309 14.1723 22.9721 13.8106C23.3387 13.6061 23.8041 13.3539 23.7806 12.867C23.7606 12.653 23.6802 12.4491 23.5487 12.2791C23.4173 12.109 23.2401 11.9799 23.038 11.9067C22.643 11.7624 22.4727 12.3928 22.8647 12.5359C22.9907 12.5819 23.1849 12.8112 23.1082 12.9469C23.056 13.0394 22.8718 13.1125 22.7855 13.1644C22.6653 13.2366 22.5423 13.3043 22.4164 13.3658C21.9303 13.5918 21.409 13.7329 20.8753 13.7831C20.338 13.8391 19.795 13.7976 19.2724 13.6606C18.7642 13.5301 18.2296 13.3239 17.8636 12.9334C17.6941 12.7525 17.5759 12.5442 17.7714 12.3338C17.9163 12.178 18.1999 12.2033 18.3976 12.2008C18.8172 12.1976 18.8182 11.5451 18.3976 11.5484Z" fill="#211715"/>
<path d="M21.8053 14.0644C22.0973 14.5074 22.3477 14.9764 22.5535 15.4655C22.5685 15.4981 22.582 15.5335 22.5995 15.5643C22.6799 15.7061 22.8779 15.2303 22.7081 15.2696C22.635 15.2859 22.5633 15.3136 22.491 15.3348C22.3387 15.3784 22.1848 15.4164 22.0302 15.4523C21.878 15.4868 21.7254 15.5181 21.5725 15.5461C21.4942 15.5604 21.4158 15.5739 21.3374 15.5867C21.3048 15.592 21.2725 15.5971 21.2405 15.602L21.1776 15.6116C21.197 15.605 21.2176 15.6026 21.238 15.6047C21.2584 15.6068 21.2781 15.6132 21.2958 15.6235L21.413 15.7405C21.4273 15.8325 21.4338 15.8501 21.4324 15.7932C21.4324 15.7734 21.4324 15.7537 21.4324 15.734C21.4324 15.7035 21.4324 15.6731 21.4324 15.6426C21.4316 15.5681 21.4296 15.4937 21.4263 15.4193C21.4197 15.2578 21.4084 15.0966 21.3924 14.9357C21.3663 14.626 21.3177 14.3187 21.2471 14.0162C21.2364 13.9741 21.2174 13.9346 21.1913 13.8999C21.1651 13.8653 21.1323 13.8362 21.0948 13.8144C21.0572 13.7925 21.0157 13.7784 20.9727 13.7729C20.9296 13.7673 20.8859 13.7704 20.8441 13.7819C20.8022 13.7935 20.7631 13.8133 20.729 13.8401C20.6949 13.867 20.6665 13.9004 20.6455 13.9384C20.6244 13.9764 20.6112 14.0181 20.6065 14.0613C20.6018 14.1045 20.6058 14.1481 20.6182 14.1897C20.6382 14.2706 20.6558 14.3522 20.6709 14.4344C20.6784 14.474 20.6853 14.514 20.6918 14.554C20.6959 14.5797 20.7 14.6055 20.7039 14.6314C20.7055 14.6429 20.7176 14.7285 20.7138 14.6995C20.7088 14.6618 20.7174 14.7293 20.7184 14.7371C20.7218 14.7646 20.7249 14.792 20.728 14.8187C20.7331 14.8631 20.7376 14.9076 20.7419 14.952C20.7521 15.058 20.7604 15.1642 20.7667 15.2705C20.7781 15.4632 20.7642 15.6604 20.7818 15.8519C20.7849 15.9393 20.8151 16.0235 20.8684 16.0928C20.9217 16.1621 20.9952 16.2131 21.0789 16.2385C21.2117 16.2618 21.348 16.2557 21.4782 16.2209C21.9081 16.1549 22.3331 16.0605 22.7505 15.9384C22.8498 15.9167 22.946 15.8823 23.0365 15.8361C23.113 15.7896 23.1724 15.7196 23.206 15.6366C23.2395 15.5536 23.2453 15.462 23.2226 15.3754C23.1855 15.2713 23.1403 15.1703 23.0875 15.0732C23.0438 14.9776 23.0006 14.8815 22.957 14.7858C22.7944 14.4178 22.5972 14.066 22.3682 13.7353C22.3232 13.6624 22.2518 13.6097 22.169 13.588C22.0861 13.5663 21.9981 13.5774 21.9232 13.6188C21.8493 13.6632 21.7956 13.7347 21.7737 13.8181C21.7518 13.9015 21.7635 13.9901 21.8061 14.0651L21.8053 14.0644Z" fill="#211715"/>
<path d="M32.8684 14.5283C30.9012 14.5283 29.5408 15.9475 29.5408 17.6072C29.5408 19.4648 30.9296 20.744 32.8684 20.744C34.8811 20.744 36.196 19.4529 36.196 17.6072C36.196 15.9357 34.8286 14.5283 32.8684 14.5283Z" fill="white"/>
<path d="M32.8685 11.1782C31.3272 11.1782 30.2618 12.2899 30.2618 13.5906C30.2618 15.0459 31.3502 16.0481 32.8685 16.0481C34.4455 16.0481 35.4751 15.0368 35.4751 13.5906C35.4751 12.2814 34.4042 11.1782 32.8685 11.1782Z" fill="white"/>
<path d="M34.7743 15.4514C36.3551 16.6128 36.1785 19.1775 34.4318 20.0748C32.8577 20.8834 30.5422 20.3003 29.995 18.497C29.821 17.9498 29.8216 17.362 29.9965 16.8151C30.1714 16.2682 30.512 15.7893 30.9712 15.4445C31.044 15.3991 31.0967 15.3276 31.1185 15.2446C31.1402 15.1615 31.1294 15.0734 31.0882 14.9981C31.0441 14.9239 30.9725 14.87 30.889 14.8481C30.8055 14.8263 30.7167 14.8381 30.6419 14.8811C30.1246 15.2528 29.7214 15.7616 29.4778 16.3501C29.2342 16.9387 29.16 17.5836 29.2634 18.2122C29.3431 18.7332 29.5468 19.2275 29.8572 19.6535C30.1676 20.0795 30.5757 20.4248 31.0472 20.6604C31.5687 20.9104 32.1356 21.0514 32.7134 21.0747C33.2911 21.0981 33.8676 21.0033 34.4075 20.7963C34.8919 20.6103 35.3252 20.3119 35.6717 19.9256C36.0183 19.5394 36.2681 19.0764 36.4008 18.5748C36.5834 17.9012 36.557 17.188 36.3253 16.5297C36.0935 15.8714 35.6673 15.299 35.103 14.8883C35.0282 14.8453 34.9394 14.8334 34.8559 14.8553C34.7723 14.8772 34.7008 14.9312 34.6567 15.0054C34.615 15.0805 34.6038 15.1689 34.6256 15.252C34.6474 15.3352 34.7004 15.4067 34.7737 15.4517L34.7743 15.4514Z" fill="#211715"/>
<path d="M32.8684 10.8516C31.6427 10.8633 30.4937 11.544 30.0791 12.7294C29.8945 13.2758 29.8858 13.8663 30.0542 14.4178C30.2226 14.9694 30.5597 15.4543 31.018 15.8044C31.9693 16.5129 33.4077 16.5603 34.4389 15.9988C35.4574 15.4442 35.9414 14.2678 35.7621 13.1442C35.5383 11.7398 34.2306 10.8659 32.8684 10.8529C32.4484 10.8488 32.4481 11.5013 32.8684 11.5054C33.7974 11.5143 34.7252 12.0061 35.0369 12.9245C35.3142 13.742 35.0779 14.7336 34.3777 15.2657C33.6496 15.8192 32.5113 15.8771 31.7049 15.4652C31.3173 15.2644 31.0028 14.9467 30.8059 14.5571C30.609 14.1676 30.5398 13.7259 30.6079 13.2948C30.7764 12.183 31.7953 11.5156 32.8684 11.5054C33.288 11.4998 33.2891 10.8475 32.8684 10.8516Z" fill="#211715"/>
<path d="M42.6696 11.4021C42.5439 11.3996 42.419 11.4224 42.3022 11.4692C42.1855 11.5159 42.0794 11.5857 41.9902 11.6744C41.901 11.763 41.8305 11.8687 41.783 11.9851C41.7355 12.1015 41.7119 12.2263 41.7136 12.3521C41.7071 12.4799 41.7273 12.6076 41.7729 12.7272C41.8185 12.8468 41.8885 12.9556 41.9784 13.0466C42.0683 13.1377 42.1762 13.209 42.2952 13.2561C42.4142 13.3031 42.5417 13.3249 42.6696 13.32C42.7979 13.3264 42.9261 13.3057 43.0458 13.2592C43.1655 13.2126 43.274 13.1414 43.3643 13.05C43.4545 12.9586 43.5244 12.8492 43.5695 12.7289C43.6145 12.6087 43.6337 12.4802 43.6257 12.3521C43.6275 12.2263 43.604 12.1014 43.5565 11.9849C43.5091 11.8684 43.4386 11.7627 43.3494 11.674C43.2601 11.5854 43.154 11.5156 43.0372 11.4689C42.9204 11.4221 42.7954 11.3994 42.6696 11.4021Z" fill="white"/>
<path d="M32.7216 0.569051C32.5959 0.566566 32.4709 0.589403 32.3542 0.636201C32.2375 0.683 32.1314 0.752803 32.0422 0.841456C31.953 0.93011 31.8826 1.0358 31.8351 1.15224C31.7876 1.26868 31.764 1.39348 31.7657 1.51922C31.7592 1.64701 31.7794 1.77474 31.825 1.8943C31.8706 2.01386 31.9406 2.12261 32.0305 2.21365C32.1204 2.30468 32.2283 2.376 32.3473 2.42306C32.4662 2.47012 32.5937 2.4919 32.7216 2.487C32.8498 2.49343 32.978 2.4727 33.0977 2.42618C33.2174 2.37966 33.3259 2.30839 33.4162 2.21703C33.5064 2.12567 33.5763 2.01629 33.6214 1.89604C33.6665 1.77579 33.6856 1.64738 33.6776 1.51922C33.6795 1.39343 33.656 1.26857 33.6085 1.15207C33.561 1.03557 33.4906 0.929821 33.4014 0.841143C33.3121 0.752464 33.2059 0.682668 33.0892 0.63592C32.9724 0.589172 32.8474 0.56643 32.7216 0.569051Z" fill="white"/>
<path d="M10.0401 4.73067C9.91436 4.72817 9.7894 4.75099 9.67266 4.79777C9.55592 4.84456 9.44979 4.91436 9.36059 5.00302C9.27138 5.09167 9.20093 5.19737 9.15342 5.31382C9.10592 5.43027 9.08233 5.55509 9.08406 5.68084C9.0776 5.80864 9.09782 5.93638 9.14343 6.05593C9.18903 6.17549 9.25902 6.28424 9.34895 6.37527C9.43888 6.46631 9.54677 6.53762 9.66576 6.58468C9.78475 6.63174 9.91223 6.65352 10.0401 6.64862C10.1684 6.65505 10.2965 6.63432 10.4162 6.5878C10.5359 6.54128 10.6444 6.47001 10.7347 6.37865C10.8249 6.2873 10.8949 6.17791 10.9399 6.05766C10.985 5.93741 11.0041 5.80901 10.9961 5.68084C10.998 5.55505 10.9745 5.43019 10.927 5.31369C10.8795 5.19719 10.8091 5.09144 10.7199 5.00276C10.6306 4.91409 10.5245 4.84429 10.4077 4.79754C10.2909 4.75079 10.1659 4.72805 10.0401 4.73067Z" fill="white"/>
<path d="M42.6696 11.0757C42.3969 11.0752 42.1311 11.1616 41.9108 11.3224C41.6904 11.4831 41.527 11.7099 41.4443 11.9698C41.3666 12.2191 41.3648 12.4859 41.4391 12.7362C41.5135 12.9865 41.6606 13.2091 41.8619 13.3755C42.0729 13.5328 42.3249 13.6259 42.5875 13.6436C42.8501 13.6613 43.1123 13.6028 43.3425 13.4752C43.565 13.3356 43.7401 13.1321 43.8449 12.8913C43.9497 12.6505 43.9793 12.3836 43.9297 12.1257C43.877 11.8302 43.7217 11.5627 43.491 11.3706C43.2603 11.1785 42.9692 11.074 42.669 11.0757C42.5825 11.0757 42.4995 11.1101 42.4383 11.1713C42.3771 11.2324 42.3427 11.3154 42.3427 11.4019C42.3427 11.4885 42.3771 11.5714 42.4383 11.6326C42.4995 11.6938 42.5825 11.7282 42.669 11.7282C42.6967 11.7282 42.7244 11.7308 42.7522 11.7314C42.8393 11.7334 42.6889 11.7142 42.7721 11.7337C42.8143 11.7437 42.8566 11.7522 42.898 11.7663C42.9143 11.7716 42.9298 11.7776 42.9458 11.7835C42.8694 11.7559 42.9458 11.7845 42.9592 11.7918C43.0027 11.8148 43.0444 11.8409 43.0841 11.8699C43.0159 11.821 43.1115 11.8981 43.1275 11.9148C43.1435 11.9314 43.1601 11.9507 43.1764 11.9685C43.1275 11.9146 43.165 11.9521 43.1764 11.9699C43.2003 12.0076 43.2218 12.0458 43.2438 12.0841C43.2521 12.0986 43.2665 12.1409 43.2409 12.0728C43.2525 12.1035 43.2637 12.134 43.2735 12.1657C43.2846 12.2055 43.2934 12.246 43.3001 12.2869C43.2851 12.1991 43.3001 12.3311 43.3001 12.3521C43.3001 12.3958 43.2967 12.4389 43.2932 12.4826C43.2999 12.3971 43.2932 12.4779 43.2898 12.495C43.2843 12.5228 43.2776 12.5505 43.2697 12.578C43.2642 12.5971 43.2583 12.616 43.2518 12.635C43.2453 12.6539 43.2099 12.7183 43.2494 12.6436C43.2314 12.6775 43.2151 12.7116 43.1945 12.7442C43.1848 12.7606 43.1719 12.7747 43.1629 12.7909C43.1412 12.83 43.2154 12.7354 43.1649 12.7863C43.1468 12.8046 43.0965 12.876 43.0686 12.8798L43.0993 12.8565C43.0872 12.8654 43.0748 12.8741 43.0623 12.8824C43.0497 12.8907 43.0368 12.8987 43.0238 12.9065C43.0039 12.9181 42.9831 12.9279 42.9631 12.9392C42.8988 12.9749 43.0104 12.9289 42.9659 12.9392C42.9213 12.9494 42.8822 12.9679 42.8393 12.9778C42.823 12.9816 42.8066 12.9842 42.7903 12.9879C42.7535 12.9938 42.7577 12.9937 42.8018 12.9879C42.7845 12.9899 42.7673 12.9914 42.7499 12.9925C42.7058 12.9954 42.6616 12.9959 42.6174 12.994C42.5917 12.9927 42.5661 12.9904 42.5404 12.9878C42.5519 12.9889 42.6109 13.0015 42.5527 12.9878C42.509 12.9777 42.4656 12.9684 42.4222 12.9542C42.4033 12.9478 42.3848 12.9408 42.3662 12.9336C42.4478 12.9653 42.3662 12.9309 42.3488 12.9214C42.3119 12.9006 42.2763 12.8778 42.2421 12.8529C42.3137 12.9036 42.2219 12.8304 42.2052 12.8132C42.1933 12.7983 42.1804 12.784 42.1667 12.7707C42.1326 12.7438 42.2072 12.8338 42.1685 12.773C42.1432 12.7333 42.1196 12.6934 42.0972 12.6524C42.0586 12.5839 42.117 12.7177 42.0925 12.6426C42.0876 12.6271 42.0816 12.612 42.0762 12.5965C42.0618 12.5486 42.0503 12.4999 42.0418 12.4506C42.0439 12.4621 42.0475 12.5218 42.0437 12.4601C42.0421 12.4335 42.0398 12.4069 42.0392 12.3803C42.0392 12.3585 42.0392 12.3366 42.0392 12.3151C42.0392 12.2935 42.0532 12.202 42.0392 12.289C42.047 12.2401 42.0583 12.1918 42.0728 12.1445C42.0801 12.1211 42.0891 12.0983 42.0974 12.0755C42.078 12.1257 42.0886 12.0972 42.1054 12.0652C42.1282 12.0226 42.154 11.9816 42.1826 11.9427C42.1336 12.0099 42.1826 11.9461 42.1932 11.9344C42.2095 11.9165 42.2265 11.8994 42.2444 11.883C42.2556 11.8725 42.3194 11.823 42.2529 11.8717C42.2728 11.8572 42.2928 11.8433 42.3135 11.8303C42.3343 11.8172 42.356 11.8047 42.3778 11.7933C42.4077 11.7778 42.4431 11.766 42.3912 11.7846C42.4396 11.7665 42.4891 11.7517 42.5395 11.7403C42.5543 11.7372 42.6396 11.7283 42.5582 11.7352C42.5952 11.7321 42.6318 11.73 42.669 11.7295C42.7555 11.7295 42.8385 11.6951 42.8997 11.6339C42.9608 11.5727 42.9952 11.4898 42.9952 11.4032C42.9952 11.3167 42.9608 11.2337 42.8997 11.1726C42.8385 11.1114 42.7555 11.077 42.669 11.077L42.6696 11.0757Z" fill="#211715"/>
<path d="M32.7216 0.24318C32.4489 0.242793 32.1831 0.329231 31.9628 0.489972C31.7425 0.650714 31.5791 0.877413 31.4962 1.13723C31.4186 1.38657 31.4168 1.65338 31.4911 1.90373C31.5655 2.15408 31.7126 2.37666 31.9138 2.54316C32.1249 2.70041 32.3768 2.79345 32.6395 2.81112C32.9021 2.8288 33.1642 2.77037 33.3945 2.64282C33.6169 2.50327 33.7921 2.29974 33.8968 2.05893C34.0016 1.81811 34.0312 1.55125 33.9817 1.29334C33.9291 0.997877 33.7738 0.730493 33.5432 0.538358C33.3127 0.346223 33.0217 0.241683 32.7216 0.24318C32.6353 0.24403 32.5528 0.278674 32.4919 0.339672C32.4309 0.40067 32.3962 0.483157 32.3954 0.569418C32.3969 0.655457 32.4318 0.73754 32.4926 0.798389C32.5535 0.859237 32.6356 0.894106 32.7216 0.895655C32.7493 0.895655 32.7771 0.898265 32.8048 0.898918C32.8919 0.900875 32.7415 0.881627 32.8247 0.901201C32.8671 0.911152 32.9092 0.919634 32.9506 0.933825C32.9669 0.939045 32.9824 0.945243 32.9984 0.950953C32.9222 0.923385 32.9984 0.951931 33.0118 0.959435C33.0554 0.982238 33.0972 1.00836 33.1367 1.03757C33.0687 0.988633 33.1641 1.06579 33.1801 1.08226C33.1961 1.09874 33.2127 1.11815 33.2291 1.13609C33.1801 1.08226 33.2176 1.11978 33.2291 1.1374C33.2529 1.17508 33.2744 1.21341 33.2966 1.25158C33.3049 1.2661 33.3191 1.30818 33.2935 1.24016C33.3051 1.27083 33.3163 1.30149 33.3261 1.33298C33.3373 1.3729 33.3461 1.41342 33.3527 1.45434C33.3379 1.36642 33.3527 1.49838 33.3527 1.51958C33.3527 1.56314 33.3493 1.60636 33.3459 1.65008C33.3525 1.56461 33.3459 1.64535 33.3424 1.66264C33.3369 1.69059 33.3302 1.71821 33.3224 1.7455C33.317 1.76459 33.3109 1.78367 33.3044 1.80243C33.2979 1.82119 33.2625 1.88579 33.302 1.81124C33.284 1.84501 33.2677 1.87926 33.2472 1.91172C33.2374 1.92803 33.2245 1.94223 33.2155 1.95837C33.1938 1.99752 33.268 1.90291 33.2175 1.95381C33.1994 1.97208 33.1491 2.04352 33.1212 2.04727L33.1519 2.02395C33.1398 2.03292 33.1274 2.04157 33.1149 2.04988C33.1023 2.0582 33.0894 2.0662 33.0764 2.07403C33.0565 2.08577 33.0358 2.09539 33.0157 2.10665C32.9514 2.14237 33.0632 2.09654 33.0185 2.10665C32.9738 2.11676 32.9348 2.13536 32.8919 2.14531C32.8756 2.14906 32.8593 2.15167 32.843 2.15542C32.8063 2.16146 32.8103 2.16113 32.8544 2.15542C32.8371 2.15738 32.82 2.15885 32.8027 2.15999C32.7585 2.16292 32.7142 2.16341 32.6701 2.16146C32.6443 2.16032 32.6188 2.15787 32.5931 2.15526C32.6045 2.1564 32.6635 2.16912 32.6053 2.15526C32.5616 2.14515 32.5182 2.13585 32.4748 2.12166C32.456 2.11529 32.4374 2.10844 32.4188 2.1011C32.5004 2.13275 32.4188 2.09833 32.4014 2.08887C32.3645 2.06811 32.3289 2.04523 32.2947 2.02036C32.3663 2.07109 32.2745 1.99801 32.2579 1.98072C32.2459 1.96574 32.2331 1.95152 32.2194 1.93815C32.1853 1.91123 32.26 2.00144 32.2211 1.94059C32.1959 1.90079 32.1722 1.86083 32.15 1.81989C32.1114 1.75138 32.1696 1.88513 32.1451 1.8101C32.1402 1.79379 32.1344 1.7796 32.1288 1.7641C32.1144 1.71617 32.1029 1.66742 32.0944 1.61811C32.0965 1.62969 32.1001 1.68939 32.0964 1.62757C32.0947 1.60098 32.0924 1.57456 32.0918 1.5478C32.0918 1.52595 32.0918 1.50425 32.0918 1.48256C32.0918 1.46086 32.1057 1.36968 32.0908 1.45646C32.0987 1.40762 32.1099 1.35938 32.1244 1.3121C32.1318 1.28861 32.1407 1.26577 32.1492 1.24294C32.1296 1.29318 32.1402 1.26479 32.157 1.23282C32.1798 1.19017 32.2056 1.14918 32.2342 1.11016C32.1853 1.17736 32.2342 1.11375 32.2448 1.102C32.2611 1.08422 32.2782 1.06693 32.296 1.05045C32.3073 1.04002 32.3711 0.990427 32.3047 1.03936C32.3244 1.02485 32.3445 1.01082 32.3652 0.997768C32.3859 0.984718 32.4076 0.972321 32.4295 0.960903C32.4593 0.944591 32.4947 0.933499 32.443 0.952257C32.4912 0.933977 32.5407 0.91915 32.5911 0.907889C32.6059 0.904627 32.6913 0.895981 32.61 0.902669C32.6469 0.89957 32.6836 0.897449 32.7206 0.89696C32.8068 0.895944 32.8892 0.861246 32.9502 0.800284C33.0111 0.739321 33.0458 0.656931 33.0469 0.570723C33.0458 0.48457 33.0113 0.402207 32.9506 0.341071C32.8899 0.279935 32.8077 0.244826 32.7216 0.24318Z" fill="#211715"/>
<path d="M10.0401 4.40432C9.76741 4.4039 9.50164 4.49033 9.28133 4.65108C9.06102 4.81182 8.89761 5.03854 8.81478 5.29837C8.73705 5.5477 8.73524 5.81452 8.80961 6.06488C8.88397 6.31524 9.03113 6.53782 9.23236 6.70429C9.44344 6.86154 9.69538 6.95458 9.958 6.97226C10.2206 6.98994 10.4828 6.9315 10.713 6.80396C10.9355 6.6644 11.1106 6.46087 11.2154 6.22006C11.3202 5.97925 11.3497 5.71239 11.3002 5.45448C11.2476 5.1589 11.0922 4.89143 10.8615 4.69928C10.6308 4.50714 10.3397 4.40266 10.0395 4.40432C9.95295 4.40432 9.86997 4.43869 9.80879 4.49987C9.74761 4.56105 9.71324 4.64403 9.71324 4.73055C9.71324 4.81708 9.74761 4.90006 9.80879 4.96124C9.86997 5.02242 9.95295 5.05679 10.0395 5.05679C10.0672 5.05679 10.0949 5.0594 10.1227 5.06005C10.2098 5.06201 10.0594 5.04276 10.1426 5.06234C10.1848 5.07229 10.2271 5.08093 10.2685 5.09496C10.2848 5.10034 10.3011 5.10638 10.3163 5.11209C10.2399 5.08452 10.3163 5.11307 10.3297 5.12057C10.3732 5.14341 10.415 5.16953 10.4546 5.1987C10.3864 5.14977 10.4819 5.22692 10.498 5.2434C10.5142 5.25987 10.5306 5.27929 10.5469 5.29723C10.498 5.2434 10.5355 5.28092 10.5469 5.29853C10.5708 5.33621 10.5923 5.37455 10.6143 5.41272C10.6226 5.42723 10.637 5.46948 10.6114 5.4013C10.623 5.43196 10.6342 5.46263 10.644 5.49411C10.6551 5.53405 10.6639 5.57457 10.6706 5.61547C10.6556 5.52755 10.6706 5.65968 10.6706 5.68072C10.6706 5.72427 10.6672 5.7675 10.6637 5.81122C10.6704 5.72574 10.6637 5.80649 10.6603 5.82378C10.6548 5.85172 10.6481 5.87935 10.6402 5.90664C10.6347 5.92573 10.6288 5.94481 10.6223 5.96357C10.6158 5.98233 10.5804 6.04692 10.6199 5.97238C10.6019 6.00614 10.5856 6.0404 10.565 6.07286C10.5551 6.08917 10.5424 6.10336 10.5334 6.11951C10.5117 6.15866 10.5859 6.06405 10.5354 6.11494C10.5173 6.13321 10.467 6.20466 10.4391 6.20841L10.4698 6.18525C10.4577 6.19422 10.4453 6.2027 10.4328 6.21102C10.4202 6.21934 10.4073 6.22733 10.3943 6.23516C10.3744 6.24691 10.3536 6.25653 10.3336 6.26779C10.2693 6.30351 10.3809 6.25767 10.3364 6.26779C10.2918 6.2779 10.2527 6.29649 10.2098 6.30645C10.1935 6.3102 10.1771 6.31281 10.1608 6.31656C10.124 6.32259 10.1282 6.32227 10.1723 6.31656C10.155 6.31852 10.1377 6.31998 10.1204 6.32113C10.0763 6.32406 10.0321 6.32455 9.98793 6.32259C9.96216 6.32145 9.93655 6.31901 9.91094 6.3164C9.92236 6.31754 9.98141 6.33026 9.92317 6.3164C9.87946 6.30645 9.83607 6.29698 9.79268 6.28279C9.77376 6.27643 9.75532 6.26958 9.73673 6.26224C9.81829 6.29388 9.73673 6.25947 9.71927 6.25001C9.68238 6.22932 9.64675 6.20644 9.61259 6.1815C9.68404 6.23223 9.59237 6.15915 9.57573 6.14186C9.56376 6.12691 9.5509 6.11269 9.53723 6.09928C9.50314 6.07237 9.57769 6.16257 9.53903 6.10173C9.51374 6.06193 9.49009 6.02197 9.46774 5.98119C9.42909 5.91251 9.48748 6.04643 9.46301 5.97124C9.45812 5.95574 9.45208 5.94073 9.4467 5.92524C9.43228 5.87704 9.42079 5.82801 9.41228 5.77843C9.4144 5.79001 9.41799 5.84971 9.41424 5.78789C9.41261 5.7613 9.41033 5.73488 9.40967 5.70813C9.40967 5.68627 9.40967 5.66457 9.40967 5.64288C9.40967 5.62118 9.4237 5.53 9.40886 5.61678C9.41669 5.56794 9.42792 5.5197 9.44246 5.47242C9.4498 5.44893 9.45877 5.42609 9.46709 5.40326C9.44768 5.4535 9.45828 5.42511 9.47509 5.39314C9.49786 5.35047 9.52364 5.30948 9.55224 5.27048C9.5033 5.33768 9.55224 5.27407 9.56284 5.26232C9.57915 5.24454 9.59547 5.22725 9.6139 5.21094C9.62532 5.20034 9.6891 5.15075 9.62254 5.19968C9.64245 5.18517 9.66251 5.17114 9.68322 5.15809C9.70394 5.14504 9.72564 5.13264 9.74749 5.12122C9.77734 5.10573 9.81274 5.09382 9.76087 5.11258C9.80919 5.09432 9.85874 5.07949 9.90914 5.06821C9.92399 5.06495 10.0093 5.0563 9.9279 5.06299C9.96493 5.05989 10.0015 5.05777 10.0387 5.05728C10.1252 5.05728 10.2082 5.02291 10.2693 4.96173C10.3305 4.90055 10.3649 4.81757 10.3649 4.73104C10.3649 4.64452 10.3305 4.56154 10.2693 4.50036C10.2082 4.43918 10.1252 4.40481 10.0387 4.40481L10.0401 4.40432Z" fill="#211715"/>
</g>
<defs>
<clipPath id="clip0_103_357">
<rect width="50" height="50" fill="white"/>
</clipPath>
</defs>
</svg>
