<svg width="50" height="50" viewBox="0 0 50 50" fill="none" xmlns="http://www.w3.org/2000/svg">
<g clip-path="url(#clip0_103_415)">
<path d="M32.0566 10.1816C32.3854 9.80019 32.6698 9.3827 32.9044 8.93715L32.9063 8.93264C32.4574 9.15643 31.9504 9.23642 31.4544 9.16171C30.9583 9.087 30.4974 8.86123 30.1343 8.51514C30.1646 8.72477 30.1909 8.9098 30.1909 8.9098C30.2869 9.6118 30.5329 10.2849 30.9124 10.8832C30.939 10.9329 30.9775 10.9752 31.0245 11.0063C31.1289 11.0617 31.247 10.9805 31.3384 10.9002C31.5939 10.6773 31.8338 10.4372 32.0566 10.1816Z" fill="white"/>
<path d="M40.3046 36.8724V38.2303C41.0416 38.6556 43.106 39.8408 43.7881 40.2349C43.8968 40.2898 44.0168 40.3184 44.1385 40.3184C44.2602 40.3184 44.3802 40.2898 44.4889 40.2349L47.9064 38.2612C48.0117 38.2006 48.0991 38.1133 48.1598 38.0081C48.2206 37.9028 48.2524 37.7834 48.2522 37.662V36.1157L40.3046 36.8724Z" fill="#FED296"/>
<path d="M29.8485 43.0202V44.3783C30.5856 44.8034 32.65 45.9886 33.3321 46.3829C33.4407 46.4378 33.5607 46.4664 33.6824 46.4664C33.8042 46.4664 33.9242 46.4378 34.0328 46.3829L37.4503 44.4093C37.5556 44.3487 37.6431 44.2613 37.7038 44.1561C37.7645 44.0508 37.7964 43.9314 37.7962 43.8099V42.2646L29.8485 43.0202Z" fill="#FED296"/>
<path d="M18.7872 18.2462L26.3163 13.9C26.3171 12.2779 26.3248 0.66343 26.3248 0.272461C24.0252 1.60017 3.6279 13.3783 1.75306 14.4615C1.75101 14.7843 1.74759 26.4354 1.74731 28.0819L17.1454 19.1931L18.6112 18.3469L18.7872 18.2462Z" fill="#9ED799"/>
<path d="M2.02353 29.8458L1.7436 30.0075C1.7436 29.9118 1.7436 29.1815 1.74442 28.0845C1.01158 28.5073 26.8602 13.5861 26.3199 13.8979C26.3191 15.0125 26.3189 15.7466 26.3189 15.8168L2.02353 29.8458Z" fill="#B5886A"/>
<path d="M2.01709 30.0074C2.01709 29.4442 2.01709 28.8812 2.01709 28.3182C2.01764 27.0971 2.01823 25.8761 2.01887 24.6552L2.02092 20.2702C2.02156 19.0042 2.02215 17.7383 2.0227 16.4725C2.0227 16.0432 2.0227 15.6139 2.0227 15.1846C2.0227 14.9626 2.03761 14.7349 2.0227 14.5133C2.02161 14.4967 2.0227 14.4799 2.0227 14.4634L1.88718 14.6995C2.23279 14.4997 2.57836 14.3 2.92388 14.1006L4.81774 13.0066L7.36403 11.5361L10.3589 9.80715L13.5959 7.93778L16.8715 6.04625L19.9807 4.25085L22.719 2.66974L24.8816 1.42094L26.2684 0.620132L26.4619 0.508407L26.0503 0.272239C26.0503 0.830818 26.0503 1.3894 26.0503 1.94798C26.0503 3.17435 26.0498 4.40082 26.0489 5.62738C26.0484 7.08541 26.0478 8.54354 26.0471 10.0017C26.0471 11.2739 26.0467 12.5461 26.0458 13.8183C26.0458 14.2482 26.0458 14.6779 26.0458 15.1076C26.0458 15.3254 26.0321 15.5487 26.0458 15.7665C26.0467 15.7829 26.0458 15.7998 26.0458 15.8165L26.1813 15.5803L25.4003 16.0316L23.5945 17.0743L20.9963 18.5748L17.8604 20.3855L14.451 22.3537L10.9868 24.3541L7.73134 26.2339L4.94437 27.8431L2.84977 29.0527L1.71228 29.7091L1.60561 29.7708C1.3008 29.9466 1.57594 30.4195 1.88157 30.2431L3.70446 29.1901L7.6605 26.9057L12.7713 23.9545L18.1506 20.8484L22.8239 18.1497L25.8324 16.413C26.0322 16.2976 26.2386 16.1894 26.4341 16.0659C26.5861 15.9702 26.5929 15.8398 26.593 15.685C26.593 15.5181 26.593 15.3512 26.593 15.1843C26.5936 13.6527 26.5942 12.1215 26.5948 10.5907C26.5955 8.57731 26.5963 6.56389 26.5971 4.55047C26.5977 3.21196 26.5982 1.87349 26.5986 0.535073V0.272376C26.5979 0.22449 26.5847 0.177618 26.5604 0.136363C26.5361 0.0951076 26.5015 0.0608887 26.4599 0.0370671C26.4184 0.0132454 26.3713 0.000640256 26.3234 0.000489647C26.2755 0.000339038 26.2284 0.0126482 26.1867 0.0362081L23.8527 1.38402L19.6616 3.8045L14.4946 6.78784L9.22055 9.83341L4.76974 12.4034C3.83838 12.9412 2.90716 13.4791 1.97607 14.017C1.86667 14.0802 1.75467 14.1401 1.64787 14.207C1.48117 14.3105 1.47843 14.4439 1.47843 14.6098C1.47843 15.011 1.47843 15.4118 1.47843 15.8124C1.47761 17.4124 1.47684 19.0124 1.47611 20.6123C1.4742 22.476 1.47278 24.3394 1.47187 26.2027C1.47123 27.3907 1.47064 28.5786 1.47009 29.7664C1.47009 29.8466 1.47009 29.9269 1.47009 30.0074C1.47009 30.3587 2.01709 30.3599 2.01709 30.0074Z" fill="#211715"/>
<path d="M26.1781 13.6637L25.3931 14.1167L23.5743 15.1668L20.9569 16.6777L17.8148 18.4915L14.3721 20.4788L10.8948 22.486L7.64908 24.3595L4.85828 25.9707L2.79731 27.1604L1.70017 27.7938L1.60909 27.8463C1.30427 28.0222 1.57942 28.4951 1.88519 28.3187L2.70678 27.8443L4.55455 26.7776L7.19274 25.2548L10.3477 23.4335C11.4964 22.7701 12.6456 22.1068 13.7952 21.4435L17.2693 19.438L20.5043 17.5706L23.2762 15.9707L25.3104 14.7964L26.3728 14.1831L26.454 14.1362C26.7588 13.9602 26.4837 13.4871 26.1781 13.6637Z" fill="#211715"/>
<path d="M47.9775 37.8389C47.9775 38.9725 47.9779 40.1061 47.9786 41.2396C47.9786 41.5916 48.5256 41.5921 48.5256 41.2396C48.5256 40.1061 48.5253 38.9725 48.5245 37.8389C48.5245 37.487 47.9775 37.4863 47.9775 37.8389Z" fill="#211715"/>
<path d="M43.9086 40.2818V43.5879C43.9086 43.9398 44.4556 43.9404 44.4556 43.5879V40.2818C44.4556 39.9298 43.9086 39.9292 43.9086 40.2818Z" fill="#211715"/>
<path d="M40.2774 40.9453C40.2869 40.9392 40.296 40.9327 40.3048 40.9263C40.3048 40.6118 40.3048 40.2208 40.3037 39.8223C40.1278 39.8151 39.9409 39.8086 39.779 39.8006C39.5762 39.8108 39.3753 39.7583 39.2035 39.6502C39.1282 39.5464 39.079 39.4261 39.0601 39.2994C39.0534 39.2584 39.0464 39.218 39.0404 39.1774C38.8604 39.1243 38.4298 39.1827 38.2524 39.2253C38.0766 39.2789 37.9281 39.3981 37.8377 39.5583C37.7986 39.6309 37.7786 39.7122 37.7795 39.7947C37.7681 39.9109 37.7973 40.0274 37.8623 40.1244C37.8852 40.1571 37.9099 40.1885 37.9364 40.2183C38.2236 40.5446 38.6338 40.7305 39.0359 40.8966C39.2568 41.0025 39.4948 41.0684 39.7388 41.0912C39.929 41.0989 40.117 41.048 40.2774 40.9453Z" fill="white"/>
<path d="M39.0775 39.3741C39.0708 39.3491 39.065 39.3239 39.0604 39.2996C38.9587 38.6811 38.8919 38.077 38.8405 37.4075C38.8234 37.1845 38.8173 36.8627 38.8017 36.6397L38.7969 36.5713C39.251 36.7712 39.8315 37.0078 40.2358 37.1932L40.3041 37.2247C40.3041 37.6016 40.3041 37.9221 40.3041 38.2339C40.3041 38.6388 40.3041 39.2393 40.3041 39.8225C40.1281 39.8153 39.9411 39.8089 39.779 39.8008C39.5763 39.811 39.3753 39.7585 39.2036 39.6504C39.1412 39.569 39.0981 39.4745 39.0775 39.3741Z" fill="white"/>
<path d="M44.155 37.2628C43.9999 37.4543 43.6911 37.5678 43.4104 37.6123C43.1698 37.6435 42.9258 37.6374 42.6871 37.594C41.78 37.3972 41.0814 37.0511 40.3045 36.6167V37.2263L40.2361 37.1931C39.8122 36.9985 39.1935 36.7475 38.7304 36.5416C38.6803 36.5192 38.6381 36.4822 38.6093 36.4356C38.5805 36.3889 38.5664 36.3346 38.5689 36.2798C38.5748 36.1447 38.5811 36.0115 38.5877 35.88C38.7364 34.9796 39.4601 34.4843 40.2922 34.3082L44.2361 33.814L44.155 37.2628Z" fill="#A0A0A0"/>
<path d="M40.0156 36.7682C40.7043 37.1826 41.4396 37.5141 42.2061 37.7558C42.8793 37.9473 43.8284 38.0467 44.3484 37.4563C44.5809 37.1931 44.1949 36.8049 43.9617 37.0696C43.7667 37.2909 43.4349 37.3541 43.1524 37.3582C42.8221 37.3506 42.4951 37.2898 42.1841 37.1782C41.5241 36.9513 40.8898 36.6555 40.2917 36.2959C39.9847 36.1226 39.7088 36.595 40.0156 36.7682Z" fill="#211715"/>
<path d="M40.2191 34.0449C39.3952 34.2246 38.6366 34.7275 38.3802 35.565C38.3145 35.7974 38.2858 36.0388 38.295 36.2802C38.3019 36.5876 38.4971 36.7375 38.7563 36.8503C39.2029 37.0446 39.6546 37.2272 40.0977 37.4296C40.1608 37.4641 40.2347 37.4731 40.3043 37.4549C40.3739 37.4366 40.4339 37.3924 40.472 37.3314C40.5079 37.2686 40.5178 37.1942 40.4994 37.1242C40.4811 37.0542 40.4359 36.9943 40.3738 36.9572C39.988 36.7811 39.5955 36.62 39.2058 36.4528C39.12 36.4163 39.0344 36.3792 38.949 36.3414C38.923 36.3301 38.8371 36.2895 38.8383 36.2919C38.8482 36.3115 38.8448 36.2207 38.8444 36.2296C38.8434 36.0411 38.8688 35.8535 38.9198 35.6721C39.1304 35.0384 39.7488 34.7066 40.3646 34.5723C40.7083 34.4974 40.5629 33.9699 40.2191 34.0449Z" fill="#211715"/>
<path d="M40.2878 40.5327C40.1394 40.8158 39.8075 40.8565 39.5238 40.7821C39.1494 40.68 38.7928 40.5214 38.4663 40.3117C38.2569 40.1773 37.8941 39.9063 38.119 39.6333C38.2984 39.4156 38.6832 39.4159 38.9422 39.4341C39.0145 39.4334 39.0837 39.4044 39.1349 39.3532C39.186 39.3021 39.2151 39.2329 39.2157 39.1606C39.2144 39.0884 39.1851 39.0196 39.1341 38.9686C39.0831 38.9176 39.0143 38.8884 38.9422 38.8871C38.7623 38.8794 38.582 38.8909 38.4045 38.9212C38.2356 38.9352 38.0722 38.9881 37.9272 39.0759C37.7459 39.1886 37.6113 39.3629 37.5481 39.5668C37.485 39.7707 37.4975 39.9906 37.5834 40.186C37.7492 40.53 38.1355 40.7741 38.4647 40.939C38.8368 41.1498 39.2438 41.2922 39.6661 41.3595C39.8823 41.3841 40.101 41.3451 40.2953 41.2473C40.4896 41.1495 40.6512 40.9971 40.7601 40.8088C40.9234 40.4973 40.4515 40.2208 40.2878 40.5327Z" fill="#211715"/>
<path d="M38.5282 36.6395C38.5794 37.419 38.6248 38.1928 38.7347 38.9676C38.7818 39.3 38.803 39.739 39.128 39.9278C39.4671 40.1253 39.9314 40.0807 40.3093 40.0959C40.6613 40.1096 40.6606 39.5626 40.3093 39.5489C40.1327 39.5418 39.9558 39.5362 39.7793 39.527C39.642 39.5353 39.5049 39.5064 39.3827 39.4432C39.4169 39.4671 39.3994 39.4755 39.3878 39.4364C39.379 39.407 39.3645 39.3782 39.3554 39.3487C39.333 39.2708 39.3164 39.1914 39.3056 39.111C39.2791 38.9428 39.2546 38.7745 39.2332 38.6051C39.1505 37.9503 39.1185 37.2965 39.0753 36.639C39.0523 36.2896 38.5052 36.287 38.5283 36.639L38.5282 36.6395Z" fill="#211715"/>
<path d="M36.69 34.2969C36.6572 34.3161 36.6199 34.3263 36.5819 34.3263C36.5439 34.3263 36.5065 34.3161 36.4737 34.2969L29.6467 30.3514C29.6091 30.3296 29.5789 30.2968 29.5603 30.2575L29.5387 30.2598V32.5876L29.6923 32.6762L36.6497 36.6966L46.7024 30.8919V28.5151L36.69 34.2969Z" fill="white"/>
<path d="M46.5644 30.6557C45.434 31.3085 44.3032 31.9615 43.1721 32.6146L37.9102 35.6531L36.5117 36.4607H36.7878C35.9866 35.9981 35.1855 35.5352 34.3845 35.0719L30.7293 32.9593L29.8304 32.4397C29.5249 32.2634 29.2493 32.7359 29.5543 32.912C30.3453 33.3688 31.1361 33.8258 31.9267 34.2831L35.5906 36.4005L36.5117 36.9329C36.5537 36.957 36.6013 36.9697 36.6497 36.9697C36.6981 36.9697 36.7457 36.957 36.7878 36.9329L40.2965 34.9067L45.5261 31.8868L46.8405 31.1277C47.1452 30.9519 46.8702 30.479 46.5644 30.6555V30.6557Z" fill="#211715"/>
<path d="M29.2653 30.2598V38.0637C29.2653 38.4157 29.8123 38.4163 29.8123 38.0637V30.2598C29.8123 29.9078 29.2653 29.9073 29.2653 30.2598Z" fill="#211715"/>
<path d="M46.429 28.3755V36.1794C46.429 36.5314 46.976 36.5319 46.976 36.1794V28.3755C46.976 28.0236 46.429 28.0229 46.429 28.3755Z" fill="#211715"/>
<path d="M36.4127 34.2969V42.1008C36.4127 42.4528 36.9597 42.4533 36.9597 42.1008V34.2969C36.9597 33.945 36.4127 33.9443 36.4127 34.2969Z" fill="#211715"/>
<path d="M46.7472 28.4894L36.6901 34.2972C36.6573 34.3164 36.6199 34.3265 36.5819 34.3265C36.5439 34.3265 36.5065 34.3164 36.4737 34.2972L29.6467 30.3517C29.6135 30.3326 29.5859 30.3051 29.5667 30.272C29.5475 30.2388 29.5374 30.2012 29.5374 30.1628C29.5374 30.1245 29.5475 30.0869 29.5667 30.0537C29.5859 30.0205 29.6135 29.993 29.6467 29.974C31.4058 28.9578 38.3397 24.9537 39.7039 24.1661C39.7366 24.1468 39.7739 24.1367 39.8118 24.1367C39.8497 24.1367 39.887 24.1468 39.9197 24.1661L46.7478 28.1113C46.7808 28.1306 46.8082 28.1582 46.8272 28.1914C46.8462 28.2246 46.8562 28.2623 46.8562 28.3005C46.8561 28.3388 46.846 28.3764 46.8269 28.4095C46.8078 28.4427 46.7803 28.4702 46.7472 28.4894Z" fill="#FED296"/>
<path d="M46.6093 28.2528L43.678 29.9459L39.611 32.2944L36.7347 33.9553C36.68 33.987 36.6253 34.0201 36.5696 34.051C36.5472 34.0633 36.6053 34.0571 36.597 34.0522C36.5835 34.0454 36.5704 34.0378 36.5577 34.0295C36.524 34.0063 36.4855 33.9878 36.45 33.9673L35.862 33.6271L34.05 32.58L30.1783 30.3423L29.8717 30.1645C29.853 30.1503 29.8326 30.1385 29.8109 30.1294C29.7637 30.1191 29.8129 30.1186 29.8123 30.1624C29.8116 30.2061 29.7655 30.2034 29.809 30.1965C29.8317 30.1873 29.853 30.1749 29.8723 30.1599L30.4538 29.824L32.1138 28.8653L36.2831 26.4575L39.5419 24.5757L39.7686 24.4447C39.8154 24.4173 39.8408 24.4239 39.793 24.4076C39.8262 24.4229 39.8579 24.4412 39.8877 24.4623L40.4339 24.7779L42.1916 25.7936L46.1037 28.0541L46.4122 28.2319C46.4589 28.2592 46.5051 28.2866 46.5521 28.3128C46.6654 28.3756 46.5361 28.3049 46.6105 28.2525C46.3249 28.4535 46.5978 28.928 46.8866 28.7248C46.9994 28.6559 47.0804 28.5453 47.1122 28.4171C47.144 28.2888 47.124 28.1532 47.0565 28.0396C46.9585 27.9172 46.8316 27.8213 46.6871 27.7605L45.9462 27.3324L43.9119 26.1571L40.2496 24.0409C40.1755 23.9981 40.1026 23.9524 40.0252 23.9163C39.8231 23.8222 39.6439 23.8848 39.4645 23.9885L38.9221 24.3018C38.3765 24.6167 37.831 24.9317 37.2855 25.2469L32.9814 27.7323L29.5951 29.6878C29.4125 29.7933 29.2642 29.934 29.2642 30.1626C29.2642 30.3951 29.4184 30.5354 29.6037 30.6425L30.3011 31.0453L32.2993 32.2001L36.0775 34.3836C36.1494 34.4246 36.2206 34.4685 36.2934 34.5084C36.3784 34.5609 36.476 34.5892 36.5758 34.5904C36.6756 34.5916 36.7739 34.5655 36.8601 34.5151C36.9968 34.4413 37.1309 34.3587 37.266 34.2807L38.6946 33.4557L42.7848 31.0938L46.3789 29.0186L46.8859 28.7258C47.1901 28.5495 46.9149 28.0766 46.6093 28.2528Z" fill="#211715"/>
<path d="M42.3747 29.1483L38.0653 31.6372L35.0828 29.9141C35.4561 29.6984 38.9254 27.6948 39.3918 27.4253L42.3747 29.1483Z" fill="white"/>
<path d="M42.2366 28.9122C41.0019 29.6251 39.7672 30.3381 38.5324 31.0513L37.9273 31.4007H38.2034C37.3404 30.9024 36.4775 30.4037 35.6147 29.9048L35.2209 29.6771V30.1494C36.4282 29.4514 37.6359 28.754 38.8439 28.0571L39.5299 27.6606H39.2542C40.1173 28.1591 40.9804 28.6577 41.8433 29.1565L42.237 29.384L42.1113 29.0752C42.0941 29.1452 42.1044 29.219 42.14 29.2816C42.1757 29.3441 42.2339 29.3907 42.3027 29.4116C42.3727 29.4303 42.4472 29.4207 42.5102 29.3849C42.5731 29.3491 42.6195 29.2899 42.6391 29.2202C42.6534 29.162 42.649 29.1008 42.6264 29.0454C42.6038 28.9899 42.5643 28.9429 42.5135 28.9113C41.6527 28.4143 40.792 27.917 39.9315 27.4195L39.5307 27.1878C39.4887 27.1636 39.4411 27.1509 39.3926 27.1509C39.3442 27.1509 39.2966 27.1636 39.2546 27.1878C38.0308 27.8944 36.8072 28.601 35.5835 29.3074L34.9456 29.6758C34.905 29.7004 34.8714 29.7351 34.8481 29.7765C34.8247 29.8178 34.8125 29.8645 34.8125 29.912C34.8125 29.9595 34.8247 30.0062 34.8481 30.0475C34.8714 30.0889 34.905 30.1236 34.9456 30.1482C35.8055 30.6448 36.6651 31.1416 37.5246 31.6388L37.9281 31.8719C37.9701 31.8961 38.0177 31.9088 38.0661 31.9088C38.1146 31.9088 38.1622 31.8961 38.2042 31.8719L41.9431 29.7129L42.5135 29.3835C42.8175 29.2087 42.5423 28.7358 42.2366 28.9122Z" fill="#211715"/>
<path d="M40.0293 38.2373C40.0293 39.238 40.03 40.2386 40.0315 41.2393C40.0315 41.5913 40.5785 41.5918 40.5785 41.2393C40.5785 40.2386 40.5778 39.238 40.5763 38.2373C40.5763 37.8854 40.0293 37.8848 40.0293 38.2373Z" fill="#211715"/>
<path d="M44.9958 27.428C44.5659 27.3585 44.1264 27.3759 43.7033 27.4793C43.0718 27.6252 42.4835 27.9124 41.9017 28.1978C41.5799 28.3799 41.2935 28.6182 41.0559 28.9013C40.5578 29.4501 40.1459 29.8612 39.7373 30.515C39.7136 30.5661 39.6768 30.6101 39.6306 30.6425C39.6078 30.6555 39.5826 30.6638 39.5565 30.6669C39.5304 30.67 39.5039 30.6678 39.4787 30.6605C39.2268 30.5697 38.8196 30.4541 38.4854 30.3691C38.2422 30.7065 37.9757 31.5617 37.8753 32.3614C37.8672 32.3981 37.8729 32.4364 37.8912 32.4692C37.9095 32.502 37.9392 32.5269 37.9747 32.5392C38.8773 32.7339 39.5383 32.9435 40.4576 32.9221C40.6166 32.9195 40.7732 32.8822 40.9164 32.8127C40.9442 32.7987 40.9712 32.7831 40.9972 32.7659C40.8961 33.0531 40.8604 33.1375 40.7605 33.4223C40.6325 33.7877 40.5093 34.2155 40.7058 34.5463C40.8105 34.7014 40.9546 34.8259 41.1233 34.907C41.7441 35.2513 42.4634 35.3244 43.1651 35.2818C43.5013 35.242 43.8345 35.1798 44.1624 35.0956C44.1624 35.0956 45.8548 34.3508 46.6484 33.5905C46.7127 32.7628 46.7227 31.9318 46.6783 31.1028C46.6622 30.4275 46.429 29.137 46.2964 28.5455C46.2289 28.3498 46.1413 28.1617 46.0351 27.984C45.9354 27.8283 45.7916 27.7058 45.6219 27.6323C45.4241 27.5345 45.2132 27.4657 44.9958 27.428Z" fill="#3D8DCC"/>
<path d="M37.1114 30.2681C36.9012 30.2906 36.7003 30.3662 36.5273 30.4877C36.2073 30.6978 36.1648 31.1155 36.2471 31.5936C36.2699 31.7495 36.3381 31.8952 36.4432 32.0125C36.5483 32.1298 36.6857 32.2134 36.8382 32.253C37.088 32.3045 37.344 32.3197 37.5982 32.2982L37.8869 32.2809C37.9598 31.7217 38.1076 31.1749 38.3264 30.6551L38.3181 30.6098C38.2806 30.4788 38.21 30.3596 38.1132 30.2636C38.0163 30.1677 37.8965 30.0983 37.7651 30.062C37.4875 29.9979 37.3332 30.2409 37.1318 30.2655L37.1114 30.2681Z" fill="white"/>
<path d="M41.9933 31.3732C41.6783 31.748 41.3389 32.1016 40.9771 32.4315C40.7505 32.642 40.4971 32.655 40.2015 32.6481C39.9119 32.6407 39.6234 32.6107 39.3386 32.5581C39.0514 32.506 38.7659 32.4385 38.4808 32.3727C38.3997 32.3539 38.3186 32.3354 38.2373 32.3172L38.1749 32.3035C38.0962 32.2691 38.0875 32.2886 38.1489 32.3619C38.143 32.3611 38.2219 31.9316 38.23 31.8929C38.3268 31.4279 38.4453 30.9046 38.7214 30.5077L38.4127 30.6334C38.6525 30.6948 38.8913 30.76 39.1281 30.833C39.3509 30.9014 39.5646 31.0027 39.7855 30.8671C39.9782 30.7487 40.0937 30.4615 40.2231 30.2828C40.3544 30.1013 40.4966 29.929 40.6448 29.7605C40.9342 29.4119 41.2432 29.0801 41.5705 28.7667C41.9288 28.4424 42.3961 28.2489 42.8354 28.0597C43.2991 27.8445 43.7965 27.711 44.3056 27.6649C44.7555 27.6383 45.2824 27.695 45.6576 27.9703C45.791 28.0938 45.8928 28.2476 45.9546 28.4186C46.0163 28.5599 46.0597 28.7085 46.0838 28.8608C46.1631 29.2518 46.2308 29.6452 46.2897 30.0398C46.3487 30.4343 46.3878 30.825 46.4105 31.2214C46.4328 31.6096 46.4752 31.9984 46.4776 32.3875C46.4798 32.7393 47.0268 32.74 47.0246 32.3875C47.0225 32.0483 46.989 31.7089 46.9668 31.3707C46.9452 31.0405 46.9258 30.7123 46.8847 30.3835C46.832 29.9674 46.7679 29.5529 46.6925 29.1401C46.652 28.8123 46.5696 28.4911 46.4473 28.1843C46.3763 28.0146 46.2841 27.8546 46.173 27.708C46.013 27.5333 45.813 27.4 45.5901 27.3197C45.1369 27.1389 44.6459 27.0734 44.1611 27.1292C43.6715 27.1863 43.1929 27.3147 42.7404 27.5101C42.2665 27.6826 41.8165 27.9146 41.4012 28.2007C41.0104 28.4976 40.6917 28.888 40.3655 29.2518C40.1925 29.4448 40.0259 29.6426 39.8684 29.8482C39.787 29.9543 39.7088 30.0625 39.6336 30.1729C39.5997 30.223 39.5664 30.2736 39.5339 30.3246C39.515 30.3539 39.4965 30.3835 39.4785 30.4135C39.5254 30.3936 39.518 30.3909 39.4565 30.4053H39.6018C39.4361 30.3655 39.2728 30.316 39.1128 30.2571C38.9288 30.2032 38.7436 30.1531 38.5576 30.1055C38.4995 30.0911 38.4382 30.0955 38.3827 30.1181C38.3273 30.1406 38.2804 30.1803 38.2488 30.2312C37.9967 30.5933 37.867 31.0591 37.7624 31.4822C37.6883 31.7608 37.6358 32.0447 37.6054 32.3314C37.5975 32.3952 37.6031 32.4599 37.6218 32.5214C37.6405 32.5829 37.6719 32.6398 37.714 32.6883C37.8301 32.7834 37.9727 32.8404 38.1223 32.8516C38.6489 32.9851 39.1826 33.089 39.7208 33.1629C40.2733 33.2238 40.8578 33.2546 41.3042 32.8714C41.6936 32.5322 42.0534 32.1603 42.3796 31.7599C42.602 31.4903 42.2171 31.1012 41.9929 31.3732H41.9933Z" fill="#211715"/>
<path d="M40.7311 32.6986C40.5609 33.1823 40.2825 33.7166 40.3345 34.242C40.3966 34.8639 40.9393 35.1719 41.4773 35.361C42.373 35.6755 43.3323 35.5852 44.2345 35.3586C44.5757 35.2728 44.4311 34.7451 44.0891 34.8311C43.3507 35.0167 42.5929 35.1038 41.8449 34.9021C41.4666 34.8002 40.874 34.609 40.8763 34.1341C40.8789 33.6965 41.1148 33.2514 41.2581 32.844C41.3752 32.5113 40.8469 32.3682 40.7306 32.6986H40.7311Z" fill="#211715"/>
<path d="M38.5819 30.5371C38.4927 30.1343 38.0498 29.7473 37.6262 29.7808C37.4241 29.797 37.2863 29.9121 37.1103 29.9925C37.165 29.9674 37.0615 30.0042 37.0944 29.9968C37.0363 30.0098 36.9753 30.0124 36.9166 30.0241C36.8089 30.0476 36.7041 30.0832 36.6044 30.1304C36.4155 30.2106 36.251 30.3393 36.1279 30.5036C36.0193 30.6704 35.956 30.8626 35.9442 31.0612C35.9032 31.4645 35.9835 31.9341 36.2751 32.2328C36.617 32.5831 37.1402 32.5964 37.5981 32.5714C37.6701 32.5698 37.7388 32.5405 37.7898 32.4896C37.8407 32.4386 37.87 32.3699 37.8716 32.2979C37.8709 32.2255 37.8419 32.1564 37.7907 32.1052C37.7396 32.0541 37.6704 32.025 37.5981 32.0244C37.4156 32.0373 37.2323 32.0345 37.0502 32.0162C36.9407 32.006 36.835 31.9709 36.7412 31.9135C36.6594 31.8546 36.5948 31.775 36.554 31.6829C36.5064 31.546 36.4829 31.4018 36.4848 31.2568C36.4826 31.1883 36.4851 31.1198 36.4922 31.0517C36.5031 30.9981 36.5168 30.9452 36.5332 30.8932C36.5228 30.9187 36.5469 30.8669 36.5489 30.8621C36.5555 30.85 36.5626 30.8378 36.5693 30.8259C36.576 30.814 36.5841 30.8025 36.5923 30.7913C36.6189 30.7548 36.5701 30.8151 36.6014 30.7821C36.6422 30.7377 36.6908 30.7011 36.7448 30.6742C36.8631 30.6035 36.9946 30.5576 37.1312 30.5394C37.2746 30.513 37.4115 30.459 37.5343 30.3804C37.5613 30.3636 37.5893 30.3484 37.6182 30.3351C37.5714 30.3551 37.6908 30.3192 37.6405 30.3262C37.7 30.32 37.7597 30.3364 37.8077 30.3721C37.8678 30.4044 37.9206 30.4485 37.9629 30.5019C38.0053 30.5553 38.0362 30.6169 38.0539 30.6827C38.0732 30.7527 38.1195 30.8121 38.1826 30.8479C38.2457 30.8838 38.3204 30.893 38.3904 30.8737C38.4604 30.8545 38.5198 30.8082 38.5556 30.745C38.5914 30.6819 38.6007 30.6072 38.5814 30.5372L38.5819 30.5371Z" fill="#211715"/>
<path d="M41.8502 29.9249C41.8642 29.955 41.8779 29.9852 41.8913 30.0157L41.8639 29.9503C41.9163 30.0772 41.9603 30.2074 41.9958 30.34C42.0156 30.4084 42.0604 30.4668 42.1214 30.5035C42.184 30.5401 42.2586 30.5503 42.3288 30.5319C42.399 30.5135 42.459 30.468 42.4956 30.4054C42.5315 30.3413 42.5413 30.2658 42.5229 30.1947C42.4716 30.0075 42.4049 29.825 42.3233 29.6489C42.2872 29.5874 42.2286 29.5422 42.1599 29.5231C42.0887 29.5042 42.013 29.514 41.9491 29.5504C41.8877 29.5866 41.8426 29.6452 41.8234 29.7139L41.8136 29.7866C41.8136 29.8351 41.8265 29.8827 41.8509 29.9246L41.8502 29.9249Z" fill="#211715"/>
<path d="M44.3507 27.8757C45.0019 27.3299 45.2318 26.355 45.308 25.8236C45.4701 24.6845 44.6606 23.68 43.6131 23.4022C43.2062 23.2936 42.7786 23.288 42.3691 23.386C41.9595 23.484 41.5808 23.6825 41.2671 23.9635C41.0005 24.2053 40.7866 24.4994 40.6386 24.8274C40.4906 25.1555 40.4117 25.5105 40.4068 25.8704C40.3963 26.2758 40.5054 26.6753 40.7205 27.0191C40.8291 27.1894 40.9716 27.3355 41.1391 27.4483C41.3067 27.561 41.4958 27.6379 41.6945 27.6742" fill="white"/>
<path d="M44.5442 28.069C45.1569 27.5414 45.4506 26.7072 45.5666 25.9275C45.6316 25.5012 45.5827 25.0652 45.425 24.6639C45.2672 24.2626 45.0061 23.91 44.6682 23.6421C44.3034 23.3535 43.8718 23.1614 43.4131 23.0836C42.9545 23.0057 42.4837 23.0445 42.044 23.1964C41.5836 23.3597 41.1724 23.6376 40.8494 24.004C40.5263 24.3705 40.3021 24.8132 40.1979 25.2905C39.9699 26.3612 40.4115 27.7237 41.6201 27.9383C41.69 27.9555 41.7639 27.9452 41.8265 27.9096C41.8891 27.874 41.9357 27.8157 41.9566 27.7468C41.9753 27.6768 41.9656 27.6023 41.9298 27.5394C41.894 27.4764 41.8349 27.4301 41.7652 27.4104C40.9136 27.2593 40.5857 26.3418 40.6998 25.5677C40.7576 25.1745 40.9147 24.8025 41.1563 24.4869C41.3978 24.1712 41.7158 23.9224 42.0802 23.7638C42.4237 23.6202 42.7974 23.5642 43.1679 23.6007C43.5383 23.6373 43.8939 23.7653 44.2026 23.9733C44.486 24.1638 44.7134 24.4264 44.8613 24.7341C45.0093 25.0418 45.0724 25.3835 45.0442 25.7237C44.9744 26.4285 44.7034 27.211 44.1553 27.6824C43.8881 27.9125 44.2765 28.2978 44.5422 28.0693L44.5442 28.069Z" fill="#211715"/>
<path d="M45.4606 25.379C45.4212 25.0204 45.1695 23.7402 43.6126 23.402C43.2758 23.3133 42.9244 23.2945 42.58 23.3468C42.2357 23.399 41.9057 23.5212 41.6103 23.7058C41.315 23.8905 41.0606 24.1336 40.8628 24.4203C40.6649 24.7069 40.5279 25.0311 40.4601 25.3727C40.7008 25.3813 40.9346 25.4549 41.1369 25.5857C41.3391 25.7164 41.5022 25.8995 41.6088 26.1155C41.8605 26.6378 41.7443 27.2522 41.6654 27.8264C41.6347 27.9555 41.6456 28.0909 41.6967 28.2134C41.7736 28.3119 41.8785 28.3848 41.9976 28.4225C42.4473 28.648 43.4161 28.8646 44.6095 28.3396C44.8606 28.2288 45.0898 28.0738 45.2861 27.8819C45.4123 27.7266 45.4955 27.5408 45.5274 27.3433C45.607 26.9876 45.555 26.2378 45.4606 25.379Z" fill="#A98A75"/>
<path d="M45.7341 25.3791C45.6989 25.0322 45.5932 24.6962 45.4234 24.3917C45.2536 24.0873 45.0233 23.8207 44.7467 23.6085C44.2586 23.2636 43.6791 23.0713 43.0816 23.0562C42.484 23.041 41.8955 23.2035 41.3905 23.5232C40.78 23.9412 40.3526 24.577 40.1962 25.3001C40.1859 25.3407 40.1849 25.3831 40.1932 25.4241C40.2016 25.4651 40.2191 25.5037 40.2444 25.537C40.2698 25.5703 40.3024 25.5974 40.3397 25.6163C40.377 25.6352 40.4182 25.6455 40.46 25.6463C40.6146 25.6534 40.7657 25.694 40.9031 25.7652C41.0404 25.8365 41.1606 25.9368 41.2554 26.0591C41.4761 26.3471 41.5026 26.7191 41.4819 27.0681C41.4706 27.2595 41.4439 27.4489 41.4173 27.6384C41.3655 27.8452 41.3677 28.0618 41.4236 28.2675C41.5319 28.5526 41.8572 28.674 42.124 28.7713C42.7116 28.9666 43.3423 28.9926 43.944 28.8462C44.6004 28.701 45.4346 28.3757 45.7044 27.702C45.8116 27.3984 45.8573 27.0765 45.8388 26.755C45.8317 26.295 45.7841 25.8357 45.7341 25.3786C45.732 25.3068 45.7025 25.2384 45.6517 25.1875C45.6008 25.1367 45.5324 25.1072 45.4606 25.1051C45.3882 25.1056 45.3189 25.1346 45.2677 25.1858C45.2165 25.237 45.1875 25.3062 45.1871 25.3786C45.2295 25.768 45.2691 26.1581 45.2855 26.5495C45.3084 26.8076 45.2966 27.0677 45.2504 27.3227C45.2178 27.459 45.1557 27.5865 45.0684 27.6961C44.9811 27.8058 44.8709 27.895 44.7454 27.9573C44.4431 28.1332 44.1137 28.2574 43.7706 28.3249C43.2522 28.4453 42.7097 28.4093 42.2116 28.2217C42.1207 28.1927 42.0345 28.1505 41.9559 28.0963C41.8725 28.0057 41.9459 27.779 41.9615 27.6673C42.0305 27.2936 42.047 26.912 42.0105 26.5338C41.9639 26.1498 41.7825 25.7948 41.4986 25.532C41.2148 25.2692 40.8469 25.1157 40.4604 25.0989L40.7242 25.4451C40.83 24.9193 41.1169 24.4472 41.535 24.1111C41.953 23.775 42.4757 23.5963 43.012 23.6059C43.8384 23.6166 44.6312 23.996 45.0004 24.7526C45.0586 24.8755 45.1047 25.0037 45.1382 25.1355C45.1519 25.1891 45.1642 25.2431 45.1743 25.2975C45.179 25.323 45.1827 25.3486 45.1872 25.374C45.1983 25.4363 45.1798 25.3107 45.1872 25.378C45.1892 25.4499 45.2187 25.5182 45.2696 25.5691C45.3204 25.62 45.3888 25.6494 45.4607 25.6515C45.5329 25.651 45.602 25.6221 45.6531 25.5712C45.7042 25.5202 45.7333 25.4512 45.7341 25.3791Z" fill="#211715"/>
<path d="M40.031 36.8722V38.2301C40.0311 38.2779 40.0437 38.3248 40.0675 38.3662C40.0912 38.4076 40.1254 38.4421 40.1665 38.4663C41.2041 39.0647 42.2423 39.6619 43.281 40.2577C43.5135 40.3919 43.7393 40.5502 44.0126 40.5821C44.3771 40.6246 44.6495 40.4574 44.9505 40.2836L46.7597 39.2387L47.7969 38.6397C47.9773 38.5538 48.1422 38.4385 48.2848 38.2986C48.437 38.1208 48.5222 37.8954 48.5257 37.6614C48.538 37.3092 47.991 37.3098 47.9787 37.6614C47.9673 37.9831 47.648 38.0939 47.4073 38.233L46.5279 38.7412L44.776 39.7531C44.5684 39.873 44.3396 40.0654 44.0878 40.043C43.8909 40.0255 43.6954 39.8652 43.5272 39.7695C43.014 39.4739 42.5005 39.1785 41.9868 38.8834C41.4731 38.5883 40.958 38.292 40.4415 37.9945L40.5769 38.2305V36.8726C40.5769 36.5206 40.0299 36.5201 40.0299 36.8726L40.031 36.8722Z" fill="#211715"/>
<path d="M48.2523 35.9929C48.2523 34.3129 48.2506 32.2265 48.2506 31.5508C48.2507 31.5105 48.2404 31.4708 48.2205 31.4356C48.2006 31.4005 48.1718 31.3712 48.1371 31.3507C48.1024 31.3301 48.0629 31.319 48.0225 31.3184C47.9822 31.3178 47.9423 31.3278 47.907 31.3474C47.0712 31.8112 45.4368 32.7586 44.5441 33.2925C44.4396 33.3545 44.3531 33.4425 44.2929 33.548C44.2327 33.6534 44.2009 33.7727 44.2006 33.8942V38.3417C45.4584 37.5994 47.0254 36.691 48.2523 35.9929Z" fill="#FED296"/>
<path d="M44.4735 40.2821V34.22C44.4735 34.0422 44.4392 33.8207 44.5406 33.6652C44.6346 33.5537 44.7528 33.4651 44.8863 33.4062C45.0274 33.3225 45.1687 33.239 45.3102 33.1558C45.9512 32.7789 46.5945 32.406 47.2403 32.037C47.3846 31.955 47.5291 31.8729 47.6738 31.7909C47.7126 31.7689 48.0442 31.6205 48.0445 31.583C48.0445 31.6139 47.9761 31.5713 47.982 31.5693C47.9493 31.5782 47.9983 31.5326 47.9765 31.5676C47.9629 31.5888 47.9765 31.6618 47.9765 31.6872V31.9599C47.9765 32.4957 47.9765 33.0315 47.9765 33.5673C47.9771 34.932 47.9776 36.2968 47.978 37.6616C47.978 38.0134 48.525 38.0141 48.525 37.6616C48.525 36.3841 48.5246 35.1066 48.5237 33.8291C48.5237 33.2442 48.5237 32.6594 48.5237 32.0746C48.5361 31.8734 48.5331 31.6714 48.5148 31.4706C48.4995 31.3723 48.4555 31.2807 48.3884 31.2073C48.3212 31.1339 48.2339 31.082 48.1374 31.058C47.938 31.012 47.7763 31.1054 47.6091 31.199C46.9625 31.5611 46.3209 31.932 45.6809 32.3048C45.3601 32.4916 45.04 32.6794 44.7205 32.8682C44.3967 33.0597 44.0753 33.2404 43.9637 33.6284C43.9223 33.8392 43.9099 34.0547 43.927 34.2688V40.2816C43.927 40.6336 44.474 40.6341 44.474 40.2816L44.4735 40.2821Z" fill="#211715"/>
<path d="M44.3377 38.5815C45.6803 37.7865 47.0303 37.0039 48.3877 36.2338C48.6939 36.0603 48.4186 35.5875 48.1116 35.7615C46.754 36.5309 45.404 37.3135 44.0616 38.1092C43.7588 38.2885 44.0342 38.7615 44.3377 38.5815Z" fill="#211715"/>
<path d="M37.5215 43.9864C37.5215 45.1199 37.5218 46.2535 37.5226 47.3869C37.5226 47.7389 38.0696 47.7396 38.0696 47.3869C38.0696 46.2535 38.0692 45.1199 38.0685 43.9864C38.0685 43.6344 37.5215 43.6338 37.5215 43.9864Z" fill="#211715"/>
<path d="M33.4525 46.4297V49.7361C33.4525 50.0879 33.9995 50.0886 33.9995 49.7361V46.4297C33.9995 46.0777 33.4525 46.0772 33.4525 46.4297Z" fill="#211715"/>
<path d="M34.2845 41.7137L29.8358 40.4556C29.0037 40.6317 28.28 41.1269 28.1312 42.0272C28.1067 42.5124 28.2435 44.0775 28.3179 44.6876C28.3194 44.7874 28.3335 44.8865 28.3598 44.9828C28.4036 45.0788 28.4646 45.1659 28.5398 45.2399C28.9193 45.6545 29.4362 45.6805 29.7991 45.7408L30.144 45.7442C30.144 45.2415 30.1429 44.745 30.142 44.453C30.0792 44.4144 30.0274 44.3603 29.9915 44.296C29.9556 44.2316 29.9368 44.1592 29.9368 44.0855C29.9368 43.8282 29.9368 43.516 29.9368 43.3214V42.8135C30.6786 43.2246 31.3581 43.552 32.2306 43.7414C32.4693 43.7847 32.7132 43.7908 32.9538 43.7596C33.2346 43.7151 33.5434 43.6016 33.6984 43.4102L35.8708 42.1621L35.8082 42.1443L34.2845 41.7137Z" fill="#A0A0A0"/>
<path d="M27.3314 45.2094C27.4116 45.1431 27.506 45.0963 27.6072 45.0727C27.8698 45.0254 28.1384 45.0234 28.4016 45.0666C28.4421 45.1289 28.4883 45.1871 28.5397 45.2406C28.9363 45.6741 29.4833 45.6827 29.8476 45.75C29.8476 46.1888 29.8484 46.633 29.8487 46.9925C29.6728 47.1023 29.4679 47.1565 29.2607 47.1483C28.9894 47.1228 28.7247 47.0495 28.4789 46.9318C28.0323 46.7469 27.5751 46.5403 27.2558 46.1773C27.2264 46.1441 27.199 46.1092 27.1737 46.0727C27.1014 45.967 27.0687 45.8391 27.0814 45.7116C27.0855 45.6057 27.1127 45.5019 27.1612 45.4077C27.2069 45.3329 27.2644 45.266 27.3314 45.2094Z" fill="white"/>
<path d="M29.7636 40.192C28.7517 40.4138 27.8364 41.1587 27.8565 42.268C27.8651 42.7467 27.9053 43.2242 27.9462 43.7002C27.9661 43.9292 27.9878 44.1581 28.0113 44.3867C28.037 44.6329 28.0261 44.9218 28.1344 45.1447C28.4353 45.7601 29.119 45.9068 29.7266 46.0049C29.7965 46.0219 29.8703 46.0116 29.9328 45.976C29.9954 45.9404 30.0419 45.8822 30.063 45.8134C30.0817 45.7434 30.0721 45.6689 30.0363 45.6059C30.0004 45.543 29.9413 45.4967 29.8715 45.477C29.4308 45.4059 28.9478 45.3593 28.6627 44.9663C28.5598 44.8244 28.5775 44.5775 28.5593 44.4045C28.5377 44.1998 28.518 43.9947 28.5002 43.7891C28.4616 43.3515 28.4268 42.9139 28.409 42.4751C28.397 42.3335 28.3951 42.1913 28.4035 42.0495C28.4373 41.8252 28.5266 41.6129 28.6634 41.4319C28.9572 41.0298 29.4348 40.8222 29.9078 40.7185C30.2516 40.643 30.1061 40.1156 29.7624 40.1909L29.7636 40.192Z" fill="#211715"/>
<path d="M29.5596 42.916C30.2482 43.3305 30.9835 43.6621 31.75 43.9036C32.4233 44.0951 33.3723 44.1946 33.8924 43.6043C34.1249 43.3411 33.7388 42.9527 33.5055 43.2176C33.3106 43.4388 32.9789 43.502 32.6964 43.5061C32.366 43.4985 32.039 43.4378 31.728 43.3261C31.0681 43.0992 30.4338 42.8034 29.8357 42.4438C29.5287 42.2706 29.2527 42.7429 29.5596 42.916Z" fill="#211715"/>
<path d="M29.8977 46.5422C29.738 46.8469 29.38 46.9195 29.0657 46.8469C28.6765 46.7462 28.3035 46.5907 27.958 46.3851C27.7004 46.2375 27.2962 45.997 27.3634 45.6504C27.4396 45.2581 27.9415 45.2975 28.2407 45.3211C28.3131 45.3206 28.3823 45.2916 28.4335 45.2404C28.4846 45.1892 28.5136 45.12 28.5142 45.0476C28.5128 44.9755 28.4835 44.9068 28.4325 44.8558C28.3815 44.8048 28.3128 44.7755 28.2407 44.7741C27.7035 44.7316 27.0594 44.823 26.861 45.4136C26.8139 45.5438 26.7963 45.6829 26.8096 45.8208C26.8228 45.9586 26.8666 46.0918 26.9376 46.2107C27.0911 46.4278 27.2863 46.612 27.512 46.7525C27.7305 46.8926 27.9615 47.0122 28.2021 47.1097C28.4648 47.2369 28.7415 47.3329 29.0266 47.3955C29.5424 47.4834 30.1151 47.305 30.3702 46.8183C30.5336 46.5069 30.0617 46.2303 29.898 46.5422H29.8977Z" fill="#211715"/>
<path d="M26.234 40.4447C26.2012 40.4639 26.1638 40.474 26.1258 40.474C26.0878 40.474 26.0505 40.4639 26.0177 40.4447C25.2245 39.9863 20.4905 37.2502 19.1907 36.4992C19.153 36.4773 19.1229 36.4445 19.1042 36.4051L19.0826 36.4075V38.7352L19.2362 38.8239C19.3955 38.9158 25.9917 42.7277 26.1935 42.8444C26.6478 42.5822 35.9553 37.2074 36.2463 37.0393V34.6626L26.234 40.4447Z" fill="white"/>
<path d="M36.1089 36.8035C34.9785 37.4563 33.8477 38.1093 32.7166 38.7624L27.4547 41.801L26.0561 42.6078H26.3313C25.5301 42.1452 24.729 41.6823 23.928 41.219L20.2733 39.1072C19.9737 38.9339 19.6741 38.7607 19.3744 38.5875C19.0689 38.4111 18.7932 38.8837 19.0983 39.0598C19.8893 39.5166 20.68 39.9736 21.4706 40.4309L25.1346 42.5483C25.4416 42.7258 25.7486 42.9032 26.0556 43.0806C26.0976 43.1048 26.1452 43.1175 26.1936 43.1175C26.2421 43.1175 26.2897 43.1048 26.3317 43.0806L29.8404 41.0545L35.0696 38.0349L36.3841 37.2758C36.6888 37.0998 36.4136 36.6269 36.108 36.8035H36.1089Z" fill="#211715"/>
<path d="M18.8092 36.4073V44.2112C18.8092 44.5632 19.3562 44.5639 19.3562 44.2112V36.4073C19.3562 36.0553 18.8092 36.0547 18.8092 36.4073Z" fill="#211715"/>
<path d="M35.9729 34.5235V42.3274C35.9729 42.6793 36.5199 42.6799 36.5199 42.3274V34.5235C36.5199 34.1715 35.9729 34.1709 35.9729 34.5235Z" fill="#211715"/>
<path d="M25.9567 40.4444V48.2483C25.9567 48.6002 26.5037 48.6008 26.5037 48.2483V40.4444C26.5037 40.0924 25.9567 40.0918 25.9567 40.4444Z" fill="#211715"/>
<path d="M36.2912 34.6372L26.234 40.4448C26.2012 40.464 26.1639 40.4741 26.1258 40.4741C26.0878 40.4741 26.0505 40.464 26.0177 40.4448C25.2245 39.9864 20.4905 37.2503 19.1907 36.4993C19.1575 36.4802 19.1298 36.4527 19.1106 36.4196C19.0914 36.3864 19.0813 36.3488 19.0813 36.3104C19.0813 36.2721 19.0914 36.2345 19.1106 36.2013C19.1298 36.1681 19.1575 36.1406 19.1907 36.1216C20.9497 35.1054 27.8836 31.1013 29.2479 30.3135C29.2806 30.2943 29.3178 30.2842 29.3558 30.2842C29.3937 30.2842 29.4309 30.2943 29.4636 30.3135L36.2916 34.2589C36.3249 34.278 36.3525 34.3056 36.3717 34.3388C36.3909 34.3721 36.401 34.4098 36.401 34.4481C36.4009 34.4865 36.3908 34.5242 36.3715 34.5574C36.3522 34.5906 36.3245 34.6181 36.2912 34.6372Z" fill="#FED296"/>
<path d="M36.1532 34.4008L33.222 36.0935L29.1549 38.4421L26.2786 40.103C26.2239 40.1348 26.1692 40.1679 26.1136 40.1988C26.0911 40.2109 26.1493 40.2048 26.1409 40.2C26.1279 40.1929 26.1136 40.1856 26.1017 40.1773C26.0679 40.154 26.0295 40.1356 25.9939 40.1151L25.4052 39.7747L23.5933 38.7276L19.7216 36.49L19.415 36.3122C19.3963 36.2979 19.3759 36.2861 19.3541 36.277C19.307 36.2666 19.3562 36.2662 19.3555 36.31C19.3548 36.3538 19.3087 36.351 19.3521 36.344C19.3749 36.3349 19.3962 36.3225 19.4155 36.3074L19.997 35.9717L21.657 35.0128L25.8253 32.6053C26.9115 31.9781 27.9977 31.3508 29.0841 30.7236L29.3108 30.5926C29.3574 30.5653 29.383 30.5717 29.3351 30.5555C29.3683 30.5708 29.4 30.5891 29.4298 30.6102C29.6121 30.7154 29.7944 30.8207 29.9768 30.9259L31.7344 31.9414L35.6466 34.2019L35.9551 34.3796C36.0016 34.407 36.0479 34.4343 36.095 34.4604C36.2081 34.5232 36.079 34.4526 36.1534 34.4003C35.8677 34.6013 36.1407 35.0758 36.4295 34.8726C36.5421 34.8037 36.6231 34.6931 36.6548 34.5649C36.6866 34.4367 36.6666 34.3012 36.5992 34.1876C36.5017 34.065 36.3751 33.9687 36.2309 33.9076L35.4901 33.4795L33.4558 32.3035L29.7935 30.1873C29.7194 30.1446 29.6465 30.0988 29.5691 30.0628C29.367 29.9686 29.1877 30.0314 29.0084 30.135L28.466 30.4482L26.8295 31.3933L22.5254 33.8788C21.3967 34.5307 20.2679 35.1825 19.139 35.8344C18.9565 35.9399 18.8081 36.0805 18.8081 36.3093C18.8081 36.5418 18.9624 36.6821 19.1475 36.789L19.8449 37.1919L21.8431 38.3468L25.6213 40.5302C25.6932 40.5713 25.7643 40.6152 25.8372 40.655C25.9222 40.7074 26.0198 40.7358 26.1196 40.737C26.2195 40.7381 26.3177 40.7121 26.4039 40.6617C26.5406 40.588 26.6747 40.5054 26.8098 40.4273L28.2384 39.6023L32.3286 37.2404L35.9227 35.165L36.4297 34.8722C36.734 34.6972 36.4589 34.2243 36.1532 34.4008Z" fill="#211715"/>
<path d="M31.6928 35.3173L27.3835 37.8061L24.401 36.0831C24.7743 35.8673 28.2437 33.8638 28.71 33.5942L31.6928 35.3173Z" fill="white"/>
<path d="M31.5551 35.0812C30.3204 35.794 29.0857 36.507 27.8509 37.2202L27.2458 37.5698H27.5219C26.6589 37.0713 25.796 36.5727 24.9332 36.0737L24.5394 35.846V36.3183C25.7468 35.6204 26.9545 34.923 28.1624 34.2261L28.8484 33.8295H28.5723C29.4354 34.3279 30.2983 34.8265 31.1612 35.3254L31.5551 35.553L31.4294 35.2442C31.4123 35.3141 31.4226 35.3879 31.4582 35.4505C31.4938 35.5131 31.552 35.5596 31.6209 35.5806C31.6908 35.5993 31.7654 35.5896 31.8283 35.5538C31.8913 35.518 31.9376 35.4588 31.9573 35.3891C31.9715 35.331 31.967 35.2698 31.9445 35.2143C31.9219 35.1588 31.8824 35.1119 31.8316 35.0802C30.9708 34.5833 30.1101 34.086 29.2496 33.5884L28.8488 33.3568C28.8068 33.3326 28.7592 33.3198 28.7107 33.3198C28.6623 33.3198 28.6147 33.3326 28.5727 33.3568C27.3489 34.0634 26.1252 34.7699 24.9016 35.4764L24.2637 35.8448C24.2231 35.8694 24.1895 35.904 24.1662 35.9454C24.1429 35.9868 24.1306 36.0335 24.1306 36.081C24.1306 36.1284 24.1429 36.1751 24.1662 36.2165C24.1895 36.2579 24.2231 36.2925 24.2637 36.3171C25.1236 36.8137 25.9832 37.3106 26.8427 37.8077L27.2462 38.0409C27.2882 38.065 27.3358 38.0778 27.3843 38.0778C27.4327 38.0778 27.4803 38.065 27.5223 38.0409L31.2605 35.8835L31.8309 35.5541C32.1357 35.3775 31.8606 34.9048 31.5551 35.0812Z" fill="#211715"/>
<path d="M29.5732 44.3852C29.5732 45.386 29.574 46.3866 29.5754 47.3872C29.5754 47.7392 30.1224 47.7399 30.1224 47.3872C30.1224 46.3865 30.1217 45.3859 30.1202 44.3852C30.1202 44.0334 29.5732 44.0327 29.5732 44.3852Z" fill="#211715"/>
<path d="M30.8374 33.581C31.0547 33.705 31.2951 33.783 31.5437 33.8104C31.5726 33.2314 31.5418 32.5112 31.2457 32.0127C31.1168 31.7997 30.9306 31.6271 30.7084 31.5146C30.4863 31.4021 30.237 31.3542 29.989 31.3764C29.952 31.5872 29.9416 31.8018 29.9582 32.0153C29.9777 32.4343 30.1151 32.8393 30.3548 33.1836C30.4892 33.3454 30.6529 33.4802 30.8374 33.581Z" fill="white"/>
<path d="M31.2459 32.0134C31.5419 32.5117 31.5727 33.2321 31.5438 33.8111L31.5483 33.8378V34.2698L31.6677 34.2365C32.1698 33.9747 32.6996 33.7702 33.2473 33.6268C33.5534 33.5544 33.8679 33.5241 34.1822 33.5366C34.6824 32.9311 34.8531 32.4153 34.8376 31.5446C34.8171 30.3944 34.1389 29.4456 32.9384 29.2778C32.6068 29.2206 32.2672 29.2296 31.9391 29.3043C31.6111 29.379 31.301 29.5179 31.0269 29.7129C30.7527 29.908 30.5199 30.1554 30.3418 30.4409C30.1637 30.7264 30.0439 31.0443 29.9893 31.3763C30.2374 31.3542 30.4867 31.4022 30.7088 31.5148C30.931 31.6275 31.117 31.8002 31.2459 32.0134Z" fill="#85807F"/>
<path d="M34.5397 33.5755C34.1098 33.5059 33.6703 33.5233 33.2473 33.6268C32.6158 33.7727 32.0275 34.0597 31.4456 34.3451C31.1239 34.5273 30.8375 34.7656 30.5998 35.0487C30.1018 35.5976 29.6899 36.0087 29.2813 36.6624C29.2575 36.7136 29.2207 36.7576 29.1745 36.79C29.1517 36.803 29.1265 36.8113 29.1004 36.8144C29.0743 36.8175 29.0479 36.8154 29.0227 36.808C28.7708 36.7171 28.3635 36.6017 28.0292 36.5166C27.7862 36.8538 27.5197 37.7091 27.4193 38.5089C27.4111 38.5456 27.4168 38.584 27.4351 38.6167C27.4534 38.6495 27.4832 38.6744 27.5187 38.6867C28.4213 38.8816 29.0823 39.0912 30.0014 39.0696C30.1605 39.0669 30.3171 39.0296 30.4603 38.9602C30.4882 38.9463 30.5152 38.9308 30.5412 38.9136C30.4401 39.2007 30.4044 39.285 30.3044 39.57C30.1764 39.9354 30.0532 40.3631 30.2497 40.6938C30.3545 40.8489 30.4986 40.9734 30.6672 41.0547C31.2881 41.3989 32.0074 41.472 32.7091 41.4295C33.0453 41.3896 33.3784 41.3274 33.7064 41.2432C33.7064 41.2432 35.3988 40.4985 36.1924 39.738C36.2567 38.9104 36.2667 38.0794 36.2223 37.2504C36.2062 36.575 35.973 35.2846 35.8404 34.6932C35.7729 34.4975 35.6853 34.3093 35.579 34.1317C35.4793 33.976 35.3355 33.8535 35.1659 33.7798C34.9681 33.682 34.7572 33.6132 34.5397 33.5755Z" fill="#3D8DCC"/>
<path d="M31.5438 33.5368C31.3444 33.5142 31.1517 33.4515 30.9773 33.3523C30.8028 33.2531 30.6503 33.1196 30.529 32.9598C30.3229 32.6268 30.2171 32.2414 30.2243 31.8498C30.2186 31.4478 30.3178 31.0513 30.512 30.6993C30.7063 30.3473 30.9889 30.052 31.332 29.8425C31.6539 29.6549 32.0153 29.5453 32.3872 29.5226C32.7591 29.4998 33.1311 29.5645 33.4735 29.7114C33.7534 29.8491 33.9956 30.0526 34.1795 30.3045C34.3634 30.5563 34.4834 30.8491 34.5292 31.1576C34.5963 31.5468 34.5878 31.9454 34.5043 32.3314C34.4155 32.7054 34.2386 33.0528 33.9882 33.3445C33.7672 33.615 34.1523 34.0042 34.375 33.7314C34.6542 33.41 34.8646 33.0349 34.9932 32.629C35.1096 32.2001 35.1452 31.7533 35.0981 31.3114C35.018 30.4954 34.6154 29.7243 33.8866 29.3105C33.0831 28.854 32.0367 28.8793 31.2188 29.2825C30.7742 29.5129 30.3981 29.8562 30.1281 30.2779C29.8581 30.6996 29.7038 31.1848 29.6806 31.685C29.6403 32.2375 29.7773 32.7884 30.0717 33.2577C30.2453 33.491 30.4661 33.6852 30.7198 33.8275C30.9734 33.9698 31.2542 34.0572 31.5438 34.0838C31.6162 34.0833 31.6855 34.0544 31.7367 34.0032C31.7879 33.952 31.8169 33.8827 31.8173 33.8103C31.8156 33.7383 31.7863 33.6697 31.7353 33.6188C31.6844 33.5678 31.6158 33.5385 31.5438 33.5368Z" fill="#211715"/>
<path d="M30.0372 31.6454C30.2606 31.634 30.4821 31.692 30.6713 31.8116C30.8604 31.9311 31.0079 32.1063 31.0934 32.313C31.2929 32.7758 31.2934 33.3161 31.27 33.8102C31.27 33.8827 31.2988 33.9523 31.3501 34.0036C31.4014 34.0548 31.4709 34.0837 31.5435 34.0837C31.616 34.0837 31.6856 34.0548 31.7369 34.0036C31.7882 33.9523 31.817 33.8827 31.817 33.8102C31.8462 33.1927 31.817 32.5326 31.534 31.9703C31.3932 31.6977 31.1776 31.4709 30.9125 31.3165C30.6474 31.162 30.3438 31.0864 30.0372 31.0984C29.9651 31.0999 29.8964 31.1292 29.8454 31.1802C29.7945 31.2311 29.7652 31.2998 29.7637 31.3719C29.7643 31.4442 29.7934 31.5134 29.8445 31.5646C29.8957 31.6157 29.9648 31.6447 30.0372 31.6454Z" fill="#211715"/>
<path d="M26.6174 36.421C26.4209 36.4477 26.2337 36.5212 26.0715 36.6352C25.7515 36.8452 25.6314 37.2722 25.7137 37.7502C25.775 38.1066 26.0966 38.3261 26.3823 38.4006C26.6322 38.452 26.8882 38.4673 27.1424 38.4457L27.431 38.4285C27.5039 37.8693 27.6518 37.3225 27.8706 36.8027L27.8622 36.7574C27.8247 36.6264 27.7542 36.5071 27.6573 36.4112C27.5605 36.3152 27.4406 36.2458 27.3092 36.2095C27.0316 36.1453 26.8773 36.3885 26.6759 36.413C26.6557 36.4156 26.6363 36.4182 26.6174 36.421Z" fill="white"/>
<path d="M31.5372 37.5207C31.2223 37.8956 30.8828 38.2491 30.521 38.579C30.2945 38.7895 30.0411 38.8025 29.7454 38.7958C29.4559 38.7882 29.1674 38.7582 28.8825 38.7058C28.5953 38.6535 28.3098 38.586 28.0247 38.5204C27.9436 38.5016 27.8625 38.4829 27.7813 38.4647L27.7186 38.451C27.6401 38.4167 27.6315 38.4361 27.6928 38.5094C27.6869 38.5086 27.7658 38.0789 27.7739 38.0404C27.8706 37.5754 27.9893 37.0519 28.2653 36.6551L27.9566 36.7808C28.1964 36.8423 28.4352 36.9074 28.672 36.9805C28.8948 37.0489 29.1084 37.1503 29.3293 37.0145C29.5221 36.896 29.6376 36.6089 29.7669 36.4301C29.8981 36.2488 30.0404 36.0764 30.1886 35.908C30.4779 35.5594 30.787 35.2276 31.1143 34.9142C31.4726 34.5897 31.9398 34.3962 32.3792 34.2071C32.8429 33.9919 33.3403 33.8584 33.8494 33.8125C34.2993 33.7851 34.8262 33.8425 35.2013 34.1178C35.3348 34.2413 35.4367 34.395 35.4983 34.5661C35.5601 34.7074 35.6035 34.856 35.6276 35.0083C35.7069 35.3992 35.7746 35.7927 35.8335 36.1871C35.8925 36.5815 35.9316 36.9723 35.9543 37.3689C35.9766 37.7572 36.019 38.1458 36.0214 38.5348C36.0236 38.8867 36.5706 38.8875 36.5684 38.5348C36.5662 38.1958 36.5327 37.8564 36.5106 37.5182C36.489 37.188 36.4695 36.8597 36.4285 36.5309C36.3757 36.1147 36.3116 35.7002 36.2361 35.2874C36.1956 34.9598 36.1131 34.6388 35.9908 34.3322C35.9198 34.1626 35.8276 34.0025 35.7165 33.8559C35.5565 33.6812 35.3565 33.548 35.1336 33.4676C34.6804 33.2869 34.1894 33.2214 33.7046 33.2771C33.215 33.3342 32.7364 33.4626 32.2839 33.6582C31.8102 33.8306 31.3605 34.0625 30.9454 34.3485C30.5545 34.6455 30.2359 35.036 29.9096 35.3997C29.7366 35.5927 29.5701 35.7904 29.4124 35.9961C29.3312 36.102 29.253 36.2103 29.1777 36.3209C29.1438 36.3709 29.1106 36.4214 29.0781 36.4724C29.0592 36.5017 29.0407 36.5314 29.0227 36.5613C29.0695 36.5415 29.0622 36.5388 29.0007 36.5532H29.146C28.9802 36.5134 28.817 36.4639 28.657 36.405C28.4728 36.3503 28.2878 36.301 28.1018 36.2533C28.0436 36.2389 27.9824 36.2433 27.9269 36.2659C27.8714 36.2885 27.8245 36.3281 27.7929 36.379C27.5408 36.7412 27.4112 37.207 27.3066 37.6301C27.2325 37.9087 27.18 38.1926 27.1496 38.4793C27.1417 38.5431 27.1473 38.6078 27.166 38.6693C27.1847 38.7307 27.2161 38.7876 27.2582 38.8361C27.3742 38.9313 27.5168 38.9883 27.6665 38.9994C28.1931 39.1329 28.7268 39.2368 29.265 39.3106C29.8175 39.3718 30.4019 39.4024 30.8484 39.0194C31.238 38.6799 31.598 38.3078 31.9244 37.9072C32.1467 37.6375 31.7618 37.2483 31.5376 37.5203L31.5372 37.5207Z" fill="#211715"/>
<path d="M30.2747 38.8466C30.1044 39.3301 29.826 39.8645 29.8781 40.3899C29.9402 41.0119 30.4829 41.3198 31.0209 41.5088C31.9166 41.8234 32.8759 41.7331 33.7781 41.5064C34.12 41.4206 33.9747 40.893 33.6327 40.9789C32.8943 41.1645 32.1365 41.2516 31.3885 41.05C31.0103 40.948 30.4176 40.757 30.4199 40.282C30.4224 39.8444 30.6584 39.3992 30.8017 38.9919C30.9188 38.6592 30.3905 38.5162 30.2743 38.8466H30.2747Z" fill="#211715"/>
<path d="M28.1257 36.6852C28.0359 36.2788 27.584 35.8858 27.1559 35.9308C27.0483 35.9432 26.9443 35.9767 26.8497 36.0294C26.8178 36.0462 26.7872 36.0652 26.7563 36.0841C26.7411 36.0931 26.7262 36.1023 26.7109 36.1114C26.7025 36.1161 26.6377 36.1477 26.664 36.1375C26.6939 36.1259 26.6461 36.1423 26.6387 36.144C26.5877 36.1553 26.7247 36.1326 26.602 36.1508C26.5436 36.1594 26.4855 36.1673 26.4279 36.1806C26.321 36.2067 26.2173 36.2446 26.1188 36.2936C25.9353 36.3781 25.7764 36.5079 25.6568 36.6706C25.5372 36.8334 25.4609 37.0239 25.435 37.2242C25.3747 37.6481 25.4487 38.1084 25.7933 38.3953C26.1752 38.7132 26.6645 38.7467 27.1423 38.7208C27.2144 38.7192 27.2831 38.6899 27.334 38.6389C27.385 38.588 27.4143 38.5193 27.4158 38.4473C27.4152 38.3749 27.3862 38.3057 27.335 38.2546C27.2839 38.2034 27.2147 38.1744 27.1423 38.1738C26.9598 38.1866 26.7765 38.1838 26.5945 38.1654C26.5387 38.1572 26.4834 38.1458 26.4289 38.1312C26.378 38.1195 26.3293 38.0998 26.2846 38.0728C26.1772 38.0215 26.0879 37.9386 26.0286 37.8353C25.9766 37.7132 25.9538 37.5806 25.9623 37.4482C25.9612 37.3895 25.9665 37.3309 25.9782 37.2734C25.9918 37.211 26.0104 37.1499 26.0338 37.0905C26.0792 36.9854 26.1578 36.8982 26.2577 36.8422C26.3841 36.7616 26.5265 36.7091 26.6751 36.6885C26.8144 36.6639 26.9476 36.6122 27.067 36.5362C27.0977 36.5168 27.1297 36.4994 27.1627 36.4841C27.1165 36.5038 27.2357 36.4686 27.185 36.4752C27.2388 36.4681 27.2932 36.4816 27.3375 36.5129C27.4009 36.5448 27.4569 36.5896 27.5019 36.6445C27.5469 36.6994 27.5799 36.7631 27.5987 36.8315C27.6082 36.8662 27.6245 36.8986 27.6466 36.9269C27.6686 36.9553 27.6961 36.979 27.7273 36.9967C27.7585 37.0145 27.793 37.0259 27.8286 37.0303C27.8643 37.0348 27.9004 37.0321 27.9351 37.0226C27.9697 37.013 28.0021 36.9968 28.0305 36.9747C28.0588 36.9526 28.0825 36.9252 28.1003 36.8939C28.118 36.8627 28.1294 36.8283 28.1338 36.7926C28.1383 36.757 28.1357 36.7208 28.1261 36.6862L28.1257 36.6852Z" fill="#211715"/>
<path d="M31.3941 36.0729C31.4081 36.1029 31.4215 36.1332 31.4345 36.1637L31.4071 36.0983C31.4595 36.2252 31.5035 36.3554 31.5388 36.488C31.5588 36.5564 31.6037 36.6147 31.6646 36.6515C31.6956 36.6696 31.7299 36.6814 31.7655 36.6863C31.8011 36.6912 31.8373 36.689 31.872 36.6799C31.9068 36.6707 31.9394 36.6549 31.968 36.6331C31.9966 36.6114 32.0207 36.5843 32.0388 36.5533C32.0747 36.4892 32.0845 36.4137 32.0661 36.3425C32.0149 36.1554 31.9481 35.9728 31.8665 35.7968C31.8304 35.7353 31.7718 35.6902 31.7031 35.6711C31.632 35.6521 31.5562 35.6619 31.4923 35.6984C31.4309 35.7346 31.3859 35.7932 31.3667 35.8619L31.3568 35.9346C31.3567 35.9831 31.3696 36.0307 31.3941 36.0726V36.0729Z" fill="#211715"/>
<path d="M29.575 43.02V44.378C29.5751 44.4258 29.5877 44.4726 29.6115 44.5141C29.6352 44.5555 29.6694 44.59 29.7105 44.6142C30.7481 45.2126 31.7862 45.8097 32.825 46.4056C33.0575 46.5399 33.2833 46.6981 33.5566 46.7301C33.9209 46.7725 34.1935 46.6054 34.4945 46.4316L36.3037 45.3867L37.3409 44.7877C37.5213 44.7017 37.6861 44.5865 37.8288 44.4467C37.981 44.2688 38.0662 44.0433 38.0696 43.8093C38.082 43.4573 37.535 43.4577 37.5226 43.8093C37.5113 44.131 37.192 44.242 36.9513 44.3809L36.0717 44.8888L34.32 45.9007C34.1124 46.0207 33.8836 46.2132 33.6318 46.1908C33.4349 46.1733 33.2394 46.013 33.0712 45.9173C32.5578 45.6216 32.0443 45.3263 31.5307 45.0313C31.017 44.7363 30.5022 44.44 29.9862 44.1424L30.1216 44.3786V43.0205C30.1216 42.6686 29.5746 42.668 29.5746 43.0205L29.575 43.02Z" fill="#211715"/>
<path d="M37.7962 42.1399C37.7962 40.4599 37.7944 38.3735 37.7944 37.6978C37.7946 37.6574 37.7842 37.6177 37.7643 37.5826C37.7444 37.5475 37.7157 37.5182 37.6809 37.4976C37.6462 37.4771 37.6067 37.4659 37.5663 37.4654C37.526 37.4648 37.4862 37.4748 37.4509 37.4943C36.615 37.9582 34.9806 38.9056 34.0879 39.4395C33.9835 39.5014 33.8969 39.5895 33.8367 39.695C33.7765 39.8004 33.7447 39.9197 33.7444 40.0412V44.4887C35.0028 43.7463 36.5698 42.8384 37.7962 42.1399Z" fill="#FED296"/>
<path d="M34.0175 46.4298V40.3677C34.0175 40.1899 33.9831 39.9683 34.0845 39.8129C34.1785 39.7013 34.2967 39.6127 34.4302 39.5539C34.5713 39.4701 34.7126 39.3866 34.8541 39.3035C35.4951 38.9264 36.1385 38.5535 36.7842 38.1847C36.9285 38.1027 37.073 38.0206 37.2176 37.9386C37.2564 37.9167 37.5881 37.7683 37.5884 37.7308C37.5884 37.7616 37.52 37.7191 37.5259 37.7172C37.4932 37.7261 37.5421 37.6804 37.5205 37.7155C37.5068 37.7367 37.5205 37.8097 37.5205 37.8352V38.1079C37.5205 38.6436 37.5205 39.1793 37.5205 39.7151C37.521 41.0799 37.5215 42.4446 37.522 43.8094C37.522 44.1614 38.069 44.1619 38.069 43.8094C38.069 42.5319 38.0685 41.2544 38.0676 39.977L38.0668 38.2226C38.0793 38.0213 38.0764 37.8193 38.058 37.6184C38.0427 37.5201 37.9987 37.4286 37.9315 37.3552C37.8644 37.2818 37.777 37.2299 37.6804 37.206C37.4811 37.1599 37.3196 37.2533 37.1522 37.347C36.5058 37.709 35.8641 38.0798 35.224 38.4527C34.9032 38.6395 34.5831 38.8272 34.2636 39.016C33.9398 39.2075 33.6183 39.3884 33.5068 39.7763C33.4654 39.9871 33.453 40.2026 33.47 40.4167V46.4295C33.47 46.7814 34.017 46.7821 34.017 46.4295L34.0175 46.4298Z" fill="#211715"/>
<path d="M33.8816 44.7295C35.2242 43.9344 36.5741 43.1519 37.9316 42.3818C38.2378 42.2081 37.9624 41.7354 37.6555 41.9095C36.298 42.6788 34.948 43.4614 33.6055 44.2572C33.3028 44.4363 33.5782 44.9095 33.8816 44.7295Z" fill="#211715"/>
<path d="M34.4326 24.3949C34.4147 24.1741 34.3176 23.9673 34.1591 23.8126C34.0463 23.8469 33.9306 23.8709 33.8134 23.8842C33.1455 23.9484 32.512 23.9863 31.9213 23.6679L31.4445 23.319C30.8825 23.4029 30.262 23.4343 29.8215 23.2816C29.7731 23.2647 29.7259 23.2447 29.68 23.2217C29.4522 23.4257 28.9573 23.8634 28.8443 24.0709C28.7779 24.1814 28.7381 24.3059 28.7283 24.4345C28.7184 24.5631 28.7387 24.6922 28.7874 24.8115C28.8449 24.9167 28.9252 25.0076 29.0223 25.0778C29.1195 25.1479 29.2311 25.1955 29.3489 25.217C29.585 25.2581 29.8269 25.2529 30.061 25.2018C30.4353 25.1388 30.8008 25.0314 31.1498 24.8821C31.1307 25.0024 31.1333 25.1251 31.1575 25.2445C31.1871 25.3507 31.2395 25.4492 31.311 25.5331C31.3824 25.6171 31.4713 25.6845 31.5714 25.7308C31.8236 25.8453 32.1031 25.8859 32.3774 25.848C32.7869 25.8016 33.1877 25.6978 33.5682 25.5396C33.8167 25.4477 34.0786 25.3414 34.2321 25.1255C34.3924 24.9178 34.4644 24.6553 34.4326 24.3949Z" fill="white"/>
<path d="M29.541 22.979C29.3574 23.1451 29.1718 23.3085 28.994 23.4819C28.7777 23.667 28.6103 23.9026 28.5065 24.1678C28.4415 24.3482 28.4307 24.5436 28.4755 24.7301C28.5202 24.9166 28.6185 25.0859 28.7583 25.2172C28.9133 25.3406 29.0927 25.4299 29.2846 25.4792C29.4766 25.5286 29.6768 25.5368 29.8721 25.5034C30.3172 25.4494 30.7532 25.3368 31.1688 25.1684C31.2376 25.1473 31.2957 25.1007 31.3313 25.0382C31.3669 24.9756 31.3772 24.9019 31.3602 24.8319C31.3406 24.7622 31.2943 24.703 31.2313 24.6672C31.1684 24.6313 31.0938 24.6217 31.0238 24.6405C30.6367 24.8058 30.2277 24.9144 29.8095 24.9628C29.5144 24.9891 29.0701 24.9542 29.0039 24.6011C28.9831 24.4541 29.0163 24.3045 29.0973 24.1801C29.1045 24.1686 29.1561 24.1028 29.1137 24.1545C29.1286 24.1363 29.1436 24.1181 29.1592 24.0998C29.2067 24.0451 29.2569 23.9924 29.3077 23.9409C29.506 23.7399 29.7188 23.5542 29.928 23.3649C29.9793 23.3136 30.0082 23.244 30.0082 23.1715C30.0082 23.099 29.9794 23.0294 29.9281 22.9781C29.8768 22.9268 29.8073 22.898 29.7347 22.8979C29.6622 22.8979 29.5926 22.9267 29.5413 22.978L29.541 22.979Z" fill="#211715"/>
<path d="M31.5336 23.8988C31.1187 24.1804 30.8295 24.6118 30.8659 25.1296C30.8913 25.3645 30.9921 25.5849 31.1531 25.7579C31.3142 25.9309 31.5269 26.0471 31.7594 26.0893C32.3201 26.2074 32.9081 26.0636 33.4371 25.8772C33.9463 25.6978 34.4126 25.504 34.6268 24.9689C34.8037 24.5268 34.7116 23.7829 34.2402 23.5423C33.9273 23.3826 33.6501 23.8544 33.9641 24.0146C34.0881 24.0778 34.1395 24.2678 34.159 24.3949C34.1741 24.4997 34.1674 24.6064 34.1391 24.7084C34.1109 24.8104 34.0618 24.9055 33.9949 24.9875C33.8474 25.1316 33.6649 25.2347 33.4654 25.2867C33.2062 25.3876 32.9399 25.4695 32.6688 25.5316C32.3012 25.6086 31.7316 25.6684 31.4813 25.3106C31.2519 24.9832 31.536 24.5573 31.8095 24.3716C32.0991 24.1751 31.8257 23.7015 31.5334 23.8992L31.5336 23.8988Z" fill="#211715"/>
<path d="M32.2936 16.7794C31.9993 16.7954 31.7005 16.801 31.4054 16.8004H31.3016H31.286C30.5396 16.7979 29.8182 16.7488 29.2689 16.7046C29.27 16.7376 29.2703 16.7558 29.2703 16.7558C29.3023 18.3147 29.4594 21.8592 29.5301 23.132C29.619 23.197 29.7175 23.2478 29.8219 23.2825C30.2624 23.4352 30.8828 23.4038 31.4449 23.3199L31.9217 23.6688C32.5124 23.9871 33.1459 23.9493 33.8138 23.8851C34.0237 23.8658 34.2273 23.8037 34.4124 23.7028C34.4337 22.0014 34.4147 18.1654 34.3097 16.4961C33.6468 16.6469 32.9724 16.7417 32.2936 16.7794Z" fill="white"/>
<path d="M31.3545 17.0586C31.3545 18.7228 31.3583 20.3869 31.366 22.051C31.369 22.5425 31.3733 23.0339 31.3788 23.5254C31.3831 23.8771 31.9301 23.8781 31.9258 23.5254C31.9041 21.7314 31.9029 19.937 31.9018 18.1428C31.9018 17.7813 31.9018 17.4199 31.9018 17.0586C31.9018 16.7066 31.3548 16.7061 31.3548 17.0586H31.3545Z" fill="#211715"/>
<path d="M28.9962 16.755C29.0193 17.8617 29.0661 18.9682 29.1126 20.0742C29.1373 20.6621 29.1634 21.2501 29.1909 21.8383C29.2025 22.0834 29.2144 22.3284 29.2266 22.5733C29.2181 22.7845 29.2311 22.996 29.2656 23.2046C29.3148 23.3839 29.5658 23.4793 29.7236 23.537C29.8937 23.5947 30.0702 23.6314 30.2493 23.6464C30.6727 23.6787 31.0986 23.6577 31.5168 23.5839C31.5866 23.5643 31.6458 23.518 31.6816 23.4551C31.7175 23.3921 31.727 23.3175 31.7082 23.2475C31.6875 23.1785 31.641 23.1202 31.5783 23.0845C31.5157 23.0489 31.4418 23.0387 31.3718 23.0561C30.8432 23.1331 30.1319 23.2273 29.6678 22.8959L29.8032 23.1321C29.7096 21.4343 29.6391 19.7347 29.581 18.0354C29.5662 17.6089 29.5525 17.1824 29.5436 16.7558C29.5364 16.4043 28.9894 16.403 28.9966 16.7558L28.9962 16.755Z" fill="#211715"/>
<path d="M31.783 23.9037C32.1727 24.1007 32.6036 24.2025 33.0402 24.2007C33.4236 24.2165 33.8073 24.1796 34.1806 24.0913C34.3355 24.0489 34.5612 23.9877 34.6477 23.8397C34.7146 23.7255 34.6871 23.5389 34.6888 23.4087C34.6912 23.133 34.6926 22.8573 34.693 22.5816C34.696 21.2231 34.6862 19.8641 34.6564 18.5064C34.6427 17.8658 34.6254 17.2248 34.588 16.5851C34.5677 16.2352 34.0206 16.2328 34.041 16.5851C34.1517 18.5014 34.1474 20.4278 34.146 22.3469C34.146 22.7982 34.1438 23.2505 34.1382 23.7023L34.2737 23.4661C33.9812 23.6492 33.5781 23.641 33.2451 23.652C32.8374 23.6832 32.4286 23.6074 32.0592 23.4321C31.7471 23.27 31.4702 23.7418 31.7831 23.9044L31.783 23.9037Z" fill="#211715"/>
<path d="M32.4979 4.60251C30.9253 4.13058 30.0364 4.56258 29.7744 5.17795C29.6412 5.41572 29.5361 5.66811 29.461 5.93008C29.4257 6.0934 29.4016 6.25893 29.3889 6.42552C29.3848 6.46969 29.3814 6.51154 29.3785 6.5486C29.3382 7.06633 29.4634 7.58348 29.7361 8.02541C30.0088 8.46734 30.4149 8.8112 30.8957 9.00735C31.3765 9.2035 31.9072 9.2418 32.4112 9.11672C32.9152 8.99164 33.3665 8.70965 33.6998 8.31145C34.0049 8.30201 34.1784 8.30529 34.429 8.19384C34.547 8.14307 34.6531 8.06832 34.7407 7.97435C34.8283 7.88037 34.8954 7.76922 34.9378 7.64794C34.9791 7.52439 34.9871 7.39212 34.9608 7.26451C34.9346 7.1369 34.8752 7.01849 34.7885 6.92124C34.6854 6.80406 34.5424 6.72947 34.3874 6.71202C34.3874 6.71202 34.5157 5.54786 33.4673 5.03505C33.1561 4.86553 32.8319 4.7209 32.4979 4.60251Z" fill="white"/>
<path d="M31.4681 3.67557C31.3414 3.70752 31.2172 3.74823 31.0961 3.79741C30.7522 3.94662 30.4493 4.17646 30.213 4.46749C30.5833 5.00154 31.1219 5.39602 31.7428 5.58788C31.76 5.59606 31.779 5.59998 31.798 5.59932C31.817 5.59865 31.8356 5.59342 31.8522 5.58406C31.8717 5.56322 31.8832 5.53612 31.8845 5.50761L31.9441 5.14481L32.8524 5.96025C33.0643 6.12452 33.3026 6.25143 33.5571 6.3355L34.7781 6.74247C34.9032 6.32933 34.9112 5.88963 34.8014 5.47219C34.6756 4.95152 34.3802 4.48747 33.9617 4.1531C33.5258 3.80857 32.9918 3.61108 32.4366 3.58901C32.1113 3.57131 31.7851 3.60046 31.4681 3.67557Z" fill="#85807F"/>
<path d="M33.7704 8.58347C34.0676 8.591 34.3623 8.52787 34.6303 8.39927C34.8923 8.25789 35.0927 8.02456 35.1929 7.74423C35.2406 7.60476 35.2577 7.45668 35.2431 7.31003C35.2285 7.16337 35.1826 7.02156 35.1084 6.89419C35.0379 6.77824 34.9436 6.67858 34.8317 6.6018C34.7197 6.52502 34.5928 6.47287 34.4593 6.4488C34.4246 6.43925 34.3885 6.43662 34.3528 6.44106C34.3172 6.44549 34.2827 6.45691 34.2515 6.47465C34.2203 6.49239 34.1928 6.5161 34.1707 6.54445C34.1487 6.57279 34.1324 6.6052 34.1229 6.63984C34.1133 6.67447 34.1107 6.71064 34.1151 6.74629C34.1195 6.78194 34.131 6.81637 34.1487 6.84761C34.1664 6.87884 34.1902 6.90628 34.2185 6.92835C34.2468 6.95043 34.2793 6.9667 34.3139 6.97624C34.367 6.98677 34.4174 7.00099 34.4691 7.01631C34.5208 7.03163 34.4252 6.98896 34.4728 7.01836C34.4876 7.02725 34.5037 7.03682 34.5189 7.04571C34.5631 7.06992 34.479 7.00578 34.5283 7.05255C34.5453 7.06855 34.5628 7.08387 34.5792 7.10041C34.5956 7.11696 34.6104 7.13323 34.6253 7.15033C34.5874 7.10657 34.6312 7.1625 34.6362 7.1707C34.6482 7.1908 34.6588 7.21173 34.669 7.23251C34.6424 7.17781 34.6746 7.25248 34.6786 7.26574C34.6865 7.29227 34.6923 7.31908 34.6978 7.34615C34.6875 7.29856 34.6978 7.34451 34.6991 7.36776C34.7005 7.39101 34.7008 7.41535 34.6999 7.43914C34.6999 7.45501 34.6983 7.47073 34.6968 7.4866C34.7014 7.45724 34.7021 7.45268 34.6987 7.47292C34.6884 7.52365 34.6744 7.57356 34.6569 7.62225C34.6778 7.56755 34.6472 7.63839 34.6439 7.64454C34.6325 7.66587 34.6202 7.68652 34.6072 7.70676C34.5985 7.72044 34.5893 7.73411 34.5799 7.74628C34.596 7.72604 34.5979 7.72336 34.5856 7.73822C34.5663 7.75859 34.5488 7.78047 34.529 7.8003C34.5119 7.81726 34.4939 7.83298 34.4761 7.84912C34.4305 7.89097 34.5034 7.83449 34.4558 7.86526C34.4093 7.89564 34.3612 7.92362 34.3117 7.94908C34.2656 7.97274 34.3391 7.94156 34.2808 7.96208C34.2571 7.97042 34.2336 7.97903 34.2096 7.98642C34.1571 8.00194 34.1037 8.01413 34.0497 8.02293C34.0987 8.01445 34.0537 8.02293 34.0299 8.02457C34.0061 8.02621 33.9816 8.02854 33.9575 8.0299C33.8952 8.03373 33.8328 8.03537 33.7704 8.03715C33.6979 8.03715 33.6283 8.06597 33.5771 8.11726C33.5258 8.16855 33.4969 8.23812 33.4969 8.31065C33.4969 8.38319 33.5258 8.45275 33.5771 8.50405C33.6283 8.55534 33.6979 8.58415 33.7704 8.58415V8.58347Z" fill="#211715"/>
<path d="M27.8903 10.0304C27.9733 10.1172 28.0574 10.2036 28.1415 10.2875C28.6397 9.66689 29.4064 9.21411 30.1724 8.75586C30.2523 9.51242 30.5055 10.2404 30.9125 10.8831C30.9391 10.9328 30.9776 10.9751 31.0246 11.0062C31.1289 11.0616 31.2471 10.9804 31.3384 10.9001C31.9931 10.3385 32.5334 9.65601 32.9297 8.88988C33.4251 8.83053 34.2014 9.39886 34.5322 9.786C34.7108 9.99721 34.8648 10.2279 34.9916 10.4737C35.1667 10.8406 35.3023 11.2252 35.3958 11.6209C35.6455 12.5966 35.5156 13.6306 35.0325 14.5143C34.8955 14.7616 34.7319 14.9932 34.5445 15.2049C34.5336 15.2173 34.5227 15.2295 34.5116 15.2418C34.5296 15.3952 34.544 15.5153 34.544 15.5153C34.544 15.5153 34.6102 16.0715 34.6102 16.427C33.8506 16.6162 33.0751 16.7341 32.2936 16.7793C30.9696 16.8509 29.5519 16.7239 28.804 16.6639C28.7611 16.1043 28.7757 14.8222 28.7379 14.2205L28.2319 12.8584C27.7103 13.283 27.1113 12.2185 26.8742 11.8874C26.5061 11.3737 26.168 10.8373 25.8501 10.2912L27.2815 9.36317C27.3435 9.43387 27.4099 9.50867 27.4795 9.58593C27.6072 9.72897 27.7467 9.88049 27.8903 10.0304Z" fill="#A0A0A0"/>
<path d="M23.8509 4.89079C24.3649 6.00639 24.8477 7.13577 25.2993 8.27891C25.3203 8.34777 25.3669 8.40597 25.4294 8.44157C25.492 8.47717 25.5659 8.48747 25.6358 8.47036C25.7055 8.45071 25.7647 8.40439 25.8005 8.34143C25.8364 8.27847 25.846 8.20394 25.8272 8.13395C25.359 6.94724 24.8578 5.77433 24.3237 4.61523C24.2867 4.55303 24.2267 4.50787 24.1566 4.4895C24.0866 4.47113 24.0122 4.48102 23.9494 4.51705C23.888 4.55479 23.8436 4.61475 23.8253 4.68445C23.807 4.75415 23.8164 4.8282 23.8513 4.8912L23.8509 4.89079Z" fill="#211715"/>
<path d="M33.2645 9.21184C34.3958 9.61854 34.9517 10.7884 35.1771 11.889C35.2908 12.4624 35.266 13.0547 35.1049 13.6167C34.9438 14.1786 34.651 14.694 34.2508 15.1201C33.8243 15.5697 33.2923 15.9056 32.7032 16.0975C32.3696 16.2055 32.5124 16.7338 32.8487 16.6249C33.8034 16.3249 34.6199 15.6942 35.1513 14.8461C35.6827 13.998 35.8942 12.9882 35.7478 11.9981C35.6589 11.3182 35.4316 10.6637 35.0797 10.0751C34.6924 9.43942 34.1051 8.95026 33.4097 8.68439C33.0778 8.56515 32.9349 9.09355 33.2642 9.21184H33.2645Z" fill="#211715"/>
<path d="M32.9821 12.5282C32.9592 12.6553 32.9226 12.7795 32.8727 12.8987L32.9001 12.8333C32.841 12.972 32.7644 13.1025 32.6723 13.2218C32.6539 13.2533 32.642 13.2882 32.6373 13.3244C32.6326 13.3606 32.6352 13.3974 32.6449 13.4325C32.6544 13.4672 32.6706 13.4997 32.6927 13.5281C32.7147 13.5565 32.7422 13.5802 32.7734 13.598C32.8047 13.6158 32.8391 13.6272 32.8748 13.6317C32.9105 13.6362 32.9467 13.6335 32.9813 13.624L33.0467 13.5966C33.0872 13.5729 33.121 13.5391 33.1447 13.4986C33.33 13.2566 33.4551 12.9742 33.51 12.6744C33.5275 12.6032 33.5177 12.5281 33.4826 12.4637C33.4645 12.4327 33.4405 12.4055 33.4119 12.3838C33.3833 12.3621 33.3507 12.3462 33.3159 12.3371C33.2812 12.328 33.245 12.3258 33.2094 12.3307C33.1738 12.3355 33.1395 12.3474 33.1085 12.3655C33.0778 12.3831 33.0509 12.4066 33.0294 12.4347C33.0078 12.4627 32.992 12.4947 32.9828 12.5289L32.9821 12.5282Z" fill="#211715"/>
<path d="M26.3099 8.07159C26.0959 8.06705 25.884 8.11429 25.6921 8.2093C25.5178 8.29621 25.3685 8.42629 25.2587 8.58717C25.1488 8.74805 25.0819 8.93437 25.0644 9.12839C25.0517 9.32282 25.0922 9.51705 25.1817 9.69014C25.2712 9.86323 25.4062 10.0086 25.5722 10.1107C25.6275 10.1493 25.6908 10.1751 25.7574 10.1861C25.824 10.1972 25.8922 10.1931 25.957 10.1744L26.1423 10.1014L27.1132 9.47232L27.1378 9.25065C27.1743 8.92245 27.1135 8.49702 26.8118 8.2469C26.6687 8.13433 26.4921 8.07265 26.3099 8.07159Z" fill="white"/>
<path d="M29.833 8.63995C29.1553 9.0472 28.454 9.47413 27.9474 10.0939H28.3342C28.0369 9.7959 27.7521 9.48575 27.4739 9.16973C27.431 9.12722 27.3754 9.10001 27.3155 9.09227C27.2556 9.08454 27.1949 9.09671 27.1426 9.12692L25.7112 10.0549C25.6496 10.0924 25.605 10.1524 25.5866 10.2222C25.5683 10.292 25.5778 10.3661 25.613 10.4291C26.0159 11.1192 26.4538 11.7905 26.9205 12.4393C27.2264 12.8644 27.8003 13.5265 28.3691 13.0945C28.43 13.0563 28.474 12.9963 28.4922 12.9267C28.5105 12.8572 28.5015 12.7833 28.4671 12.7202C28.4302 12.6579 28.3702 12.6128 28.3002 12.5944C28.2302 12.5761 28.1557 12.586 28.093 12.6221C28.0612 12.6508 28.0233 12.6719 27.9822 12.6839C27.9999 12.6807 27.9334 12.6771 27.9345 12.6774C27.8546 12.6491 27.7819 12.6034 27.7217 12.5438C27.5479 12.3747 27.3949 12.1855 27.2659 11.9802C26.8592 11.3785 26.4521 10.7815 26.0854 10.1531L25.9873 10.5274L27.4187 9.5998L27.0872 9.55714C27.3653 9.87317 27.6501 10.1832 27.9474 10.4813C27.9989 10.5321 28.0684 10.5607 28.1408 10.5607C28.2132 10.5607 28.2827 10.5321 28.3342 10.4813C28.8138 9.89491 29.4676 9.4982 30.1091 9.11284C30.41 8.93178 30.1365 8.45862 29.833 8.6405V8.63995Z" fill="#211715"/>
<path d="M27.4107 9.25053C27.4358 9.05809 27.4222 8.86259 27.3709 8.67545C27.3195 8.48831 27.2313 8.3133 27.1115 8.16063C26.8302 7.82491 26.3781 7.75202 25.9673 7.82955C25.1486 7.98408 24.5596 8.85792 24.8742 9.66597C25.0413 10.0951 25.5169 10.607 26.0297 10.4382C26.0989 10.4177 26.1574 10.3712 26.1931 10.3085C26.2288 10.2458 26.2388 10.1717 26.2211 10.1018C26.2014 10.0322 26.155 9.97306 26.0921 9.93725C26.0292 9.90144 25.9547 9.89178 25.8847 9.91035C25.8667 9.91841 25.847 9.9222 25.8273 9.92144C25.8075 9.92069 25.7882 9.91539 25.7708 9.90597C25.7151 9.8819 25.6635 9.84934 25.6178 9.80943C25.5203 9.72572 25.4438 9.62028 25.3945 9.5016C25.3482 9.38921 25.3287 9.26756 25.3376 9.14633C25.3465 9.02509 25.3836 8.90761 25.4459 8.80322C25.5082 8.69689 25.5915 8.60431 25.6906 8.53107C25.7897 8.45783 25.9026 8.40545 26.0226 8.3771C26.1384 8.34642 26.2589 8.33715 26.3781 8.34975C26.4123 8.35559 26.4461 8.36358 26.4793 8.37368C26.493 8.37792 26.5075 8.38257 26.5213 8.38736C26.5662 8.40391 26.494 8.37368 26.537 8.39447C26.5891 8.41651 26.6357 8.44954 26.6738 8.49129C26.7646 8.58563 26.8251 8.70497 26.8476 8.83399C26.8528 8.85628 26.8658 8.92821 26.8656 8.92629C26.8622 8.90058 26.8673 8.94735 26.8672 8.94708C26.8688 8.97087 26.8707 8.99439 26.8717 9.01819C26.8745 9.09578 26.8718 9.17347 26.8635 9.25066C26.864 9.32305 26.8929 9.39232 26.9441 9.4435C26.9953 9.49469 27.0646 9.52366 27.137 9.52416C27.209 9.52259 27.2777 9.49328 27.3286 9.44232C27.3796 9.39137 27.4089 9.32271 27.4105 9.25066L27.4107 9.25053Z" fill="#211715"/>
<path d="M28.4637 14.2202C28.5127 15.0336 28.4703 15.8508 28.5299 16.6635C28.5321 16.7354 28.5616 16.8037 28.6124 16.8546C28.6632 16.9054 28.7316 16.9349 28.8034 16.937C29.7325 17.0117 30.6623 17.0806 31.595 17.0738C32.6353 17.0626 33.6711 16.9341 34.6826 16.6909C34.74 16.6744 34.7906 16.6399 34.8268 16.5924C34.863 16.5449 34.8829 16.4869 34.8835 16.4272C34.8781 16.1223 34.856 15.818 34.8173 15.5155C34.8152 15.4436 34.7857 15.3753 34.7348 15.3245C34.684 15.2736 34.6157 15.2441 34.5438 15.242C34.4714 15.2424 34.4021 15.2714 34.3509 15.3226C34.2997 15.3738 34.2707 15.4431 34.2703 15.5155C34.309 15.818 34.3311 16.1223 34.3365 16.4272L34.5372 16.1634C33.5526 16.3995 32.544 16.5216 31.5315 16.5273C30.6199 16.531 29.7114 16.4637 28.8034 16.3906L29.0769 16.6641C29.0173 15.8514 29.0597 15.0341 29.0107 14.2207C28.9897 13.8709 28.4425 13.8686 28.4637 14.2207V14.2202Z" fill="#211715"/>
<path d="M31.5573 13.874C31.3506 13.3471 31.1303 12.5266 30.8645 11.7832C29.8692 11.8353 28.9652 11.8885 28.0808 11.9246C28.4016 13.0394 28.75 14.15 29.126 15.2565C29.4132 15.2312 29.8859 15.205 30.2141 15.1686L31.5573 13.874Z" fill="white"/>
<path d="M31.8211 13.8013C31.556 13.1167 31.374 12.4022 31.1282 11.7105C31.1113 11.6534 31.0766 11.6031 31.0292 11.567C30.9818 11.5309 30.9242 11.5109 30.8646 11.5098C29.9367 11.5584 29.0091 11.6129 28.0809 11.6512C28.039 11.6518 27.9977 11.6619 27.9603 11.6808C27.9229 11.6997 27.8902 11.7268 27.8648 11.7602C27.8394 11.7935 27.8219 11.8322 27.8137 11.8733C27.8054 11.9144 27.8066 11.9568 27.8171 11.9974C28.1394 13.1159 28.4878 14.2266 28.8623 15.3297C28.879 15.387 28.9136 15.4374 28.9611 15.4736C29.0086 15.5097 29.0664 15.5297 29.1261 15.5305C29.4886 15.4995 29.8524 15.4814 30.2142 15.4426C30.2861 15.4405 30.3545 15.4111 30.4053 15.3602C30.4562 15.3094 30.4857 15.241 30.4877 15.1691C30.4872 15.0967 30.4583 15.0274 30.4071 14.9762C30.3559 14.925 30.2866 14.896 30.2142 14.8956C29.8524 14.9344 29.4886 14.9525 29.1261 14.9835L29.3897 15.1844C29.0153 14.082 28.667 12.9713 28.3447 11.8523L28.0809 12.1982C29.0091 12.1599 29.9367 12.1054 30.8646 12.0568L30.6008 11.8563C30.8469 12.5478 31.0285 13.2625 31.2937 13.9471C31.3147 14.0159 31.3613 14.0741 31.4238 14.1097C31.4864 14.1453 31.5602 14.1556 31.6301 14.1385C31.6998 14.1188 31.759 14.0725 31.7949 14.0095C31.8307 13.9465 31.8403 13.872 31.8216 13.802L31.8211 13.8013Z" fill="#211715"/>
<path d="M30.9602 14.0783C30.9186 14.0919 30.8785 14.1096 30.8405 14.1313C30.1585 14.5261 30.3482 15.5165 30.7311 15.8292C31.4832 16.4426 32.0454 16.4309 32.8247 16.0362C33.1496 15.816 33.3707 15.522 33.3483 15.0789C33.3315 14.7479 33.2307 14.5329 33.046 14.4225C32.9327 14.3428 32.7969 14.3013 32.6585 14.3042C32.52 14.3071 32.386 14.3542 32.2762 14.4385C32.0274 14.2531 31.7451 14.1175 31.4449 14.0391C31.2826 14.0111 31.1159 14.0246 30.9602 14.0783Z" fill="white"/>
<path d="M30.8875 13.8148C30.6367 13.9112 30.425 14.0881 30.2856 14.3178C30.1462 14.5475 30.087 14.817 30.1172 15.084C30.1338 15.3177 30.2019 15.545 30.3165 15.7494C30.4642 15.9737 30.6647 16.1584 30.9002 16.2874C31.1504 16.4481 31.4359 16.5456 31.7322 16.5713C32.0284 16.5971 32.3265 16.5504 32.6006 16.4352C32.9054 16.3313 33.1742 16.1428 33.3757 15.8916C33.5501 15.658 33.6371 15.3708 33.6218 15.0797C33.6065 14.7432 33.5027 14.3973 33.2087 14.2027C33.0516 14.0936 32.8648 14.0352 32.6735 14.0352C32.4822 14.0352 32.2954 14.0936 32.1382 14.2027H32.4143C31.9631 13.8914 31.4399 13.6438 30.8871 13.8145C30.5518 13.918 30.6948 14.4463 31.0325 14.342C31.2142 14.2832 31.411 14.292 31.5867 14.3667C31.7827 14.4461 31.968 14.5497 32.1382 14.6751C32.1798 14.7005 32.2276 14.7139 32.2763 14.7139C32.325 14.7139 32.3728 14.7005 32.4143 14.6751C32.4871 14.6168 32.5773 14.5847 32.6705 14.5839C32.7638 14.5832 32.8545 14.6139 32.9281 14.6711C32.97 14.7066 33.0022 14.7521 33.0218 14.8034C33.0592 14.9048 33.0777 15.0123 33.0765 15.1205C33.0835 15.5331 32.7793 15.7847 32.4168 15.9222C32.2379 16.0026 32.0428 16.0406 31.8468 16.0332C31.6508 16.0259 31.4591 15.9734 31.2867 15.8799C31.178 15.8198 31.0739 15.7516 30.9755 15.676C30.9435 15.6521 30.9129 15.6263 30.884 15.5988C30.873 15.5883 30.863 15.5768 30.8525 15.566C30.8446 15.5574 30.8369 15.5485 30.8295 15.5395C30.8453 15.5603 30.8475 15.5627 30.836 15.5469C30.8168 15.5195 30.7989 15.4911 30.7824 15.4618C30.7758 15.4503 30.7305 15.3586 30.7467 15.3958C30.7143 15.318 30.6901 15.237 30.6746 15.1543C30.6461 15.0007 30.6564 14.8424 30.7046 14.6938C30.7311 14.6152 30.774 14.5431 30.8306 14.4824C30.8872 14.4218 30.9562 14.3739 31.0328 14.342C31.1018 14.3212 31.1601 14.2747 31.1958 14.212C31.2314 14.1494 31.2416 14.0755 31.2242 14.0056C31.2043 13.9359 31.1579 13.8769 31.0949 13.8412C31.0319 13.8055 30.9575 13.796 30.8875 13.8148Z" fill="#211715"/>
<path d="M29.5382 5.04031C29.0228 5.97979 28.9209 7.14928 29.4657 8.10243C29.6794 8.47007 29.9761 8.78263 30.3322 9.01514C30.6883 9.24764 31.0938 9.39365 31.5163 9.44148C31.9389 9.48932 32.3667 9.43766 32.7658 9.29064C33.1648 9.14361 33.5239 8.90529 33.8144 8.59473C34.0563 8.33914 33.6701 7.952 33.4276 8.208C33.0408 8.62094 32.5098 8.8692 31.9449 8.90133C31.38 8.93346 30.8243 8.74699 30.3931 8.38058C29.5017 7.59877 29.4673 6.30607 30.0102 5.316C30.1795 5.00722 29.7073 4.73085 29.5379 5.0399L29.5382 5.04031Z" fill="#211715"/>
<path d="M30.7893 6.35484C30.7805 6.41766 30.7578 6.47773 30.7229 6.53073C30.6881 6.58372 30.6419 6.62832 30.5877 6.6613C30.5114 6.70162 30.4223 6.71074 30.3394 6.68674C30.2827 6.6715 30.2304 6.64315 30.1867 6.60398C30.1431 6.56481 30.1092 6.51591 30.0879 6.46124C30.0577 6.37381 30.056 6.27907 30.0831 6.19063C30.1101 6.10218 30.1644 6.02457 30.2383 5.96893C30.31 5.91894 30.3979 5.89792 30.4845 5.91013C30.571 5.92233 30.6497 5.96684 30.7048 6.03471C30.7418 6.07845 30.7685 6.12987 30.7831 6.18525C30.7978 6.24062 30.7999 6.29856 30.7893 6.35484Z" fill="#211715"/>
<path d="M32.3619 6.94318C32.3531 7.00598 32.3304 7.06604 32.2955 7.11903C32.2607 7.17202 32.2145 7.21662 32.1604 7.24963C32.084 7.28993 31.9949 7.299 31.912 7.27493C31.8553 7.25976 31.803 7.23145 31.7593 7.1923C31.7157 7.15314 31.6818 7.10424 31.6605 7.04957C31.6304 6.96214 31.6287 6.86741 31.6557 6.77896C31.6827 6.69051 31.7371 6.6129 31.811 6.55727C31.8826 6.5073 31.9706 6.48631 32.0571 6.49851C32.1436 6.51071 32.2223 6.5552 32.2774 6.62304C32.3144 6.66679 32.3411 6.71822 32.3557 6.77359C32.3703 6.82896 32.3725 6.88689 32.3619 6.94318Z" fill="#211715"/>
<path d="M30.0105 5.31634C30.183 4.90078 30.4622 4.53815 30.8199 4.26514C31.2158 3.99688 31.6839 3.85559 32.1621 3.86009C33.0523 3.83944 33.9188 4.22931 34.3457 5.03888C34.6003 5.51644 34.6682 6.07164 34.5361 6.59646C34.4482 6.93765 34.9756 7.08315 35.0635 6.74196C35.1982 6.20944 35.1694 5.64871 34.9809 5.13279C34.7924 4.61687 34.4529 4.16967 34.0066 3.84942C33.079 3.2067 31.7315 3.10441 30.7363 3.66905C30.2017 3.9876 29.7822 4.46776 29.5381 5.04024C29.5038 5.10337 29.4948 5.17723 29.513 5.24675C29.5312 5.31628 29.5753 5.37623 29.6362 5.41439C29.699 5.45046 29.7734 5.4604 29.8434 5.44205C29.9135 5.42371 29.9735 5.37855 30.0105 5.31634Z" fill="#211715"/>
<path d="M30.1783 4.87003C30.467 5.2106 30.8248 5.48594 31.2279 5.67782C31.4087 5.7626 31.6853 5.91863 31.8921 5.86175C32.1754 5.78393 32.1697 5.45368 32.2085 5.2171L31.7514 5.33786C32.0465 5.60288 32.3394 5.87022 32.637 6.13292C32.8866 6.34181 33.1746 6.50006 33.4848 6.59883C33.8181 6.71438 33.9612 6.18625 33.6302 6.07138C33.0308 5.86352 32.5992 5.36521 32.1378 4.95099C32 4.82723 31.7164 4.85458 31.6808 5.07174C31.6781 5.19888 31.6564 5.32491 31.6164 5.44561L31.7144 5.34756L31.6811 5.36124L31.819 5.32391C31.7078 5.30303 31.601 5.26271 31.5037 5.2048C31.3816 5.14738 31.2636 5.08159 31.1506 5.00788C30.9311 4.8619 30.7338 4.68499 30.5649 4.48262C30.3363 4.21418 29.951 4.60269 30.178 4.86935L30.1783 4.87003Z" fill="#211715"/>
<path d="M29.9269 8.98217C29.9992 9.47536 30.1401 9.95601 30.3456 10.4101C30.4385 10.6226 30.549 10.827 30.676 11.021C30.7437 11.1458 30.8565 11.2399 30.9914 11.2841C31.0586 11.2981 31.128 11.2984 31.1954 11.2851C31.2628 11.2719 31.3268 11.2452 31.3837 11.2067C31.5796 11.0671 31.7596 10.9066 31.9207 10.7281C32.0734 10.5749 32.2187 10.4148 32.3566 10.2478C32.6554 9.88315 32.918 9.49017 33.1404 9.07448C33.3071 8.76446 32.835 8.48782 32.6682 8.79838C32.3057 9.47488 31.8303 10.0844 31.2623 10.6006C31.2237 10.6359 31.1858 10.6735 31.1447 10.7059C31.1274 10.7196 31.0763 10.7406 31.0726 10.7536C31.1652 10.802 31.1945 10.805 31.1604 10.7625C31.1478 10.7438 31.1355 10.7249 31.1238 10.7058C31.095 10.6604 31.0674 10.6141 31.0405 10.5677C30.9425 10.4004 30.8557 10.2268 30.7807 10.048C30.6217 9.65925 30.512 9.25212 30.4541 8.83612C30.4345 8.76635 30.3882 8.70713 30.3252 8.67129C30.2622 8.63544 30.1877 8.62588 30.1177 8.64467C30.0487 8.66549 29.9903 8.71204 29.9547 8.77468C29.9191 8.83732 29.9089 8.91127 29.9262 8.98121L29.9269 8.98217Z" fill="#211715"/>
</g>
<defs>
<clipPath id="clip0_103_415">
<rect width="50" height="50" fill="white"/>
</clipPath>
</defs>
</svg>
