<svg width="50" height="50" viewBox="0 0 50 50" fill="none" xmlns="http://www.w3.org/2000/svg">
<g clip-path="url(#clip0_103_515)">
<path d="M27.0442 32.769C26.4725 32.4356 25.3497 31.7748 24.052 31.0102C24.0224 30.9928 23.9979 30.9679 23.9808 30.9382C23.9637 30.9084 23.9547 30.8746 23.9546 30.8403V28.8076L14.6169 34.2059V36.0685C14.617 36.103 14.6262 36.1369 14.6435 36.1668C14.6607 36.1967 14.6856 36.2216 14.7154 36.2389C16.2458 37.1282 17.5438 37.8827 18.0668 38.185C18.0967 38.2026 18.1307 38.2118 18.1654 38.2116C18.2 38.2113 18.2339 38.2017 18.2636 38.1838C19.3547 37.5304 24.4036 34.632 27.0441 33.1078C27.0738 33.0907 27.0985 33.066 27.1157 33.0363C27.1329 33.0065 27.1419 32.9728 27.1419 32.9385C27.142 32.9041 27.1329 32.8704 27.1158 32.8407C27.0986 32.8109 27.074 32.7862 27.0442 32.769Z" fill="#CFCFCF"/>
<path d="M32.8176 0.711636C32.8176 5.90861 32.8176 16.135 32.8189 23.4756C32.8191 23.5389 32.8026 23.6011 32.771 23.656C32.7393 23.7108 32.6937 23.7563 32.6388 23.7877C25.0919 28.1491 10.9803 36.3088 3.6808 40.528C3.59854 40.5757 3.50516 40.6009 3.41007 40.601C3.31498 40.6011 3.22155 40.5762 3.13918 40.5286C3.05682 40.4811 2.98844 40.4127 2.94094 40.3303C2.89344 40.248 2.8685 40.1545 2.86863 40.0594C2.86863 34.1136 2.86754 24.3358 2.86646 17.7091C2.86646 17.6143 2.89148 17.5211 2.93899 17.439C2.9865 17.3569 3.05482 17.2888 3.13706 17.2416C9.79321 13.394 28.8127 2.39931 32.2739 0.399291C32.3289 0.367696 32.3912 0.351071 32.4546 0.351074C32.5181 0.351077 32.5804 0.367707 32.6354 0.399307C32.6904 0.430908 32.7362 0.476374 32.7682 0.531174C32.8001 0.585975 32.8172 0.648196 32.8176 0.711636Z" fill="white"/>
<path d="M4.10732 40.2815L2.86865 40.9975C2.86865 39.6891 2.86865 38.143 2.86865 36.4521C9.93806 32.3658 25.032 23.6388 32.818 19.1392C32.818 20.7277 32.818 22.2621 32.818 23.6837C25.4607 27.9365 11.5789 35.9629 4.10732 40.2815Z" fill="#CFCFCF"/>
<path d="M23.1166 20.9621L26.1759 19.1933C26.1759 16.9998 26.1749 13.7386 26.1743 8.38721L23.1155 10.1562C23.1155 10.3791 23.1162 17.5147 23.1166 20.9621Z" fill="#3F88C9"/>
<path d="M16.9109 24.5716L19.9704 22.8028C19.9704 20.6093 19.9692 19.6341 19.9688 14.2827L16.9098 16.0517C16.9098 16.2755 16.9105 21.1254 16.9109 24.5716Z" fill="#3F88C9"/>
<path d="M10.7419 28.1462L13.8013 26.3774C13.8013 24.1839 13.8002 26.3543 13.7996 21.0029L10.7408 22.7717C10.7408 22.995 10.7415 24.6997 10.7419 28.1462Z" fill="#3F88C9"/>
<path d="M32.4546 0.711418C32.4546 4.7647 32.4546 8.81744 32.4546 12.8696C32.4546 15.2204 32.4546 17.5713 32.4546 19.9222C32.4546 20.9977 32.4546 22.0732 32.4546 23.1487C32.4701 23.256 32.4707 23.365 32.4563 23.4725C32.4229 23.5218 32.2953 23.5661 32.2426 23.5964L31.7212 23.8979L30.6241 24.532C27.125 26.5545 23.626 28.5772 20.1273 30.6001L9.0237 37.02L4.381 39.7037L3.86883 40.0002C3.74451 40.0728 3.55812 40.2362 3.41511 40.2391C3.26901 40.2411 3.23725 40.1235 3.23198 40.0046C3.22127 39.7601 3.23198 39.5127 3.23198 39.2681V36.2735C3.23198 31.6879 3.2315 27.1022 3.23053 22.5166C3.23053 21.4211 3.23053 20.3256 3.23053 19.2301V18.4573C3.21111 18.2081 3.21111 17.9578 3.23053 17.7085C3.26683 17.4922 3.69025 17.3406 3.86792 17.2379C4.99764 16.5846 6.1273 15.9316 7.25689 15.2791C10.2256 13.5624 13.1946 11.846 16.1641 10.1299L25.3411 4.82471L31.749 1.12032L32.1889 0.866229L32.3688 0.762054C32.3997 0.74726 32.4294 0.730088 32.4577 0.710692C32.461 0.708151 32.455 0.706518 32.4553 0.710692C32.4916 1.17349 33.2176 1.1773 33.1813 0.710692C33.1777 0.580202 33.1395 0.453013 33.0707 0.342093C33.0018 0.231173 32.9048 0.140492 32.7895 0.0792957C32.6742 0.0180997 32.5447 -0.0114218 32.4143 -0.00625815C32.2838 -0.00109451 32.1571 0.0385695 32.047 0.108689C31.9105 0.184008 31.7769 0.264771 31.6419 0.342811L30.5268 0.987465L27.3145 2.84447L18.422 7.98536L8.93622 13.4695L4.97973 15.7562L3.38135 16.6804C3.0494 16.8722 2.68316 17.035 2.54994 17.4265C2.49344 17.6821 2.478 17.945 2.50421 18.2054V19.0352C2.50421 23.7217 2.50469 28.4081 2.50566 33.0947C2.50566 35.2293 2.50566 37.3637 2.50566 39.4979C2.50566 39.9892 2.44813 40.5324 2.93379 40.8282C3.41946 41.124 3.85086 40.8487 4.27682 40.6024L6.48828 39.3242L17.322 33.0613C21.0835 30.8865 24.8452 28.7118 28.6068 26.5375L30.9918 25.1581L32.133 24.4984C32.4944 24.2895 33.0652 24.0875 33.1633 23.6347C33.1974 23.3638 33.2035 23.0901 33.1815 22.818V21.9438C33.1815 21.3883 33.1815 20.8326 33.1815 20.2768C33.1815 19.0927 33.1815 17.9087 33.1815 16.7247C33.1815 12.197 33.1815 7.66939 33.1815 3.14193V0.711418C33.1806 0.244262 32.4546 0.243536 32.4546 0.711418Z" fill="#211715"/>
<path d="M3.05231 36.7654L7.98884 33.9115C10.0174 32.739 12.0459 31.5663 14.0742 30.3935C16.2681 29.1254 18.4618 27.8572 20.6554 26.5889L26.9894 22.9274L32.4232 19.7867L33.0025 19.4518C33.4069 19.2182 33.0417 18.5906 32.6361 18.825L27.3622 21.874L21.1031 25.4924L14.5118 29.3037L8.33149 32.875L3.21456 35.8333L2.68588 36.1389C2.28152 36.3727 2.64668 37.0003 3.05231 36.7658V36.7654Z" fill="#211715"/>
<path d="M23.2997 21.2745L24.9286 20.3328L25.6832 19.8972L26.097 19.658C26.2458 19.572 26.4369 19.5008 26.5077 19.3328C26.548 19.1752 26.5585 19.0115 26.5389 18.85V18.407C26.5389 18.0837 26.5389 17.7605 26.5389 17.4375C26.5389 15.7491 26.5389 14.0608 26.5389 12.3724V8.3869C26.5379 8.32343 26.5204 8.26131 26.4882 8.20663C26.4559 8.15195 26.41 8.10659 26.355 8.07499C26.2999 8.04339 26.2376 8.02664 26.1741 8.02637C26.1106 8.0261 26.0482 8.04233 25.9928 8.07347L23.901 9.2831C23.5816 9.46786 23.2393 9.63519 22.9338 9.84245C22.8735 9.8844 22.8252 9.94136 22.7937 10.0077C22.7622 10.074 22.7486 10.1474 22.7541 10.2207C22.7423 10.7038 22.7541 11.1886 22.7541 11.6726C22.7541 13.6731 22.7541 15.6738 22.7541 17.6747C22.7541 18.7705 22.7541 19.8665 22.7541 20.9625C22.7541 21.4297 23.4801 21.4304 23.4801 20.9625L23.479 11.1984V10.1552L23.2992 10.4684L26.358 8.69961L25.8119 8.38618C25.8119 11.4494 25.8124 14.5126 25.8133 17.5759C25.8133 18.1146 25.8133 18.6534 25.8133 19.1923L25.9932 18.8789L22.9336 20.6477C22.5289 20.8814 22.895 21.509 23.2997 21.2745Z" fill="#211715"/>
<path d="M17.0942 24.8852L18.7231 23.9434L19.4775 23.5078L19.8915 23.2686C20.0403 23.1826 20.2314 23.1115 20.3022 22.9434C20.398 22.716 20.3334 22.3459 20.3332 22.0986C20.3332 21.8566 20.3332 21.6146 20.3332 21.3726C20.3332 20.1951 20.3329 19.0176 20.3323 17.8401C20.3323 16.6543 20.3323 15.4686 20.3323 14.2829C20.3313 14.2194 20.3138 14.1573 20.2815 14.1026C20.2492 14.0479 20.2033 14.0026 20.1482 13.971C20.0932 13.9394 20.0308 13.9226 19.9673 13.9224C19.9039 13.9221 19.8414 13.9383 19.7861 13.9694C18.7917 14.5446 17.7715 15.0894 16.7967 15.6981C16.5624 15.8446 16.5474 16.0023 16.5474 16.2397V16.8099V21.4846C16.5474 22.5136 16.5474 23.5427 16.5474 24.5717C16.5474 25.0389 17.2733 25.0396 17.2733 24.5717C17.2733 21.9844 17.2733 19.3971 17.2733 16.8099C17.2733 16.5573 17.2733 16.3046 17.2733 16.0519L17.0936 16.3651L20.1525 14.5963L19.6058 14.2834C19.6058 16.6791 19.6063 19.0748 19.6071 21.4704C19.6071 21.9146 19.6071 22.3587 19.6071 22.8027L19.787 22.4893C18.767 23.0788 17.7471 23.6684 16.7274 24.2581C16.3234 24.4921 16.688 25.1197 17.0942 24.8852Z" fill="#211715"/>
<path d="M10.925 28.4593L12.5539 27.5176L13.3085 27.082L13.7223 26.8426C13.8711 26.7566 14.0622 26.6854 14.133 26.5174C14.2174 26.3177 14.1642 26.0032 14.1642 25.784C14.1642 25.6541 14.1642 25.5243 14.1642 25.3945C14.1642 24.9197 14.1639 24.445 14.1633 23.9703C14.1633 22.9812 14.1633 21.9922 14.1633 21.0032C14.1624 20.9396 14.145 20.8773 14.1127 20.8225C14.0804 20.7677 14.0344 20.7222 13.9792 20.6906C13.924 20.659 13.8616 20.6422 13.798 20.6421C13.7344 20.6419 13.6718 20.6584 13.6165 20.6897L11.2684 22.0475L10.7321 22.3576C10.5506 22.4625 10.3912 22.5505 10.3778 22.7816C10.374 22.8446 10.3778 22.9086 10.3778 22.9718C10.3778 23.8002 10.3778 24.6287 10.3778 25.4571C10.3778 26.3537 10.3778 27.2501 10.3778 28.1464C10.3778 28.6136 11.1038 28.6145 11.1038 28.1464C11.1038 26.355 11.1034 24.5635 11.1027 22.772L10.9239 23.0854L13.9838 21.316L13.4375 21.0026C13.4375 22.4803 13.438 23.9579 13.439 25.4355C13.439 25.7495 13.439 26.0633 13.439 26.3771L13.6188 26.0636C12.5991 26.6532 11.5793 27.2429 10.5593 27.8325C10.1544 28.0664 10.5194 28.6934 10.925 28.4593Z" fill="#211715"/>
<path d="M14.2539 34.2545V35.7851C14.2539 36.0618 14.237 36.3353 14.4913 36.5206C14.7485 36.6911 15.0143 36.8482 15.2877 36.9914L16.0536 37.4364C16.4759 37.6818 16.8983 37.9271 17.3207 38.1724C17.6594 38.3689 18.0438 38.6998 18.446 38.4972C18.887 38.2756 19.307 37.9912 19.7345 37.7435C21.2399 36.8697 22.7476 35.9994 24.2575 35.1326C25.0208 34.693 25.7842 34.2533 26.5475 33.8133C26.8729 33.6257 27.4693 33.4191 27.4987 32.9876C27.5308 32.5166 27.0161 32.3322 26.6762 32.1329C26.1618 31.8312 25.6476 31.5287 25.1335 31.2255L24.6936 30.9665L24.4662 30.8325L24.3509 30.7645C24.2964 30.7178 24.285 30.7428 24.317 30.8396C24.2952 30.8184 24.317 30.656 24.317 30.63V28.9371C24.317 28.4699 23.591 28.4692 23.591 28.9371C23.591 29.5668 23.5578 30.2053 23.591 30.834C23.6123 31.2345 23.9464 31.369 24.2518 31.5489L25.3175 32.1763C25.6141 32.3507 25.9105 32.525 26.2068 32.6994L26.588 32.9231C26.6415 32.9543 26.6947 32.9917 26.7513 33.0182C26.9257 33.1014 26.7107 32.9736 26.7724 32.8912L26.9027 32.7611C26.5417 33.005 26.1651 33.2249 25.7753 33.4195C25.3459 33.6671 24.9163 33.9144 24.4867 34.1616C23.5936 34.676 22.7006 35.1902 21.8077 35.7043C21.0204 36.1584 20.2339 36.6131 19.4483 37.0686C19.1547 37.239 18.8613 37.4098 18.5683 37.5809C18.4647 37.6414 18.3611 37.7023 18.2576 37.7635C18.2212 37.7817 18.1861 37.8025 18.1527 37.8257C18.1334 37.8354 18.1149 37.8465 18.0971 37.8588C18.2277 37.8765 18.2599 37.8697 18.1937 37.8383L18.1325 37.8029C17.6884 37.5456 17.2446 37.288 16.8011 37.0301L15.8701 36.4892C15.5201 36.3122 15.1817 36.1129 14.8572 35.8927L14.9873 36.0228C14.9993 36.0384 14.9831 36.0909 14.9793 35.999C14.977 35.9386 14.9793 35.8776 14.9793 35.8175V34.2536C14.9793 33.7865 14.2534 33.7858 14.2534 34.2536L14.2539 34.2545Z" fill="#211715"/>
<path d="M5.88208 22.3871C8.19415 20.2431 10.501 18.0935 12.8027 15.9384C13.1435 15.6173 12.6293 15.1048 12.2892 15.4251C9.99411 17.587 7.68725 19.7366 5.36865 21.8738C5.02545 22.1922 5.53961 22.7047 5.88208 22.3871Z" fill="#211715"/>
<path d="M18.3243 36.8788C20.1445 35.8135 21.9784 34.7716 23.8029 33.714C24.1674 33.5028 24.5322 33.2922 24.8941 33.0768C25.2952 32.8381 24.9304 32.2104 24.5276 32.4501C22.7265 33.5218 20.8995 34.5511 19.0844 35.5992C18.7085 35.8169 18.3325 36.0327 17.9579 36.2525C17.555 36.4885 17.9199 37.1162 18.3243 36.8794V36.8788Z" fill="#211715"/>
<path d="M46.8807 46.6576L46.6992 46.5596C46.125 46.8362 44.3152 46.8701 43.9724 46.6222C43.3179 47.3748 42.3752 47.4837 41.5262 47.3697C41.4102 47.3609 41.2957 47.338 41.1852 47.3015C40.8817 47.1987 40.602 47.0357 40.3631 46.8222C40.3607 46.8198 40.3574 46.8186 40.3553 46.816L40.2509 46.8256C40.111 46.7416 39.6843 46.8282 39.5093 47.0913C39.3344 47.3545 39.3407 47.8614 39.4395 48.1621C39.6547 48.8155 40.2847 49.148 40.9326 49.3816C41.6008 49.6341 42.3254 49.6986 43.0277 49.5681C43.1755 49.5313 43.314 49.464 43.4343 49.3706C43.5546 49.2771 43.654 49.1596 43.7263 49.0255C43.8109 48.8666 43.865 48.6932 43.8858 48.5144L45.0003 48.7707C45.2275 48.8292 45.4612 48.8592 45.6958 48.86C45.8069 48.8592 45.918 48.8527 46.0285 48.8407C46.1915 48.8319 46.3506 48.7869 46.4942 48.7091C46.6378 48.6313 46.7623 48.5226 46.8588 48.3908C46.969 48.1801 47.0252 47.9453 47.0221 47.7075C47.0283 47.4685 46.8731 46.8957 46.8807 46.6576Z" fill="white"/>
<path d="M43.778 21.9497C43.7476 22.0945 43.6906 22.2324 43.6101 22.3565C43.4418 22.6041 43.213 22.8047 42.9455 22.9392C43.1814 23.3658 43.5031 23.739 43.8902 24.0352C44.2774 24.3315 44.7216 24.5444 45.195 24.6607C45.0246 24.8155 44.8842 25.0004 44.7809 25.2062C44.3757 25.1799 43.9687 25.2113 43.5723 25.2995C42.5727 25.4939 41.1948 25.9476 40.8344 26.1817C40.6062 26.3362 40.4037 26.5255 40.2344 26.7429L40.4652 25.9988C40.5541 25.7263 40.556 25.4329 40.4707 25.1592C40.3586 24.8911 40.1579 24.6695 39.9022 24.5314L39.9977 24.0164C39.9957 24.0147 39.9939 24.0127 39.9921 24.0109C39.5356 23.5327 39.2302 22.9305 39.114 22.2797C39.0037 21.7036 39.0131 21.1109 39.1417 20.5386C39.2704 19.9663 39.5155 19.4266 39.8618 18.9532C40.0205 18.7386 40.1997 18.5399 40.3968 18.3599C40.9818 19.3821 41.8061 20.2472 42.799 20.8808C42.9732 20.8381 43.1567 20.8542 43.3208 20.9266C43.4849 20.999 43.6205 21.1237 43.7065 21.2811C43.8054 21.4895 43.8306 21.7252 43.778 21.9497Z" fill="white"/>
<path d="M39.5217 24.3813C39.3204 24.3312 39.1103 24.3281 38.9077 24.3722C38.6158 24.4365 38.3573 24.6052 38.181 24.8465C38.0046 25.0879 37.9225 25.3853 37.95 25.6829L37.9746 26.0445C38.0288 26.0472 38.0821 26.0595 38.132 26.0808C38.5099 26.2592 39.5783 26.8537 39.858 27.0356L39.9669 27.1037C40.1703 26.7862 40.4232 26.5033 40.716 26.2657L40.4649 25.9987C40.5538 25.7262 40.5557 25.4328 40.4703 25.1592C40.3847 24.9639 40.2542 24.7916 40.0893 24.6564C39.9244 24.5212 39.7299 24.427 39.5217 24.3813Z" fill="white"/>
<path d="M42.3289 17.3686C41.6075 17.5205 40.9399 17.8628 40.3955 18.3599C40.9817 19.3814 41.8063 20.246 42.799 20.8798C42.9732 20.8371 43.1567 20.8532 43.3208 20.9256C43.4849 20.998 43.6205 21.1227 43.7064 21.2801C43.783 21.4529 43.8144 21.6422 43.7976 21.8305C43.7809 22.0187 43.7165 22.1995 43.6106 22.356C43.4423 22.6037 43.2135 22.8043 42.946 22.9388C43.1819 23.3653 43.5035 23.7384 43.8905 24.0346C44.2776 24.3309 44.7217 24.5439 45.195 24.6602C45.2123 24.642 45.23 24.6239 45.2486 24.6028C45.7527 24.0482 46.1159 23.6618 46.4244 23.117C46.8631 22.3541 47.0385 21.468 46.9235 20.5955C46.6723 18.8482 45.1865 17.3859 43.4231 17.2861C43.0563 17.2651 42.6884 17.2929 42.3289 17.3686Z" fill="#7A7473"/>
<path d="M40.9068 20.6717C40.8949 20.7562 40.8645 20.837 40.8176 20.9083C40.7708 20.9796 40.7087 21.0396 40.6358 21.084C40.533 21.1381 40.4133 21.1503 40.3017 21.1181C40.2254 21.0977 40.1551 21.0596 40.0963 21.0068C40.0375 20.9541 39.992 20.8883 39.9634 20.8147C39.9228 20.6972 39.9206 20.5698 39.9569 20.4509C39.9933 20.332 40.0664 20.2277 40.1658 20.153C40.2622 20.0857 40.3805 20.0575 40.4969 20.0739C40.6133 20.0903 40.7191 20.1502 40.7932 20.2415C40.8428 20.3003 40.8788 20.3694 40.8984 20.4438C40.9181 20.5182 40.9209 20.596 40.9068 20.6717Z" fill="#211715"/>
<path d="M45.2727 36.314C45.4778 36.2821 45.6882 36.2485 45.9038 36.2131C46.196 36.1654 46.6889 36.0362 46.8475 35.8458C47.0491 35.6037 47.0388 35.3478 47.0497 34.9875C47.1332 32.216 47.2943 30.1495 46.8101 27.7851C46.6586 27.045 46.4471 26.2754 45.9176 25.737C45.388 25.1985 44.7139 25.0771 43.5722 25.2992C42.5725 25.4936 41.1946 25.9473 40.8342 26.1814C40.4872 26.4297 40.1922 26.7434 39.9656 27.1049L39.8578 27.0348C39.5781 26.8533 38.5097 26.2584 38.1318 26.08C38.051 26.0474 37.9634 26.0353 37.8768 26.045C37.7656 26.0611 37.7102 26.1862 37.6772 26.2936C37.4134 27.2238 37.2156 28.1715 37.0855 29.1296C36.9177 30.0992 36.8997 31.0889 37.0322 32.0641C37.063 32.2501 37.1304 32.4281 37.2307 32.5878C37.3309 32.7475 37.4619 32.8856 37.616 32.9942C37.8861 33.2198 38.2897 33.196 38.6324 33.118C38.9872 33.0349 39.3241 32.8885 39.6269 32.6859L39.6146 33.8826C39.6133 34.4465 39.638 35.093 39.638 35.093C39.6257 35.3971 39.7854 35.9097 40.0346 36.081C40.2563 36.234 40.5522 36.3028 41.2177 36.4238C42.5781 36.671 43.7987 36.5438 45.2727 36.314Z" fill="white"/>
<path d="M42.7802 36.5585C42.2565 36.5622 41.7336 36.5172 41.2183 36.4241C40.4692 36.2879 40.1887 36.2177 39.9545 36.0195C39.9409 37.6546 40.0703 44.0746 40.197 46.4082L40.2359 46.6019C40.2917 46.8815 40.7259 47.1195 41.1841 47.3015C41.2946 47.3379 41.4091 47.3609 41.5252 47.3697C42.3734 47.4837 43.3168 47.3748 43.9713 46.6222C44.3907 46.9254 47.0054 46.8071 46.8684 46.3391C46.784 44.0202 46.7096 39.335 46.7777 37.2555C46.7777 37.2555 46.7595 36.542 46.7435 35.936C46.4828 36.0781 46.1986 36.172 45.9045 36.2134C44.8737 36.4099 43.829 36.5253 42.7802 36.5585Z" fill="#CFCFCF"/>
<path d="M39.5921 36.4687C39.6003 39.17 39.668 41.873 39.7589 44.5726C39.7796 45.1922 39.8021 45.8119 39.8357 46.4309C39.8611 46.8955 40.5872 46.8984 40.5616 46.4309C40.415 43.7343 40.3781 41.0285 40.3375 38.3288C40.328 37.7089 40.3193 37.0889 40.3181 36.4687C40.3166 36.0018 39.5907 36.0009 39.5921 36.4687Z" fill="#211715"/>
<path d="M46.4141 37.2556C46.3337 39.7837 46.3969 42.3219 46.4608 44.8498C46.476 45.4526 46.4933 46.0553 46.5178 46.6579C46.5359 47.1234 47.2619 47.1257 47.2437 46.6579C47.141 44.1291 47.1071 41.5943 47.1143 39.0638C47.1161 38.461 47.121 37.8581 47.1401 37.2556C47.155 36.7882 46.429 36.7888 46.4141 37.2556Z" fill="#211715"/>
<path d="M43.5667 39.8306C43.464 41.827 43.4096 43.8308 43.3889 45.8299C43.3852 46.1747 43.3731 46.5232 43.3988 46.8673C43.4335 47.3303 44.1598 47.3341 44.1248 46.8673C44.0667 46.0929 44.1201 45.3 44.1377 44.525C44.1633 43.3946 44.197 42.2644 44.2386 41.1344C44.2544 40.6988 44.2704 40.2651 44.293 39.8306C44.317 39.3638 43.591 39.3651 43.5671 39.8306H43.5667Z" fill="#211715"/>
<path d="M39.8857 46.6972C39.9765 47.0519 40.3068 47.2815 40.6146 47.4413C40.7988 47.5454 40.9948 47.6271 41.1985 47.6845C41.394 47.7251 41.5923 47.7504 41.7918 47.7602C42.5681 47.8383 43.3448 47.6156 43.9618 47.1379C44.0294 47.0695 44.0672 46.9773 44.0672 46.8813C44.0672 46.7852 44.0294 46.693 43.9618 46.6246C43.8927 46.5586 43.8007 46.5218 43.7051 46.5218C43.6095 46.5218 43.5176 46.5586 43.4484 46.6246C42.9995 46.9463 42.4492 47.0942 41.8996 47.0408C41.6197 47.0391 41.3431 46.9798 41.087 46.8668C40.9499 46.8079 40.82 46.7335 40.6999 46.645C40.6643 46.6145 40.6308 46.5816 40.5997 46.5466C40.6151 46.5647 40.6109 46.5563 40.5872 46.5212C40.5983 46.5511 40.5979 46.5457 40.5858 46.505C40.4694 46.0529 39.769 46.2446 39.8857 46.698V46.6972Z" fill="#211715"/>
<path d="M44.0143 47.0358C44.4777 47.1513 44.9573 47.1882 45.433 47.1447C45.929 47.1485 46.4211 47.0565 46.8822 46.8737C46.9647 46.8246 47.0246 46.745 47.049 46.6521C47.0733 46.5592 47.0601 46.4604 47.0123 46.3771C46.9623 46.2957 46.8827 46.2366 46.7902 46.2124C46.6977 46.1881 46.5994 46.2004 46.5158 46.2468C46.4504 46.2773 46.6007 46.2183 46.5276 46.2423C46.5094 46.2481 46.4927 46.2552 46.4751 46.2604C46.4328 46.2748 46.3896 46.2873 46.3464 46.2987C46.2461 46.3251 46.1439 46.3448 46.0415 46.3615L45.9653 46.3732C45.9218 46.3799 46.0232 46.3668 45.9515 46.3751C45.8916 46.382 45.8319 46.3889 45.7718 46.3946C45.6477 46.4067 45.5234 46.415 45.3989 46.4194C45.1622 46.43 44.925 46.4278 44.6885 46.4129C44.6392 46.4094 44.5898 46.4055 44.5404 46.4006C44.5125 46.3978 44.4845 46.3938 44.4566 46.3913C44.5548 46.4002 44.4664 46.3926 44.4481 46.3897C44.3666 46.3773 44.2862 46.3591 44.2074 46.3352C44.1614 46.3225 44.1134 46.319 44.0661 46.3249C44.0187 46.3308 43.973 46.3459 43.9316 46.3695C43.8901 46.393 43.8537 46.4245 43.8243 46.4621C43.795 46.4998 43.7734 46.5428 43.7608 46.5888C43.7481 46.6347 43.7446 46.6828 43.7505 46.7301C43.7563 46.7774 43.7715 46.8231 43.795 46.8646C43.8186 46.9061 43.85 46.9425 43.8877 46.9718C43.9253 47.0011 43.9683 47.0227 44.0143 47.0354V47.0358Z" fill="#211715"/>
<path d="M40.4329 46.5119C40.2891 46.452 40.133 46.4274 39.9778 46.4404C39.8225 46.4533 39.6726 46.5033 39.5407 46.5861C39.3898 46.6785 39.2637 46.8062 39.1732 46.9582C39.0827 47.1103 39.0305 47.282 39.0213 47.4587C38.9813 47.8129 39.0416 48.1711 39.1951 48.4927C39.3487 48.8143 39.5894 49.0864 39.8899 49.278C40.566 49.7152 41.3471 49.9627 42.1516 49.9945C42.9179 50.0332 43.7455 49.8709 44.0908 49.1014C44.3874 48.4404 44.268 47.6609 44.1112 46.9807C44.0061 46.5255 43.3061 46.7182 43.411 47.1736C43.4991 47.5193 43.5436 47.8746 43.5435 48.2313C43.5436 48.3381 43.533 48.4447 43.5117 48.5493C43.5006 48.5987 43.4888 48.6477 43.4736 48.6959C43.4689 48.7108 43.4164 48.8386 43.4515 48.7635C43.14 49.435 42.1867 49.3232 41.5856 49.1916C40.9959 49.0626 40.2122 48.8139 39.8815 48.262C39.737 48.013 39.6923 47.7185 39.7563 47.4379C39.762 47.3864 39.781 47.3374 39.8116 47.2957C39.8421 47.2539 39.8831 47.2209 39.9304 47.1999C39.979 47.1772 40.0371 47.1767 40.0846 47.1551C40.1075 47.1446 40.1338 47.1709 40.0665 47.1388C40.4857 47.3399 40.8545 46.7141 40.4329 46.5119Z" fill="#211715"/>
<path d="M46.5177 46.6576C46.5323 46.931 46.5713 47.2025 46.6344 47.4689C46.6435 47.505 46.6496 47.5419 46.6526 47.579C46.6526 47.4836 46.6497 47.5576 46.6526 47.5828C46.6579 47.6344 46.6596 47.6864 46.6575 47.7382C46.6557 47.7823 46.6515 47.8259 46.6482 47.8698C46.6419 47.9549 46.6587 47.8322 46.6428 47.9097C46.6333 47.9553 46.6246 48.0005 46.6128 48.0456C46.609 48.0591 46.5749 48.1613 46.5867 48.1317C46.5985 48.1021 46.5513 48.195 46.5453 48.207C46.5211 48.2414 46.5211 48.243 46.5453 48.2119C46.5353 48.2242 46.5248 48.2364 46.5137 48.2482C46.4882 48.2756 46.4611 48.3013 46.4324 48.3253C46.4894 48.2774 46.4014 48.3435 46.3874 48.3524C46.3547 48.3721 46.321 48.3887 46.2867 48.4068C46.2484 48.425 46.2469 48.425 46.2825 48.4086C46.2671 48.4144 46.2515 48.4201 46.2359 48.4251C46.1625 48.4481 46.0878 48.4663 46.0121 48.4796C45.9852 48.4838 45.9905 48.4831 46.0279 48.4774C46.0007 48.4801 45.9734 48.4829 45.946 48.485C45.9008 48.4888 45.8553 48.4919 45.8103 48.4939C45.7259 48.4976 45.6415 48.4977 45.5573 48.4939C45.5164 48.4919 45.476 48.4878 45.4353 48.4848C45.3916 48.4796 45.3889 48.4796 45.427 48.4848L45.3742 48.4769C45.2807 48.4618 45.1883 48.442 45.0961 48.4206C45.0501 48.4079 45.0021 48.4044 44.9548 48.4103C44.9075 48.4162 44.8618 48.4314 44.8204 48.4549C44.7789 48.4785 44.7425 48.5099 44.7132 48.5475C44.6839 48.5852 44.6623 48.6282 44.6496 48.6741C44.637 48.7201 44.6335 48.7681 44.6394 48.8154C44.6453 48.8627 44.6604 48.9084 44.684 48.9499C44.7075 48.9913 44.739 49.0278 44.7766 49.0571C44.8142 49.0864 44.8572 49.1079 44.9032 49.1206C45.6547 49.2965 46.7281 49.3219 47.18 48.5598C47.3535 48.2387 47.4197 47.8706 47.3691 47.5092C47.3464 47.3326 47.3146 47.158 47.2825 46.9828C47.2758 46.9445 47.2691 46.9063 47.2627 46.8678C47.2597 46.8495 47.2568 46.8314 47.254 46.8133C47.248 46.7716 47.2486 46.777 47.256 46.8315C47.2421 46.7751 47.2381 46.7167 47.2442 46.6589C47.2442 46.5626 47.206 46.4703 47.1379 46.4022C47.0698 46.3341 46.9775 46.2959 46.8812 46.2959C46.785 46.2959 46.6927 46.3341 46.6246 46.4022C46.5565 46.4703 46.5183 46.5626 46.5183 46.6589L46.5177 46.6576Z" fill="#211715"/>
<path d="M41.2284 30.4612C40.7369 31.1381 40.2153 31.8501 39.5159 32.3271C39.1849 32.5634 38.8055 32.723 38.4051 32.7944C38.2216 32.8281 38.0321 32.7995 37.8666 32.7131C37.7012 32.6267 37.5694 32.4875 37.4922 32.3176C37.4103 32.1447 37.364 31.9571 37.3559 31.7659C37.3256 31.4937 37.31 31.2191 37.3068 30.9448C37.301 30.3981 37.3396 29.8519 37.4222 29.3114C37.4991 28.8052 37.5826 28.2993 37.6815 27.7971C37.7307 27.5461 37.7846 27.296 37.8458 27.0477C37.8798 26.9098 37.9161 26.7725 37.9547 26.6359C37.9701 26.5814 37.9863 26.527 38.0024 26.4726C38.0134 26.4423 38.0226 26.4114 38.0298 26.38C38.0429 26.3386 38.0126 26.3471 37.9391 26.4054C37.9391 26.4018 38.2567 26.5497 38.2825 26.5633C38.4639 26.6588 38.6442 26.757 38.8237 26.8562C39.1102 27.0148 39.3997 27.1722 39.6756 27.3492C40.0699 27.6032 40.4344 26.9742 40.042 26.7223C39.7416 26.5295 39.4249 26.3593 39.1133 26.1871C38.7964 26.0127 38.4202 25.7399 38.056 25.6911C37.3481 25.5963 37.2492 26.4252 37.1264 26.9379C36.9812 27.5464 36.8763 28.1639 36.7766 28.7813C36.6662 29.4102 36.6012 30.0462 36.5821 30.6844C36.5775 30.9739 36.5857 31.2635 36.6098 31.5519C36.6178 31.8609 36.6695 32.1671 36.7634 32.4615C36.9449 32.9265 37.3667 33.3979 37.8705 33.504C38.3814 33.6117 38.9284 33.4496 39.3903 33.2361C40.4529 32.7461 41.1883 31.7488 41.8564 30.8283C41.9042 30.745 41.9173 30.6463 41.8929 30.5534C41.8685 30.4605 41.8086 30.3809 41.726 30.3318C41.6425 30.2853 41.5442 30.2728 41.4516 30.2971C41.3591 30.3213 41.2795 30.3804 41.2295 30.4619L41.2284 30.4612Z" fill="#211715"/>
<path d="M40.8153 26.0947C40.9476 25.7278 40.9354 25.3244 40.7812 24.9662C40.6271 24.6079 40.3424 24.3218 39.985 24.1657C39.3162 23.8535 38.4719 23.9361 37.9757 24.5236C37.7024 24.8459 37.5632 25.2609 37.587 25.6829C37.589 25.7785 37.628 25.8697 37.6956 25.9373C37.7632 26.0049 37.8543 26.0438 37.9499 26.0459C38.0459 26.045 38.1377 26.0065 38.2056 25.9386C38.2735 25.8707 38.312 25.7789 38.3129 25.6829C38.3102 25.6361 38.3087 25.5893 38.3104 25.5423C38.3104 25.527 38.3274 25.3905 38.3142 25.4684C38.3286 25.3919 38.3483 25.3165 38.373 25.2426C38.3882 25.2031 38.3882 25.2015 38.373 25.2381C38.3821 25.2183 38.3911 25.1987 38.4017 25.1793C38.4166 25.1504 38.4329 25.1221 38.4501 25.0947C38.4581 25.0818 38.5371 24.9804 38.4884 25.037C38.5167 25.004 38.5456 24.972 38.5768 24.9419C38.6004 24.9193 38.6246 24.8976 38.6494 24.8769C38.5924 24.9236 38.6982 24.8459 38.7102 24.8384C38.7485 24.8152 38.7879 24.7945 38.8282 24.7751C38.7652 24.8056 38.8617 24.7626 38.8683 24.7604C38.9125 24.7452 38.9575 24.7324 39.0031 24.7221C39.0251 24.7172 39.047 24.7129 39.0692 24.709C39.0283 24.7138 39.0296 24.7138 39.073 24.709C39.1516 24.7043 39.2304 24.7043 39.3089 24.709C39.3525 24.7136 39.3539 24.7136 39.3137 24.709C39.336 24.7127 39.3583 24.7167 39.3804 24.7214C39.4138 24.7284 39.447 24.7366 39.4799 24.7459C39.5236 24.7582 39.5667 24.7729 39.6093 24.7889C39.5432 24.7642 39.6654 24.8161 39.6777 24.8227C39.7079 24.8383 39.7374 24.8551 39.7665 24.8729C39.7774 24.8796 39.887 24.9555 39.8316 24.9132C39.8922 24.9631 39.9491 25.0171 40.0021 25.0749C40.0289 25.1076 40.0309 25.109 40.0086 25.0795C40.0218 25.0976 40.0345 25.1158 40.0469 25.1339C40.0716 25.1715 40.0915 25.2109 40.114 25.2495C40.1503 25.3129 40.108 25.2069 40.1322 25.2893C40.1479 25.3375 40.16 25.3869 40.1685 25.437C40.1619 25.3864 40.1699 25.5051 40.1701 25.5188C40.1701 25.5662 40.1678 25.6129 40.1654 25.66C40.1603 25.7059 40.16 25.7133 40.1645 25.6824C40.1605 25.7081 40.156 25.7336 40.1509 25.759C40.1411 25.8071 40.1287 25.8542 40.1146 25.9013C40.089 25.9941 40.1013 26.0933 40.1488 26.177C40.1963 26.2608 40.2752 26.3222 40.368 26.3478C40.4609 26.3734 40.5601 26.3611 40.6438 26.3136C40.7275 26.266 40.789 26.1872 40.8146 26.0944L40.8153 26.0947Z" fill="#211715"/>
<path d="M39.2522 33.8829C39.2522 34.2852 39.265 34.6871 39.2754 35.0892C39.2664 35.5317 39.4258 35.9611 39.7213 36.2905C39.9788 36.5399 40.3654 36.6246 40.7041 36.6943C41.2355 36.8088 41.775 36.8816 42.3177 36.9121C43.4359 36.9646 44.5509 36.7963 45.6519 36.6201C46.0933 36.5495 46.5929 36.49 46.9664 36.2208C47.3991 35.9092 47.4007 35.3814 47.4154 34.8998C47.4813 32.7427 47.623 30.5783 47.2938 28.4347C47.1394 27.4284 46.9395 26.3086 46.2247 25.5336C45.6021 24.8588 44.7304 24.7644 43.8653 24.8849C42.8305 25.0288 41.8219 25.3214 40.8707 25.7536C40.4069 26.001 40.0151 26.3643 39.7335 26.8082C39.36 27.334 39.0364 27.8936 38.7669 28.4795C38.7209 28.5633 38.7088 28.6614 38.733 28.7538C38.7572 28.8462 38.8159 28.9258 38.897 28.9763C38.9803 29.0241 39.0791 29.0372 39.172 29.0128C39.265 28.9885 39.3446 28.9285 39.3937 28.846C39.6093 28.3804 39.8579 27.9309 40.1378 27.5009C40.3812 27.1283 40.6538 26.7158 41.0427 26.4804C41.3063 26.3372 41.5845 26.2227 41.8725 26.1387C42.2908 25.9962 42.7161 25.8717 43.1453 25.7663C43.8332 25.5971 44.7179 25.3699 45.372 25.7614C46.098 26.196 46.3141 27.1525 46.4693 27.9196C46.8441 29.7745 46.8016 31.6663 46.7368 33.5475C46.7185 34.0771 46.7009 34.6067 46.684 35.1362C46.6793 35.2847 46.6893 35.4949 46.5751 35.6108C46.4488 35.7035 46.3022 35.7647 46.1475 35.7894C45.6735 35.9006 45.1931 35.9826 44.709 36.0348C44.2263 36.1041 43.7406 36.1589 43.2533 36.1829C42.7279 36.2124 42.201 36.1952 41.6787 36.1315C41.2299 36.0966 40.7878 36.0025 40.3638 35.8515C40.2517 35.8011 40.1627 35.7104 40.1144 35.5974C40.042 35.4392 40.0038 35.2676 40.0023 35.0936C39.9917 34.69 39.9787 34.2869 39.9788 33.8832C39.9788 33.4161 39.2529 33.4152 39.2529 33.8832L39.2522 33.8829Z" fill="#211715"/>
<path d="M45.138 25.3108C45.3377 25.0237 45.5654 24.7571 45.8177 24.515C46.0977 24.2139 46.3541 23.8918 46.5847 23.5514C47.0544 22.8374 47.3107 22.0042 47.3236 21.1496C47.3181 20.4209 47.1284 19.7054 46.772 19.0697C46.4156 18.434 45.9042 17.8988 45.2854 17.514C44.0197 16.7265 42.4075 16.7517 41.0997 17.4283C40.3966 17.804 39.8036 18.3564 39.379 19.0311C38.9545 19.7058 38.7131 20.4795 38.6786 21.2759C38.5921 23.0756 39.7427 25.1598 41.7618 25.0988C42.2279 25.0847 42.2298 24.3585 41.7618 24.3728C40.2667 24.4182 39.4305 22.8999 39.4008 21.5743C39.3831 20.899 39.5427 20.2309 39.8637 19.6365C40.1846 19.0421 40.6557 18.5422 41.23 18.1866C42.2787 17.5543 43.64 17.4359 44.7311 18.0307C45.2512 18.3141 45.693 18.7218 46.0171 19.2175C46.3413 19.7132 46.5376 20.2815 46.5887 20.8715C46.6356 21.7028 46.4069 22.5262 45.9381 23.2142C45.7131 23.5349 45.4644 23.8382 45.1939 24.1217C44.9384 24.3712 44.7093 24.6465 44.5103 24.9431C44.2727 25.3465 44.8999 25.7122 45.1371 25.3095L45.138 25.3108Z" fill="#211715"/>
<path d="M40.2169 18.7694C40.8125 19.7206 41.6066 20.5319 42.5447 21.1478C42.628 21.1957 42.7268 21.2089 42.8197 21.1845C42.9127 21.1601 42.9922 21.1001 43.0413 21.0175C43.0877 20.9339 43.1001 20.8356 43.0759 20.7431C43.0517 20.6506 42.9926 20.571 42.9111 20.5209C42.8023 20.4493 42.6951 20.3749 42.5895 20.2979C42.5645 20.2797 42.5396 20.2616 42.5148 20.2421L42.485 20.2196C42.5042 20.2347 42.5042 20.2347 42.485 20.2196C42.4312 20.1775 42.3779 20.1346 42.3253 20.091C42.1292 19.9283 41.9417 19.7556 41.7636 19.5734C41.5854 19.391 41.4188 19.1989 41.2589 19L41.2358 18.9708C41.2505 18.9902 41.2507 18.9902 41.2358 18.9708C41.2177 18.9461 41.1984 18.9213 41.1799 18.8964C41.1428 18.8464 41.1065 18.7961 41.071 18.7454C40.9923 18.6336 40.9168 18.5196 40.8447 18.4035C40.7961 18.3203 40.7165 18.2599 40.6233 18.2355C40.5302 18.2111 40.4312 18.2247 40.3481 18.2733C40.2649 18.3218 40.2045 18.4015 40.1801 18.4946C40.1557 18.5877 40.1692 18.6868 40.2178 18.7699L40.2169 18.7694Z" fill="#211715"/>
<path d="M42.8863 21.2313C42.9045 21.2267 42.9929 21.2166 42.9036 21.2231C42.9326 21.2209 42.9611 21.2186 42.9901 21.2186C43.0192 21.2186 43.048 21.2207 43.0769 21.2236C43.0279 21.2186 43.039 21.2184 43.0805 21.2284C43.1087 21.2351 43.1361 21.2465 43.1642 21.2529C43.2039 21.2619 43.1126 21.2229 43.1713 21.2554C43.1969 21.2696 43.2228 21.2824 43.2475 21.2979C43.2656 21.3097 43.3201 21.3634 43.2678 21.3099C43.288 21.3302 43.3103 21.3505 43.3312 21.3701C43.3836 21.4198 43.3065 21.3204 43.3473 21.3883C43.3602 21.4093 43.3736 21.4296 43.3854 21.4514C43.3931 21.4652 43.4001 21.4792 43.4067 21.4935C43.3934 21.4612 43.3912 21.4572 43.4001 21.4817C43.4063 21.5079 43.417 21.5333 43.4237 21.5594C43.4304 21.5855 43.4419 21.6569 43.4341 21.5915C43.4404 21.6576 43.4416 21.724 43.4377 21.7903C43.435 21.8683 43.4524 21.7438 43.4333 21.8266C43.4272 21.854 43.4219 21.881 43.4152 21.9088C43.4067 21.9414 43.397 21.9736 43.3856 22.0055C43.3773 22.0293 43.3557 22.0745 43.378 22.0278C43.3488 22.0878 43.3155 22.1457 43.2783 22.2012C43.221 22.2888 43.3219 22.1545 43.2537 22.2351C43.2317 22.2612 43.2092 22.287 43.1858 22.3119C43.1425 22.3578 43.0967 22.4014 43.0486 22.4424C43.0328 22.456 42.9874 22.4917 43.0275 22.4614C43.0001 22.4823 42.9716 22.5019 42.9428 22.5209C42.8856 22.5588 42.8263 22.5935 42.7653 22.6247C42.7351 22.64 42.7047 22.6549 42.6745 22.6679C42.7326 22.6434 42.6544 22.6736 42.6382 22.6794C42.5923 22.692 42.5493 22.7136 42.5116 22.7429C42.474 22.7722 42.4425 22.8086 42.419 22.8501C42.3955 22.8916 42.3803 22.9372 42.3744 22.9846C42.3685 23.0319 42.372 23.0799 42.3847 23.1258C42.3974 23.1718 42.419 23.2148 42.4482 23.2524C42.4775 23.2901 42.514 23.3215 42.5554 23.3451C42.5969 23.3686 42.6426 23.3838 42.6899 23.3897C42.7372 23.3955 42.7852 23.3921 42.8312 23.3794C43.5399 23.1295 44.1589 22.5117 44.1682 21.7233C44.1737 21.5301 44.133 21.3383 44.0493 21.164C43.9656 20.9898 43.8414 20.8381 43.6871 20.7216C43.5459 20.619 43.3838 20.5488 43.2124 20.5159C43.0409 20.483 42.8644 20.4883 42.6952 20.5314C42.6493 20.5441 42.6062 20.5657 42.5686 20.595C42.531 20.6243 42.4995 20.6607 42.476 20.7022C42.4524 20.7436 42.4373 20.7893 42.4314 20.8366C42.4255 20.8839 42.429 20.9319 42.4417 20.9779C42.4543 21.0239 42.4759 21.0669 42.5052 21.1045C42.5345 21.1421 42.5709 21.1736 42.6124 21.1971C42.6539 21.2207 42.6995 21.2358 42.7469 21.2417C42.7942 21.2476 42.8422 21.2441 42.8881 21.2314L42.8863 21.2313Z" fill="#211715"/>
<path d="M42.746 23.3148C43.2478 24.091 44.004 24.6684 44.8849 24.9482C44.9778 24.9731 45.0767 24.9603 45.1603 24.9128C45.2439 24.8652 45.3054 24.7867 45.3315 24.6941C45.3548 24.6013 45.3414 24.5031 45.2941 24.4199C45.2468 24.3367 45.1692 24.2751 45.0774 24.2477C44.9836 24.2168 44.892 24.1813 44.7996 24.146C44.8811 24.1771 44.7896 24.1415 44.7784 24.1364L44.7252 24.1123C44.6809 24.0918 44.6372 24.0705 44.594 24.0482C44.4189 23.9553 44.2504 23.8504 44.0896 23.7344C44.0453 23.7034 44.1555 23.7878 44.0827 23.7293C44.0646 23.7143 44.045 23.699 44.0264 23.6838C43.9891 23.6528 43.9524 23.6212 43.9165 23.5887C43.8439 23.5234 43.7744 23.455 43.7081 23.3836C43.6745 23.3473 43.6417 23.3106 43.6099 23.2736C43.5938 23.2555 43.578 23.2359 43.5624 23.2166C43.5564 23.2096 43.5048 23.144 43.5351 23.1834C43.5655 23.2228 43.5146 23.156 43.5092 23.1486C43.4943 23.1283 43.4796 23.1079 43.4653 23.0874C43.4331 23.0417 43.4025 22.9952 43.3723 22.9484C43.3483 22.9072 43.3164 22.8712 43.2784 22.8424C43.2404 22.8136 43.1971 22.7925 43.151 22.7804C43.1049 22.7683 43.0568 22.7654 43.0096 22.7719C42.9624 22.7784 42.9169 22.7941 42.8757 22.8182C42.8345 22.8422 42.7985 22.8742 42.7697 22.9121C42.7409 22.9501 42.7198 22.9934 42.7077 23.0395C42.6956 23.0856 42.6928 23.1337 42.6992 23.1809C42.7057 23.2282 42.7214 23.2737 42.7455 23.3148H42.746Z" fill="#211715"/>
</g>
<defs>
<clipPath id="clip0_103_515">
<rect width="50" height="50" fill="white"/>
</clipPath>
</defs>
</svg>
