<svg width="50" height="50" viewBox="0 0 50 50" fill="none" xmlns="http://www.w3.org/2000/svg">
<g clip-path="url(#clip0_103_657)">
<path d="M0.223231 40.6479H3.75438H8.91758L14.5612 40.6472H19.5197H22.6383H22.8315C23.1289 40.6472 23.1294 40.1851 22.8315 40.1851H20.0181H15.2219L9.59929 40.1858L4.3158 40.1864H0.520989H0.223231C-0.0741793 40.1864 -0.0746415 40.6486 0.223231 40.6486V40.6479Z" fill="#211715"/>
<path d="M28.8948 30.0212C27.9197 30.0212 26.9444 30.0232 25.969 30.0272C24.3052 30.0318 22.6414 30.0366 20.9775 30.0418C18.9902 30.0478 17.0025 30.0537 15.0144 30.0596C13.0472 30.0652 11.0799 30.0704 9.11253 30.0753C7.53227 30.079 5.95205 30.0817 4.37187 30.0835H3.92587C3.62846 30.0835 3.628 30.5457 3.92587 30.5457C5.43564 30.5451 6.94565 30.5428 8.45589 30.5386C10.3959 30.5343 12.3358 30.5293 14.2757 30.5235C16.2791 30.5178 18.2825 30.5119 20.286 30.5057C22.0088 30.5005 23.7315 30.4955 25.4542 30.4905C26.5312 30.4874 27.6081 30.485 28.6849 30.4832H28.895C29.1924 30.4832 29.1928 30.021 28.895 30.021L28.8948 30.0212Z" fill="#211715"/>
<path d="M21.5952 37.7727C21.0274 37.7727 20.4595 37.7705 19.8917 37.7693L16.3243 37.7615C15.0172 37.7587 13.7101 37.7559 12.403 37.7532C11.4646 37.7514 10.5263 37.7497 9.5881 37.7483C9.47093 37.7483 9.35308 37.7517 9.23603 37.7483C9.03002 37.7419 9.02609 37.5981 9.04527 37.42C9.0752 37.3104 9.12622 37.2076 9.19548 37.1175C9.56075 36.4867 9.92629 35.8561 10.2921 35.2257C10.3731 35.0861 10.454 34.9466 10.5347 34.807C10.5714 34.7439 10.6466 34.555 10.7002 34.5266C10.7328 34.5189 10.7666 34.5178 10.7996 34.5232H23.0265C23.3239 34.5232 23.3243 34.061 23.0265 34.061H10.946C10.6705 34.061 10.4358 34.063 10.2683 34.3445C9.90642 34.9523 9.55829 35.5692 9.20345 36.1809C9.04169 36.4592 8.88039 36.7377 8.71955 37.0162C8.69217 37.0635 8.66328 37.1101 8.63867 37.1591C8.5893 37.2795 8.56948 37.4099 8.5809 37.5395C8.58321 37.7771 8.65219 37.9886 8.86606 38.1172C9.05093 38.2281 9.27047 38.2107 9.47648 38.2108L9.96731 38.2115L11.3601 38.2138C12.6378 38.2162 13.9155 38.2188 15.1933 38.2217L19.0665 38.2301C19.8529 38.2319 20.6393 38.2335 21.4257 38.2351H21.5939C21.8914 38.2351 21.8918 37.7729 21.5939 37.7729L21.5952 37.7727Z" fill="#211715"/>
<path d="M10.6511 36.7747C11.0106 36.152 11.3731 35.5311 11.7327 34.9084C11.8817 34.6504 11.4825 34.4173 11.3336 34.6751C10.974 35.2978 10.6115 35.9188 10.252 36.5415C10.103 36.7995 10.5022 37.0324 10.6511 36.7747Z" fill="#211715"/>
<path d="M11.8157 36.7284C12.1453 36.1575 12.4776 35.5882 12.8074 35.0173C12.9563 34.7593 12.5571 34.5262 12.4083 34.784C12.0785 35.3549 11.7462 35.9242 11.4166 36.4952C11.2675 36.7532 11.6667 36.9861 11.8157 36.7284Z" fill="#211715"/>
<path d="M12.8777 36.7286C13.0305 36.4638 13.1848 36.1995 13.3378 35.9347C13.3687 35.8818 13.3773 35.8187 13.3618 35.7594C13.3463 35.7001 13.3078 35.6494 13.2549 35.6185C13.2019 35.5876 13.1389 35.5789 13.0796 35.5945C13.0203 35.61 12.9696 35.6485 12.9387 35.7014C12.7857 35.9664 12.6316 36.2305 12.4786 36.4954C12.4633 36.5216 12.4533 36.5506 12.4492 36.5807C12.445 36.6107 12.4469 36.6413 12.4546 36.6707C12.4623 36.7 12.4757 36.7276 12.4941 36.7518C12.5124 36.7759 12.5353 36.7962 12.5615 36.8116C12.5877 36.8269 12.6167 36.8369 12.6468 36.841C12.6768 36.8451 12.7074 36.8433 12.7368 36.8355C12.7661 36.8278 12.7937 36.8144 12.8179 36.7961C12.842 36.7777 12.8624 36.7548 12.8777 36.7286Z" fill="#211715"/>
<path d="M13.9317 36.7286C14.0847 36.4638 14.2389 36.1995 14.3918 35.9347C14.4228 35.8818 14.4314 35.8187 14.4159 35.7594C14.4003 35.7001 14.3619 35.6494 14.3089 35.6185C14.256 35.5876 14.193 35.5789 14.1337 35.5945C14.0744 35.61 14.0237 35.6485 13.9928 35.7014C13.8398 35.9664 13.6856 36.2305 13.5327 36.4954C13.5174 36.5216 13.5074 36.5506 13.5032 36.5807C13.4991 36.6107 13.501 36.6413 13.5087 36.6707C13.5164 36.7 13.5298 36.7276 13.5481 36.7518C13.5665 36.7759 13.5894 36.7962 13.6156 36.8116C13.6418 36.8269 13.6708 36.8369 13.7009 36.841C13.7309 36.8451 13.7615 36.8433 13.7909 36.8355C13.8202 36.8278 13.8478 36.8144 13.8719 36.7961C13.8961 36.7777 13.9164 36.7548 13.9317 36.7286Z" fill="#211715"/>
<path d="M14.9702 36.7285C15.1232 36.4637 15.2773 36.1994 15.4303 35.9346C15.4609 35.8817 15.4692 35.8189 15.4536 35.7598C15.438 35.7008 15.3996 35.6503 15.3469 35.6195C15.2941 35.5887 15.2313 35.58 15.1722 35.5953C15.1131 35.6106 15.0624 35.6487 15.0313 35.7013C14.8783 35.9662 14.7241 36.2304 14.5711 36.4953C14.5558 36.5215 14.5458 36.5505 14.5417 36.5806C14.5376 36.6106 14.5394 36.6412 14.5471 36.6706C14.5548 36.6999 14.5682 36.7275 14.5866 36.7516C14.6049 36.7758 14.6279 36.7961 14.6541 36.8115C14.6803 36.8268 14.7092 36.8368 14.7393 36.8409C14.7694 36.845 14.8 36.8431 14.8293 36.8354C14.8587 36.8277 14.8862 36.8143 14.9104 36.796C14.9346 36.7776 14.9549 36.7547 14.9702 36.7285Z" fill="#211715"/>
<path d="M16.5906 34.9365H10.8928C10.5954 34.9365 10.5949 35.3987 10.8928 35.3987H16.5906C16.888 35.3987 16.8885 34.9365 16.5906 34.9365Z" fill="#211715"/>
<path d="M18.1876 35.8774C16.0552 35.8735 13.9227 35.8679 11.7903 35.8608C11.3245 35.8595 10.8588 35.8583 10.393 35.8574C10.0956 35.8574 10.0952 36.3196 10.393 36.3196C12.519 36.3235 14.6454 36.3291 16.772 36.3362C17.2439 36.3375 17.7158 36.3386 18.1876 36.3396C18.4851 36.3396 18.4855 35.8774 18.1876 35.8774Z" fill="#211715"/>
<path d="M19.2279 37.426H19.2292V36.9639C18.2767 36.9676 17.324 36.9639 16.3716 36.9639H9.6506C9.35319 36.9639 9.35273 37.426 9.6506 37.426H18.1913C18.5372 37.426 18.8833 37.4274 19.2292 37.426C19.5265 37.4249 19.5271 36.9648 19.2292 36.9639H19.2279C18.9305 36.9639 18.9301 37.426 19.2279 37.426Z" fill="#211715"/>
<path d="M41.7712 7.14845C41.7712 7.95564 41.8014 8.7626 41.8018 9.5698C41.8018 9.95202 41.7943 10.3341 41.7736 10.7158C41.763 10.9083 41.7492 11.1009 41.7322 11.2935C41.7224 11.4029 41.7071 11.5123 41.6996 11.6217C41.6962 11.6733 41.709 11.5732 41.6949 11.6529C41.5331 12.5657 41.2775 13.4618 41.0814 14.3675C40.9889 14.7969 40.8692 15.2504 40.8661 15.6925C40.864 15.9899 41.3262 15.9902 41.3283 15.6925C41.3303 15.5444 41.3465 15.3969 41.3768 15.2519C41.4141 15.029 41.4593 14.8075 41.5064 14.5865C41.6162 14.0714 41.7387 13.5591 41.8598 13.0465C41.9544 12.6463 42.0562 12.2458 42.1293 11.8407C42.2304 11.1705 42.2751 10.493 42.263 9.81533C42.2708 8.92633 42.2338 8.03756 42.2333 7.14857C42.2333 6.85116 41.7712 6.85058 41.7712 7.14857V7.14845Z" fill="#D9D9D9"/>
<path d="M38.7169 17.0564C38.5929 16.9755 38.6216 16.745 38.6225 16.6211C38.6124 16.4342 38.6249 16.2467 38.6597 16.0627C38.6691 16.0136 38.688 15.9668 38.7153 15.925C38.7295 15.9024 38.7146 15.9229 38.7114 15.927C38.7201 15.9161 38.7295 15.9058 38.7397 15.8962C38.7462 15.89 38.7731 15.8688 38.7397 15.8935C38.7504 15.8857 38.7617 15.8785 38.7734 15.8723C38.8063 15.8548 38.7517 15.8752 38.8014 15.8598C38.8245 15.8525 38.8488 15.8467 38.8729 15.8418C38.9176 15.8326 38.8875 15.8394 38.8774 15.8405C38.8925 15.8388 38.9084 15.8374 38.9236 15.8367C38.9562 15.8354 38.9886 15.8342 39.0213 15.834C39.3863 15.834 39.7509 15.8618 40.1165 15.8599C40.3671 15.8586 40.6176 15.8545 40.8675 15.8515C40.8943 15.8515 40.9798 15.8373 41.0001 15.8526C41.0041 15.8558 40.9915 15.8488 40.9912 15.8484C40.9994 15.9148 40.9992 15.982 40.9905 16.0484C40.9967 16.443 41.002 16.8377 41.002 17.2324L41.2331 17.0013C40.8311 17.0035 40.4277 17.0437 40.0264 17.0645C39.8038 17.076 39.5812 17.0876 39.3584 17.0903C39.2515 17.0917 39.1444 17.0942 39.0376 17.0931C38.9292 17.1024 38.8201 17.0899 38.7167 17.0564C38.4492 16.9301 38.2143 17.3285 38.4834 17.4555C38.7285 17.571 39.0034 17.5555 39.2684 17.5532C39.4965 17.5511 39.7243 17.5417 39.9522 17.5301C40.3783 17.5087 40.8064 17.4654 41.2331 17.4631C41.2941 17.4622 41.3524 17.4376 41.3955 17.3944C41.4387 17.3513 41.4633 17.293 41.4642 17.232C41.4642 16.807 41.4586 16.3821 41.4512 15.9572C41.447 15.7203 41.3915 15.492 41.1384 15.4126C41.0176 15.3859 40.8934 15.3784 40.7703 15.3902C40.611 15.3922 40.4519 15.3945 40.2928 15.396C40.0136 15.3987 39.7339 15.4003 39.4548 15.3898C39.2859 15.3835 39.1159 15.3652 38.9464 15.373C38.5922 15.3893 38.3237 15.5601 38.2212 15.9108C38.1607 16.1785 38.14 16.4537 38.1599 16.7274C38.1644 17.0155 38.2277 17.2894 38.4834 17.4555C38.7339 17.618 38.9658 17.2174 38.7169 17.0564Z" fill="#D9D9D9"/>
<path d="M38.3069 20.6361C38.5715 19.564 38.8492 18.4934 39.0789 17.413C39.1406 17.1229 38.6952 16.9989 38.6333 17.2901C38.4036 18.3704 38.1258 19.4411 37.8612 20.5138C37.7899 20.8026 38.2356 20.9257 38.3069 20.6366V20.6361Z" fill="#D9D9D9"/>
<path d="M40.9126 17.2769C40.9249 17.699 40.9622 18.12 41.0244 18.5376C41.0861 19.0349 41.1554 19.5312 41.2324 20.0265C41.316 20.5696 41.4235 21.1073 41.5172 21.6482C41.6414 22.4053 41.7002 23.1716 41.693 23.9388C41.7072 24.3182 41.7001 24.6981 41.6717 25.0768C41.6656 25.172 41.6406 25.2651 41.5981 25.3506C41.5885 25.3679 41.5741 25.3821 41.5565 25.3913C41.5349 25.403 41.5107 25.4095 41.486 25.41C41.1918 25.4346 41.1891 25.897 41.486 25.8722C42.0802 25.8226 42.1407 25.2408 42.1511 24.7551C42.1837 23.9471 42.1608 23.1379 42.0825 22.333C41.9991 21.6213 41.8423 20.9217 41.7273 20.215C41.6517 19.7504 41.5835 19.2847 41.5226 18.8178C41.4411 18.3078 41.3918 17.7932 41.3749 17.2769C41.3736 16.9796 40.9114 16.979 40.9127 17.2769H40.9126Z" fill="#D9D9D9"/>
<path d="M39.7463 17.3966V20.2074C39.7463 20.5048 40.2085 20.5053 40.2085 20.2074V17.3966C40.2085 17.0992 39.7463 17.0987 39.7463 17.3966Z" fill="#D9D9D9"/>
<path d="M38.8776 10.3105C38.9135 10.9288 38.9395 11.5475 39.0092 12.1631C39.0809 12.7965 39.1151 13.4362 39.2312 14.0641C39.2853 14.356 39.7309 14.2324 39.6769 13.9411C39.5661 13.3421 39.5371 12.731 39.4672 12.1271C39.3973 11.5231 39.3748 10.9166 39.3401 10.3108C39.323 10.0153 38.8607 10.0132 38.8779 10.3108L38.8776 10.3105Z" fill="#D9D9D9"/>
<path d="M40.4533 12.2197C40.3308 12.8343 40.3206 13.4661 40.244 14.0871C40.2444 14.1483 40.2688 14.2068 40.3121 14.2501C40.3553 14.2934 40.4139 14.3178 40.4751 14.3182C40.5359 14.3167 40.5939 14.2919 40.6369 14.2489C40.68 14.2059 40.7048 14.1479 40.7062 14.0871C40.7782 13.5044 40.7878 12.9007 40.8989 12.3424C40.9136 12.2833 40.9051 12.2208 40.8749 12.1679C40.8448 12.1149 40.7955 12.0756 40.7372 12.0581C40.678 12.0424 40.6151 12.0506 40.5619 12.0808C40.5088 12.1111 40.4696 12.161 40.4529 12.2199L40.4533 12.2197Z" fill="#D9D9D9"/>
<path d="M37.4709 7.25738C37.4671 7.49239 37.479 7.7274 37.5067 7.96081C37.536 8.28977 37.5721 8.61814 37.6107 8.94617C37.6935 9.65735 37.7482 10.3731 37.8389 11.0829C37.9708 12.1143 38.1986 13.132 38.3928 14.1526C38.4942 14.6002 38.5619 15.0547 38.5954 15.5124C38.6069 15.8089 39.0691 15.8104 39.0576 15.5124C39.0301 15.1036 38.9735 14.6973 38.8883 14.2966C38.8038 13.8344 38.709 13.3738 38.6184 12.9127C38.5144 12.3842 38.4173 11.8529 38.3354 11.3206C38.2288 10.6281 38.1884 9.92402 38.1061 9.22798C38.0619 8.85489 38.0187 8.4818 37.983 8.10778C37.9464 7.82585 37.9297 7.54167 37.9331 7.25738C37.947 6.96008 37.4848 6.96078 37.4709 7.25738Z" fill="#D9D9D9"/>
<path d="M37.702 7.4884C37.9062 7.48667 38.1094 7.46876 38.3124 7.44773C38.5294 7.42531 38.7533 7.41388 38.9674 7.37136C39.1408 7.33669 39.3025 7.2572 39.4758 7.226C39.6145 7.20104 39.7586 7.31185 39.8896 7.34998C40.0603 7.38687 40.2351 7.40151 40.4095 7.39354C40.5977 7.39762 40.7857 7.40005 40.9737 7.40082C41.3162 7.40221 41.6594 7.40082 42.0013 7.37898C42.2967 7.36049 42.2988 6.8982 42.0013 6.91681C41.6594 6.93807 41.3162 6.93991 40.9737 6.93864C40.7933 6.93795 40.6128 6.93568 40.4324 6.93183C40.2623 6.9428 40.0916 6.92391 39.928 6.87602C39.7919 6.80441 39.641 6.76545 39.4873 6.76221C39.3008 6.79184 39.1176 6.83916 38.9402 6.90352C38.7335 6.94765 38.5236 6.97531 38.3125 6.98625C38.1095 7.00728 37.9063 7.02519 37.7021 7.02692C37.4048 7.02946 37.4041 7.49164 37.7021 7.4891L37.702 7.4884Z" fill="#D9D9D9"/>
<path d="M42.0892 24.3243C44.2153 24.3203 46.341 24.3165 48.4665 24.3127C48.9006 24.3122 49.3347 24.3119 49.7687 24.3118C50.0661 24.3118 50.0665 23.8496 49.7687 23.8496C47.8294 23.8496 45.8903 23.8527 43.9511 23.8587L42.0892 23.8623C41.7918 23.8623 41.7913 24.3245 42.0892 24.3245V24.3243Z" fill="#D9D9D9"/>
<path d="M47.473 14.9814H46.9547C46.8936 14.9823 46.8354 15.0069 46.7922 15.0501C46.7491 15.0932 46.7244 15.1515 46.7236 15.2125C46.7236 15.9311 46.7247 16.6498 46.7227 17.3685C46.7236 17.4295 46.7482 17.4877 46.7913 17.5309C46.8345 17.574 46.8927 17.5987 46.9537 17.5996C47.1326 17.5996 47.3119 17.6076 47.4902 17.6081C47.7876 17.609 47.7881 17.1469 47.4902 17.1459C47.3114 17.1459 47.132 17.138 46.9537 17.1374L47.1848 17.3685C47.1869 16.6498 47.1858 15.9311 47.1858 15.2125L46.9547 15.4436H47.473C47.7703 15.4436 47.7709 14.9814 47.473 14.9814Z" fill="#D9D9D9"/>
<path d="M49.7687 8.26034C47.9034 8.26034 46.0382 8.25814 44.173 8.25375L42.149 8.25098C41.8516 8.25098 41.8511 8.71315 42.149 8.71315C44.3725 8.71608 46.5962 8.71897 48.8198 8.72182C49.136 8.72182 49.4523 8.72205 49.7687 8.72251C50.0661 8.72251 50.0666 8.26034 49.7687 8.26034Z" fill="#D9D9D9"/>
<path d="M47.9579 9.40178C46.2639 9.39955 44.5699 9.39593 42.8759 9.39092C42.614 9.39038 42.3518 9.38996 42.0892 9.38965C41.7918 9.38965 41.7913 9.85183 42.0892 9.85183C43.5496 9.85183 45.0098 9.85841 46.4702 9.86142C46.9661 9.86249 47.462 9.86334 47.9579 9.86396C48.2553 9.86396 48.2558 9.40178 47.9579 9.40178Z" fill="#D9D9D9"/>
<path d="M49.7687 9.40234C49.5036 9.40234 49.2386 9.40234 48.9735 9.40234C48.9122 9.40234 48.8535 9.42669 48.8101 9.47003C48.7668 9.51337 48.7424 9.57214 48.7424 9.63343C48.7424 9.69472 48.7668 9.7535 48.8101 9.79684C48.8535 9.84017 48.9122 9.86452 48.9735 9.86452C49.2386 9.86452 49.5036 9.86452 49.7687 9.86452C49.83 9.86452 49.8888 9.84017 49.9321 9.79684C49.9754 9.7535 49.9998 9.69472 49.9998 9.63343C49.9998 9.57214 49.9754 9.51337 49.9321 9.47003C49.8888 9.42669 49.83 9.40234 49.7687 9.40234Z" fill="#D9D9D9"/>
<path d="M48.2254 22.9327C48.2254 22.4359 48.223 21.9396 48.2215 21.443C48.2186 20.4014 48.2156 19.3598 48.2123 18.318C48.2088 17.0779 48.2052 15.8377 48.2015 14.5975C48.1984 13.5218 48.1954 12.4461 48.1925 11.3705C48.191 10.8064 48.2005 10.2411 48.1889 9.67718C48.1889 9.66019 48.1889 9.64309 48.1889 9.62611C48.1906 9.32858 47.7284 9.32823 47.7267 9.62611C47.724 10.1026 47.7282 10.5792 47.7294 11.0557C47.7321 12.0871 47.7349 13.1185 47.7379 14.1499C47.7415 15.3894 47.7452 16.6288 47.7488 17.8682C47.752 18.9529 47.7552 20.0377 47.7584 21.1225C47.76 21.7058 47.7615 22.2891 47.763 22.8723C47.763 22.8923 47.763 22.9124 47.763 22.9324C47.763 23.2298 48.2252 23.2303 48.2252 22.9324L48.2254 22.9327Z" fill="#D9D9D9"/>
<path d="M49.1806 24.0147C49.1806 23.4411 49.1781 22.8676 49.1768 22.2941C49.1738 21.0788 49.1707 19.8635 49.1676 18.6482C49.1639 17.1944 49.1601 15.7407 49.1561 14.287C49.1531 13.0306 49.1501 11.7741 49.1472 10.5176C49.1457 9.86153 49.1553 9.20443 49.1436 8.54837C49.1436 8.53046 49.1436 8.51255 49.1436 8.49476C49.1452 8.19723 48.683 8.19689 48.6814 8.49476C48.6782 9.0481 48.6828 9.60167 48.6841 10.1551C48.6866 11.3602 48.6894 12.5652 48.6925 13.7703C48.6961 15.2234 48.6997 16.6765 48.7034 18.1296C48.7066 19.3952 48.7098 20.6608 48.713 21.9262C48.7146 22.6016 48.7162 23.2769 48.7177 23.9521V24.0147C48.7177 24.3121 49.1799 24.3125 49.1799 24.0147H49.1806Z" fill="#D9D9D9"/>
<path d="M48.9915 23.1613C49.2505 23.1613 49.5097 23.1599 49.7687 23.1599C49.83 23.1599 49.8888 23.1356 49.9321 23.0922C49.9755 23.0489 49.9998 22.9901 49.9998 22.9288C49.9998 22.8676 49.9755 22.8088 49.9321 22.7654C49.8888 22.7221 49.83 22.6978 49.7687 22.6978C49.5097 22.6978 49.2505 22.6987 48.9915 22.6991C48.9302 22.6991 48.8714 22.7235 48.8281 22.7668C48.7847 22.8102 48.7604 22.8689 48.7604 22.9302C48.7604 22.9915 48.7847 23.0503 48.8281 23.0936C48.8714 23.137 48.9302 23.1613 48.9915 23.1613Z" fill="#D9D9D9"/>
<path d="M42.0242 23.1777C44.0142 23.1731 46.0043 23.1677 47.9942 23.1614C48.2915 23.1614 48.2921 22.6992 47.9942 22.6992C46.0043 22.7031 44.0142 22.7086 42.0242 22.7155C41.7268 22.7162 41.7262 23.1784 42.0242 23.1777Z" fill="#D9D9D9"/>
<path d="M44.7528 10.2572C44.7341 10.9031 44.847 11.529 45.2515 12.052C45.4874 12.3608 45.7926 12.6099 46.1424 12.7791C46.4923 12.9483 46.877 13.033 47.2655 13.0263C47.5627 13.0224 47.5635 12.5601 47.2655 12.5641C46.9418 12.5717 46.6211 12.5012 46.3303 12.3587C46.0396 12.2162 45.7874 12.0058 45.5951 11.7453C45.2686 11.304 45.1996 10.7899 45.215 10.2572C45.2236 9.95971 44.7613 9.95994 44.7528 10.2572Z" fill="#D9D9D9"/>
<path d="M45.6762 13.8736C45.5655 14.1797 45.4373 14.4798 45.3154 14.7814C45.3072 14.8112 45.305 14.8422 45.3089 14.8728C45.3129 14.9034 45.3229 14.9329 45.3385 14.9595C45.3538 14.9857 45.3741 15.0086 45.3983 15.027C45.4225 15.0453 45.45 15.0588 45.4794 15.0665C45.5087 15.0742 45.5393 15.076 45.5694 15.0719C45.5994 15.0678 45.6284 15.0578 45.6546 15.0425C45.7044 15.0093 45.7418 14.9605 45.7608 14.9038C45.8827 14.6021 46.0111 14.3019 46.1216 13.9959C46.1376 13.9367 46.1295 13.8737 46.0992 13.8205C46.0689 13.7672 46.0189 13.7281 45.9599 13.7116C45.9008 13.6969 45.8383 13.7055 45.7854 13.7356C45.7325 13.7657 45.6932 13.8151 45.6756 13.8734L45.6762 13.8736Z" fill="#D9D9D9"/>
<path d="M44.7994 12.9535C44.6261 13.1449 44.4458 13.3311 44.2749 13.5251C44.2327 13.5692 44.2085 13.6275 44.2072 13.6886C44.2076 13.7497 44.2319 13.8084 44.2749 13.8519C44.3183 13.8951 44.377 13.9195 44.4382 13.9196C44.4686 13.9197 44.4987 13.9137 44.5267 13.9021C44.5547 13.8905 44.5802 13.8734 44.6016 13.8519C44.7726 13.6578 44.9524 13.4718 45.1263 13.2803C45.1685 13.2363 45.1927 13.178 45.1939 13.117C45.1935 13.0557 45.1692 12.9971 45.1263 12.9535C45.1048 12.932 45.0794 12.915 45.0513 12.9033C45.0233 12.8917 44.9932 12.8857 44.9629 12.8857C44.9325 12.8857 44.9025 12.8917 44.8744 12.9033C44.8464 12.915 44.8209 12.932 44.7994 12.9535Z" fill="#D9D9D9"/>
<path d="M44.1783 11.871C44.0257 11.9282 43.8764 11.9937 43.7265 12.0572L43.7816 12.0341C43.7253 12.0579 43.6689 12.0812 43.6118 12.1034C43.5546 12.1211 43.5056 12.1588 43.4738 12.2096C43.4584 12.2358 43.4484 12.2647 43.4443 12.2948C43.4402 12.3249 43.442 12.3555 43.4497 12.3849C43.4574 12.4143 43.4708 12.4418 43.4892 12.466C43.5075 12.4902 43.5305 12.5105 43.5567 12.5258C43.5833 12.5416 43.6127 12.5518 43.6434 12.5558C43.674 12.5597 43.7051 12.5574 43.7348 12.5489C43.8608 12.501 43.9842 12.4461 44.1086 12.3936L44.0533 12.4167C44.1354 12.3821 44.2177 12.3483 44.3012 12.317C44.3585 12.2994 44.4075 12.2617 44.4392 12.2108C44.4546 12.1846 44.4646 12.1557 44.4687 12.1256C44.4729 12.0955 44.471 12.0649 44.4633 12.0355C44.4557 12.0062 44.4422 11.9786 44.4239 11.9544C44.4055 11.9302 44.3826 11.9099 44.3564 11.8946C44.3299 11.8788 44.3004 11.8687 44.2698 11.8647C44.2391 11.8607 44.208 11.863 44.1783 11.8715V11.871Z" fill="#D9D9D9"/>
<path d="M43.9838 10.7295C43.8105 10.7203 43.6371 10.7364 43.4629 10.728C43.4017 10.7284 43.3432 10.7529 43.3 10.7962C43.2567 10.8394 43.2322 10.8979 43.2318 10.9591C43.2331 11.02 43.2579 11.078 43.3009 11.1211C43.344 11.1641 43.402 11.1889 43.4629 11.1902C43.6362 11.1986 43.8095 11.1825 43.9838 11.1917C44.0451 11.1917 44.1038 11.1673 44.1472 11.124C44.1905 11.0807 44.2149 11.0219 44.2149 10.9606C44.2135 10.8997 44.1888 10.8417 44.1457 10.7987C44.1027 10.7556 44.0446 10.7308 43.9838 10.7295Z" fill="#D9D9D9"/>
<path d="M41.931 18.5652C42.1786 18.5498 42.5115 18.717 42.2941 18.9936C42.2666 19.0227 42.2469 19.0583 42.237 19.097C42.227 19.1358 42.2272 19.1765 42.2374 19.2152C42.2476 19.2539 42.2675 19.2893 42.2953 19.3182C42.3231 19.347 42.3578 19.3682 42.396 19.3799C42.4662 19.3951 42.5314 19.4277 42.5857 19.4746C42.64 19.5216 42.6817 19.5813 42.707 19.6485C42.7185 19.7191 42.7117 19.7915 42.6872 19.8587C42.6626 19.9259 42.6212 19.9857 42.5669 20.0323C42.539 20.0611 42.5189 20.0967 42.5087 20.1355C42.4986 20.1744 42.4986 20.2153 42.5088 20.2541C42.5191 20.293 42.5392 20.3285 42.5673 20.3573C42.5953 20.3861 42.6303 20.4071 42.6689 20.4184C42.9159 20.4735 43.3107 20.7359 43.0644 21.0111C43.0216 21.0548 42.9977 21.1135 42.9977 21.1746C42.9977 21.2357 43.0216 21.2944 43.0644 21.338C43.1986 21.4459 43.3893 21.5307 43.4631 21.6948C43.528 21.839 43.5819 22.0761 43.4277 22.1816C43.1837 22.3486 43.4146 22.7492 43.6609 22.5807C43.9713 22.3684 44.0399 22.0239 43.943 21.6736C43.9037 21.5153 43.8235 21.3701 43.7106 21.2524C43.615 21.1583 43.495 21.0947 43.3912 21.0111V21.338C43.5018 21.2278 43.5733 21.0845 43.5948 20.9299C43.6164 20.7753 43.5867 20.6179 43.5105 20.4817C43.4319 20.3522 43.3276 20.2401 43.204 20.1526C43.0804 20.065 42.9401 20.0038 42.7918 19.9727L42.8937 20.359C43.0052 20.2544 43.0877 20.1226 43.1331 19.9765C43.1785 19.8305 43.1852 19.6751 43.1526 19.5257C43.1051 19.3819 43.0221 19.2523 42.9114 19.149C42.8006 19.0456 42.6656 18.9718 42.5189 18.9342L42.6209 19.3205C42.8173 19.0704 42.9105 18.7509 42.7241 18.464C42.635 18.3397 42.5148 18.241 42.3757 18.1777C42.2365 18.1144 42.0832 18.0886 41.931 18.103C41.6355 18.1214 41.6335 18.5837 41.931 18.5652Z" fill="#D9D9D9"/>
<path d="M30.1778 27.8937C29.7033 27.715 29.4004 27.2378 29.878 26.8174C30.1247 26.6017 30.3469 26.3595 30.5406 26.0952C30.859 25.6891 30.8594 25.3508 30.9429 24.8634C31.01 24.4295 31.1616 24.013 31.389 23.6375C31.4525 23.5403 31.5251 23.4494 31.6059 23.366C31.8186 23.3165 32.0405 23.3237 32.2496 23.3866C32.5706 23.4979 32.7296 23.8992 32.7296 23.8992C33.0877 24.8894 33.9851 26.2632 35.1691 27.1134L35.1909 27.2289C35.7834 27.1797 36.2161 27.6456 35.965 28.3852C35.905 28.5544 35.8142 28.7111 35.6972 28.8474C35.7031 29.1343 35.6771 29.9257 36.1256 30.4107C36.4119 30.7203 37.1751 30.9866 37.6436 31.0808L37.6725 31.0866C37.6632 31.1817 37.6567 31.2699 37.6547 31.3445C37.6462 31.668 37.8484 32.5199 38.1228 32.9704V33.3382C38.0438 33.298 37.962 33.2639 37.8779 33.236C36.8159 32.955 35.0625 33.033 34.0317 33.0486C33.654 33.0506 33.2778 33.0971 32.911 33.1872L32.8926 32.868C32.8771 32.5981 32.8683 31.9399 32.6919 31.7391C32.6919 31.7391 32.6688 31.7131 32.64 31.6795C32.2342 31.691 31.0264 31.3839 30.7078 31.1525C30.5024 30.9916 30.3307 30.7919 30.2025 30.5647C29.99 30.1873 29.8709 28.9997 30.16 27.9464" fill="white"/>
<path d="M36.0777 30.356C35.8131 30.0094 35.6279 29.6089 35.5352 29.1828C35.5352 29.1828 35.5251 29.1294 35.5104 29.0519C35.7113 28.8678 35.8669 28.6397 35.965 28.3855C36.1954 27.7069 35.8501 27.2588 35.3337 27.2273C34.5214 26.6899 33.8329 25.8977 33.3451 25.1254C33.0912 25.0959 32.8411 25.0397 32.5989 24.9577C32.009 24.69 31.5327 23.8353 31.6135 23.1571C31.7936 22.9053 31.934 22.6244 32.1423 22.3876C32.6768 21.7643 33.4065 21.3401 34.2126 21.1841C36.2104 20.8526 39.0451 21.887 39.3767 23.6384L39.6814 24.3894C40.3863 24.7617 40.6206 26.8574 39.6575 28.5817C40.254 28.6604 40.7803 28.8683 41.1295 29.2981C41.5663 29.8364 41.5861 30.5806 41.3322 31.1889C40.9457 32.1156 40.2615 33.4261 40.8793 34.1983C40.4067 34.612 39.3969 34.1899 39.0598 33.9984C38.6314 33.755 38.3722 33.3786 38.1226 32.9693C37.8482 32.5186 37.646 31.6667 37.6546 31.3433C37.6565 31.2687 37.663 31.1804 37.6724 31.0856L37.6435 31.0797C37.1749 30.986 36.4118 30.7197 36.1254 30.4095C36.1095 30.3931 36.0936 30.3753 36.0777 30.356Z" fill="#B5886A"/>
<path d="M27.0298 37.3257C26.4739 37.3264 25.8945 37.3408 25.3704 37.5471C24.808 37.7685 24.4122 38.1792 24.0237 38.6272C23.8191 38.8632 23.6106 39.1215 23.5218 39.4267C23.4853 39.5559 23.4766 39.6914 23.4961 39.8242C23.5155 39.957 23.5628 40.0842 23.6348 40.1975C23.898 40.6482 24.3092 41.015 24.6802 41.3761C25.5998 42.2698 26.7527 43.0873 28.0617 43.2248C28.729 43.2926 29.4 43.1382 29.9706 42.7857C30.2635 42.6051 30.4736 42.3004 30.6755 42.0301C30.9822 41.6187 31.2655 41.1894 31.5405 40.7562C31.7312 40.4558 31.9296 40.1543 32.0923 39.8375C32.2279 39.5733 31.8292 39.3392 31.6932 39.6042C31.3617 40.2156 30.9908 40.8049 30.583 41.3683C30.3861 41.6695 30.1668 41.9553 29.9269 42.2234C29.8866 42.2661 29.8444 42.3055 29.8011 42.3452C29.7798 42.3648 29.8387 42.3257 29.7859 42.3561C29.711 42.3993 29.6388 42.4461 29.5623 42.4866C29.2952 42.6283 29.0048 42.721 28.705 42.7602C27.5238 42.9104 26.3812 42.2361 25.5111 41.5057C25.1173 41.1735 24.7456 40.8158 24.3984 40.4351C24.228 40.269 24.0864 40.0757 23.9796 39.863C23.8905 39.6517 23.9942 39.441 24.1113 39.2622C24.2922 39.0034 24.4964 38.7616 24.7212 38.5398C24.9153 38.3325 25.145 38.1617 25.3994 38.0356C25.901 37.7929 26.4847 37.7894 27.0296 37.7887C27.327 37.7887 27.3275 37.3265 27.0296 37.3265L27.0298 37.3257Z" fill="#211715"/>
<path d="M26.8018 36.7969C26.7537 36.715 26.7255 36.623 26.7194 36.5283C26.7079 36.3947 26.7089 36.2604 26.7079 36.1265C26.7066 35.8818 26.7084 35.6023 26.5627 35.393C26.3803 35.1309 26.01 35.0969 25.7276 35.202C25.6433 35.2337 25.5671 35.2836 25.5044 35.3481C25.4818 35.3712 25.4622 35.3963 25.4415 35.4206C25.4291 35.4352 25.3774 35.4884 25.3901 35.4815C25.4228 35.464 25.3785 35.4755 25.3762 35.4775C25.3971 35.4617 25.4142 35.5388 25.3925 35.4775C25.3567 35.4008 25.3163 35.3263 25.2715 35.2544C25.1329 34.983 24.8185 34.6802 24.5081 34.6237C24.1629 34.5608 23.7735 34.7254 23.4581 34.8511C22.7933 35.1163 21.956 35.5711 21.8242 36.3503C21.7551 36.824 21.8572 37.3068 22.112 37.712C22.3668 38.1172 22.7578 38.4183 23.2146 38.5613C23.5 38.6471 23.622 38.2012 23.3374 38.1156C23.0045 38.0089 22.7174 37.7929 22.5226 37.5025C22.3279 37.2122 22.237 36.8645 22.2646 36.516C22.3352 35.87 23.0786 35.4926 23.6157 35.2831C23.7665 35.2243 23.9202 35.1734 24.0758 35.1289C24.1453 35.1069 24.2161 35.0896 24.2879 35.0769C24.3153 35.0734 24.3428 35.0716 24.3704 35.0717C24.3877 35.0708 24.405 35.0725 24.4218 35.0768C24.5349 35.1208 24.6356 35.1916 24.7152 35.2831C24.7664 35.3238 24.8096 35.3738 24.8423 35.4305C24.8804 35.4998 24.9116 35.572 24.9502 35.6406C24.9838 35.7148 25.0344 35.7799 25.098 35.8308C25.1615 35.8816 25.2362 35.9166 25.3159 35.9331C25.3944 35.9465 25.475 35.9391 25.5498 35.9118C25.6246 35.8845 25.691 35.8381 25.7424 35.7772C25.8304 35.6803 25.8647 35.6247 26.0027 35.6128C26.0458 35.6049 26.0901 35.6072 26.1322 35.6194C26.1751 35.6317 26.1163 35.6089 26.1536 35.6276C26.1846 35.6431 26.142 35.6089 26.1746 35.644C26.1977 35.6691 26.1549 35.613 26.1746 35.6413C26.182 35.6519 26.1887 35.6629 26.1946 35.6744C26.2177 35.7193 26.1957 35.6662 26.2062 35.7032C26.2144 35.7311 26.2213 35.7591 26.2273 35.7876C26.2312 35.8016 26.2334 35.8159 26.2339 35.8304C26.2473 35.9598 26.2448 36.0906 26.2455 36.2204C26.2467 36.4928 26.2509 36.7922 26.4019 37.0293C26.561 37.2795 26.9612 37.048 26.801 36.796L26.8018 36.7969Z" fill="#211715"/>
<path d="M27.6569 38.6001C28.0536 37.9683 28.6737 37.5103 29.1181 36.9139C29.6021 36.2644 29.9731 35.5293 30.4763 34.8939C31.2785 33.8811 32.6769 33.3045 33.95 33.2799C34.5916 33.2675 35.2337 33.25 35.8753 33.2604C36.2312 33.2661 36.5873 33.2802 36.9418 33.3134C37.242 33.3318 37.5395 33.3819 37.8292 33.4629C38.2771 33.6055 38.6653 33.9968 38.969 34.3526C39.349 34.8117 39.6767 35.3116 39.9462 35.8431C40.2425 36.3986 40.4849 36.9813 40.6701 37.583C40.8651 38.2317 40.9251 38.9128 40.995 39.5839C40.9967 39.6446 41.0216 39.7024 41.0645 39.7454C41.1075 39.7884 41.1653 39.8133 41.2261 39.815C41.2872 39.8145 41.3458 39.7901 41.389 39.7468C41.4322 39.7036 41.4567 39.645 41.4572 39.5839C41.3878 38.9241 41.3348 38.2466 41.1575 37.6048C40.9982 37.0501 40.7905 36.5104 40.5367 35.992C40.2679 35.4168 39.9417 34.8702 39.5632 34.3605C39.2222 33.9098 38.8284 33.4708 38.3318 33.1878C37.7924 32.8809 37.1104 32.8527 36.5046 32.8193C35.7998 32.7811 35.0927 32.7957 34.3871 32.8102C33.7004 32.8243 33.0406 32.8765 32.3846 33.0978C31.7041 33.3196 31.0764 33.6789 30.5404 34.1533C30.2387 34.4447 29.9739 34.7722 29.7522 35.1284C29.4819 35.5309 29.2176 35.9372 28.95 36.3416C28.6966 36.7137 28.409 37.0613 28.0909 37.3799C27.7797 37.6789 27.5005 38.0096 27.2578 38.3665C27.0993 38.6192 27.499 38.8518 27.6569 38.5998V38.6001Z" fill="#211715"/>
<path d="M31.1438 25.9614C31.0222 26.1347 30.9172 26.5902 31.2691 26.7457C31.7513 26.8986 31.9508 26.3714 31.87 26.0672C31.8043 25.8181 31.4421 25.606 31.1438 25.9614Z" fill="#211715"/>
<path d="M30.2392 27.671C30.0907 27.6202 29.9668 27.5155 29.8919 27.3776C29.8272 27.229 29.915 27.0997 30.0224 26.9985C30.3167 26.7337 30.5811 26.4374 30.8109 26.1151C31.0364 25.7831 31.0888 25.4041 31.1505 25.0174C31.2073 24.5705 31.3565 24.1403 31.5885 23.7541C31.8367 23.3695 32.2502 23.127 32.4955 22.7354C32.6538 22.4826 32.2542 22.2501 32.0964 22.5021C31.8611 22.8778 31.464 23.1177 31.2135 23.4842C30.9434 23.9115 30.7699 24.3926 30.7051 24.8939C30.6801 25.0995 30.6423 25.3035 30.5918 25.5044C30.5272 25.703 30.4238 25.8869 30.2877 26.0453C30.1636 26.2048 30.029 26.3559 29.8848 26.4976C29.7131 26.663 29.5275 26.8066 29.4457 27.0401C29.2709 27.541 29.6899 27.9462 30.1159 28.1158C30.175 28.1317 30.2381 28.1237 30.2913 28.0934C30.3445 28.0631 30.3836 28.013 30.4001 27.9541C30.415 27.895 30.4064 27.8324 30.3763 27.7795C30.3462 27.7265 30.2968 27.6872 30.2384 27.6698L30.2392 27.671Z" fill="#211715"/>
<path d="M29.9366 27.8849C29.8024 28.3924 29.7427 28.9167 29.7591 29.4414C29.7532 29.8374 29.8227 30.231 29.9638 30.6012C30.1222 30.9576 30.3945 31.2513 30.7379 31.4361C31.0578 31.5822 31.3922 31.694 31.7355 31.7696C32.0623 31.8492 32.4264 31.9451 32.7639 31.8967C32.8228 31.8801 32.8729 31.841 32.9032 31.7878C32.9335 31.7346 32.9415 31.6716 32.9256 31.6124C32.9081 31.5541 32.8688 31.5048 32.8159 31.4747C32.763 31.4446 32.7005 31.436 32.6414 31.4507C32.6915 31.4435 32.6586 31.4485 32.6306 31.448C32.6075 31.448 32.5837 31.448 32.5602 31.4467C32.5181 31.4448 32.439 31.4372 32.4207 31.4352C32.2721 31.4161 32.1246 31.3853 31.9785 31.3522C31.6618 31.2862 31.3515 31.1929 31.0509 31.0733C30.7686 30.9403 30.5386 30.7171 30.3971 30.439C30.3458 30.3255 30.3093 30.2059 30.2883 30.0831C30.2545 29.9083 30.2338 29.7313 30.2263 29.5534C30.1975 29.0332 30.2502 28.5117 30.3827 28.0078C30.4598 27.7202 30.0142 27.5975 29.9371 27.885L29.9366 27.8849Z" fill="#211715"/>
<path d="M30.0424 29.2054C30.154 29.2802 30.2787 29.3332 30.4101 29.3615C30.5437 29.3924 30.6809 29.4046 30.8179 29.3978C30.8792 29.3978 30.938 29.3734 30.9813 29.3301C31.0247 29.2867 31.049 29.228 31.049 29.1667C31.049 29.1054 31.0247 29.0466 30.9813 29.0033C30.938 28.9599 30.8792 28.9356 30.8179 28.9356C30.7374 28.94 30.6566 28.937 30.5767 28.9266L30.6381 28.9348C30.5435 28.9223 30.4509 28.8976 30.3626 28.8613L30.4178 28.8844C30.3679 28.8631 30.3203 28.8369 30.2757 28.8061C30.236 28.7828 30.1903 28.772 30.1444 28.7749C30.0985 28.7778 30.0545 28.7943 30.0181 28.8223C29.9816 28.8503 29.9544 28.8886 29.9398 28.9322C29.9252 28.9758 29.924 29.0228 29.9362 29.0671C29.9546 29.124 29.9921 29.1727 30.0424 29.2052V29.2054Z" fill="#211715"/>
<path d="M31.4832 23.0408C31.4255 23.0737 31.3718 23.1132 31.3231 23.1584C31.2718 23.2022 31.2234 23.2492 31.1762 23.297C31.0621 23.4136 30.9552 23.5371 30.8562 23.6668C30.8199 23.7115 30.7877 23.7595 30.76 23.8101C30.73 23.8643 30.7218 23.928 30.7369 23.9881C30.749 24.0319 30.7737 24.0712 30.808 24.1011C30.8423 24.1309 30.8847 24.1499 30.9297 24.1558C30.9748 24.1617 31.0206 24.1542 31.0615 24.1341C31.1023 24.1141 31.1363 24.0825 31.1592 24.0432C31.1881 23.9906 31.2219 23.9407 31.2599 23.8942L31.2238 23.941C31.2962 23.8476 31.374 23.7584 31.4549 23.6726C31.5282 23.5925 31.6074 23.518 31.6918 23.4498L31.6456 23.486C31.6678 23.4682 31.6915 23.4525 31.7166 23.439C31.7692 23.4078 31.8073 23.3571 31.8229 23.298C31.8384 23.2388 31.83 23.1759 31.7995 23.1229C31.7676 23.071 31.717 23.0334 31.6581 23.018C31.5991 23.0025 31.5365 23.0104 31.4833 23.04L31.4832 23.0408Z" fill="#211715"/>
<path d="M32.5281 31.9019C32.5512 31.9297 32.4959 31.8507 32.5142 31.8842C32.5182 31.8912 32.5231 31.8978 32.5272 31.9049C32.5369 31.9211 32.543 31.9408 32.5534 31.9565C32.5223 31.9092 32.5384 31.9198 32.547 31.9437C32.5505 31.953 32.5537 31.9625 32.5569 31.972C32.5642 31.994 32.5707 32.0162 32.5764 32.0387C32.5892 32.0874 32.5995 32.1369 32.6077 32.1864C32.6122 32.2127 32.6157 32.239 32.6199 32.2652C32.6247 32.2946 32.6135 32.2121 32.6184 32.255C32.6201 32.2696 32.6219 32.2844 32.6235 32.2991C32.6446 32.488 32.6503 32.6777 32.6611 32.8673C32.6611 32.9286 32.6854 32.9874 32.7288 33.0307C32.7721 33.0741 32.8309 33.0984 32.8922 33.0984C32.9535 33.0984 33.0122 33.0741 33.0556 33.0307C33.0989 32.9874 33.1233 32.9286 33.1233 32.8673C33.1117 32.6629 33.1057 32.4583 33.0806 32.255C33.0512 32.0173 33.015 31.7639 32.8548 31.5751C32.8114 31.532 32.7527 31.5078 32.6915 31.5078C32.6303 31.5078 32.5715 31.532 32.5281 31.5751C32.4862 31.6192 32.4628 31.6776 32.4628 31.7385C32.4628 31.7993 32.4862 31.8578 32.5281 31.9019Z" fill="#211715"/>
<path d="M34.8213 27.575C34.9406 27.513 35.0704 27.4736 35.204 27.4587C35.3097 27.4493 35.4162 27.4634 35.5159 27.4998C35.6058 27.5354 35.6814 27.5997 35.731 27.6826C35.7859 27.7779 35.812 27.8871 35.8061 27.9969C35.8001 28.3454 35.5981 28.6303 35.3641 28.8706C35.243 29.0007 35.1129 29.1223 34.975 29.2344C34.8454 29.3297 34.7091 29.4153 34.5671 29.4907C34.308 29.6367 34.5408 30.0362 34.8004 29.8898C35.087 29.7307 35.3508 29.5337 35.5847 29.304C35.8464 29.0456 36.086 28.7691 36.1987 28.4121C36.3007 28.1191 36.2883 27.7984 36.164 27.5142C36.1057 27.3975 36.0233 27.2945 35.9223 27.212C35.8214 27.1294 35.7041 27.069 35.5782 27.0349C35.2419 26.9561 34.8882 27.0064 34.5872 27.1759C34.3214 27.3101 34.5554 27.709 34.8205 27.575H34.8213Z" fill="#211715"/>
<path d="M35.3125 29.2439C35.3719 29.5238 35.4706 29.7938 35.6058 30.0459C35.718 30.2892 35.8806 30.5058 36.083 30.6814C36.3103 30.8496 36.5613 30.9831 36.8278 31.0776C37.0724 31.1738 37.3248 31.249 37.5821 31.3024C37.6412 31.3171 37.7038 31.3086 37.7567 31.2784C37.8096 31.2483 37.8489 31.1989 37.8664 31.1406C37.8821 31.0815 37.8739 31.0185 37.8437 30.9654C37.8134 30.9122 37.7635 30.8731 37.7046 30.8564C37.254 30.7639 36.7543 30.6137 36.3827 30.3333C36.4052 30.3503 36.3524 30.3077 36.3532 30.3086C36.3361 30.2935 36.3195 30.2781 36.3035 30.2623C36.2731 30.231 36.2445 30.1979 36.218 30.1631C36.1368 30.0526 36.0654 29.9352 36.0045 29.8123C35.8898 29.5947 35.8067 29.3618 35.7578 29.1208C35.7411 29.0619 35.7019 29.0119 35.6488 28.9817C35.5956 28.9514 35.5326 28.9433 35.4735 28.959C35.415 28.9763 35.3655 29.0155 35.3353 29.0685C35.3051 29.1215 35.2967 29.1841 35.3117 29.2432L35.3125 29.2439Z" fill="#211715"/>
<path d="M32.5067 23.9608C33.0107 25.3023 33.8956 26.4675 35.0525 27.3132C35.1055 27.3437 35.1684 27.3521 35.2276 27.3366C35.2867 27.3211 35.3374 27.2829 35.3687 27.2303C35.3982 27.1771 35.4061 27.1145 35.3907 27.0556C35.3753 26.9966 35.3377 26.946 35.2858 26.9141C34.242 26.1207 33.4351 25.0569 32.9524 23.8379C32.8511 23.5606 32.4043 23.6806 32.5067 23.9608Z" fill="#211715"/>
<path d="M31.3729 23.2779C31.3755 23.669 31.4845 24.052 31.6882 24.3858C31.8707 24.7158 32.1471 24.9842 32.4823 25.157C32.5356 25.1862 32.5981 25.1939 32.6569 25.1785C32.7157 25.1631 32.7664 25.1257 32.7985 25.0741C32.8289 25.021 32.8373 24.9582 32.8218 24.899C32.8063 24.8399 32.7681 24.7892 32.7155 24.7579C32.6488 24.727 32.5849 24.6904 32.5244 24.6484C32.5244 24.6484 32.4675 24.6065 32.4979 24.6302C32.4856 24.6206 32.4738 24.6107 32.4619 24.6008C32.432 24.5755 32.403 24.549 32.3748 24.5218C32.2611 24.4135 32.1642 24.2889 32.0873 24.152C32.0056 24.0192 31.9425 23.8757 31.8998 23.7257C31.8767 23.6473 31.8587 23.5676 31.8457 23.487C31.8433 23.4704 31.8433 23.4711 31.8457 23.4889L31.8431 23.4651C31.8415 23.4455 31.8394 23.4257 31.8381 23.4061C31.8352 23.3632 31.8345 23.3203 31.8351 23.2775C31.8351 23.2162 31.8108 23.1574 31.7674 23.1141C31.7241 23.0707 31.6653 23.0464 31.604 23.0464C31.5427 23.0464 31.4839 23.0707 31.4406 23.1141C31.3973 23.1574 31.3729 23.2162 31.3729 23.2775V23.2779Z" fill="#211715"/>
<path d="M39.6103 28.8066C40.0305 28.8597 40.4726 28.989 40.7928 29.2789C40.9514 29.4259 41.0759 29.6059 41.1575 29.8062C41.239 30.0065 41.2757 30.2223 41.2648 30.4383C41.2518 30.8812 41.0452 31.2723 40.8763 31.6717C40.685 32.0844 40.5407 32.5172 40.4461 32.9621C40.3641 33.4259 40.3809 33.9279 40.6799 34.3156L40.7161 34.0355C40.4894 34.2233 40.1061 34.1405 39.8511 34.0713C39.5461 33.9965 39.2576 33.8656 39.0003 33.6854C38.689 33.4297 38.4372 33.1092 38.2624 32.7463C38.0982 32.4118 37.9836 32.0553 37.9223 31.6878C37.8489 31.2977 37.9176 30.9043 37.9816 30.5168C37.996 30.4578 37.9873 30.3954 37.9572 30.3425C37.9271 30.2896 37.878 30.2503 37.8198 30.2325C37.7607 30.2167 37.6977 30.2249 37.6446 30.2551C37.5914 30.2854 37.5522 30.3354 37.5356 30.3942C37.4657 30.8176 37.3894 31.2472 37.4533 31.6751C37.5167 32.1043 37.6435 32.5218 37.8298 32.9137C38.0301 33.3434 38.3235 33.7231 38.6887 34.0253C38.9942 34.2524 39.341 34.4177 39.7097 34.5122C40.1559 34.6363 40.6649 34.6755 41.0426 34.3627C41.0787 34.3266 41.1018 34.2795 41.1084 34.2288C41.1149 34.1782 41.1044 34.1268 41.0786 34.0826C40.821 33.7485 40.8318 33.3346 40.921 32.9398C41.0402 32.4815 41.2016 32.0352 41.4032 31.6068C41.5942 31.1653 41.7587 30.7313 41.7224 30.2401C41.694 29.7421 41.4719 29.275 41.1036 28.9386C40.6857 28.5689 40.1531 28.4134 39.61 28.3447C39.5488 28.345 39.4902 28.3695 39.4469 28.4127C39.4036 28.456 39.3792 28.5146 39.3789 28.5758C39.3804 28.6366 39.4052 28.6945 39.4482 28.7376C39.4912 28.7806 39.5491 28.8054 39.61 28.8069L39.6103 28.8066Z" fill="#211715"/>
<path d="M39.565 24.5891C39.6336 24.6294 39.6935 24.6832 39.7409 24.7471C39.8091 24.8444 39.8637 24.9505 39.9034 25.0624C40.0042 25.3569 40.0584 25.6653 40.0641 25.9765C40.0879 26.8097 39.8965 27.635 39.5085 28.3727C39.3707 28.6359 39.7694 28.8695 39.9076 28.606C40.3496 27.7737 40.5619 26.8388 40.5228 25.8974C40.4924 25.3196 40.3625 24.5014 39.7983 24.19C39.5376 24.0461 39.3042 24.4451 39.565 24.5891Z" fill="#211715"/>
<path d="M31.6197 23.5171C31.8739 23.2327 32.0316 22.8816 32.2736 22.5885C32.5131 22.3025 32.7963 22.0562 33.1128 21.8587C33.6701 21.5173 34.3133 21.342 34.9668 21.3536C36.1066 21.3476 37.3404 21.6754 38.2543 22.3763C38.6892 22.7097 39.0457 23.1527 39.1541 23.6996C39.2119 23.9911 39.6573 23.8677 39.5998 23.5768C39.3641 22.3866 38.188 21.6486 37.1286 21.2673C35.8891 20.821 34.3721 20.6814 33.1666 21.2964C32.7717 21.5002 32.413 21.7676 32.1048 22.0877C31.941 22.2594 31.795 22.4472 31.6689 22.6481C31.5585 22.8388 31.4327 23.0201 31.2928 23.1903C31.0949 23.4112 31.4207 23.7392 31.6197 23.5171Z" fill="#211715"/>
<path d="M42.4179 42.8659L42.785 41.2659C42.8427 41.0136 42.9052 40.7621 42.9583 40.5089C43.0045 40.2862 43.0194 40.0636 42.8932 39.8633C42.6333 39.4504 42.1521 39.4321 41.7168 39.4056C41.1735 39.3725 40.63 39.3442 40.0863 39.3207C38.9896 39.2733 37.8922 39.2455 36.7942 39.2374C36.2406 39.2333 35.6871 39.2342 35.1335 39.24C34.6281 39.2261 34.1223 39.242 33.6187 39.2878C33.3708 39.3107 33.1332 39.3986 32.9301 39.5426C32.7342 39.701 32.5879 39.9124 32.5087 40.1516C32.4296 40.3897 32.372 40.6345 32.3368 40.883C32.2822 41.1882 32.2365 41.4953 32.1959 41.8023C32.1962 41.8635 32.2206 41.9222 32.2639 41.9654C32.3072 42.0087 32.3658 42.0332 32.427 42.0334C32.4878 42.0319 32.5457 42.0071 32.5887 41.9641C32.6317 41.9211 32.6566 41.8632 32.6581 41.8023C32.7074 41.3504 32.7865 40.9023 32.8951 40.4609C32.9328 40.2828 33.0143 40.1169 33.1321 39.9781C33.2639 39.8531 33.4326 39.774 33.6131 39.7526C33.8133 39.7251 34.0153 39.713 34.2174 39.7165C34.4654 39.7115 34.7135 39.7073 34.9617 39.7042C35.4676 39.6979 35.9734 39.6958 36.4793 39.6978C37.4815 39.7019 38.4835 39.7223 39.4854 39.7589C39.9815 39.7771 40.4775 39.7993 40.9732 39.8255C41.221 39.8386 41.4689 39.8527 41.7168 39.8678C41.9083 39.8793 42.1246 39.8655 42.303 39.9479C42.3795 39.972 42.4444 40.0235 42.4854 40.0925C42.5264 40.1614 42.5406 40.243 42.5252 40.3218C42.4861 40.5788 42.4097 40.8343 42.3519 41.0878L41.9721 42.743C41.9058 43.0325 42.3512 43.1562 42.4178 42.8659H42.4179Z" fill="#211715"/>
<path d="M4.60791 13.7116C4.61392 16.9238 4.63518 24.1629 4.64177 27.2041C4.64241 27.5488 4.77948 27.8794 5.02304 28.1234C5.26661 28.3674 5.59686 28.5052 5.94164 28.5065C10.1195 28.5227 23.0669 28.4965 27.3424 28.4891C27.6883 28.4887 28.0198 28.351 28.2642 28.1061C28.5085 27.8613 28.6455 27.5294 28.6451 27.1835C28.6436 24.0687 28.6387 16.6564 28.6369 13.711C28.6369 13.5398 28.6031 13.3702 28.5375 13.2119C28.4719 13.0537 28.3758 12.9099 28.2546 12.7889C28.1335 12.6678 27.9897 12.5717 27.8314 12.5062C27.6731 12.4408 27.5035 12.4071 27.3322 12.4071C22.8997 12.4071 10.1439 12.404 5.9131 12.4033C5.74145 12.4034 5.57151 12.4373 5.41298 12.5031C5.25445 12.5689 5.11045 12.6653 4.98922 12.7868C4.868 12.9084 4.77192 13.0526 4.70649 13.2113C4.64106 13.37 4.60756 13.54 4.60791 13.7116Z" fill="white"/>
<path d="M4.73041 27.6754C4.672 27.5252 4.64196 27.3654 4.64179 27.2042C4.64086 26.8121 4.63982 26.35 4.63855 25.8358C9.77426 25.829 23.8377 25.8045 28.6452 25.7905C28.6452 26.3136 28.6452 26.7842 28.6452 27.1841C28.6455 27.53 28.5085 27.8619 28.2642 28.1067C28.0199 28.3516 27.6883 28.4894 27.3424 28.4898C23.0673 28.4971 10.1195 28.5233 5.94166 28.5071C5.67962 28.506 5.42396 28.4261 5.20794 28.2778C4.99192 28.1295 4.82553 27.9196 4.73041 27.6754Z" fill="white"/>
<path d="M19.1087 28.7759C19.1328 29.0301 19.1474 29.2238 19.1562 29.3998C19.1709 29.7002 19.198 30.0122 19.2241 30.3132C19.2851 31.0162 19.4667 31.4131 20.2019 31.5529C20.4141 31.5932 20.537 31.6793 20.5985 31.8132C20.66 31.9471 20.6698 32.3641 20.4613 32.3641C20.0745 32.3641 13.4432 32.3626 12.8146 32.3626C12.611 32.3626 12.5926 31.9472 12.6545 31.8132C12.7164 31.6792 12.8394 31.5937 13.051 31.5529C13.7859 31.4131 13.9678 31.0162 14.0288 30.3132C14.055 30.0117 14.082 29.7 14.0968 29.3998C14.1056 29.2242 14.1199 29.0301 14.1443 28.7759" fill="white"/>
<path d="M17.1782 27.1517C17.1796 27.229 17.1651 27.3058 17.1355 27.3772C17.1059 27.4487 17.0619 27.5132 17.0062 27.5669C16.9505 27.6205 16.8843 27.6621 16.8118 27.689C16.7393 27.7159 16.662 27.7275 16.5848 27.7232C16.1832 27.7249 15.9749 27.4514 15.9737 27.157C15.9723 27.0798 15.9864 27.0032 16.0152 26.9316C16.0439 26.8599 16.0867 26.7948 16.141 26.74C16.1954 26.6852 16.2601 26.6418 16.3315 26.6124C16.4028 26.5831 16.4794 26.5683 16.5565 26.569C16.7157 26.5656 16.8699 26.6247 16.9861 26.7336C17.1023 26.8425 17.1712 26.9926 17.1782 27.1517Z" fill="#D9D9D9"/>
<path d="M4.37684 13.712C4.37915 14.9798 4.38207 16.2475 4.38562 17.5153C4.38962 19.0649 4.39371 20.6144 4.39787 22.1638C4.40156 23.5367 4.40511 24.9096 4.4085 26.2825C4.41 26.884 4.31733 27.5662 4.68927 28.0827C4.91196 28.3991 5.24515 28.6205 5.6231 28.7033C5.86622 28.7395 6.11234 28.7516 6.35784 28.7393C7.36308 28.7423 8.36831 28.7436 9.37354 28.7432C10.6753 28.7432 11.9771 28.7426 13.2789 28.7416C14.7194 28.7405 16.1598 28.7389 17.6003 28.7368C19.005 28.7349 20.4096 28.7327 21.8142 28.7303L25.4116 28.7241L26.8205 28.7215C27.0332 28.7215 27.2519 28.7346 27.4638 28.7148C27.8534 28.6824 28.2163 28.5039 28.4797 28.215C28.7373 27.9242 28.8787 27.5486 28.8767 27.1601C28.8779 26.9059 28.8767 26.6511 28.8767 26.3966L28.8757 24.5335L28.8729 20.0593L28.8701 15.7421L28.8691 14.0504C28.8691 13.7329 28.8751 13.4232 28.75 13.1239C28.6038 12.7703 28.3305 12.4844 27.9839 12.3224C27.5062 12.1054 26.9324 12.1768 26.4192 12.1768H24.8763L21.0789 12.1761L16.7597 12.175L12.4344 12.1742L8.61615 12.1735H7.05781H6.39435C6.16067 12.1632 5.92656 12.1691 5.69369 12.1912C5.32913 12.2467 4.99628 12.4304 4.75488 12.7091C4.51347 12.9879 4.37932 13.3436 4.37649 13.7124C4.37256 14.0099 4.83474 14.0101 4.83867 13.7124C4.83921 13.5461 4.87773 13.3822 4.95128 13.2331C5.02483 13.084 5.13147 12.9536 5.26306 12.852C5.50489 12.6684 5.77654 12.6356 6.06956 12.6357H7.34863L10.7353 12.6364L14.8332 12.6371L19.123 12.6379L23.141 12.6386L26.4064 12.6392H27.0515C27.3232 12.6392 27.588 12.6301 27.8354 12.764C27.9835 12.8435 28.1111 12.9563 28.2083 13.0933C28.3055 13.2304 28.3696 13.3882 28.3957 13.5542C28.4172 13.7975 28.4207 14.0421 28.4063 14.2859L28.4087 18.0803L28.4115 22.5626C28.4124 23.8644 28.4131 25.1665 28.4138 26.4689C28.4138 26.7205 28.4219 26.9737 28.4138 27.2252C28.4076 27.3906 28.3633 27.5523 28.2844 27.6978C28.2055 27.8433 28.0942 27.9686 27.9589 28.064C27.5594 28.3413 27.0133 28.2593 26.5502 28.2604C25.5059 28.2623 24.4616 28.2641 23.4171 28.266L19.473 28.2725C18.059 28.2746 16.6449 28.2765 15.2308 28.2782C13.8708 28.2797 12.5106 28.2807 11.1504 28.2813C10.0026 28.2818 8.8549 28.2815 7.70717 28.2804C7.26093 28.2799 6.81466 28.279 6.36836 28.2779C6.1543 28.2924 5.93931 28.2847 5.72685 28.2547C5.56349 28.2194 5.41043 28.147 5.27949 28.0431C5.14855 27.9393 5.04323 27.8067 4.97166 27.6556C4.84814 27.3929 4.87264 27.104 4.87194 26.822C4.87133 26.5512 4.87071 26.2805 4.87009 26.0097C4.86848 25.3666 4.86682 24.7234 4.86513 24.0801C4.8612 22.5846 4.85735 21.0891 4.85357 19.5937C4.84987 18.1697 4.84625 16.7457 4.84271 15.3217C4.84155 14.7854 4.84044 14.2491 4.83936 13.7127C4.83844 13.4147 4.37626 13.4141 4.37684 13.712Z" fill="#211715"/>
<path d="M4.68125 26.0901C5.03597 26.0901 5.39069 26.0894 5.74541 26.088C6.40016 26.0863 7.05491 26.0844 7.70966 26.0824C8.58833 26.0798 9.46701 26.0769 10.3457 26.0738C11.372 26.0704 12.3984 26.0668 13.4247 26.0632C14.5226 26.0593 15.6205 26.0554 16.7184 26.0516C17.8117 26.0475 18.905 26.0432 19.9982 26.0389C21.0106 26.0348 22.0231 26.0305 23.0355 26.0261C23.891 26.0224 24.7465 26.0186 25.602 26.0146C26.2242 26.0115 26.8465 26.008 27.4689 26.0042C27.7819 26.0021 28.095 26.002 28.4079 25.9959C28.4287 25.9959 28.4496 25.9959 28.4704 25.9943C28.7663 25.9782 28.7682 25.516 28.4704 25.5322C28.2462 25.5443 28.0198 25.538 27.7954 25.5397C27.2423 25.5437 26.6892 25.5471 26.1361 25.5496C25.3311 25.5539 24.5261 25.5578 23.7212 25.5612C22.7403 25.5655 21.7595 25.5697 20.7787 25.5737C19.6983 25.5782 18.6179 25.5825 17.5375 25.5866C16.4337 25.5908 15.3299 25.5949 14.226 25.5989L11.0728 25.6105C10.1506 25.6136 9.22845 25.6166 8.30633 25.6196C7.58926 25.6219 6.87219 25.6241 6.15513 25.6261C5.71929 25.6272 5.2835 25.6282 4.84775 25.6291H4.68136C4.38395 25.6291 4.38349 26.0913 4.68136 26.0913L4.68125 26.0901Z" fill="#211715"/>
<path d="M18.8776 28.7759C18.9215 29.243 18.9414 29.7118 18.9816 30.1792C19.0111 30.5226 19.0394 30.8828 19.2149 31.1883C19.3004 31.3263 19.4123 31.446 19.5442 31.5405C19.6761 31.6351 19.8254 31.7027 19.9835 31.7393C20.1106 31.774 20.3106 31.7719 20.3848 31.9016C20.3831 31.8984 20.4035 31.9795 20.4044 31.9911C20.404 32.0521 20.398 32.113 20.3866 32.1729C20.3681 32.1614 20.5169 32.1383 20.4123 32.1327C20.3714 32.1305 20.3298 32.1327 20.2888 32.1327H19.8941H18.6115L15.2216 32.132H12.8847C12.8675 32.1299 12.8502 32.1299 12.8331 32.132C12.8311 32.132 12.8158 32.1306 12.8153 32.132C12.8183 32.1246 12.8746 32.1561 12.8779 32.1551C12.895 32.1524 12.8691 32.1677 12.8728 32.1414C12.8757 32.1201 12.8554 32.0451 12.8549 32.0056C12.8537 31.9704 12.8584 31.9353 12.8689 31.9016C12.9448 31.7674 13.1577 31.7716 13.2884 31.7341C13.4468 31.6917 13.5965 31.6218 13.7308 31.5277C13.977 31.3376 14.1437 31.0626 14.1983 30.7564C14.2771 30.3082 14.3203 29.8545 14.3275 29.3995C14.3391 29.1915 14.3555 28.9836 14.375 28.7756C14.3745 28.7144 14.35 28.6559 14.3068 28.6127C14.2636 28.5694 14.205 28.545 14.1439 28.5445C14.083 28.5458 14.025 28.5705 13.9819 28.6136C13.9388 28.6567 13.9141 28.7147 13.9128 28.7756C13.8666 29.2609 13.8461 29.7472 13.8042 30.2325C13.7797 30.5166 13.7529 30.868 13.5473 31.0783C13.2957 31.3356 12.9034 31.2717 12.6293 31.4851C12.5037 31.5969 12.4207 31.7488 12.3944 31.9149C12.368 32.081 12.4 32.2511 12.4849 32.3963C12.6514 32.6755 13.104 32.5927 13.3833 32.5927H14.7521L18.2778 32.5935H19.7184C19.9611 32.5935 20.2067 32.6041 20.4494 32.5935C20.8176 32.5777 20.9 32.1878 20.8538 31.8858C20.8422 31.8022 20.8136 31.7219 20.7699 31.6497C20.7262 31.5775 20.6683 31.515 20.5996 31.4659C20.4359 31.3476 20.2387 31.3347 20.0518 31.2764C19.9249 31.2426 19.8093 31.1754 19.7173 31.0818C19.6252 30.9881 19.5599 30.8715 19.5283 30.744C19.4849 30.5761 19.4578 30.4045 19.4474 30.2314C19.4243 29.9628 19.402 29.6939 19.3876 29.4246C19.3761 29.2075 19.3592 28.991 19.3389 28.7745C19.3373 28.7138 19.3124 28.6559 19.2694 28.6129C19.2264 28.5699 19.1686 28.545 19.1078 28.5435C19.0466 28.5439 18.9881 28.5684 18.9449 28.6116C18.9016 28.6549 18.8771 28.7134 18.8767 28.7745L18.8776 28.7759Z" fill="#211715"/>
<path d="M14.4288 31.6106H18.8139C19.1113 31.6106 19.1118 31.1484 18.8139 31.1484H14.4288C14.1314 31.1484 14.1309 31.6106 14.4288 31.6106Z" fill="#211715"/>
<path d="M7.10291 14.4746C7.10291 14.7675 7.1036 21.9484 7.1036 22.4437C9.37289 22.4437 19.9967 22.4446 20.1181 22.4446C20.1181 22.1474 20.1211 15.5751 20.1218 14.4746C17.5504 14.4748 7.24526 14.4746 7.10291 14.4746Z" fill="white"/>
<path d="M8.87087 19.8536L9.77836 19.853V21.062C9.42468 21.062 9.10658 21.062 8.8562 21.062C8.8562 20.6941 8.854 19.9643 8.854 19.8536H8.87087Z" fill="#B2CFE9"/>
<path d="M12.2932 18.5143C12.2932 19.2131 12.2957 21.1922 12.2954 21.0617C12.6448 21.0611 12.9619 21.0607 13.2174 21.0605V18.2803H12.2931C12.2931 18.3034 12.2932 18.3876 12.2932 18.5143Z" fill="#65A0D4"/>
<path d="M10.5739 19.2762C10.5739 19.1856 10.5739 19.1225 10.5739 19.1001H11.4982V21.0617H10.5759C10.5764 21.2157 10.5744 19.795 10.5739 19.2762Z" fill="#B2CFE9"/>
<path d="M20.3499 19.8976C20.3506 18.3339 20.3514 16.7699 20.3524 15.2055C20.3524 14.9618 20.3524 14.7182 20.3524 14.4747C20.3515 14.4137 20.3269 14.3554 20.2837 14.3122C20.2406 14.2691 20.1823 14.2445 20.1213 14.2436H8.47303C8.02657 14.2436 7.5771 14.2283 7.13075 14.2436C7.12151 14.2436 7.11215 14.2436 7.10279 14.2436C7.04177 14.2445 6.9835 14.2691 6.94035 14.3122C6.8972 14.3554 6.87257 14.4137 6.8717 14.4747C6.8717 15.3732 6.8717 16.2719 6.8717 17.1706V21.292C6.8717 21.676 6.8717 22.0599 6.8717 22.4438C6.8726 22.5048 6.89723 22.563 6.94038 22.6062C6.98352 22.6493 7.04178 22.674 7.10279 22.6749C8.15925 22.6749 9.21571 22.6749 10.2722 22.6749H14.8146H17.2294C17.5268 22.6749 17.5273 22.2127 17.2294 22.2127H12.7901H8.60232C8.10263 22.2127 7.60283 22.2127 7.10291 22.2127L7.334 22.4438C7.334 21.4968 7.334 20.55 7.334 19.6032V15.5223C7.334 15.1731 7.334 14.8239 7.334 14.4747L7.10291 14.7058H20.1217L19.8906 14.4747C19.8898 15.7976 19.8891 17.1205 19.8884 18.4434L19.8878 19.8976C19.8878 20.195 20.3499 20.1955 20.3499 19.8976Z" fill="#211715"/>
<path d="M13.5265 16.5505C13.525 16.2939 13.5496 16.0313 13.3598 15.8298C13.287 15.7606 13.2002 15.708 13.1053 15.6754C13.0103 15.6428 12.9095 15.6311 12.8096 15.641H9.21247C9.05775 15.641 8.8983 15.6301 8.74393 15.6432C8.62021 15.6526 8.5023 15.6996 8.40594 15.7777C8.30958 15.8559 8.23933 15.9616 8.20457 16.0807C8.18079 16.1972 8.17248 16.3162 8.17985 16.4349C8.17009 16.5638 8.19289 16.6931 8.24617 16.8108C8.29992 16.9116 8.3805 16.9955 8.47899 17.0534C8.57749 17.1112 8.69006 17.1406 8.80425 17.1384C9.58821 17.1532 10.3733 17.1446 11.1574 17.148C11.6047 17.1499 12.052 17.1518 12.4991 17.1537C12.6922 17.171 12.8866 17.1647 13.0781 17.1349C13.2061 17.0992 13.319 17.0229 13.3998 16.9175C13.4807 16.8121 13.5252 16.6834 13.5265 16.5505C13.5398 16.2532 13.0776 16.2538 13.0644 16.5504C13.0579 16.6934 12.9322 16.6931 12.8217 16.6926L12.4023 16.6911L11.3801 16.6869C10.6653 16.6838 9.95056 16.6807 9.23581 16.6777C9.1005 16.6777 8.96509 16.6762 8.82978 16.6762C8.66236 16.6762 8.64087 16.5858 8.64237 16.4349C8.64387 16.284 8.61499 16.1113 8.80956 16.1031C8.94336 16.0972 9.0789 16.1031 9.21281 16.1031H12.4898C12.6341 16.095 12.7788 16.095 12.9232 16.1031C13.1284 16.1269 13.0638 16.4052 13.0647 16.5505C13.0661 16.8477 13.5283 16.8485 13.5265 16.5505Z" fill="#211715"/>
<path d="M9.08753 21.0578C9.08753 20.6564 9.08522 20.2551 9.0851 19.8537L8.85401 20.0848C9.16213 20.0848 9.47025 20.0846 9.77837 20.0842L9.54728 19.8532V21.06C9.54728 21.1213 9.57162 21.1801 9.61496 21.2234C9.6583 21.2668 9.71708 21.2911 9.77837 21.2911C9.83965 21.2911 9.89843 21.2668 9.94177 21.2234C9.98511 21.1801 10.0095 21.1213 10.0095 21.06V19.8532C10.0086 19.7921 9.98396 19.7339 9.94081 19.6907C9.89766 19.6476 9.83939 19.6229 9.77837 19.6221C9.47025 19.6221 9.16213 19.6223 8.85401 19.6226C8.79299 19.6235 8.73472 19.6481 8.69157 19.6913C8.64842 19.7344 8.62379 19.7927 8.62292 19.8537C8.62292 20.2551 8.62524 20.6564 8.62535 21.0578C8.62535 21.1191 8.6497 21.1779 8.69304 21.2212C8.73637 21.2646 8.79515 21.2889 8.85644 21.2889C8.91773 21.2889 8.97651 21.2646 9.01984 21.2212C9.06318 21.1779 9.08753 21.1191 9.08753 21.0578Z" fill="#211715"/>
<path d="M10.807 21.0577C10.807 20.4051 10.8048 19.7521 10.8047 19.0998L10.5736 19.3309C10.8817 19.3309 11.1899 19.3309 11.498 19.3309L11.2669 19.0998V21.0605C11.2669 21.3578 11.7291 21.3584 11.7291 21.0605V19.0993C11.7282 19.0382 11.7036 18.98 11.6604 18.9368C11.6173 18.8937 11.559 18.869 11.498 18.8682C11.1899 18.8682 10.8817 18.8682 10.5736 18.8682C10.5126 18.869 10.4543 18.8937 10.4112 18.9368C10.368 18.98 10.3434 19.0382 10.3425 19.0993C10.3425 19.7518 10.3448 20.4049 10.3448 21.0571C10.3448 21.3546 10.807 21.355 10.807 21.0571V21.0577Z" fill="#211715"/>
<path d="M12.5265 21.0581C12.5265 20.2588 12.5258 19.4596 12.5244 18.6603C12.5244 18.5338 12.5244 18.4073 12.5244 18.2809L12.2933 18.512C12.6015 18.512 12.9096 18.512 13.2177 18.512L12.9866 18.2809V21.0609C12.9866 21.3582 13.4488 21.3587 13.4488 21.0609V18.2804C13.4479 18.2194 13.4233 18.1611 13.3801 18.118C13.337 18.0748 13.2787 18.0502 13.2177 18.0493C12.9096 18.0493 12.6015 18.0493 12.2933 18.0493C12.2323 18.0502 12.174 18.0748 12.1309 18.118C12.0877 18.1611 12.0631 18.2194 12.0623 18.2804C12.0623 19.073 12.0629 19.8655 12.0643 20.658C12.0643 20.7911 12.0643 20.9244 12.0643 21.0576C12.0643 21.355 12.5265 21.3555 12.5265 21.0576V21.0581Z" fill="#211715"/>
<path d="M8.33212 21.2931C9.90553 21.2931 11.479 21.2925 13.0524 21.2913H13.8266C14.1239 21.2913 14.1245 20.8291 13.8266 20.8291C12.2788 20.8291 10.731 20.8297 9.18322 20.831H8.33224C8.03483 20.831 8.03425 21.2931 8.33212 21.2931Z" fill="#211715"/>
<path d="M15.0531 20.532H16.5552C16.6165 20.532 16.6753 20.5077 16.7186 20.4643C16.7619 20.421 16.7863 20.3622 16.7863 20.3009C16.7863 20.2396 16.7619 20.1808 16.7186 20.1375C16.6753 20.0942 16.6165 20.0698 16.5552 20.0698H15.0531C14.9918 20.0698 14.933 20.0942 14.8897 20.1375C14.8464 20.1808 14.822 20.2396 14.822 20.3009C14.822 20.3622 14.8464 20.421 14.8897 20.4643C14.933 20.5077 14.9918 20.532 15.0531 20.532Z" fill="#211715"/>
<path d="M15.1187 21.3279H16.0816C16.1429 21.3279 16.2017 21.3036 16.245 21.2602C16.2883 21.2169 16.3127 21.1581 16.3127 21.0968C16.3127 21.0355 16.2883 20.9767 16.245 20.9334C16.2017 20.8901 16.1429 20.8657 16.0816 20.8657H15.1187C15.0574 20.8657 14.9986 20.8901 14.9553 20.9334C14.9119 20.9767 14.8876 21.0355 14.8876 21.0968C14.8876 21.1581 14.9119 21.2169 14.9553 21.2602C14.9986 21.3036 15.0574 21.3279 15.1187 21.3279Z" fill="#211715"/>
<path d="M17.6933 16.5865C17.5452 16.3348 17.3326 16.127 17.0775 15.9846C16.8225 15.8422 16.5341 15.7703 16.242 15.7762H16.2322C16.2322 15.7777 16.2322 16.9792 16.2322 17.5052C16.0242 17.7317 15.2719 18.5321 15.0735 18.7446C15.3985 19.0211 15.8155 19.1654 16.2419 19.149C17.2966 19.149 17.9227 18.4904 17.9227 17.4472C17.924 17.1451 17.8448 16.848 17.6933 16.5865Z" fill="#65A0D4"/>
<path d="M18.0645 18.1123C18.2591 17.4132 18.1338 16.6388 17.6171 16.1084C17.369 15.8645 17.0608 15.6907 16.7238 15.6047C16.3867 15.5186 16.0329 15.5234 15.6983 15.6184C15.3832 15.7084 15.097 15.879 14.868 16.1135C14.639 16.3479 14.4752 16.638 14.3926 16.9552C14.3108 17.269 14.3037 17.5978 14.3721 17.9148C14.4405 18.2319 14.5824 18.5285 14.7863 18.7808C15.2947 19.3721 16.1906 19.4954 16.9086 19.2872C17.1938 19.2045 17.0725 18.7584 16.7858 18.8415C16.2916 18.9849 15.6693 18.9497 15.2614 18.6026C14.8883 18.2852 14.7543 17.769 14.7992 17.294C14.8233 17.0452 14.9122 16.8071 15.0572 16.6034C15.2021 16.3998 15.3979 16.2377 15.625 16.1334C15.8709 16.0256 16.1409 15.9845 16.4078 16.0142C16.6746 16.044 16.9289 16.1436 17.145 16.3029C17.662 16.7014 17.7876 17.3843 17.6187 17.9899C17.5388 18.2768 17.9846 18.3992 18.0644 18.1127L18.0645 18.1123Z" fill="#211715"/>
<path d="M16.0011 15.7765V17.5055L16.0689 17.3421C15.6859 17.7588 15.2956 18.1687 14.9094 18.5823C14.7065 18.7996 15.0327 19.1271 15.2361 18.9091C15.4441 18.6865 15.6525 18.4641 15.8613 18.2421C15.9829 18.1122 16.1044 17.9822 16.2259 17.8521C16.3299 17.7408 16.4559 17.6412 16.4633 17.4799C16.4892 16.9146 16.4633 16.3426 16.4633 15.7765C16.4633 15.479 16.0011 15.4786 16.0011 15.7765Z" fill="#211715"/>
<path d="M21.1282 24.1737H21.1126C21.1021 23.9984 21.069 23.4497 21.0331 22.9596L20.8643 23.0891C20.7338 23.1894 20.3187 23.5385 20.2097 23.6412C20.0936 23.7681 19.9377 23.8515 19.7677 23.8777C19.6179 23.8969 19.4656 23.8734 19.3286 23.8096C19.2203 23.7347 18.7613 23.1716 18.5068 22.8324C18.4041 22.6954 18.1902 22.3916 18.1339 22.3177C18.1477 22.2679 18.9435 21.7205 19.0799 21.6063C19.1642 21.7092 19.5091 22.1518 19.6189 22.2232C19.7334 22.1228 20.0464 21.5221 20.1495 21.3814C20.2357 21.2639 20.3245 21.0171 20.4577 20.8339C20.5397 20.6655 20.7973 20.5627 20.9777 20.47C21.0886 20.413 21.4275 20.2565 21.6371 20.1742C21.7622 20.0297 21.985 19.7929 22.1381 19.6289C22.4493 19.7813 22.77 19.9136 23.098 20.0252L23.1367 20.0345L23.1945 20.0207C23.5188 19.9104 23.8358 19.7796 24.1435 19.6289C24.2943 19.7998 24.4541 19.9626 24.6223 20.1164L24.7157 20.1981C24.9048 20.2832 25.1383 20.4027 25.2693 20.47C25.4463 20.5527 25.6121 20.6573 25.7631 20.7813C25.9232 20.9657 26.038 21.1849 26.0981 21.4216C26.2649 22.2087 26.4396 23.3604 26.5284 24.178C25.4952 24.178 23.3514 24.1737 21.1282 24.1737Z" fill="white"/>
<path d="M23.8675 22.7325C23.7813 22.2654 23.5726 21.1827 23.5655 21.1099C23.5968 21.0313 23.7008 20.8313 23.7819 20.6871C23.5671 20.4511 23.2071 20.0442 23.1945 20.021L23.0981 20.0255C23.0852 20.0493 22.7363 20.4749 22.5349 20.7107C22.6253 20.8481 22.7464 21.043 22.8007 21.1226C22.7949 21.215 22.565 22.612 22.5269 22.8731C22.7366 23.0793 22.9609 23.27 23.1982 23.4439C23.3403 23.341 23.7285 23.0418 23.8961 22.8904C23.8896 22.8536 23.8798 22.7994 23.8675 22.7325Z" fill="#6DBF6B"/>
<path d="M18.1297 21.9788C17.9507 21.7563 17.6016 21.6663 17.4108 21.4654C17.1943 21.2373 17.1425 20.8876 17.1925 20.5859C17.2794 20.062 18.1199 19.75 18.3803 20.2179L18.4089 20.1903C18.5148 20.0532 18.8107 19.9951 18.9513 20.143C19.0661 20.2636 19.1183 20.6372 19.0068 20.7964C18.9646 20.8447 18.9101 20.8808 18.8491 20.9009C18.7881 20.921 18.7229 20.9243 18.6602 20.9105L18.7064 20.9518C18.8259 21.0927 18.9019 21.2653 18.9253 21.4486L18.9735 21.7863L18.4129 22.287L18.1297 21.9788Z" fill="white"/>
<path d="M21.6963 19.9079C21.4738 19.9843 21.2567 20.0757 21.0465 20.1816C20.8137 20.2898 20.5548 20.3932 20.3672 20.5724C20.3244 20.616 20.3004 20.6747 20.3004 20.7358C20.3004 20.7969 20.3244 20.8555 20.3672 20.8991C20.4111 20.9414 20.4697 20.965 20.5307 20.965C20.5916 20.965 20.6502 20.9414 20.6941 20.8991C20.7068 20.8876 20.7203 20.876 20.7333 20.8645C20.6943 20.9005 20.7363 20.8631 20.7448 20.857C20.7738 20.8372 20.8039 20.8193 20.8344 20.8022C20.8983 20.7662 20.9645 20.7345 21.0308 20.702C21.1136 20.6612 21.196 20.62 21.2798 20.5812C21.3853 20.532 21.4915 20.4845 21.5983 20.4386C21.6173 20.4304 21.654 20.4293 21.5983 20.4386C21.61 20.4351 21.6212 20.4304 21.6319 20.4246C21.655 20.4151 21.6781 20.4058 21.7012 20.3968C21.74 20.3815 21.7791 20.3666 21.8189 20.3544C21.8482 20.3463 21.8756 20.3325 21.8995 20.3139C21.9235 20.2952 21.9435 20.2721 21.9585 20.2457C21.9735 20.2193 21.9831 20.1902 21.9869 20.1601C21.9906 20.1299 21.9884 20.0994 21.9803 20.0701C21.9723 20.0409 21.9585 20.0135 21.9399 19.9895C21.9212 19.9656 21.898 19.9455 21.8716 19.9305C21.8453 19.9155 21.8162 19.9059 21.786 19.9022C21.7559 19.8984 21.7254 19.9006 21.6961 19.9087L21.6963 19.9079Z" fill="#211715"/>
<path d="M24.493 20.3535C24.8111 20.4796 25.1179 20.6325 25.4101 20.8104C25.5667 20.8978 25.6914 21.0326 25.7663 21.1955C25.8434 21.3716 25.8978 21.5567 25.9281 21.7465C26.0852 22.5506 26.2074 23.3641 26.2967 24.1782C26.2984 24.2389 26.3233 24.2967 26.3663 24.3397C26.4092 24.3827 26.467 24.4076 26.5278 24.4093C26.5889 24.4089 26.6475 24.3844 26.6907 24.3411C26.734 24.2979 26.7584 24.2394 26.7589 24.1782C26.6605 23.2811 26.5278 22.384 26.3491 21.4994C26.2596 21.0571 26.0549 20.6627 25.6628 20.4232C25.3297 20.2209 24.9794 20.0484 24.6159 19.9078C24.5567 19.892 24.4938 19.9001 24.4406 19.9304C24.3874 19.9607 24.3482 20.0107 24.3316 20.0696C24.3167 20.1287 24.3252 20.1912 24.3554 20.2442C24.3855 20.2972 24.435 20.3364 24.4934 20.3538L24.493 20.3535Z" fill="#211715"/>
<path d="M18.5723 20.3538C18.5869 20.3357 18.6035 20.3194 18.6218 20.3051L18.575 20.3412C18.6022 20.3211 18.6317 20.3043 18.6629 20.2913L18.6076 20.3144C18.6465 20.2988 18.6871 20.2881 18.7286 20.2825L18.6671 20.2908C18.7029 20.2867 18.739 20.2867 18.7747 20.2908L18.7133 20.2825C18.7422 20.2864 18.7705 20.2937 18.7977 20.3042L18.7426 20.2811C18.7663 20.2911 18.7887 20.3041 18.8092 20.3197L18.7625 20.2835C18.7779 20.2962 18.7918 20.3104 18.8042 20.3261L18.768 20.2793C18.7864 20.305 18.8017 20.3328 18.8136 20.3621L18.7905 20.3069C18.8143 20.367 18.8304 20.4299 18.8386 20.4941L18.8303 20.4326C18.8392 20.4993 18.8398 20.567 18.832 20.6339L18.8402 20.5724C18.8353 20.6106 18.8258 20.648 18.8119 20.6839L18.835 20.6287C18.8263 20.6493 18.8153 20.6689 18.8022 20.6871L18.8384 20.6403C18.8244 20.658 18.8083 20.6739 18.7905 20.6877L18.8367 20.6517C18.8183 20.665 18.7986 20.6763 18.7778 20.6855L18.833 20.6624C18.8003 20.6758 18.766 20.685 18.7309 20.6897L18.7924 20.6815C18.7502 20.6865 18.7075 20.6865 18.6653 20.6815L18.7266 20.6897C18.6861 20.6842 18.6464 20.6738 18.6084 20.6587L18.6637 20.6818C18.6463 20.6745 18.6294 20.666 18.6132 20.6564C18.5603 20.6258 18.4974 20.6175 18.4384 20.6331C18.3794 20.6487 18.3289 20.6871 18.2981 20.7398C18.2672 20.7926 18.2585 20.8554 18.2739 20.9145C18.2892 20.9736 18.3273 21.0243 18.3799 21.0554C18.4613 21.1024 18.5514 21.1325 18.6447 21.1436C18.7381 21.1548 18.8327 21.1469 18.9229 21.1204C19.035 21.0865 19.1325 21.0163 19.2002 20.9209C19.2433 20.8572 19.2715 20.7847 19.2827 20.7086C19.338 20.3735 19.2358 19.902 18.8395 19.8381C18.729 19.818 18.6153 19.8257 18.5085 19.8604C18.4067 19.8909 18.3153 19.9488 18.2445 20.028C18.2028 20.0724 18.1787 20.1304 18.1768 20.1913C18.1772 20.2525 18.2015 20.3112 18.2445 20.3547C18.2879 20.3979 18.3466 20.4223 18.4078 20.4224C18.4383 20.4228 18.4684 20.417 18.4965 20.4054C18.5246 20.3937 18.55 20.3765 18.5712 20.3547L18.5723 20.3538Z" fill="#211715"/>
<path d="M18.544 21.115C18.5589 21.1287 18.5725 21.1437 18.5847 21.1597L18.5486 21.1129C18.592 21.1728 18.628 21.2377 18.6558 21.3063L18.6327 21.2511C18.6655 21.3245 18.6886 21.4018 18.7013 21.4812L18.693 21.4198C18.6941 21.4293 18.6951 21.4388 18.6955 21.4484C18.6968 21.5094 18.721 21.5677 18.7632 21.6118C18.8066 21.6551 18.8653 21.6794 18.9266 21.6794C18.9879 21.6794 19.0467 21.6551 19.09 21.6118C19.1333 21.5684 19.1577 21.5097 19.1577 21.4484C19.1461 21.317 19.1109 21.1887 19.0537 21.0699C19.0336 21.022 19.01 20.9756 18.9831 20.9312C18.9526 20.8784 18.9149 20.8302 18.871 20.7879C18.827 20.7456 18.7687 20.7214 18.7077 20.7202C18.6465 20.7207 18.5879 20.745 18.5443 20.7879C18.5228 20.8094 18.5058 20.8349 18.4942 20.8629C18.4825 20.8909 18.4766 20.921 18.4766 20.9514C18.4766 20.9817 18.4825 21.0118 18.4942 21.0398C18.5058 21.0679 18.5228 21.0933 18.5443 21.1148L18.544 21.115Z" fill="#211715"/>
<path d="M18.2931 21.816C18.1697 21.6851 18.0236 21.5775 17.862 21.4985C17.7948 21.4605 17.7274 21.4227 17.6636 21.3791C17.649 21.3692 17.6343 21.3591 17.6203 21.3481C17.6586 21.3783 17.6067 21.3343 17.6032 21.331C17.5876 21.3165 17.5736 21.3007 17.5587 21.2855C17.5275 21.2541 17.5647 21.3004 17.5384 21.2607C17.515 21.2262 17.494 21.1902 17.4754 21.1529C17.4713 21.1443 17.4535 21.0995 17.467 21.135C17.4589 21.1136 17.4514 21.092 17.4448 21.07C17.4338 21.0333 17.4247 20.9961 17.4176 20.9584C17.4176 20.9555 17.4081 20.8813 17.4127 20.9285C17.4101 20.9017 17.4081 20.8748 17.407 20.8476C17.4054 20.8055 17.4059 20.7633 17.4084 20.7212C17.4098 20.6981 17.4119 20.6758 17.4143 20.6531C17.4133 20.6633 17.4068 20.6935 17.4154 20.6476C17.4202 20.6202 17.4267 20.5932 17.435 20.5667C17.4379 20.5581 17.4417 20.5495 17.4441 20.5407C17.4545 20.5042 17.4174 20.5869 17.4487 20.5332C17.4603 20.5132 17.4708 20.4929 17.4834 20.4736C17.4897 20.461 17.4978 20.4494 17.5072 20.4389C17.4617 20.4762 17.4929 20.4563 17.5061 20.4422C17.5222 20.4251 17.5377 20.4075 17.5547 20.3912C17.5675 20.3788 17.6349 20.3125 17.5834 20.363C17.6235 20.3292 17.6682 20.3013 17.7161 20.2801C17.7287 20.2736 17.7419 20.2685 17.7543 20.2616C17.79 20.2431 17.7402 20.2666 17.7382 20.2683C17.767 20.2528 17.7983 20.2424 17.8306 20.2374C17.8527 20.2314 17.8755 20.2283 17.8975 20.2224C17.9449 20.2096 17.841 20.2251 17.8896 20.2224C17.8984 20.2224 17.9073 20.2207 17.9162 20.2201C17.9424 20.2182 17.9687 20.218 17.9949 20.2194C18.0035 20.2194 18.0122 20.2211 18.0207 20.2214C18.0602 20.2222 17.962 20.2065 18.0222 20.2229C18.0419 20.2283 18.0623 20.2353 18.0824 20.2397C18.1258 20.2494 18.0349 20.2123 18.0729 20.2353C18.0834 20.2418 18.0951 20.2469 18.1057 20.2528C18.1124 20.2568 18.1196 20.2625 18.1266 20.2661C18.1658 20.2854 18.0895 20.2278 18.1197 20.2602C18.1332 20.2746 18.1682 20.2948 18.1731 20.3154L18.153 20.2898C18.1582 20.2972 18.1632 20.3047 18.168 20.3129C18.1768 20.3292 18.1855 20.3463 18.195 20.3622C18.2045 20.3782 18.2014 20.3969 18.189 20.3476C18.1941 20.3678 18.2026 20.387 18.2081 20.4072C18.2124 20.4232 18.2151 20.4396 18.2191 20.4557C18.2306 20.5019 18.2215 20.4095 18.2206 20.4657C18.2206 20.4857 18.2213 20.5051 18.2195 20.5251C18.224 20.4731 18.2157 20.5326 18.2124 20.5445C18.1877 20.6123 18.1514 20.6752 18.1051 20.7304C18.0897 20.7473 18.0737 20.7635 18.0572 20.779C18.0511 20.7847 18.0023 20.8252 18.0355 20.7999C18.0183 20.8129 18.0004 20.8248 17.9818 20.8357C17.9727 20.8413 17.8963 20.8759 17.9459 20.8566C17.8877 20.8743 17.8385 20.9137 17.8084 20.9665C17.7784 21.0194 17.7697 21.0818 17.7841 21.1409C17.8008 21.1998 17.8399 21.2498 17.8931 21.28C17.9463 21.3103 18.0093 21.3184 18.0684 21.3026C18.4771 21.1433 18.7897 20.6888 18.6421 20.2468C18.595 20.0986 18.5001 19.9702 18.3723 19.8818C18.2445 19.7933 18.091 19.7497 17.9357 19.7578C17.7897 19.7642 17.6466 19.8002 17.5149 19.8636C17.3832 19.9269 17.2657 20.0163 17.1696 20.1264C17.0545 20.278 16.979 20.4558 16.9498 20.6439C16.9207 20.8319 16.9388 21.0243 17.0026 21.2036C17.0787 21.4489 17.24 21.6589 17.4573 21.7959C17.5505 21.8565 17.6499 21.9071 17.7453 21.9642C17.7897 21.9902 17.8327 22.0184 17.8742 22.0487C17.8443 22.0265 17.899 22.071 17.9094 22.0809C17.9295 22.1004 17.9485 22.1209 17.9664 22.1425C18.0099 22.1854 18.0686 22.2095 18.1297 22.2095C18.1909 22.2095 18.2496 22.1854 18.2931 22.1425C18.3353 22.0986 18.3588 22.04 18.3588 21.9791C18.3588 21.9182 18.3353 21.8597 18.2931 21.8158V21.816Z" fill="#211715"/>
<path d="M16.6572 17.7804C17.0208 18.4541 17.3935 19.1231 17.7643 19.7929C17.8283 19.9085 17.8914 20.0247 17.9573 20.1396C18.1045 20.398 18.5039 20.1654 18.3564 19.9063C17.9819 19.2489 17.6234 18.5819 17.2594 17.9189C17.1915 17.7952 17.1233 17.6715 17.0562 17.5473C16.9148 17.2855 16.5158 17.5185 16.6572 17.7806V17.7804Z" fill="#211715"/>
<path d="M20.701 22.926C20.4912 23.0886 20.2868 23.2611 20.0893 23.4388C19.9726 23.5436 19.8653 23.6468 19.6999 23.6504C19.6278 23.6537 19.5555 23.6467 19.4854 23.6296C19.4497 23.6202 19.4337 23.598 19.4718 23.6307C19.4552 23.6164 19.4397 23.6008 19.4242 23.5852C19.0091 23.1692 18.6848 22.6693 18.3333 22.2014V22.4347C18.3065 22.49 18.3081 22.4614 18.3496 22.43C18.3984 22.393 18.3869 22.3996 18.4189 22.3757C18.5171 22.3021 18.6165 22.23 18.7161 22.1581C18.8926 22.031 19.0749 21.9084 19.2433 21.77H18.9164C19.0967 21.9911 19.2672 22.2561 19.5022 22.4231C19.5464 22.4485 19.5978 22.4587 19.6484 22.4522C19.6989 22.4456 19.746 22.4227 19.7823 22.3869C19.9903 22.1891 20.1157 21.8809 20.2607 21.6376C20.3257 21.5285 20.3967 21.426 20.454 21.3123C20.5262 21.1691 20.5963 20.9747 20.7287 20.8753C20.7802 20.8431 20.8175 20.7925 20.8329 20.7337C20.8483 20.675 20.8406 20.6125 20.8116 20.5592C20.7804 20.5066 20.7297 20.4684 20.6705 20.4529C20.6113 20.4374 20.5484 20.4458 20.4954 20.4764C20.2066 20.693 20.0879 21.0407 19.902 21.3376C19.8182 21.4713 19.7426 21.6101 19.6624 21.746C19.6214 21.8153 19.58 21.8846 19.536 21.9528C19.5172 21.9817 19.4989 22.0117 19.4774 22.0386C19.5055 22.0034 19.4619 22.0539 19.4554 22.0601L19.7355 22.024C19.7915 22.0638 19.7203 22.0069 19.7101 21.9968C19.6907 21.9775 19.6721 21.9574 19.6537 21.9373C19.5979 21.8766 19.5449 21.8136 19.4919 21.7502C19.4077 21.6489 19.3263 21.5454 19.2431 21.4432C19.1992 21.4009 19.1406 21.3773 19.0796 21.3773C19.0187 21.3773 18.9601 21.4009 18.9162 21.4432C18.8749 21.4771 18.9313 21.4324 18.9123 21.4469C18.8932 21.4615 18.8746 21.4751 18.8556 21.4892C18.8145 21.5197 18.7729 21.5498 18.7314 21.5798C18.6229 21.6583 18.5141 21.736 18.4058 21.8146C18.2999 21.8913 18.1943 21.9686 18.0911 22.0489C18.0284 22.0878 17.9748 22.1399 17.9341 22.2014C17.9134 22.2368 17.9025 22.2771 17.9025 22.3181C17.9025 22.3591 17.9134 22.3993 17.9341 22.4347C18.1333 22.6998 18.3208 22.9726 18.5258 23.2335C18.6499 23.3913 18.7763 23.5475 18.9071 23.7002C18.9875 23.8042 19.0788 23.8995 19.1793 23.9844C19.3445 24.0895 19.541 24.1344 19.7355 24.1115C19.9703 24.091 20.1903 23.9879 20.3563 23.8207C20.5734 23.6242 20.7966 23.4324 21.0279 23.2532C21.0709 23.2097 21.0951 23.151 21.0951 23.0898C21.0951 23.0286 21.0709 22.9699 21.0279 22.9264C20.9838 22.8845 20.9253 22.8611 20.8645 22.8611C20.8037 22.8611 20.7452 22.8845 20.7011 22.9264L20.701 22.926Z" fill="#211715"/>
<path d="M20.7377 22.2243C20.8167 22.8701 20.8426 23.5246 20.8816 24.1737C20.883 24.2346 20.9077 24.2926 20.9508 24.3356C20.9938 24.3787 21.0519 24.4035 21.1127 24.4048C21.1738 24.4043 21.2323 24.3797 21.2755 24.3365C21.3188 24.2933 21.3433 24.2348 21.3438 24.1737C21.3048 23.5246 21.2789 22.8701 21.1998 22.2243C21.198 22.1635 21.1731 22.1058 21.1301 22.0629C21.0872 22.0199 21.0295 21.995 20.9688 21.9932C20.9076 21.9936 20.849 22.018 20.8058 22.0613C20.7625 22.1045 20.7381 22.1631 20.7377 22.2243Z" fill="#211715"/>
<path d="M25.0579 22.2174C24.9795 22.8579 24.9564 23.5068 24.9176 24.1506C24.9176 24.2119 24.9419 24.2707 24.9853 24.314C25.0286 24.3573 25.0874 24.3817 25.1487 24.3817C25.21 24.3817 25.2688 24.3573 25.3121 24.314C25.3554 24.2707 25.3798 24.2119 25.3798 24.1506C25.4186 23.5068 25.4417 22.8579 25.52 22.2174C25.5197 22.1562 25.4953 22.0976 25.452 22.0544C25.4087 22.0111 25.3501 21.9867 25.289 21.9863C25.2281 21.9878 25.1702 22.0126 25.1271 22.0556C25.0841 22.0986 25.0593 22.1566 25.0579 22.2174Z" fill="#211715"/>
<path d="M21.1126 24.405C22.9177 24.405 24.7227 24.4065 26.5277 24.4093C26.825 24.4093 26.8256 23.9471 26.5277 23.9471C24.7227 23.9471 22.9177 23.9457 21.1126 23.9429C20.8152 23.9429 20.8148 24.405 21.1126 24.405Z" fill="#211715"/>
<path d="M24.9434 17.5686C24.9483 17.5686 25.0928 17.6219 25.1253 17.6796C25.146 17.7206 25.1578 17.7655 25.16 17.8114C25.1759 17.9909 25.1421 18.1714 25.0625 18.333C25.0251 18.4148 24.9705 18.4875 24.9024 18.5462C24.8411 18.5892 24.7682 18.6125 24.6933 18.613L24.6637 18.6145C24.5905 18.851 24.4722 19.0711 24.3153 19.2626C24.1186 19.5162 23.8402 19.6939 23.5274 19.7654C23.3958 19.7922 23.262 19.8065 23.1278 19.8081C23.0041 19.8051 22.8808 19.7926 22.7591 19.7705C22.4346 19.7075 22.1426 19.532 21.9346 19.2751C21.7749 19.0844 21.6539 18.8644 21.5784 18.6274C21.5355 18.6395 21.4902 18.64 21.447 18.6291C21.4038 18.6181 21.3642 18.5961 21.3322 18.5651C21.2635 18.5071 21.208 18.4351 21.1696 18.3538C21.0881 18.193 21.0525 18.0129 21.0666 17.8332C21.0684 17.7873 21.0799 17.7422 21.1002 17.701C21.1179 17.6711 21.1419 17.6456 21.1707 17.6262C21.1995 17.6069 21.2322 17.5942 21.2665 17.5892C21.2748 17.5879 21.2833 17.5871 21.2917 17.5866C21.2917 17.5866 21.361 16.1572 23.1152 16.1572C24.8954 16.157 24.9434 17.5686 24.9434 17.5686Z" fill="white"/>
<path d="M22.2632 15.3646C22.0007 15.4551 21.7655 15.611 21.5799 15.8175C21.1883 16.2717 21.0969 16.982 21.2048 17.5555L21.4723 17.4827C21.8866 17.1716 22.43 16.7856 22.7535 16.5931C22.7734 16.6241 22.9037 16.8667 22.9594 16.9694C23.0539 16.9219 23.5842 16.6299 23.786 16.5429C24.153 16.7325 24.5533 17.0444 24.7397 17.4507L24.9964 17.5213C25.0843 17.1415 25.0666 16.7449 24.9451 16.3744C24.8031 15.9856 24.5838 15.8355 24.3108 15.6704C23.9863 15.1943 23.3064 15.1595 22.7929 15.2336C22.6122 15.2586 22.4347 15.3025 22.2632 15.3646Z" fill="#7A7473"/>
<path d="M22.2627 17.7865C22.2249 17.9097 22.2496 18.1928 22.4823 18.217C22.7902 18.2151 22.8065 17.8727 22.7029 17.7116C22.6769 17.672 22.6399 17.6408 22.5965 17.6219C22.553 17.6029 22.505 17.5971 22.4583 17.605C22.4116 17.613 22.3682 17.6344 22.3335 17.6666C22.2987 17.6988 22.2742 17.7405 22.2627 17.7865Z" fill="#211715"/>
<path d="M23.5195 17.7864C23.4818 17.9096 23.5064 18.1928 23.7391 18.217C24.047 18.2151 24.0634 17.8726 23.9598 17.7116C23.9338 17.6719 23.8968 17.6408 23.8533 17.6218C23.8099 17.6029 23.7619 17.5971 23.7152 17.605C23.6684 17.613 23.6251 17.6344 23.5903 17.6666C23.5556 17.6988 23.531 17.7405 23.5195 17.7864Z" fill="#211715"/>
<path d="M21.5168 18.4039C21.4741 18.4163 21.5399 18.4094 21.5161 18.4069C21.5088 18.4062 21.4699 18.4083 21.5062 18.4079C21.5504 18.4079 21.4914 18.4079 21.4916 18.4003C21.4916 18.397 21.5371 18.4261 21.5063 18.4042C21.4967 18.3975 21.4861 18.3907 21.476 18.3851C21.4515 18.3711 21.513 18.4179 21.4891 18.3955C21.4704 18.3779 21.4521 18.3608 21.4342 18.3425C21.397 18.3043 21.4505 18.3685 21.4335 18.3435C21.4273 18.3342 21.4207 18.3252 21.4145 18.3158C21.4008 18.2949 21.3883 18.2733 21.3766 18.2513C21.3697 18.2381 21.3631 18.2247 21.3568 18.2113C21.3541 18.2056 21.3515 18.1997 21.349 18.1943C21.3423 18.1789 21.344 18.1829 21.3542 18.2064C21.3407 18.1818 21.3316 18.1551 21.3271 18.1274C21.3192 18.1007 21.3123 18.0738 21.3067 18.0465C21.3042 18.035 21.3021 18.0224 21.2998 18.0102C21.2914 17.9655 21.3008 18.0366 21.2998 18.0076C21.2956 17.9524 21.2948 17.897 21.2973 17.8417C21.2973 17.8353 21.2998 17.7954 21.2978 17.8293C21.2959 17.8651 21.302 17.8177 21.3039 17.8095C21.3096 17.783 21.3071 17.8011 21.3 17.8169C21.3164 17.7798 21.2769 17.8361 21.2936 17.8234C21.2989 17.8191 21.3247 17.7958 21.2975 17.8172C21.2628 17.8448 21.3104 17.8088 21.3116 17.8111L21.2841 17.8227L21.2985 17.8181C21.3189 17.8136 21.3181 17.813 21.2962 17.8162C21.2751 17.8184 21.2737 17.8187 21.292 17.8172C21.3532 17.8172 21.412 17.7928 21.4554 17.7495C21.4987 17.7061 21.523 17.6474 21.523 17.5861C21.523 17.5248 21.4987 17.466 21.4554 17.4227C21.412 17.3793 21.3532 17.355 21.292 17.355C21.1911 17.3579 21.0939 17.3935 21.0149 17.4563C20.936 17.5191 20.8795 17.6058 20.8539 17.7035C20.8183 17.8791 20.8262 18.0607 20.877 18.2325C20.9674 18.5586 21.2486 18.9627 21.6403 18.8498C21.6994 18.8335 21.7497 18.7944 21.7799 18.7411C21.8102 18.6878 21.8181 18.6246 21.8018 18.5655C21.7855 18.5064 21.7464 18.4561 21.6931 18.4259C21.6398 18.3956 21.5766 18.3877 21.5175 18.404L21.5168 18.4039Z" fill="#211715"/>
<path d="M24.4409 18.5524C24.3509 18.8409 24.1837 19.0993 23.9574 19.2996C23.7301 19.4843 23.4446 19.5821 23.1518 19.5754C22.8512 19.5894 22.5549 19.4997 22.3126 19.3212C22.072 19.1243 21.8942 18.8614 21.8011 18.5647C21.7075 18.284 21.261 18.4044 21.3554 18.6877C21.4741 19.0704 21.7011 19.4104 22.009 19.6668C22.3352 19.9194 22.7394 20.0502 23.1518 20.0365C23.5437 20.0399 23.9251 19.9098 24.2333 19.6676C24.5425 19.4065 24.7694 19.0613 24.8866 18.6739C24.9783 18.3903 24.5322 18.2687 24.4409 18.551V18.5524Z" fill="#211715"/>
<path d="M24.9433 17.7996C24.9217 17.7982 24.8971 17.7956 24.9335 17.8007C24.958 17.8042 24.9003 17.7804 24.9199 17.7948C24.9244 17.7971 24.9287 17.7995 24.9329 17.8022C24.9475 17.8116 24.9419 17.8068 24.9161 17.7878C24.922 17.7955 24.929 17.8023 24.9369 17.8081C24.9253 17.805 24.9138 17.7669 24.9253 17.7965C24.905 17.7465 24.9209 17.785 24.9243 17.7972C24.9271 17.8074 24.9271 17.8381 24.9286 17.8088C24.9304 17.7727 24.9297 17.8222 24.9304 17.8304C24.9338 17.8857 24.933 17.9411 24.928 17.9962C24.9257 18.0249 24.9302 18.007 24.9291 17.9897C24.9282 18.0052 24.9254 18.0205 24.9208 18.0353C24.9152 18.0624 24.9085 18.0895 24.9005 18.1161C24.8934 18.1399 24.8851 18.1633 24.8774 18.1866C24.8574 18.2421 24.891 18.1614 24.8754 18.1916C24.8699 18.2023 24.8652 18.2135 24.8598 18.2244C24.8483 18.2467 24.8367 18.2687 24.8233 18.2898C24.8159 18.3014 24.8075 18.3129 24.8002 18.3245C24.7839 18.3505 24.827 18.2956 24.8055 18.3175C24.8034 18.3196 24.7532 18.3732 24.7524 18.372C24.7543 18.3748 24.7908 18.3373 24.7524 18.3694C24.7318 18.3862 24.7879 18.3596 24.7615 18.3665C24.7476 18.3701 24.7335 18.3746 24.7199 18.3781C24.6812 18.3891 24.7287 18.3748 24.729 18.3781C24.729 18.3791 24.6697 18.3824 24.6642 18.3826C24.6029 18.3826 24.5441 18.4069 24.5008 18.4503C24.4575 18.4936 24.4331 18.5524 24.4331 18.6137C24.4331 18.675 24.4575 18.7337 24.5008 18.7771C24.5441 18.8204 24.6029 18.8448 24.6642 18.8448C24.7507 18.8464 24.8366 18.83 24.9163 18.7964C24.9961 18.7628 25.0678 18.7128 25.1271 18.6497C25.2374 18.5167 25.3167 18.3609 25.3592 18.1935C25.4018 18.026 25.4066 17.8512 25.3732 17.6817C25.3479 17.5859 25.2925 17.5007 25.2152 17.4386C25.138 17.3766 25.0428 17.3409 24.9438 17.3369C24.8826 17.3372 24.824 17.3617 24.7808 17.405C24.7375 17.4482 24.7131 17.5068 24.7127 17.568C24.7141 17.6288 24.7389 17.6868 24.782 17.7298C24.825 17.7729 24.883 17.7977 24.9438 17.7991L24.9433 17.7996Z" fill="#211715"/>
<path d="M23.1594 19.8024C23.0037 19.7569 22.8516 19.7 22.7044 19.6319L22.6705 19.6177C22.688 19.625 22.6986 19.6293 22.6749 19.6196L22.6078 19.5908C22.5624 19.5711 22.5171 19.5512 22.4719 19.5311C22.399 19.4984 22.3263 19.4652 22.255 19.429C22.2107 19.4042 22.1595 19.3944 22.1091 19.4009C22.0587 19.4074 22.0117 19.4299 21.9751 19.4652C21.8169 19.6345 21.6576 19.8027 21.504 19.9762C21.4621 20.0203 21.4387 20.0788 21.4387 20.1396C21.4387 20.2004 21.4621 20.2589 21.504 20.303C21.6261 20.4369 21.7576 20.5629 21.8873 20.6894C22.0022 20.8016 22.1152 20.9205 22.24 21.022C22.2841 21.0639 22.3426 21.0872 22.4034 21.0872C22.4643 21.0872 22.5228 21.0639 22.5669 21.022C22.6997 20.8829 22.8248 20.7366 22.9416 20.5838C23.0149 20.4953 23.0878 20.4064 23.1603 20.3172C23.2102 20.2619 23.2562 20.2032 23.2979 20.1415C23.3289 20.0886 23.3375 20.0255 23.322 19.9662C23.3064 19.9069 23.268 19.8562 23.215 19.8253C23.1621 19.7944 23.0991 19.7857 23.0398 19.8013C22.9805 19.8168 22.9298 19.8553 22.8988 19.9082C22.896 19.913 22.8901 19.9178 22.8883 19.9229C22.8816 19.9422 22.9354 19.8634 22.8988 19.909C22.8736 19.9407 22.8482 19.9722 22.8227 20.0037C22.7508 20.0925 22.6782 20.1808 22.6051 20.2687C22.4913 20.4174 22.3695 20.5598 22.24 20.6952H22.5669C22.442 20.5937 22.329 20.4747 22.2141 20.3625C22.0845 20.236 21.9529 20.1102 21.8308 19.9762V20.303C21.9843 20.1297 22.1438 19.9612 22.3018 19.792L22.0219 19.8281C22.1983 19.9178 22.382 19.9942 22.5649 20.0708C22.7177 20.1416 22.8756 20.2008 23.0373 20.2479C23.0964 20.2642 23.1595 20.2563 23.2128 20.2261C23.2661 20.1958 23.3052 20.1456 23.3215 20.0865C23.3378 20.0274 23.3299 19.9642 23.2997 19.9109C23.2694 19.8576 23.2192 19.8185 23.1601 19.8022L23.1594 19.8024Z" fill="#211715"/>
<path d="M22.3353 20.827C22.4246 20.9639 22.5099 21.1037 22.6011 21.2394L22.5694 21.1227C22.5643 21.1872 22.5737 21.0996 22.5694 21.1283C22.5636 21.1662 22.5579 21.2042 22.5525 21.242C22.5354 21.3548 22.5179 21.4674 22.4999 21.58C22.4564 21.8539 22.4126 22.1278 22.3684 22.4016C22.3516 22.5063 22.335 22.611 22.3186 22.7159C22.2962 22.8608 22.2898 22.9613 22.4016 23.0758C22.6088 23.2872 22.8366 23.4774 23.0815 23.6436C23.1167 23.6649 23.157 23.6763 23.1981 23.6763C23.2393 23.6763 23.2796 23.6649 23.3148 23.6436C23.4508 23.5446 23.5839 23.4411 23.7161 23.337C23.8359 23.2426 24.0755 23.1092 24.1189 22.952C24.1281 22.8334 24.114 22.714 24.0773 22.6008C24.0522 22.4657 24.0268 22.3309 24.0012 22.1964C23.9468 21.9084 23.8918 21.6206 23.8384 21.3326C23.8231 21.2496 23.8145 21.1624 23.7931 21.0808C23.7913 21.074 23.7921 21.0647 23.7896 21.0577C23.768 21.1886 23.7705 21.2212 23.7972 21.1552C23.8073 21.1342 23.8175 21.1132 23.8279 21.0924C23.8766 20.995 23.9283 20.8991 23.9811 20.8035C24.1258 20.5433 23.7269 20.3099 23.5822 20.5702C23.5089 20.7019 23.4353 20.8349 23.3742 20.9729C23.3388 21.0537 23.3309 21.144 23.3516 21.2297C23.3804 21.4013 23.4143 21.5722 23.4465 21.7432C23.5223 22.1459 23.6027 22.548 23.6729 22.9517L23.7323 22.7268C23.5259 22.911 23.3047 23.0814 23.0812 23.2441H23.3144C23.0875 23.0891 22.8781 22.9098 22.6899 22.7095L22.7493 22.9344C22.8071 22.5415 22.8739 22.1507 22.9362 21.759C22.9631 21.5898 22.9907 21.4205 23.0147 21.2507C23.0407 21.1618 23.0304 21.0662 22.9862 20.9849C22.9082 20.8512 22.8186 20.7223 22.7341 20.5927C22.5723 20.3446 22.1719 20.5759 22.3351 20.826L22.3353 20.827Z" fill="#211715"/>
<path d="M23.2559 20.2435C23.4157 20.1969 23.5718 20.1383 23.7229 20.0684C23.9035 19.9928 24.0854 19.9172 24.2601 19.8285L23.98 19.7923C24.13 19.964 24.2899 20.1268 24.4588 20.2799V19.9531C24.2327 20.1994 24.0076 20.4499 23.7674 20.6827H24.0943C23.9568 20.5507 23.8337 20.4007 23.7069 20.2586C23.629 20.1711 23.5514 20.0833 23.4742 19.9951C23.4486 19.9657 23.4228 19.9361 23.3975 19.9063C23.3893 19.8966 23.3813 19.8865 23.3729 19.8769C23.3436 19.8432 23.406 19.9238 23.3939 19.9041C23.363 19.8511 23.3123 19.8127 23.253 19.7971C23.1937 19.7816 23.1307 19.7902 23.0778 19.8212C23.0248 19.8521 22.9864 19.9028 22.9708 19.9621C22.9553 20.0214 22.9639 20.0844 22.9948 20.1374C23.0371 20.1983 23.0844 20.2557 23.1362 20.3089C23.2132 20.3978 23.2911 20.4861 23.3699 20.5739C23.5 20.7198 23.6263 20.8743 23.7674 21.0095C23.8112 21.0518 23.8698 21.0755 23.9308 21.0755C23.9918 21.0755 24.0504 21.0518 24.0943 21.0095C24.3345 20.7769 24.5595 20.5262 24.7856 20.2799C24.8282 20.2362 24.852 20.1776 24.852 20.1165C24.852 20.0554 24.8282 19.9968 24.7856 19.9531C24.6166 19.8 24.4567 19.6372 24.3067 19.4656C24.2703 19.4301 24.2233 19.4074 24.1728 19.4009C24.1223 19.3943 24.0711 19.4044 24.0268 19.4294C23.96 19.4633 23.8919 19.4945 23.8236 19.5252C23.7787 19.5454 23.7336 19.5652 23.6883 19.5848L23.6213 19.6137L23.5874 19.628C23.6161 19.6159 23.6055 19.6204 23.5831 19.6298C23.4374 19.6967 23.287 19.7529 23.133 19.7979C23.1038 19.8059 23.0764 19.8197 23.0524 19.8383C23.0285 19.857 23.0085 19.8802 22.9935 19.9066C22.9785 19.933 22.9688 19.9621 22.9651 19.9922C22.9613 20.0223 22.9636 20.0529 22.9716 20.0821C22.9797 20.1114 22.9934 20.1388 23.0121 20.1627C23.0307 20.1867 23.0539 20.2067 23.0803 20.2217C23.1067 20.2367 23.1358 20.2463 23.1659 20.2501C23.196 20.2538 23.2266 20.2516 23.2559 20.2435Z" fill="#211715"/>
<path d="M23.6346 16.3588C23.3645 16.484 23.1078 16.635 22.8427 16.7697L23.159 16.8526C23.0915 16.727 23.0274 16.5984 22.9531 16.4763C22.9215 16.4242 22.8708 16.3863 22.8118 16.3708C22.7528 16.3553 22.6901 16.3634 22.637 16.3934C22.1949 16.6678 21.7672 16.9647 21.3557 17.2831C21.3042 17.3153 21.267 17.366 21.2516 17.4248C21.2362 17.4835 21.2438 17.546 21.2729 17.5993C21.3041 17.6519 21.3548 17.6901 21.4139 17.7056C21.4731 17.7211 21.536 17.7127 21.589 17.6822C22.0005 17.3638 22.4281 17.0669 22.8701 16.7925L22.554 16.7096C22.6283 16.8313 22.6927 16.9602 22.7599 17.0858C22.7916 17.1379 22.8423 17.1756 22.9012 17.191C22.9602 17.2065 23.0228 17.1985 23.076 17.1688C23.3411 17.0341 23.5978 16.8831 23.8677 16.7579C23.9203 16.7267 23.9584 16.676 23.974 16.6168C23.9895 16.5577 23.9811 16.4948 23.9507 16.4418C23.9188 16.3899 23.8682 16.3523 23.8093 16.3368C23.7504 16.3214 23.6878 16.3293 23.6346 16.3588Z" fill="#211715"/>
<path d="M23.7816 16.8034C23.8664 16.8523 23.9485 16.9058 24.0276 16.9635C24.0368 16.9702 24.0459 16.977 24.055 16.9839C24.0834 17.0052 24.0604 16.9894 24.0462 16.9769C24.0652 16.9934 24.0856 17.0084 24.1049 17.0245C24.1434 17.057 24.1811 17.0907 24.2179 17.1257C24.2528 17.1593 24.2864 17.1939 24.3188 17.2297C24.3356 17.2485 24.3521 17.2677 24.3681 17.2875C24.3754 17.2963 24.3826 17.3053 24.3897 17.3141C24.4211 17.3527 24.3583 17.2705 24.3871 17.3108C24.4459 17.3915 24.4971 17.4773 24.5402 17.5674C24.5706 17.6194 24.6202 17.6574 24.6782 17.6735C24.7225 17.6858 24.7695 17.6845 24.8131 17.67C24.8567 17.6554 24.895 17.6281 24.923 17.5917C24.951 17.5552 24.9675 17.5112 24.9704 17.4653C24.9733 17.4195 24.9625 17.3738 24.9392 17.3341C24.7526 16.9327 24.3914 16.623 24.0149 16.4046C23.9887 16.3893 23.9597 16.3793 23.9296 16.3752C23.8996 16.3711 23.869 16.3729 23.8396 16.3806C23.8103 16.3883 23.7827 16.4017 23.7585 16.4201C23.7344 16.4384 23.714 16.4613 23.6987 16.4875C23.6834 16.5137 23.6734 16.5427 23.6693 16.5728C23.6651 16.6029 23.667 16.6334 23.6747 16.6628C23.6824 16.6922 23.6958 16.7197 23.7141 16.7439C23.7325 16.7681 23.7554 16.7884 23.7816 16.8037V16.8034Z" fill="#211715"/>
<path d="M24.4281 15.4451C23.8527 14.7694 22.6637 14.896 21.9498 15.2498C21.0717 15.6852 20.8206 16.7155 20.982 17.6169C20.9987 17.6758 21.0379 17.7258 21.0911 17.7561C21.1443 17.7863 21.2072 17.7945 21.2664 17.7787C21.3248 17.7614 21.3743 17.7221 21.4044 17.6691C21.4346 17.6161 21.4431 17.5536 21.4282 17.4945C21.3011 16.7866 21.4998 15.9881 22.1835 15.6492C22.5088 15.4982 22.8648 15.4249 23.2234 15.4351C23.5514 15.4391 23.882 15.5131 24.1022 15.7722C24.2954 15.999 24.6209 15.6707 24.4291 15.4454L24.4281 15.4451Z" fill="#211715"/>
<path d="M25.2193 17.5827C25.3133 17.1811 25.302 16.762 25.1862 16.3661C25.0816 16.0353 24.8651 15.7513 24.5739 15.5628C24.5476 15.5475 24.5187 15.5375 24.4886 15.5334C24.4585 15.5293 24.4279 15.5311 24.3986 15.5388C24.3692 15.5465 24.3417 15.5599 24.3175 15.5783C24.2933 15.5966 24.273 15.6195 24.2577 15.6457C24.2423 15.6719 24.2323 15.7009 24.2282 15.731C24.2241 15.7611 24.2259 15.7916 24.2336 15.821C24.2413 15.8504 24.2547 15.8779 24.2731 15.9021C24.2914 15.9263 24.3144 15.9466 24.3406 15.9619C24.3652 15.9786 24.3895 15.9956 24.4135 16.0129C24.425 16.0214 24.438 16.0325 24.4191 16.0172C24.4307 16.0264 24.4422 16.0358 24.453 16.0454C24.5014 16.0868 24.546 16.1326 24.5861 16.1822C24.61 16.2122 24.5705 16.159 24.5928 16.192C24.6019 16.2054 24.6112 16.2188 24.62 16.2324C24.6384 16.2613 24.6554 16.291 24.6713 16.3214C24.7034 16.3836 24.7295 16.4488 24.749 16.5161C24.8359 16.8237 24.8443 17.1481 24.7735 17.4598C24.7587 17.5189 24.7673 17.5814 24.7974 17.6344C24.8276 17.6873 24.8769 17.7266 24.9353 17.7441C24.9944 17.7597 25.0573 17.7516 25.1105 17.7213C25.1636 17.6911 25.2028 17.6411 25.2195 17.5823L25.2193 17.5827Z" fill="#211715"/>
</g>
<defs>
<clipPath id="clip0_103_657">
<rect width="50" height="50" fill="white"/>
</clipPath>
</defs>
</svg>
