<svg width="50" height="50" viewBox="0 0 50 50" fill="none" xmlns="http://www.w3.org/2000/svg">
<path d="M41.8142 26.1399C41.774 26.3919 41.7083 26.6392 41.618 26.878C41.3591 27.5388 40.9624 28.1369 40.4543 28.6324C40.4543 28.733 40.4543 28.8033 40.4543 28.8033C40.3623 28.8779 39.2649 29.8124 38.7435 30.2474L38.4242 30.2677C37.8247 29.9485 36.5596 29.2584 36.4538 29.2044V29.1699C36.0489 28.9822 35.6841 28.7183 35.3791 28.3926C34.9609 27.9639 34.6366 27.4527 34.4268 26.8918C34.3337 26.9175 34.236 26.9223 34.1408 26.9057C34.0456 26.889 33.9552 26.8515 33.8763 26.7957C33.6121 26.5942 33.4119 26.3205 33.2997 26.0077C33.1668 25.6947 33.1258 25.1778 33.2744 24.8861C33.3197 24.7988 33.3875 24.7252 33.4709 24.673C33.5542 24.6207 33.65 24.5918 33.7483 24.5892C33.9042 24.5719 34.0606 24.6162 34.1843 24.7125C34.1843 24.7125 33.6379 21.5923 37.2536 21.1028C42.1601 20.4383 41.7243 24.2192 41.7243 24.2192C41.8343 24.1075 41.9836 24.0433 42.1403 24.04C42.2382 24.0298 42.3369 24.046 42.4264 24.0869C42.5159 24.1278 42.5927 24.192 42.649 24.2727C42.8342 24.5426 42.861 25.0604 42.7699 25.3882C42.6995 25.7129 42.5367 26.0104 42.3011 26.2447C42.235 26.305 42.1573 26.3514 42.0728 26.3811C41.9883 26.4107 41.8987 26.423 41.8094 26.4172" fill="white"/>
<path d="M0.23741 30.2154C0.256599 29.9828 0.290089 29.7517 0.337689 29.5232C0.460737 28.9495 0.712123 28.3116 0.953735 28.111C1.36773 27.7271 1.76769 27.8764 2.273 28.0208C2.41559 28.0615 3.0022 28.29 3.04808 28.5477C3.06639 28.4669 3.10781 28.3931 3.16729 28.3355C3.22677 28.2778 3.30174 28.2386 3.38307 28.2228C3.48933 28.1901 3.60355 28.1943 3.70712 28.2347C3.81069 28.2752 3.89752 28.3495 3.95347 28.4456C4.14505 28.7826 4.15506 29.6629 3.96853 29.982C3.94451 30.0239 3.91152 30.0601 3.87193 30.0879C3.87734 30.2115 3.88113 30.2962 3.88113 30.2962C3.89263 30.5704 3.9767 31.0565 3.85376 31.3436C3.66562 31.7828 3.38859 32.0489 3.04095 32.17C3.03635 32.244 3.0329 32.2997 3.0329 32.2997C3.0275 32.3889 3.0252 32.5311 3.02347 32.6834C2.34498 32.7639 1.66178 32.8698 0.980184 32.9939C0.913715 32.771 0.814357 32.3234 0.837701 32.067C0.859206 31.8319 0.687514 31.625 0.5632 31.4245C0.380753 31.1581 0.266512 30.8509 0.23051 30.53C0.225817 30.4251 0.228122 30.32 0.23741 30.2154Z" fill="white"/>
<path d="M2.80303 32.2993C2.78359 32.6287 2.80142 32.9594 2.78198 33.2883C2.78234 33.3492 2.80669 33.4075 2.84975 33.4505C2.8928 33.4936 2.95109 33.518 3.01198 33.5183C3.07255 33.517 3.13028 33.4923 3.17312 33.4495C3.21596 33.4066 3.24063 33.3489 3.24198 33.2883C3.26141 32.959 3.24359 32.6282 3.26302 32.2993C3.26266 32.2384 3.23831 32.1802 3.19526 32.1371C3.1522 32.094 3.09391 32.0697 3.03302 32.0693C2.97245 32.0707 2.91473 32.0953 2.87188 32.1382C2.82904 32.181 2.80437 32.2388 2.80303 32.2993Z" fill="#211715"/>
<path d="M2.95843 32.4326C3.17516 32.3782 3.37776 32.2781 3.55264 32.139C3.72751 31.9998 3.87062 31.8249 3.97237 31.626C4.08983 31.4127 4.15098 31.173 4.15004 30.9296C4.15142 30.7175 4.12164 30.5074 4.11117 30.2959C4.10991 30.2353 4.08527 30.1775 4.04241 30.1347C3.99955 30.0918 3.94178 30.0672 3.88117 30.0659C3.82035 30.0665 3.76218 30.0909 3.71917 30.1339C3.67616 30.1769 3.65175 30.2351 3.65118 30.2959C3.66038 30.4835 3.68568 30.67 3.68936 30.8579C3.70401 31.0337 3.66932 31.2102 3.58919 31.3674C3.51923 31.5214 3.41503 31.6575 3.28452 31.7653C3.15401 31.873 3.00063 31.9495 2.83607 31.989C2.54857 32.0569 2.67001 32.5005 2.95843 32.4326Z" fill="#211715"/>
<path d="M1.5651 29.1578C1.75727 29.1628 1.94931 29.1646 2.14102 29.1797C2.34986 29.2061 2.56061 29.2142 2.77086 29.2038C3.13138 29.1693 3.37104 28.8942 3.28375 28.5246C3.21476 28.2309 2.93715 28.0574 2.68128 27.9369C2.41152 27.8109 2.12655 27.7204 1.83351 27.6678C1.66591 27.6293 1.49181 27.629 1.32406 27.6668C1.1563 27.7046 0.999189 27.7796 0.864305 27.8863C0.604754 28.0942 0.463766 28.4004 0.344053 28.7028C0.204164 29.062 0.106639 29.4364 0.0534518 29.8182C0.0021626 30.1741 -0.0385468 30.537 0.0617317 30.8885C0.132254 31.1187 0.234224 31.3381 0.364752 31.5403C0.455141 31.6857 0.600154 31.8452 0.609699 32.0233C0.612198 32.2118 0.625868 32.4 0.650638 32.5868C0.679003 32.7552 0.718144 32.9216 0.767821 33.085C0.854415 33.3672 1.29854 33.2468 1.21137 32.9628C1.13028 32.7171 1.08123 32.462 1.06544 32.2038C1.07447 32.0658 1.06285 31.9272 1.03094 31.7927C0.971517 31.6409 0.893406 31.4971 0.798411 31.3646C0.623498 31.0935 0.464916 30.7924 0.458476 30.4626C0.459019 30.1785 0.49064 29.8953 0.552774 29.6181C0.614682 29.2981 0.713193 28.9862 0.846365 28.6886C0.950554 28.464 1.08211 28.2314 1.32545 28.1348C1.56878 28.0382 1.84478 28.1358 2.08099 28.2038C2.27641 28.255 2.46402 28.3323 2.63873 28.4338C2.74361 28.4975 2.98372 28.72 2.73222 28.7463C2.53484 28.755 2.33708 28.7458 2.14136 28.7189C1.94966 28.7038 1.75761 28.702 1.56545 28.697C1.26933 28.6893 1.26944 29.1493 1.56545 29.157L1.5651 29.1578Z" fill="#211715"/>
<path d="M2.58827 29.2447C2.60092 29.248 2.61322 29.252 2.62553 29.2562C2.59988 29.2447 2.59885 29.2447 2.62208 29.2551C2.64278 29.2666 2.6629 29.2789 2.6828 29.2922C2.63818 29.2625 2.67866 29.2911 2.68786 29.3005C2.69706 29.31 2.70304 29.3164 2.71017 29.3249C2.69119 29.2995 2.68889 29.2969 2.70315 29.3172C2.70867 29.3271 2.73662 29.361 2.73351 29.3724L2.72201 29.346C2.72546 29.3555 2.72845 29.3652 2.7311 29.3751C2.748 29.4379 2.73547 29.3488 2.73478 29.3866C2.73294 29.401 2.73294 29.4156 2.73478 29.43C2.74076 29.3927 2.74145 29.3865 2.73685 29.4112C2.73491 29.4204 2.73249 29.4296 2.7296 29.4385C2.72516 29.4489 2.72132 29.4595 2.7181 29.4703C2.72891 29.4101 2.74202 29.4201 2.7296 29.4422C2.7242 29.4515 2.71971 29.4615 2.71408 29.4707C2.70691 29.4802 2.7003 29.4901 2.6943 29.5003C2.70074 29.4852 2.73489 29.4559 2.7058 29.4835C2.70154 29.4875 2.67521 29.5082 2.67509 29.5126C2.70718 29.4886 2.71362 29.4836 2.6943 29.4975C2.68935 29.5011 2.68429 29.5044 2.67912 29.5077C2.66647 29.5157 2.65232 29.5217 2.63967 29.5297C2.61046 29.5488 2.6882 29.5139 2.62725 29.5341C2.58856 29.5467 2.54885 29.556 2.50858 29.5618C2.56607 29.5532 2.47569 29.563 2.46545 29.5634C2.44245 29.5645 2.42003 29.5647 2.39726 29.5649C2.34597 29.5649 2.2946 29.5649 2.24316 29.5649C2.02995 29.5629 1.81675 29.5534 1.60365 29.5462C1.5428 29.5467 1.48458 29.5711 1.44155 29.6141C1.39852 29.6571 1.37414 29.7153 1.37366 29.7762C1.37486 29.8368 1.39948 29.8946 1.44236 29.9375C1.48523 29.9804 1.54303 30.005 1.60365 30.0062C1.8003 30.013 1.99683 30.0215 2.1936 30.0243C2.38531 30.0414 2.57853 30.024 2.7641 29.9729C2.90903 29.9285 3.03207 29.8314 3.10902 29.7008C3.18598 29.5702 3.21127 29.4155 3.17994 29.2672C3.14999 29.1552 3.09098 29.053 3.0089 28.9711C2.92681 28.8892 2.82456 28.8305 2.71247 28.8008C2.65365 28.7845 2.59079 28.7923 2.53773 28.8225C2.48467 28.8526 2.44574 28.9025 2.42951 28.9614C2.41329 29.0202 2.42109 29.083 2.45121 29.1361C2.48133 29.1892 2.53129 29.2281 2.59011 29.2443L2.58827 29.2447Z" fill="#211715"/>
<path d="M2.3483 30.0154C2.36509 30.0234 2.4334 30.0492 2.43731 30.0678C2.43432 30.0537 2.40798 30.0431 2.43731 30.0705C2.45007 30.082 2.461 30.0959 2.47365 30.1075C2.4932 30.1254 2.45214 30.073 2.47434 30.1083C2.48342 30.1228 2.49182 30.1371 2.50021 30.1519C2.52218 30.1908 2.49343 30.1116 2.50217 30.1587C2.50366 30.1668 2.51965 30.2113 2.50849 30.1765C2.49791 30.1435 2.50711 30.1858 2.50849 30.1956C2.51355 30.2416 2.52114 30.1597 2.50849 30.2028C2.50652 30.2114 2.5041 30.2198 2.50125 30.2281C2.49561 30.2441 2.49803 30.2396 2.50815 30.2139C2.507 30.2285 2.48894 30.2478 2.48216 30.2599C2.46203 30.2959 2.49872 30.2457 2.4802 30.2626C2.46939 30.2725 2.46008 30.2845 2.44927 30.2947C2.44053 30.3029 2.43156 30.3106 2.42236 30.3177L2.44053 30.3033C2.43581 30.3127 2.39947 30.33 2.39062 30.3351C2.37636 30.3434 2.36176 30.351 2.34692 30.3581C2.33807 30.3625 2.32921 30.3666 2.32013 30.3706C2.34175 30.3618 2.34474 30.3604 2.32933 30.3665C2.29483 30.378 2.26033 30.3913 2.22583 30.4024C2.14985 30.4225 2.07613 30.4504 2.00584 30.4856C1.91418 30.5365 1.84435 30.6192 1.80953 30.7181C1.78159 30.8214 1.78159 30.9301 1.80953 31.0334C1.82593 31.0921 1.86485 31.1419 1.91784 31.1721C1.97082 31.2022 2.03357 31.2102 2.09243 31.1944C2.15042 31.1768 2.19947 31.1377 2.22943 31.0851C2.2594 31.0324 2.26799 30.9703 2.25343 30.9115C2.24986 30.8923 2.24756 30.854 2.24952 30.8941C2.24716 30.8746 2.24693 30.855 2.24883 30.8354C2.2463 30.8494 2.22778 30.8946 2.2471 30.8642C2.22748 30.889 2.22644 30.8925 2.244 30.8749L2.22399 30.8916C2.23343 30.8857 2.24318 30.8803 2.2532 30.8755L2.22951 30.8849C2.24542 30.8784 2.26166 30.8727 2.27815 30.8679C2.31415 30.8564 2.35049 30.846 2.38636 30.8334C2.57288 30.7812 2.73819 30.6715 2.85878 30.52C2.91318 30.4471 2.94865 30.3618 2.96204 30.2718C2.97542 30.1818 2.9663 30.0898 2.93548 30.0042C2.87037 29.8352 2.74377 29.697 2.58106 29.6174C2.52838 29.5866 2.46564 29.578 2.40662 29.5935C2.34761 29.6089 2.29715 29.6472 2.26636 29.6999C2.23557 29.7526 2.22697 29.8153 2.24244 29.8743C2.25792 29.9333 2.2962 29.9838 2.34888 30.0146L2.3483 30.0154Z" fill="#211715"/>
<path d="M3.62515 30.3898C3.73971 30.3912 3.85248 30.3614 3.95137 30.3035C4.05026 30.2456 4.13152 30.162 4.18645 30.0614C4.26093 29.8957 4.30551 29.7181 4.31813 29.5368C4.36852 29.1698 4.33023 28.7962 4.20646 28.4471C4.16898 28.3425 4.10784 28.248 4.0278 28.171C3.94777 28.094 3.85101 28.0366 3.74509 28.0032C3.55918 27.954 3.36206 27.9697 3.18631 28.0478C2.77036 28.2357 2.71482 28.8247 2.74863 29.2235C2.79037 29.7233 3.01934 30.3936 3.62515 30.3898C3.92104 30.3879 3.92161 29.9279 3.62515 29.9298C3.56909 29.9282 3.51468 29.9105 3.46844 29.8788C3.4222 29.847 3.38609 29.8026 3.36445 29.7509C3.286 29.6047 3.23509 29.4454 3.21426 29.2808C3.19628 29.133 3.19721 28.9835 3.21702 28.8359C3.22874 28.7594 3.24603 28.6839 3.26877 28.61C3.28005 28.5565 3.31026 28.5088 3.35387 28.4758C3.39201 28.4576 3.43262 28.4452 3.47438 28.4388C3.51383 28.4298 3.47128 28.4396 3.46403 28.44C3.47944 28.439 3.49485 28.4372 3.51003 28.4366C3.53999 28.435 3.57002 28.4358 3.59985 28.439C3.54005 28.4319 3.65735 28.4578 3.63688 28.4505C3.65315 28.4614 3.6703 28.471 3.68817 28.479C3.70688 28.4959 3.72377 28.5147 3.73853 28.5351C3.74842 28.5495 3.78925 28.6347 3.7697 28.587C3.86135 28.8346 3.89583 29.0997 3.87055 29.3624C3.8711 29.5015 3.85027 29.6398 3.8088 29.7725C3.80339 29.7901 3.76648 29.872 3.79258 29.8221C3.78741 29.832 3.78338 29.8425 3.77763 29.8521C3.77556 29.8556 3.74509 29.9021 3.76234 29.8788C3.7439 29.8961 3.72221 29.9096 3.69852 29.9184C3.67483 29.9273 3.64961 29.9313 3.62434 29.9303C3.56377 29.9317 3.50607 29.9564 3.46323 29.9992C3.42039 30.042 3.39572 30.0997 3.39434 30.1603C3.39498 30.2212 3.41954 30.2794 3.46272 30.3224C3.5059 30.3653 3.56424 30.3895 3.62515 30.3898Z" fill="#211715"/>
<path d="M11.3208 35.4459C11.4199 35.8446 11.5266 36.2385 11.6691 36.7864C12.2485 35.776 12.47 35.3882 12.9833 34.358C13.4161 33.4895 13.8731 32.5801 14.2885 31.667L14.1717 31.7069C13.5215 31.913 12.8315 31.9603 12.1592 31.8449C11.5492 31.7253 10.9642 31.5023 10.4293 31.1855C10.611 32.1764 10.8387 33.1787 11.0248 34.1134C11.1341 34.661 11.2238 35.0562 11.3208 35.4459Z" fill="#7ABEE6"/>
<path d="M34.9887 19.5971C34.9682 19.6134 34.9479 19.6299 34.9277 19.6466C34.3967 20.0697 33.9719 20.611 33.687 21.2273C33.4022 21.8436 33.2652 22.5179 33.287 23.1966C33.3048 23.686 33.399 24.1697 33.5663 24.63C33.625 24.609 33.6861 24.5955 33.7482 24.5898C33.904 24.5725 34.0605 24.6168 34.1841 24.7131L34.3451 24.8451C34.4846 24.2266 34.9776 22.9706 35.6039 22.6402C36.0878 22.3987 36.9275 22.5936 37.4892 22.5978C38.4192 22.6045 40.084 22.1212 40.5296 22.5017C40.8678 22.6941 41.5174 24.6464 41.7237 24.2198C41.8337 24.1081 41.983 24.0439 42.1397 24.0406C42.1964 24.0385 42.2531 24.0428 42.3088 24.0534C42.4152 23.5769 42.444 23.0863 42.3942 22.6006C42.2114 20.9281 41.2946 19.9223 40.4113 19.3601C39.5902 18.8443 38.6315 18.5906 37.6628 18.633C36.6941 18.6753 35.7612 19.0116 34.9882 19.5971H34.9887Z" fill="#85807F"/>
<path d="M34.7655 42.3482C34.4987 40.9125 34.1729 39.1633 33.8685 37.6518C32.8242 38.4148 32.1027 39.0007 31.0191 39.8883L30.6998 40.1829C30.6826 39.7755 30.6684 39.3955 30.6613 39.0904C30.6257 37.65 30.5055 35.9082 30.4603 34.4303L30.5764 34.3028C31.0852 33.7738 32.1639 32.1673 32.8486 31.6398C33.685 30.9958 34.8824 30.4285 35.9363 30.0248C36.1203 29.7595 36.3388 29.3743 36.4538 29.2048C36.5596 29.2589 37.8247 29.949 38.4242 30.2681L38.7435 30.2479C39.2649 29.8128 40.3619 28.8783 40.4544 28.8037C40.6011 28.9452 40.8914 29.2741 41.1243 29.4965C42.1803 29.9276 43.9976 30.6464 44.5513 30.8304L48.9598 34.3034C49.025 34.3066 49.0836 34.3096 49.1737 34.3109C49.2179 34.3112 49.2611 34.3241 49.2982 34.3482C49.3353 34.3723 49.3648 34.4065 49.3831 34.4468C49.4975 34.7089 49.5842 34.9822 49.6418 35.2624C49.7607 35.8778 49.798 36.5062 49.7529 37.1314C49.6886 37.9665 49.6149 38.6564 49.112 39.3185C48.6237 39.9599 47.847 40.3503 47.1184 39.9535C46.833 39.8107 46.5811 39.609 46.3793 39.3618C45.8666 38.7091 45.382 38.0352 44.9253 37.3403C45.2336 38.829 45.6367 40.6415 46.017 42.3487L34.7655 42.3482Z" fill="white"/>
<path d="M38.5274 38.8357C38.3017 38.5598 38.0904 38.2861 37.921 38.0402C37.9072 38.0199 37.9003 37.9957 37.9015 37.9712C37.959 36.4935 38.2074 32.3236 38.1982 32.2443C38.1715 32.0892 38.1231 31.9386 38.0544 31.7969C38.005 31.6808 37.9659 31.5727 37.9291 31.4692L37.8657 31.3213C38.0834 30.9021 38.3487 30.4211 38.424 30.2678L38.7434 30.2476C38.85 30.3841 39.2159 30.8096 39.5172 31.179C39.5034 31.3709 39.4885 31.5133 39.4655 31.708C39.462 31.7471 39.4563 31.7862 39.4505 31.8265C39.4365 31.9131 39.4323 32.0011 39.4379 32.0887C39.4425 32.137 40.5913 36.3701 40.9006 37.742C40.9062 37.7669 40.903 37.7929 40.8914 37.8156C40.5936 38.4435 40.1819 39.2174 39.7323 39.9925C39.7231 40.0081 39.7103 40.0213 39.6951 40.0311C39.6799 40.0409 39.6626 40.047 39.6446 40.0489C39.6266 40.0508 39.6084 40.0484 39.5915 40.042C39.5746 40.0357 39.5594 40.0254 39.5471 40.0121C39.2362 39.6693 38.8655 39.2494 38.5274 38.8357Z" fill="#3D8DCC"/>
<path d="M29.0237 23.4C29.1417 23.2968 29.2954 23.2437 29.452 23.2521C29.5503 23.2492 29.6476 23.2727 29.7338 23.3201C29.82 23.3676 29.8919 23.4373 29.942 23.5219C30.1069 23.8047 30.0953 24.3232 29.9803 24.643C29.886 24.9617 29.7016 25.2463 29.4493 25.4626C29.3789 25.518 29.2981 25.5587 29.2116 25.5821C29.1251 25.6055 29.0348 25.6112 28.9461 25.5988L28.898 25.5905C28.8493 25.7454 28.7903 25.8968 28.7214 26.0437C28.604 26.3451 28.0122 27.3255 27.2413 27.8476V28.1538C27.1416 28.2185 25.9544 29.0352 25.3909 29.4142L25.0711 29.4014C24.5076 29.0219 23.3204 28.2055 23.2208 28.1411V27.843C22.9065 27.6369 22.6255 27.3841 22.3875 27.0932C22.0022 26.6347 21.7165 26.101 21.5488 25.5261C21.454 25.5449 21.3562 25.5424 21.2625 25.5188C21.1687 25.4952 21.0814 25.4511 21.0068 25.3896C20.7583 25.1691 20.5788 24.8813 20.4901 24.561C20.3807 24.2391 20.378 23.7206 20.5476 23.4406C20.5992 23.3569 20.6723 23.2886 20.7593 23.2427C20.8462 23.1967 20.9439 23.175 21.0421 23.1796C21.1988 23.174 21.3514 23.2297 21.4676 23.3349C21.4676 23.3349 20.9753 20.23 25.1343 20.23C29.543 20.2293 29.0237 23.4 29.0237 23.4Z" fill="white"/>
<path d="M25.241 29.4078L25.0711 29.401C24.5076 29.0215 23.3203 28.205 23.2207 28.1406C23.0694 28.3198 22.7551 28.7656 22.5347 29.0008C22.9257 30.6558 23.5779 32.4248 24.0992 34.0257C24.5222 35.3251 24.6463 35.7195 25.2325 37.156C25.7524 35.8181 25.9783 35.3046 26.4017 34.0092C26.9192 32.428 27.5643 30.6819 27.9573 29.0449C27.7363 28.8202 27.3996 28.341 27.2413 28.1534C27.1416 28.218 25.9544 29.0347 25.3909 29.4138L25.241 29.4078Z" fill="white"/>
<path d="M25.2273 29.4071L25.0712 29.4009C24.981 29.5447 24.6713 29.9908 24.4127 30.3835L24.4556 30.5445C24.481 30.6517 24.5091 30.763 24.5466 30.8842C24.6004 31.0322 24.6329 31.1871 24.6429 31.3442C24.6442 31.4247 24.4258 32.9427 24.2197 34.3957C24.5523 35.416 24.7059 35.8657 25.2327 37.1565C25.6956 35.965 25.9254 35.4275 26.2691 34.4092C26.1071 33.0195 25.8924 31.3645 25.8924 31.3157C25.8957 31.228 25.9091 31.141 25.9322 31.0563C25.9421 31.0176 25.951 30.9788 25.959 30.94C26.0011 30.7504 26.0306 30.6089 26.0656 30.4209C25.8037 30.0226 25.483 29.561 25.391 29.4141L25.2273 29.4071Z" fill="#3D8DCC"/>
<path d="M19.4408 42.3478C19.4822 41.3623 19.557 39.9374 19.5765 39.0899C19.6153 37.5215 19.7415 35.9044 19.7728 34.3733C19.2791 33.8817 19.0239 33.5035 18.5695 32.9809C18.1862 32.54 17.8007 32.0457 17.3815 31.702C17.1795 31.5375 16.967 31.3864 16.7454 31.2495L17.6687 30.6682C18.5503 30.0548 20.5057 29.4001 21.4705 29.2621L22.0042 29.1778C22.156 29.0412 22.3179 28.9163 22.4886 28.8042C22.8741 30.5156 23.5574 32.3614 24.0993 34.0251C24.5222 35.3246 24.6463 35.7189 25.2326 37.1555C25.7525 35.8176 25.9783 35.304 26.4018 34.0087C26.9448 32.3474 27.6301 30.5042 28.0153 28.7964C28.1841 28.901 28.3442 29.0191 28.4939 29.1495C28.8044 29.1939 28.9999 29.2215 28.9999 29.2215C30.3042 29.4244 31.566 29.8418 32.7339 30.4568C32.7339 30.4568 33.2613 30.7307 33.8056 31.0129C33.4727 31.1993 33.153 31.4085 32.8489 31.6389C32.1642 32.1664 31.0855 33.7728 30.5767 34.3019C30.5767 34.3019 30.528 34.3606 30.4606 34.4414C30.5066 35.917 30.6261 37.6531 30.6617 39.0895C30.6812 39.9371 30.756 41.3619 30.7974 42.3474L19.4408 42.3478Z" fill="#B3B3B3"/>
<path d="M15.3024 29.6271C15.5749 29.6656 15.8506 29.6759 16.1252 29.6579C16.8071 29.6335 17.3431 29.2797 17.5449 28.7423C17.7979 28.0698 17.5084 27.2466 17.6195 26.5367L17.5887 24.4529C17.7445 24.0226 17.8316 23.5704 17.8466 23.113C17.8871 21.6814 17.3228 20.6641 16.6611 19.9863L16.0988 19.4982C15.398 18.975 14.559 18.6693 13.6859 18.619C12.7448 18.5353 11.8016 18.7546 10.9939 19.2447C10.4217 19.5843 9.93673 20.0529 9.57763 20.6131C9.21854 21.1732 8.99524 21.8096 8.92554 22.4713C8.87905 22.9264 8.90126 23.386 8.99143 23.8345L8.87862 25.8953C8.73257 26.4495 8.41288 26.9843 8.42093 27.5639C8.44784 27.8215 8.53112 28.07 8.66484 28.2918C9.11333 28.8898 9.43153 29.0073 9.82759 29.0713L10.1406 29.4673L14.9578 30.1988L15.3024 29.6271Z" fill="#85807F"/>
<path d="M12.7083 22.1639C12.6323 22.5787 12.3173 23.4464 12.5944 23.3815C13.7738 23.119 14.7487 22.4808 15.5427 21.5405C15.7267 22.6661 16.5071 24.3317 16.9787 24.5952C17.1004 24.5015 17.254 24.459 17.4067 24.4769C17.503 24.4801 17.5967 24.509 17.6781 24.5607C17.7594 24.6124 17.8254 24.685 17.8692 24.7708C18.013 25.0578 17.9696 25.5643 17.8372 25.8699C17.7254 26.1757 17.5275 26.4427 17.2673 26.6385C17.1951 26.6884 17.1135 26.7231 17.0274 26.7406C16.9414 26.7582 16.8527 26.7581 16.7667 26.7405L16.7207 26.729C16.6634 26.8774 16.5963 27.0218 16.5198 27.1613C16.3616 27.502 15.4937 28.7332 14.5124 29.0367C14.477 29.3302 14.4693 29.6264 14.4894 29.9214C14.4929 30.0135 14.5087 30.1048 14.5366 30.1928C14.6192 30.3289 14.7329 30.4436 14.8682 30.5275L15.408 30.8694C15.408 30.8694 15.0722 31.257 14.8618 31.3773C14.5935 31.5307 14.1718 31.7061 14.1718 31.7061C13.5216 31.9122 12.8315 31.9595 12.1593 31.8441C11.5552 31.7257 10.9754 31.5059 10.4446 31.1941C10.2366 31.0352 10.0481 30.8523 9.88293 30.6493C9.74031 30.415 9.62714 30.1639 9.54598 29.9018L10.1593 29.7229C10.2731 29.6941 10.9722 29.5177 11.063 29.4441C11.1246 29.3893 11.1774 29.3253 11.2194 29.2544C11.2919 29.1451 11.3827 28.9991 11.4747 28.8427C11.0127 28.6336 10.62 28.2813 10.2597 27.7962C9.91105 27.324 9.66466 26.7844 9.53621 26.2116C9.44232 26.2241 9.34682 26.2156 9.25661 26.1867C9.16641 26.1578 9.08374 26.1093 9.01458 26.0446C8.78511 25.8135 8.62739 25.5209 8.56045 25.2022C8.47328 24.8802 8.50295 24.3734 8.68614 24.1097C8.74178 24.031 8.81749 23.9686 8.90541 23.9291C8.99333 23.8896 9.09024 23.8744 9.18604 23.885C9.26572 23.887 9.34415 23.9052 9.41653 23.9386C9.4889 23.972 9.5537 24.0198 9.60693 24.0791C10.6354 23.4526 11.6065 22.7969 12.6726 22.1113" fill="white"/>
<path d="M17.2408 31.591C16.6881 31.1879 16.0915 30.8487 15.4624 30.5799C15.3091 30.3999 15.1389 30.2351 14.9541 30.0876C14.4087 31.5166 13.6661 32.9884 12.9833 34.3581C12.4699 35.3883 12.2484 35.7761 11.6692 36.7867C11.3871 35.7025 11.2456 35.2217 11.0252 34.1127C10.7262 32.6117 10.3204 30.9366 10.1696 29.4146C9.90838 29.5287 9.66034 29.6709 9.42981 29.8387C8.94527 29.9923 8.44801 30.1025 7.94392 30.168C7.35319 30.3349 6.81111 30.641 6.36315 31.0606L4.87209 32.5441L4.09297 32.5773C2.91373 32.676 1.74087 32.8399 0.579773 33.0684C0.490861 33.0853 0.410322 33.1319 0.351359 33.2005C0.292396 33.2692 0.258508 33.3558 0.255248 33.4463C0.195334 35.1748 0.582073 37.6236 1.17374 38.5998C1.46124 39.0737 1.91226 39.5014 2.37892 39.4841C3.07524 39.4585 3.4545 39.1826 4.01638 38.7705C4.60632 38.3377 5.24687 37.7034 5.98757 36.9177L6.07784 36.8219C5.92076 37.4852 5.78356 38.0132 5.69053 38.2902C5.42063 39.0927 4.27881 40.6937 3.42334 41.8383C3.3866 41.8847 3.36368 41.9405 3.35721 41.9993C3.35074 42.0582 3.36098 42.1176 3.38675 42.1709C3.41252 42.2242 3.45278 42.2691 3.50292 42.3006C3.55306 42.3321 3.61105 42.3487 3.67024 42.3488H15.1318C15.4046 40.6778 15.7988 38.3629 16.1396 36.5173C17.2468 37.261 18.3246 38.1418 19.4107 38.9923L19.576 39.1064C19.576 39.1012 19.576 39.096 19.576 39.0909C19.6148 37.5225 19.741 35.9054 19.7724 34.3744C19.2787 33.8827 19.0234 33.5046 18.569 32.9819C18.1857 32.541 17.8002 32.0466 17.381 31.703C17.3351 31.6647 17.2884 31.6273 17.2408 31.591Z" fill="white"/>
<path d="M1.84353 27.1482C1.74233 25.6159 1.50762 22.1102 1.49255 20.5067C1.4926 20.4341 1.51985 20.3641 1.56894 20.3106C1.61803 20.2571 1.68539 20.2239 1.75774 20.2176C2.45093 20.1439 3.15082 20.1623 3.83921 20.2721C4.55053 20.3696 5.24843 20.5477 5.91941 20.8032C5.99196 20.8318 6.05053 20.8876 6.08272 20.9586C6.11491 21.0297 6.11821 21.1105 6.09191 21.1839C5.59673 22.5452 4.27298 25.8482 3.71559 27.4198L1.84353 27.1482Z" fill="#FFDA71"/>
<path d="M10.2206 29.9445C10.4621 29.8836 10.7036 29.822 10.94 29.7433C11.0841 29.7082 11.2137 29.6293 11.3112 29.5176C11.3845 29.4228 11.4522 29.3238 11.514 29.2212C11.5458 29.1705 11.5772 29.1195 11.6082 29.0681C11.6604 29.0027 11.6939 28.9243 11.7049 28.8413C11.7049 28.7803 11.6806 28.7218 11.6375 28.6787C11.5944 28.6356 11.5359 28.6113 11.4749 28.6113C11.4139 28.6113 11.3554 28.6356 11.3122 28.6787C11.2691 28.7218 11.2449 28.7803 11.2449 28.8413V28.8425L11.2763 28.7263C11.2188 28.8243 11.1597 28.9218 11.0988 29.0175C11.0733 29.058 11.0474 29.0982 11.021 29.138C11.0044 29.163 10.9882 29.188 10.9704 29.212C10.9927 29.1819 10.9537 29.2309 10.9497 29.235C10.9394 29.2465 10.9288 29.2565 10.9176 29.2665C10.945 29.247 10.9523 29.2417 10.9394 29.2506C10.9343 29.2533 10.9294 29.2565 10.9248 29.26C10.916 29.2642 10.9068 29.2684 10.8982 29.2729C10.8672 29.289 10.9568 29.2505 10.9197 29.2637C10.8672 29.2823 10.8151 29.3015 10.7619 29.3183C10.5434 29.3873 10.3211 29.4448 10.0988 29.5013C10.04 29.5175 9.99003 29.5565 9.95991 29.6095C9.92979 29.6626 9.92199 29.7254 9.93822 29.7843C9.95444 29.8431 9.99337 29.893 10.0464 29.9232C10.0995 29.9533 10.1624 29.9611 10.2212 29.9448L10.2206 29.9445Z" fill="#211715"/>
<path d="M8.65633 25.8339C8.54697 26.2353 8.36021 26.6112 8.26028 27.0153C8.1593 27.3924 8.18616 27.7923 8.33664 28.1525C8.46094 28.4467 8.65683 28.7051 8.90648 28.9043C9.15614 29.1035 9.45163 29.237 9.76607 29.2929C9.82486 29.3073 9.88694 29.2986 9.93955 29.2687C9.99215 29.2387 10.0313 29.1898 10.049 29.1319C10.0646 29.073 10.0565 29.0104 10.0264 28.9574C9.9963 28.9045 9.94657 28.8656 9.88797 28.849C9.66935 28.8226 9.46069 28.7423 9.28066 28.6155C9.04668 28.4477 8.86317 28.219 8.75006 27.9542C8.69106 27.8144 8.65723 27.6654 8.65012 27.5138C8.65624 27.337 8.68745 27.162 8.74281 26.9939C8.84758 26.643 9.00317 26.3097 9.09931 25.956C9.17728 25.67 8.73361 25.5479 8.65576 25.8336L8.65633 25.8339Z" fill="#211715"/>
<path d="M15.2413 29.8489C15.639 29.9218 16.0465 29.9234 16.4447 29.8536C16.8467 29.7907 17.2142 29.5898 17.4842 29.2854C17.78 28.9339 17.8813 28.4978 17.8813 28.0455C17.8813 27.5655 17.7718 27.0768 17.8407 26.5979C17.8549 26.5391 17.8462 26.4771 17.8163 26.4246C17.7863 26.372 17.7375 26.3328 17.6797 26.315C17.6208 26.2993 17.5582 26.3073 17.5052 26.3374C17.4522 26.3676 17.4133 26.4174 17.3968 26.476C17.3329 26.9204 17.39 27.3568 17.4137 27.8017C17.4342 28.1856 17.4261 28.5967 17.19 28.9197C16.9852 29.1791 16.6901 29.3516 16.3637 29.4027C16.2072 29.4273 16.0489 29.4379 15.8906 29.4343C15.7141 29.4433 15.5372 29.4336 15.3627 29.4054C15.0737 29.3467 14.9501 29.79 15.2405 29.849L15.2413 29.8489Z" fill="#211715"/>
<path d="M27.7994 18.2666C27.0169 17.7713 26.1072 17.5143 25.1812 17.5268C24.2552 17.5393 23.3528 17.8209 22.584 18.3372C22.0232 18.7199 21.5595 19.2283 21.2299 19.8219C20.9003 20.4155 20.7139 21.0779 20.6855 21.7563C20.6669 22.2458 20.7251 22.7352 20.858 23.2068C20.9179 23.1898 20.9797 23.1807 21.042 23.1796C21.1986 23.174 21.3513 23.2298 21.4675 23.335L22.0756 22.8484C22.5329 22.3626 23.3391 21.6312 23.9028 21.3505C23.9689 21.3176 24.0531 21.3636 24.0789 21.4705C24.1 21.554 24.1051 21.6407 24.0938 21.726C24.0898 21.7507 24.0926 21.776 24.102 21.7992C24.1114 21.8223 24.1269 21.8424 24.147 21.8574C24.167 21.8723 24.1908 21.8814 24.2157 21.8837C24.2406 21.886 24.2656 21.8814 24.288 21.8705C24.6905 21.6581 25.4082 21.2297 25.9163 21.0272L26.6661 21.1231C26.9176 21.2264 27.1501 21.371 27.3539 21.5509C27.8063 21.9351 28.2386 22.4607 28.428 22.9346L29.0232 23.4003C29.1412 23.2971 29.2949 23.244 29.4515 23.2524C29.5098 23.2544 29.5678 23.2634 29.624 23.2792L29.6355 23.2163C29.7664 22.768 29.8259 22.302 29.8119 21.8352C29.7605 20.361 29.1087 19.3563 28.383 18.7092L27.7994 18.2666Z" fill="#85807F"/>
<path d="M15.3536 42.409C15.6715 40.4622 16.0033 38.5174 16.3614 36.5776L16.0235 36.715C17.1422 37.4686 18.1872 38.323 19.2482 39.1541C19.2922 39.1955 19.3504 39.2185 19.4108 39.2185C19.4712 39.2185 19.5294 39.1955 19.5734 39.1541C19.6162 39.1108 19.6402 39.0523 19.6402 38.9914C19.6402 38.9306 19.6162 38.8721 19.5734 38.8288C18.4817 37.9738 17.4068 37.0932 16.2557 36.3178C16.2252 36.3003 16.1911 36.29 16.1559 36.2876C16.1208 36.2853 16.0856 36.291 16.0531 36.3043C16.0205 36.3176 15.9914 36.3382 15.9679 36.3644C15.9445 36.3907 15.9274 36.4219 15.9178 36.4558C15.5597 38.3956 15.2278 40.3404 14.91 42.2871C14.8956 42.3459 14.9043 42.408 14.9342 42.4606C14.9641 42.5132 15.0131 42.5524 15.071 42.57C15.1298 42.5858 15.1925 42.5777 15.2455 42.5476C15.2985 42.5174 15.3374 42.4677 15.354 42.409H15.3536Z" fill="#211715"/>
<path d="M48.6903 31.1278C48.6302 31.0437 48.5586 30.9685 48.4776 30.9043C48.0406 30.6355 47.6611 30.3996 47.2426 30.1951C47.1424 30.1485 47.0398 30.1074 46.9352 30.0719C46.7638 30.0131 46.5762 30.0234 46.4122 30.1006C46.2748 30.166 46.0931 30.4128 46.1428 30.5835L45.7703 30.6305C45.6641 30.6136 45.5683 30.5564 45.4635 30.5332C45.3516 30.516 45.2372 30.528 45.1313 30.568C45.0254 30.608 44.9317 30.6748 44.8592 30.7617C44.7163 30.9373 44.6113 31.1406 44.5507 31.3588C44.4973 31.5291 44.4944 31.7113 44.5423 31.8833C44.5579 31.938 44.5867 31.9881 44.6262 32.029C44.6657 32.07 44.7147 32.1006 44.7689 32.1181C44.8456 32.1443 44.9271 32.1534 45.0077 32.1449C45.0883 32.1365 45.1661 32.1105 45.2357 32.069L45.2063 32.3335C45.1521 32.3895 45.1071 32.4537 45.0729 32.5238C45.0365 32.6145 45.0266 32.7138 45.0446 32.8099C45.0625 32.9061 45.1075 32.9951 45.1742 33.0666C45.3301 33.227 45.4939 33.3794 45.6652 33.5233L45.8638 33.3089C46.0538 33.4661 46.2052 33.6642 46.2241 33.8634C46.3506 34.9545 46.619 35.4001 47.0495 35.5194C47.3903 35.6089 47.7464 35.6237 48.0935 35.5627C48.1872 35.5397 48.611 35.4181 48.6727 35.3442C48.7939 35.1983 48.9284 35.0906 48.9768 34.8969C49.0106 34.7352 49.0102 34.5682 48.9755 34.4067C48.941 34.2122 48.8819 33.7176 48.8586 33.3884C48.8262 32.9512 48.839 32.5119 48.8967 32.0774C48.9536 31.8074 48.9163 31.5261 48.7912 31.2802C48.7616 31.2268 48.7279 31.1759 48.6903 31.1278Z" fill="white"/>
<path d="M4.0925 32.3473C3.43931 32.3994 2.78842 32.476 2.14006 32.5708C1.80365 32.6201 1.46804 32.6742 1.13325 32.7333C0.983977 32.7596 0.834825 32.7867 0.685787 32.8146C0.545198 32.8291 0.40971 32.8752 0.289503 32.9495C0.051456 33.1211 0.0250064 33.3735 0.0205214 33.645C0.0169565 33.8833 0.0212114 34.1217 0.0320213 34.3598C0.0550209 34.8848 0.10677 35.4081 0.180599 35.9282C0.305832 36.8116 0.47695 37.7452 0.883469 38.5479C1.10312 38.9819 1.45444 39.4158 1.90914 39.614C2.37569 39.8175 2.94412 39.6813 3.38238 39.4617C3.86784 39.1961 4.31802 38.8707 4.72234 38.4929C5.22569 38.0509 5.69132 37.5667 6.15085 37.0798C6.35394 36.8646 6.0293 36.5387 5.82552 36.7546C5.13484 37.4862 4.43071 38.2083 3.60306 38.7865C3.2376 39.0418 2.85753 39.235 2.40363 39.2526C1.94364 39.2706 1.58047 38.8308 1.36635 38.472C1.20289 38.1801 1.07616 37.8691 0.989037 37.5461C0.866185 37.1253 0.76838 36.6975 0.696137 36.265C0.533752 35.3544 0.462637 34.4298 0.48385 33.5051C0.478039 33.464 0.485627 33.4221 0.50549 33.3856C0.525353 33.3491 0.556435 33.32 0.594133 33.3026C0.745821 33.256 0.902019 33.2257 1.06011 33.2121C1.39498 33.1514 1.73062 33.0953 2.06703 33.0438C2.73931 32.9415 3.41458 32.8627 4.09284 32.8075C4.38597 32.7845 4.3885 32.3245 4.09284 32.3475L4.0925 32.3473Z" fill="#211715"/>
<path d="M14.2765 29.0842C14.2395 29.3913 14.2364 29.7016 14.2672 30.0094C14.275 30.164 14.3291 30.3127 14.4223 30.4363C14.5189 30.547 14.6297 30.6445 14.7519 30.7262C14.8046 30.7568 14.8673 30.7653 14.9262 30.7498C14.9852 30.7344 15.0356 30.6962 15.0665 30.6437C15.0957 30.5907 15.1034 30.5285 15.088 30.4699C15.0727 30.4114 15.0355 30.3609 14.9841 30.329C14.9543 30.3074 14.9466 30.3019 14.9259 30.2847C14.9004 30.2635 14.8751 30.2423 14.8507 30.2197C14.8338 30.2042 14.8173 30.1883 14.8013 30.1719C14.7936 30.164 14.7405 30.0971 14.7726 30.143C14.7637 30.1304 14.7151 30.0721 14.7581 30.1315C14.7472 30.1088 14.7402 30.0845 14.7372 30.0595C14.7335 30.0432 14.7303 30.0269 14.7275 30.0103C14.7294 30.03 14.7289 30.0255 14.7258 29.9966C14.7227 29.9668 14.7203 29.9371 14.7183 29.9073C14.7004 29.6328 14.7065 29.3574 14.7365 29.084C14.7363 29.0231 14.712 28.9647 14.6689 28.9216C14.6258 28.8785 14.5674 28.8542 14.5065 28.854C14.446 28.8557 14.3885 28.8804 14.3457 28.9232C14.3029 28.966 14.2781 29.0235 14.2765 29.084V29.0842Z" fill="#211715"/>
<path d="M2.07358 27.1481C2.00205 26.0641 1.93099 24.98 1.8682 23.8955C1.83243 23.2782 1.7992 22.6609 1.77125 22.0432C1.74894 21.5462 1.71375 21.044 1.72307 20.5463C1.72525 20.4262 1.80966 20.4415 1.91604 20.4323C2.11625 20.4148 2.31715 20.4045 2.51817 20.4027C2.90507 20.4017 3.29158 20.4275 3.67494 20.4797C4.03857 20.5277 4.3994 20.5949 4.75592 20.681C5.1118 20.7555 5.46015 20.8622 5.79665 20.9999C5.90015 21.0459 5.88141 21.0927 5.84576 21.19C5.80934 21.2897 5.7725 21.389 5.73525 21.4879C5.65015 21.7153 5.56397 21.9422 5.47673 22.1688C5.26835 22.7123 5.0584 23.2553 4.84688 23.7976C4.38758 24.9811 3.91908 26.1622 3.49416 27.3585C3.3948 27.638 3.83915 27.7583 3.93771 27.4808C4.33744 26.3553 4.77719 25.2436 5.20878 24.1303C5.43395 23.55 5.65862 22.9695 5.88279 22.3888C5.97548 22.1475 6.06748 21.906 6.15878 21.6643C6.24354 21.4387 6.38878 21.1781 6.31875 20.9334C6.21237 20.5654 5.72375 20.476 5.40543 20.3797C5.02858 20.2669 4.64549 20.1762 4.25809 20.1079C3.46969 19.9564 2.66438 19.9124 1.86417 19.9773C1.6953 19.9745 1.53166 20.0358 1.40613 20.1488C1.35172 20.2124 1.31104 20.2866 1.28664 20.3667C1.26224 20.4467 1.25465 20.531 1.26434 20.6141C1.26791 20.8619 1.27584 21.1098 1.28401 21.3574C1.30562 21.9699 1.3361 22.5822 1.36933 23.1942C1.44075 24.5129 1.527 25.8307 1.61405 27.1483C1.63349 27.4423 2.09371 27.4444 2.07404 27.1483L2.07358 27.1481Z" fill="#211715"/>
<path d="M5.03416 32.7066L6.20277 31.544C6.52109 31.2016 6.88877 30.9087 7.29364 30.675C7.49144 30.5678 7.69947 30.4805 7.91463 30.4147C8.16084 30.3404 8.43362 30.3269 8.68627 30.2732C9.18955 30.1655 9.6825 30.0142 10.1595 29.821C10.2174 29.8032 10.2663 29.7641 10.2962 29.7115C10.3261 29.6589 10.3348 29.5968 10.3205 29.5381C10.304 29.4794 10.2651 29.4296 10.2121 29.3994C10.1592 29.3693 10.0965 29.3613 10.0376 29.3771C9.54409 29.577 9.03354 29.732 8.51216 29.8403C8.25997 29.8921 7.99295 29.9077 7.74743 29.9846C7.51023 30.0605 7.28071 30.1586 7.06192 30.2776C6.63829 30.5197 6.25288 30.8232 5.91826 31.1783L4.70894 32.3814C4.49884 32.5905 4.82394 32.9158 5.03416 32.7066Z" fill="#211715"/>
<path d="M48.9602 34.5333C49.01 34.5357 49.1327 34.5158 49.1741 34.5408C49.1763 34.542 49.2101 34.6206 49.2223 34.6512C49.2844 34.8106 49.3363 34.9738 49.3775 35.1399C49.4561 35.4616 49.5052 35.7897 49.5242 36.1203C49.576 36.7898 49.5342 37.4633 49.4 38.1212C49.2708 38.7142 48.9647 39.2972 48.4482 39.641C48.2183 39.8052 47.9408 39.8894 47.6584 39.8804C47.3662 39.8629 47.0881 39.6935 46.8617 39.5187C46.542 39.2719 46.3116 38.9051 46.0737 38.5841C45.8098 38.2279 45.554 37.8658 45.3063 37.498C45.1418 37.2537 44.7428 37.4837 44.9091 37.7301C45.1673 38.1135 45.4342 38.4903 45.7096 38.8607C45.9527 39.1875 46.1869 39.5544 46.5022 39.8162C46.7773 40.064 47.1115 40.2369 47.4727 40.3184C47.8231 40.3734 48.1819 40.3132 48.4951 40.1467C49.1594 39.8091 49.613 39.1182 49.8025 38.4132C49.8897 38.0559 49.9449 37.6915 49.9674 37.3243C50.0029 36.9324 50.0091 36.5383 49.986 36.1455C49.9641 35.7118 49.8947 35.2818 49.779 34.8632C49.7215 34.666 49.6614 34.4099 49.5273 34.2499C49.3778 34.0718 49.1726 34.0834 48.9603 34.0731C48.6644 34.0588 48.6651 34.5188 48.9603 34.5331L48.9602 34.5333Z" fill="#211715"/>
<path d="M44.6128 30.608C43.4522 30.2213 42.3174 29.7362 41.1858 29.274C41.127 29.2582 41.0643 29.2663 41.0113 29.2964C40.9583 29.3266 40.9194 29.3764 40.9029 29.435C40.8882 29.4939 40.8967 29.5561 40.9267 29.6088C40.9567 29.6615 41.0058 29.7006 41.0639 29.718C42.196 30.18 43.3306 30.6651 44.4909 31.052C44.7724 31.1457 44.8934 30.7017 44.6131 30.6085L44.6128 30.608Z" fill="#211715"/>
<path d="M46.3645 30.5353C46.3674 30.3647 46.5456 30.2686 46.6953 30.2642C46.9138 30.2579 47.146 30.3999 47.3331 30.4985C47.5472 30.6112 47.7562 30.7334 47.9632 30.8587C48.0722 30.9247 48.1809 30.9912 48.2893 31.0583C48.3192 31.0745 48.3476 31.0934 48.374 31.1149C48.408 31.1469 48.4399 31.1813 48.4693 31.2177C48.5782 31.3431 48.6507 31.4959 48.6793 31.6595C48.6952 31.8491 48.6836 32.04 48.6448 32.2263C48.6049 32.5962 48.5985 32.9689 48.6257 33.3399C48.6506 33.7167 48.6947 34.0934 48.7544 34.4668C48.7865 34.6684 48.7865 34.8594 48.6509 35.022C48.6196 35.0597 48.5854 35.0948 48.5531 35.1315C48.5389 35.1476 48.5255 35.1649 48.5108 35.1806C48.5416 35.1477 48.5363 35.1637 48.5185 35.1744C48.4701 35.2014 48.4189 35.2231 48.3659 35.2393C48.068 35.3489 47.749 35.3891 47.4333 35.3566C47.3318 35.3469 47.2313 35.3289 47.1328 35.3025C47.1048 35.2951 47.0772 35.2871 47.05 35.2773C47.0202 35.2665 47.056 35.2854 47.0077 35.257C46.9353 35.2174 46.8716 35.1637 46.8204 35.099C46.5983 34.8102 46.533 34.4028 46.4799 34.0532C46.4421 33.8031 46.417 33.5949 46.2585 33.3876C46.0958 33.1818 45.8897 33.0146 45.6549 32.8977C45.3922 32.7624 45.1592 33.1592 45.4228 33.2949C45.64 33.3919 45.8238 33.5509 45.9509 33.752C45.9942 33.8555 46.0184 33.9659 46.0224 34.0779C46.0403 34.208 46.0612 34.3378 46.0881 34.4664C46.1606 34.8138 46.2741 35.1736 46.5129 35.4444C46.7544 35.7183 47.1079 35.7878 47.4565 35.8188C47.828 35.8513 48.2019 35.7972 48.549 35.6608C48.756 35.5803 48.933 35.4375 49.0553 35.2521C49.1776 35.0666 49.2392 34.8478 49.2316 34.6258C49.2236 34.4204 49.1757 34.2152 49.1511 34.0111C49.1236 33.7826 49.0997 33.5534 49.0848 33.3238C49.0516 32.9281 49.0632 32.5299 49.1193 32.1369C49.1658 31.9062 49.1563 31.6678 49.0914 31.4416C49.0265 31.2155 48.9082 31.0082 48.7464 30.8374C48.558 30.6353 48.273 30.5063 48.0376 30.3669C47.7689 30.1998 47.4883 30.0526 47.1981 29.9264C46.9106 29.8086 46.6116 29.7505 46.3192 29.8926C46.1995 29.9537 46.0982 30.0453 46.0255 30.1583C45.9528 30.2712 45.9113 30.4014 45.9052 30.5356C45.9002 30.8317 46.3602 30.8317 46.3652 30.5356L46.3645 30.5353Z" fill="#211715"/>
<path d="M47.4424 31.1073C47.1755 30.9638 46.9044 30.8273 46.6324 30.6933C46.538 30.6407 46.4393 30.5963 46.3373 30.5607C46.2178 30.5262 46.0907 30.5281 45.9722 30.566C45.8538 30.604 45.7493 30.6763 45.672 30.7738C45.5858 30.8844 45.5344 31.0182 45.5243 31.1582C45.5142 31.2981 45.5459 31.4379 45.6155 31.5598C45.6307 31.5859 45.6509 31.6087 45.675 31.627C45.6991 31.6452 45.7265 31.6586 45.7557 31.6662C45.7849 31.6739 45.8154 31.6757 45.8453 31.6716C45.8752 31.6675 45.9041 31.6576 45.9301 31.6423C45.9562 31.6271 45.9791 31.6068 45.9973 31.5828C46.0156 31.5587 46.0289 31.5313 46.0366 31.502C46.0442 31.4728 46.0461 31.4424 46.042 31.4125C46.0379 31.3825 46.0279 31.3537 46.0127 31.3276C46.0052 31.3158 45.9985 31.3036 45.9924 31.291C46.0016 31.3134 46.0016 31.3117 45.9924 31.286C45.9882 31.272 45.9846 31.2578 45.9817 31.2434C45.9837 31.264 45.9839 31.2664 45.9825 31.249C45.9801 31.2222 45.9801 31.1952 45.9825 31.1685C45.9786 31.2089 45.9916 31.1356 45.994 31.1261C45.9973 31.1146 46.0011 31.1033 46.0055 31.0922C45.9991 31.1108 46.0019 31.1073 46.0139 31.0819C46.021 31.0694 46.0286 31.0574 46.0369 31.0458C46.0229 31.0644 46.0246 31.0638 46.042 31.0438C46.0503 31.037 46.0971 31.0039 46.0596 31.027C46.0711 31.0194 46.083 31.0125 46.0952 31.0062C46.0715 31.0147 46.0723 31.0145 46.0976 31.0055C46.1083 31.0026 46.1673 30.9911 46.1189 30.9966C46.1292 30.9955 46.2109 31.0001 46.168 30.9932C46.1917 30.997 46.2133 31.0064 46.237 31.0111C46.2697 31.0176 46.1745 30.982 46.2034 30.9966C46.246 31.018 46.2902 31.0369 46.3332 31.0577C46.6278 31.2008 46.9208 31.3487 47.2092 31.5038C47.2622 31.5333 47.3245 31.5412 47.3832 31.5258C47.4419 31.5104 47.4923 31.4729 47.524 31.4212C47.554 31.3684 47.5622 31.3059 47.5468 31.2471C47.5314 31.1883 47.4935 31.1378 47.4414 31.1066L47.4424 31.1073Z" fill="#211715"/>
<path d="M46.7523 31.6387C46.5067 31.5241 46.2525 31.4291 45.9919 31.3547C45.8735 31.3105 45.7473 31.2907 45.621 31.2964C45.484 31.3148 45.3577 31.3809 45.2646 31.4831C45.1692 31.5896 45.114 31.726 45.1087 31.8689C45.1034 32.0117 45.1482 32.1519 45.2355 32.2651C45.3667 32.4034 45.526 32.5122 45.7027 32.584C45.8838 32.6696 46.0686 32.7473 46.2527 32.8255C46.3058 32.8546 46.368 32.8623 46.4265 32.847C46.485 32.8316 46.5354 32.7944 46.5674 32.7431C46.5975 32.6902 46.6058 32.6277 46.5904 32.5689C46.5749 32.51 46.5371 32.4596 46.4849 32.4283C46.212 32.3238 45.9478 32.198 45.6946 32.0521C45.6753 32.0399 45.6568 32.0268 45.6371 32.0148C45.6291 32.0097 45.6026 31.988 45.6371 32.0163C45.6299 32.0103 45.6227 32.0048 45.6156 31.9981C45.6145 31.9971 45.5696 31.9539 45.571 31.953C45.5724 31.9521 45.5995 31.9895 45.5802 31.9611C45.5578 31.9281 45.5865 31.9902 45.5814 31.9644C45.5752 31.9452 45.5703 31.9256 45.5667 31.9057C45.5718 31.9044 45.5684 31.9523 45.5684 31.9137C45.5684 31.9022 45.5673 31.89 45.5673 31.878C45.5673 31.8693 45.5687 31.8603 45.5684 31.8517C45.567 31.8208 45.5543 31.8892 45.5665 31.8623C45.5692 31.8546 45.571 31.8467 45.5719 31.8386C45.5788 31.7941 45.5537 31.866 45.5685 31.8431C45.5788 31.8271 45.6059 31.7881 45.5773 31.8213C45.5933 31.8028 45.611 31.7868 45.6278 31.7698C45.6255 31.7723 45.5952 31.7907 45.6163 31.7789C45.6266 31.7733 45.636 31.7661 45.6463 31.7604C45.6539 31.7561 45.6619 31.7526 45.6693 31.7489C45.6252 31.7728 45.6554 31.7548 45.6705 31.7518C45.7293 31.7403 45.6408 31.7508 45.6827 31.7498C45.7309 31.7484 45.668 31.748 45.6698 31.746C45.6805 31.7478 45.6911 31.7504 45.7014 31.7538C45.7503 31.7663 45.7992 31.7792 45.8479 31.7925C45.9641 31.8231 46.0784 31.8603 46.1903 31.9039C46.2539 31.929 46.3177 31.9535 46.3814 31.9785C46.4089 31.9894 46.4363 32.0004 46.4638 32.0114C46.5062 32.0287 46.4753 32.016 46.4661 32.0122C46.4836 32.0198 46.5012 32.0276 46.5186 32.0352C46.5716 32.0645 46.6339 32.0723 46.6925 32.0569C46.7511 32.0415 46.8015 32.0042 46.8334 31.9527C46.8634 31.8998 46.8716 31.8373 46.8562 31.7785C46.8407 31.7197 46.8029 31.6693 46.7508 31.638L46.7523 31.6387Z" fill="#211715"/>
<path d="M45.601 32.0317C45.4987 32.0077 45.392 32.0098 45.2906 32.0378C45.1893 32.0658 45.0967 32.1189 45.0212 32.192C44.8834 32.3292 44.8053 32.5153 44.8039 32.7097C44.8025 32.9042 44.8779 33.0913 45.0137 33.2305C45.0837 33.3043 45.1582 33.3742 45.2322 33.4444C45.3316 33.5437 45.4377 33.6361 45.5496 33.7209C45.6024 33.7515 45.665 33.7599 45.724 33.7444C45.7829 33.729 45.8334 33.6909 45.8644 33.6384C45.8935 33.5853 45.9012 33.5231 45.8858 33.4646C45.8705 33.4061 45.8332 33.3556 45.7818 33.3237C45.7413 33.2945 45.8231 33.3592 45.7933 33.3325C45.785 33.3251 45.7762 33.3183 45.7677 33.3111C45.7447 33.2912 45.7217 33.2707 45.6987 33.2501C45.6492 33.2054 45.6007 33.1598 45.5525 33.1138C45.4742 33.0389 45.4007 32.9576 45.3211 32.8838C45.3105 32.8711 45.3137 32.8754 45.3308 32.8965C45.3241 32.8871 45.3178 32.8773 45.3117 32.8673C45.3026 32.852 45.2949 32.8361 45.2867 32.8203C45.3117 32.8682 45.2878 32.8214 45.2835 32.8081C45.273 32.786 45.267 32.762 45.2657 32.7376L45.2686 32.7629C45.2672 32.7514 45.2662 32.7389 45.2656 32.7269C45.2648 32.7088 45.2656 32.6911 45.2656 32.6732C45.268 32.6467 45.2674 32.6496 45.2637 32.6818C45.2658 32.6703 45.2685 32.6588 45.2714 32.6473C45.2758 32.6317 45.2993 32.5906 45.2725 32.6379C45.2936 32.6006 45.3157 32.5644 45.3381 32.528C45.3624 32.4886 45.3134 32.5475 45.3473 32.5165C45.3573 32.5073 45.3899 32.486 45.3544 32.5067C45.3599 32.5033 45.4206 32.4688 45.3907 32.483C45.3608 32.4971 45.4227 32.4701 45.4304 32.4732C45.4016 32.4762 45.3959 32.4769 45.4138 32.4755C45.423 32.4746 45.4322 32.4743 45.4415 32.4743C45.4508 32.4743 45.5319 32.4824 45.4796 32.4743C45.5384 32.4888 45.6006 32.4802 45.6532 32.4503C45.7059 32.4203 45.7451 32.3713 45.7626 32.3133C45.7781 32.2544 45.7699 32.1918 45.7398 32.139C45.7097 32.0861 45.6601 32.0471 45.6016 32.0304L45.601 32.0317Z" fill="#211715"/>
<path d="M45.8315 30.4084C45.7135 30.386 45.6079 30.3237 45.4891 30.3049C45.3619 30.2825 45.2311 30.2918 45.1084 30.3319C44.8604 30.4221 44.6537 30.5995 44.5269 30.8309C44.3919 31.0542 44.3078 31.3046 44.2808 31.5641C44.262 31.8286 44.3293 32.1093 44.5568 32.2663C44.6768 32.3387 44.8142 32.377 44.9543 32.3772C45.0944 32.3774 45.232 32.3395 45.3522 32.2674C45.4048 32.2367 45.4431 32.1862 45.4586 32.1272C45.4741 32.0682 45.4655 32.0054 45.4347 31.9528C45.4039 31.9001 45.3534 31.8618 45.2944 31.8463C45.2354 31.8309 45.1727 31.8395 45.12 31.8702C45.0965 31.8845 45.0713 31.8956 45.045 31.9035C45.0382 31.9055 44.9699 31.9202 45.0062 31.915C44.983 31.9179 44.9596 31.9189 44.9362 31.918C44.9217 31.918 44.9072 31.9168 44.8927 31.9154C44.92 31.9196 44.9207 31.9193 44.895 31.9147C44.8785 31.9101 44.8616 31.9054 44.8449 31.9014C44.8047 31.8918 44.8757 31.9236 44.8317 31.8954C44.8198 31.8893 44.8083 31.8825 44.7972 31.8751C44.8136 31.8891 44.8158 31.8907 44.8035 31.8799C44.7957 31.8731 44.7882 31.8659 44.7812 31.8583C44.7944 31.8778 44.7934 31.8762 44.7783 31.8535C44.7544 31.8222 44.7745 31.8637 44.7644 31.8221C44.7572 31.7919 44.749 31.762 44.7442 31.7312C44.7395 31.6847 44.738 31.6379 44.7397 31.5911C44.7524 31.4837 44.7804 31.3785 44.8227 31.2789C44.8623 31.1751 44.9132 31.0761 44.9746 30.9835C44.9984 30.9494 45.0256 30.9179 45.0558 30.8894C45.0632 30.8823 45.1225 30.8331 45.1031 30.8472C45.1229 30.8329 45.1435 30.8197 45.1648 30.8077C45.2316 30.7623 45.3126 30.7428 45.3928 30.7527C45.3566 30.7503 45.4308 30.762 45.4416 30.7652C45.4718 30.7741 45.5011 30.7851 45.5305 30.7963C45.5885 30.8201 45.6484 30.8388 45.7096 30.8522C45.7684 30.8668 45.8306 30.8582 45.8832 30.8282C45.9359 30.7983 45.975 30.7492 45.9925 30.6912C46.0081 30.6323 46 30.5697 45.9698 30.5168C45.9397 30.4639 45.89 30.4249 45.8315 30.4083V30.4084Z" fill="#211715"/>
<path d="M35.73 29.8591C34.7112 30.2605 33.6857 30.7274 32.8046 31.3863C32.15 31.8757 31.6625 32.5753 31.1667 33.2155C30.9315 33.5363 30.6802 33.8449 30.4135 34.1401C30.2093 34.3544 30.5341 34.6806 30.7388 34.4653C31.2638 33.9145 31.6888 33.2665 32.1723 32.68C32.4001 32.3884 32.6529 32.1174 32.9279 31.8699C33.3138 31.5615 33.731 31.2945 34.1727 31.0734C34.7171 30.7839 35.2779 30.5266 35.8524 30.3029C35.9103 30.2852 35.9592 30.246 35.9891 30.1934C36.0191 30.1408 36.0277 30.0788 36.0134 30.02C35.9969 29.9613 35.9579 29.9115 35.9049 29.8814C35.852 29.8513 35.7892 29.8432 35.7304 29.859L35.73 29.8591Z" fill="#211715"/>
<path d="M28.9383 29.4442C30.2246 29.6363 31.4688 30.0462 32.6173 30.6564C32.8789 30.7944 33.1118 30.3976 32.8495 30.2592C31.667 29.6274 30.3855 29.2017 29.0601 29.0003C29.0013 28.9861 28.9393 28.9949 28.8867 29.0248C28.8342 29.0547 28.795 29.1035 28.7772 29.1613C28.7614 29.2201 28.7695 29.2828 28.7996 29.3358C28.8297 29.3887 28.8795 29.4277 28.9382 29.4442H28.9383Z" fill="#211715"/>
<path d="M33.6293 37.543C32.6814 38.2406 31.7663 38.9798 30.8562 39.7253C30.8135 39.7687 30.7896 39.8271 30.7896 39.888C30.7896 39.9489 30.8135 40.0073 30.8562 40.0507C30.9 40.0925 30.9583 40.1159 31.0189 40.1159C31.0795 40.1159 31.1378 40.0925 31.1816 40.0507C32.0617 39.3299 32.9451 38.6146 33.861 37.9402C33.9124 37.9082 33.9495 37.8578 33.9649 37.7993C33.9802 37.7408 33.9726 37.6786 33.9436 37.6256C33.9125 37.5732 33.862 37.5352 33.8031 37.5198C33.7443 37.5043 33.6816 37.5127 33.6288 37.543H33.6293Z" fill="#211715"/>
<path d="M17.7847 30.8668C18.3408 30.484 18.987 30.227 19.6195 30.0016C20.2385 29.7671 20.8789 29.5938 21.5316 29.4841C21.5903 29.4676 21.6401 29.4287 21.6703 29.3757C21.7004 29.3227 21.7084 29.26 21.6926 29.2012C21.6752 29.1431 21.636 29.0941 21.5834 29.0641C21.5307 29.0341 21.4685 29.0256 21.4097 29.0402C20.743 29.1525 20.0891 29.3307 19.4576 29.5722C18.8032 29.8076 18.1289 30.073 17.5529 30.4691C17.3106 30.6359 17.5404 31.0347 17.7851 30.8663L17.7847 30.8668Z" fill="#211715"/>
<path d="M14.6871 30.4891C15.6391 30.8995 16.6558 31.3204 17.4197 32.0428C18.1997 32.7805 18.7907 33.695 19.5376 34.4632C19.7446 34.6758 20.0695 34.3504 19.8628 34.138C19.2774 33.5359 18.7731 32.8539 18.2207 32.2215C17.9408 31.8932 17.626 31.5962 17.2818 31.336C16.9443 31.0908 16.5875 30.8735 16.2147 30.6863C15.7919 30.4694 15.3559 30.2799 14.9196 30.0918C14.8665 30.063 14.8044 30.0554 14.746 30.0708C14.6875 30.0861 14.6371 30.1231 14.605 30.1742C14.5746 30.227 14.5662 30.2896 14.5817 30.3485C14.5971 30.4074 14.6351 30.4579 14.6874 30.489L14.6871 30.4891Z" fill="#211715"/>
<path d="M34.3003 24.5143C34.1643 24.4195 34.0043 24.3651 33.8387 24.3574C33.6731 24.3497 33.5087 24.389 33.3645 24.4708C33.259 24.5356 33.1694 24.6232 33.1022 24.7271C33.0351 24.8311 32.9921 24.9488 32.9764 25.0716C32.9348 25.3596 32.9542 25.6532 33.0332 25.9333C33.1121 26.2134 33.249 26.4738 33.4349 26.6977C33.6846 27.0068 34.0444 27.2037 34.4469 27.1253C34.5054 27.1087 34.5551 27.0697 34.5852 27.0168C34.6153 26.9639 34.6234 26.9013 34.6079 26.8424C34.5907 26.7842 34.5516 26.7349 34.4988 26.7049C34.446 26.6749 34.3837 26.6665 34.3249 26.6814C34.0585 26.7334 33.8282 26.4839 33.6981 26.2831C33.5589 26.0795 33.4661 25.8479 33.4262 25.6046C33.3933 25.3912 33.3887 25.1316 33.5056 24.946C33.5306 24.9063 33.4854 24.9641 33.5188 24.93C33.5303 24.9185 33.5648 24.8861 33.5654 24.8859C33.6067 24.8601 33.6518 24.8411 33.6992 24.8296C33.7627 24.8134 33.8292 24.8124 33.8933 24.8266C33.9574 24.8408 34.0172 24.8698 34.068 24.9114C34.1207 24.9418 34.1833 24.9503 34.2422 24.9348C34.3011 24.9194 34.3516 24.8813 34.3826 24.8289C34.4119 24.7759 34.4197 24.7137 34.4043 24.6551C34.389 24.5965 34.3517 24.546 34.3001 24.5142L34.3003 24.5143Z" fill="#211715"/>
<path d="M41.8868 24.3824C41.9311 24.3395 41.9845 24.3072 42.0431 24.2881C42.1017 24.2689 42.1639 24.2634 42.225 24.2719C42.2761 24.2763 42.3256 24.292 42.37 24.3179C42.416 24.3451 42.4002 24.3361 42.4441 24.3817C42.4773 24.4162 42.4265 24.3508 42.4503 24.3892C42.4656 24.414 42.4814 24.4376 42.4944 24.4638C42.5175 24.5126 42.5355 24.5636 42.548 24.6161C42.5809 24.7479 42.595 24.8837 42.59 25.0195C42.5813 25.2509 42.5248 25.478 42.4241 25.6865C42.3062 25.9346 42.1142 26.2061 41.8093 26.1878C41.5135 26.1701 41.5146 26.6301 41.8093 26.6478C42.4818 26.6881 42.8602 25.9809 42.9992 25.4209C43.118 24.9421 43.0783 24.1864 42.5907 23.9144C42.4261 23.8264 42.2378 23.7928 42.0529 23.8184C41.8679 23.8441 41.6959 23.9276 41.5614 24.0572C41.3504 24.2654 41.6758 24.5906 41.8868 24.3824Z" fill="#211715"/>
<path d="M41.5924 26.0787C41.5084 26.6283 41.3022 27.152 40.9889 27.6113C40.6507 28.1448 40.1839 28.7332 39.5534 28.9207C39.2703 29.0049 39.3909 29.449 39.6756 29.3642C40.4054 29.1471 40.9481 28.5174 41.3494 27.9005C41.6974 27.3897 41.9315 26.8101 42.036 26.2009C42.0502 26.1422 42.0414 26.0802 42.0115 26.0276C41.9816 25.975 41.9328 25.9359 41.875 25.918C41.8161 25.9023 41.7534 25.9103 41.7005 25.9405C41.6475 25.9706 41.6086 26.0204 41.5921 26.079L41.5924 26.0787Z" fill="#211715"/>
<path d="M34.1116 26.6776C34.5439 28.0947 35.7286 29.4818 37.2828 29.6061C37.5779 29.6297 37.5764 29.1691 37.2828 29.1461C36.6031 29.0917 36.0293 28.7228 35.5595 28.2483C35.0925 27.7737 34.7478 27.1927 34.5552 26.5553C34.469 26.273 34.0249 26.3933 34.1116 26.6776Z" fill="#211715"/>
<path d="M40.2396 18.9917C39.5343 18.616 38.75 18.4126 37.951 18.3983C37.152 18.384 36.3609 18.5591 35.6426 18.9094C35.0571 19.203 34.5391 19.6152 34.1216 20.1199C33.7041 20.6245 33.3962 21.2106 33.2175 21.8407C32.9768 22.7592 33.0132 23.7284 33.322 24.6263C33.4153 24.9058 33.8596 24.7859 33.7657 24.5041C33.5088 23.7704 33.4517 22.9815 33.6002 22.2185C33.7253 21.611 33.9872 21.04 34.3661 20.5489C34.7602 20.0441 35.26 19.6315 35.8303 19.3402C36.4007 19.0488 37.0279 18.8857 37.6679 18.8623C38.4813 18.8201 39.2906 19.0023 40.0075 19.3889C40.2679 19.5298 40.5005 19.1327 40.2396 18.9917Z" fill="#211715"/>
<path d="M42.5428 24.0521C42.6437 23.5581 42.6694 23.0517 42.619 22.5501C42.568 22.0896 42.4524 21.6386 42.2757 21.2104C41.9792 20.5068 41.5057 19.892 40.9013 19.4257C40.8572 19.3843 40.7991 19.3613 40.7387 19.3613C40.6782 19.3613 40.6201 19.3843 40.5761 19.4257C40.5333 19.469 40.5093 19.5274 40.5093 19.5883C40.5093 19.6492 40.5333 19.7076 40.5761 19.7509C41.1274 20.1701 41.563 20.7226 41.8418 21.3565C42.1814 22.1695 42.2709 23.0652 42.0991 23.9294C42.0462 24.2187 42.4894 24.3434 42.5428 24.0516V24.0521Z" fill="#211715"/>
<path d="M37.4908 27.6277C37.7359 27.7349 38.0038 27.7793 38.2703 27.7569C38.5428 27.7512 38.8062 27.6581 39.0219 27.4915C39.0647 27.4482 39.0887 27.3897 39.0887 27.3288C39.0887 27.2679 39.0647 27.2095 39.0219 27.1661C38.978 27.1244 38.9198 27.1011 38.8592 27.1011C38.7987 27.1011 38.7404 27.1244 38.6966 27.1661C38.6564 27.2006 38.7352 27.1412 38.7052 27.1603C38.6907 27.1694 38.677 27.1795 38.6624 27.1883C38.6478 27.1972 38.6307 27.2064 38.6143 27.2147C38.6039 27.2212 38.5927 27.2265 38.581 27.2303C38.5896 27.2328 38.6347 27.2097 38.5925 27.2251C38.5399 27.2446 38.4862 27.2605 38.4315 27.2729C38.4132 27.277 38.3949 27.2807 38.3765 27.2844C38.3708 27.2855 38.3172 27.2945 38.3475 27.2897C38.3779 27.2848 38.3206 27.2928 38.3148 27.2933C38.2918 27.2956 38.269 27.2975 38.2466 27.2991C38.1717 27.3043 38.0966 27.3046 38.0216 27.3001C38.0063 27.2992 37.991 27.298 37.9756 27.2965L37.9495 27.2938C37.9316 27.2916 37.938 27.2926 37.9693 27.2965C37.9438 27.2962 37.9184 27.2916 37.8943 27.2831C37.85 27.2737 37.8064 27.2614 37.7637 27.2464C37.7484 27.241 37.7333 27.2349 37.7183 27.2293C37.6693 27.2104 37.7776 27.2549 37.7224 27.231C37.6694 27.2018 37.6072 27.1941 37.5486 27.2095C37.4901 27.2249 37.4397 27.2621 37.4078 27.3136C37.3776 27.3664 37.3694 27.4289 37.3848 27.4877C37.4002 27.5465 37.4381 27.597 37.4902 27.6282L37.4908 27.6277Z" fill="#211715"/>
<path d="M38.0124 25.8633C38.0331 25.9239 38.0524 25.9851 38.0708 26.0464C38.0925 26.1102 38.1094 26.1756 38.1213 26.2419L38.1131 26.1807C38.1146 26.1935 38.1146 26.2065 38.1131 26.2193L38.1213 26.1581C38.1202 26.164 38.1187 26.1698 38.1167 26.1754L38.1397 26.1205C38.1373 26.1258 38.1344 26.1308 38.1309 26.1355L38.1669 26.089C38.1645 26.0921 38.1617 26.0949 38.1585 26.0974L38.2045 26.0615C38.1908 26.071 38.1762 26.0791 38.1608 26.0856L38.2158 26.0626C38.2008 26.0686 38.1851 26.0728 38.1691 26.0752L38.2303 26.067C38.201 26.068 38.1717 26.0665 38.1427 26.0625C38.0972 26.0625 38.0527 26.076 38.0149 26.1013C37.9771 26.1266 37.9476 26.1625 37.9302 26.2045C37.9128 26.2465 37.9083 26.2928 37.9171 26.3374C37.926 26.382 37.9479 26.423 37.9801 26.4551C38.0244 26.4963 38.0821 26.5202 38.1427 26.5225C38.1668 26.5257 38.1911 26.5275 38.2155 26.5281C38.2857 26.5258 38.3543 26.5066 38.4156 26.472C38.4525 26.4525 38.4849 26.4254 38.5105 26.3923C38.5361 26.3593 38.5544 26.3212 38.564 26.2806C38.577 26.2143 38.5743 26.146 38.5562 26.0809C38.5279 25.9659 38.4932 25.8533 38.455 25.7417C38.4377 25.6845 38.4001 25.6357 38.3493 25.6043C38.3232 25.589 38.2944 25.579 38.2645 25.5749C38.2345 25.5708 38.2041 25.5726 38.1749 25.5803C38.1456 25.5879 38.1182 25.6013 38.0941 25.6195C38.0701 25.6378 38.0498 25.6606 38.0346 25.6867C38.0191 25.7132 38.0091 25.7426 38.0052 25.773C38.0012 25.8034 38.0034 25.8343 38.0116 25.8639L38.0124 25.8633Z" fill="#211715"/>
<path d="M36.0086 24.9659C35.959 25.1667 36.0294 25.6168 36.4163 25.6302C36.924 25.5939 36.9152 25.0449 36.7274 24.7987C36.5736 24.5973 36.1562 24.5365 36.0086 24.9659Z" fill="#211715"/>
<path d="M40.0769 24.6998C40.1522 24.8926 40.1412 25.3479 39.7593 25.4116C39.2511 25.4418 39.1883 24.8963 39.3424 24.6277C39.4683 24.408 39.8743 24.2934 40.0769 24.6998Z" fill="#211715"/>
<path d="M13.9621 7.71342L16.6909 14.4014C16.7087 14.4592 16.7478 14.5081 16.8004 14.538C16.853 14.5679 16.915 14.5766 16.9738 14.5624C17.0325 14.5459 17.0823 14.507 17.1125 14.454C17.1426 14.4011 17.1506 14.3383 17.1348 14.2795L14.4057 7.59106C14.3879 7.53321 14.3488 7.48432 14.2962 7.45439C14.2436 7.42447 14.1816 7.41576 14.1228 7.43006C14.0641 7.44653 14.0143 7.48547 13.9842 7.53844C13.954 7.5914 13.946 7.6541 13.9618 7.71296L13.9621 7.71342Z" fill="#211715"/>
<path d="M5.79886 11.2445C6.75335 12.4094 7.73796 13.5503 8.72499 14.6875C9.01157 15.0178 9.29964 15.3467 9.5892 15.6743C9.78585 15.8964 10.1103 15.57 9.91442 15.3491C8.83941 14.1359 7.78534 12.9029 6.74265 11.6622C6.53519 11.4156 6.329 11.168 6.12407 10.9193C5.9364 10.6901 5.61268 11.0171 5.79886 11.2445Z" fill="#211715"/>
<path d="M36.302 7.59129L33.5731 14.2794C33.5573 14.3382 33.5654 14.4009 33.5955 14.4539C33.6256 14.5068 33.6754 14.5458 33.7341 14.5623C33.7929 14.577 33.8551 14.5685 33.9078 14.5385C33.9605 14.5085 33.9996 14.4593 34.017 14.4013L36.7459 7.7133C36.7617 7.65445 36.7536 7.59174 36.7235 7.53878C36.6934 7.48582 36.6436 7.44688 36.5849 7.4304C36.5261 7.41567 36.4638 7.42418 36.4111 7.45417C36.3585 7.48416 36.3194 7.53331 36.302 7.5914V7.59129Z" fill="#211715"/>
<path d="M44.5836 10.9193C43.6291 12.0842 42.6444 13.2251 41.6575 14.3624C41.3708 14.6926 41.0827 15.0215 40.7933 15.3492C40.5978 15.57 40.9217 15.8964 41.1185 15.6744C42.1935 14.4611 43.2471 13.2282 44.2904 11.9875C44.4974 11.7408 44.7035 11.4931 44.9088 11.2445C45.0949 11.0173 44.7708 10.69 44.5836 10.9193Z" fill="#211715"/>
<path d="M9.75559 23.9012C9.63943 23.7876 9.49369 23.7088 9.33499 23.674C9.17629 23.6392 9.01099 23.6496 8.85791 23.7041C8.74237 23.7499 8.6387 23.8213 8.55467 23.9129C8.47065 24.0045 8.40845 24.114 8.37273 24.2331C8.18529 24.7554 8.29637 25.3896 8.57467 25.8602C8.77017 26.1904 9.09044 26.4697 9.49558 26.4476C9.78997 26.4318 9.79193 25.9717 9.49558 25.9876C9.19923 26.0035 9.01258 25.7357 8.90092 25.4931C8.80458 25.2885 8.75116 25.0664 8.74395 24.8404C8.74007 24.7077 8.75481 24.5752 8.78776 24.4467C8.80551 24.3676 8.83852 24.2927 8.88494 24.2262C8.91219 24.1849 8.84975 24.2607 8.89057 24.2201C8.93381 24.1768 8.91357 24.188 8.96291 24.159C9.0051 24.1357 9.05143 24.1209 9.09929 24.1154C9.15925 24.1076 9.2202 24.1136 9.27753 24.1328C9.33486 24.152 9.38708 24.1839 9.43026 24.2263C9.6399 24.4358 9.96523 24.1106 9.75559 23.9009V23.9012Z" fill="#211715"/>
<path d="M17.0947 24.7937C17.1442 24.7535 17.2024 24.7256 17.2648 24.7124C17.3271 24.6991 17.3917 24.7008 17.4533 24.7174C17.5008 24.7284 17.5458 24.7484 17.5858 24.7763C17.5642 24.7608 17.6136 24.8031 17.6194 24.8085C17.6268 24.8161 17.6339 24.8239 17.6406 24.8315C17.6269 24.8133 17.6246 24.8106 17.6336 24.8235C17.7494 24.9994 17.7457 25.2626 17.7108 25.4735C17.671 25.7061 17.5817 25.9274 17.4489 26.1224C17.3205 26.3217 17.0924 26.5717 16.8279 26.5183C16.7691 26.5036 16.7069 26.5122 16.6542 26.5421C16.6015 26.5721 16.5624 26.6212 16.545 26.6793C16.5294 26.7381 16.5375 26.8008 16.5676 26.8537C16.5977 26.9066 16.6474 26.9456 16.706 26.9622C17.3707 27.0965 17.8188 26.4988 18.0478 25.9583C18.1624 25.6851 18.2087 25.3882 18.1827 25.0931C18.1772 24.8451 18.0736 24.6094 17.8946 24.4376C17.7502 24.3201 17.5716 24.2526 17.3856 24.2453C17.1996 24.238 17.0162 24.2912 16.863 24.3969C16.8117 24.429 16.7746 24.4794 16.7592 24.5379C16.7439 24.5963 16.7515 24.6585 16.7804 24.7116C16.8115 24.7639 16.8619 24.8019 16.9208 24.8174C16.9797 24.8328 17.0423 24.8245 17.095 24.7941L17.0947 24.7937Z" fill="#211715"/>
<path d="M16.5871 26.4103C16.4277 26.9189 16.1621 27.388 15.8079 27.7864C15.3946 28.2703 14.8637 28.7699 14.21 28.8699C14.1514 28.8864 14.1016 28.9254 14.0715 28.9784C14.0413 29.0313 14.0333 29.094 14.049 29.1529C14.0664 29.211 14.1056 29.2601 14.1583 29.2901C14.211 29.32 14.2732 29.3286 14.332 29.3139C15.0565 29.203 15.6732 28.6501 16.1328 28.1122C16.5408 27.6556 16.8468 27.1173 17.0303 26.5331C17.1131 26.2483 16.6695 26.1266 16.5868 26.4108L16.5871 26.4103Z" fill="#211715"/>
<path d="M9.26095 25.9928C9.48577 27.394 10.4529 28.9056 11.9151 29.2276C12.2036 29.2912 12.3268 28.8481 12.0374 28.784C10.7219 28.4944 9.90505 27.1205 9.7045 25.8705C9.688 25.8119 9.64905 25.7621 9.5961 25.732C9.54315 25.7018 9.48045 25.6938 9.4216 25.7096C9.36351 25.7269 9.31436 25.766 9.28437 25.8187C9.25438 25.8714 9.24587 25.9336 9.2606 25.9924L9.26095 25.9928Z" fill="#211715"/>
<path d="M16.2147 19.2994C15.5805 18.8434 14.8471 18.5444 14.0748 18.4271C13.3025 18.3097 12.5133 18.3775 11.7723 18.6246C11.165 18.8338 10.6078 19.1669 10.1361 19.6028C9.66428 20.0387 9.28821 20.5678 9.03168 21.1567C8.67562 22.0236 8.58427 22.9766 8.76914 23.8955C8.82342 24.1861 9.26685 24.063 9.2128 23.7732C8.9613 22.4277 9.3393 21.0309 10.3206 20.061C11.0701 19.3428 12.0492 18.9125 13.0851 18.8458C14.121 18.7791 15.1471 19.0804 15.9825 19.6965C16.0353 19.7269 16.0979 19.7353 16.1568 19.7199C16.2157 19.7045 16.2662 19.6664 16.2973 19.6141C16.3267 19.5611 16.3345 19.4988 16.3191 19.4402C16.3037 19.3816 16.2663 19.3312 16.2147 19.2994Z" fill="#211715"/>
<path d="M17.8105 24.5137C18.1182 23.6204 18.1571 22.6564 17.9224 21.7412C17.7255 21.0188 17.3473 20.3587 16.8238 19.8234C16.6174 19.6103 16.2924 19.9357 16.4985 20.1486C16.9665 20.6271 17.304 21.2175 17.4788 21.8636C17.5807 22.2545 17.6274 22.6577 17.6177 23.0615C17.602 23.5151 17.5175 23.9637 17.3669 24.3919C17.2741 24.6738 17.7181 24.7944 17.8105 24.5142V24.5137Z" fill="#211715"/>
<path d="M12.4357 27.3578C12.6565 27.4863 12.9051 27.5596 13.1602 27.5716C13.4149 27.6026 13.6729 27.5525 13.8974 27.4282C13.95 27.3974 13.9883 27.347 14.0038 27.2879C14.0193 27.2289 14.0107 27.1662 13.9799 27.1135C13.9491 27.0608 13.8986 27.0225 13.8396 27.0071C13.7806 26.9916 13.7179 27.0002 13.6652 27.031C13.6403 27.0471 13.6094 27.0568 13.5858 27.0737C13.5445 27.0954 13.5132 27.1324 13.4987 27.1768C13.4841 27.2212 13.4874 27.2695 13.5078 27.3115C13.5282 27.3535 13.5642 27.3859 13.6081 27.4019C13.652 27.4178 13.7004 27.4161 13.743 27.397C13.7857 27.3779 13.8192 27.343 13.8366 27.2996C13.8539 27.2563 13.8537 27.2078 13.836 27.1646C13.8183 27.1214 13.7844 27.0868 13.7416 27.068C13.6988 27.0493 13.6504 27.048 13.6066 27.0643C13.5976 27.0673 13.5886 27.0709 13.5795 27.0739C13.5572 27.0814 13.5343 27.0878 13.5114 27.0933C13.4849 27.0998 13.4581 27.1048 13.4309 27.1093C13.3877 27.117 13.4654 27.1067 13.4343 27.1086C13.4194 27.1095 13.4047 27.1116 13.3899 27.1126C13.3133 27.1177 13.2364 27.1174 13.1599 27.1116C13.1408 27.1102 13.1217 27.1085 13.1024 27.1065C13.0831 27.1046 13.054 27.1006 13.0888 27.1056C13.0543 27.1006 13.0188 27.0941 12.9842 27.0869C12.9295 27.0752 12.8757 27.0598 12.8232 27.0409C12.8109 27.0352 12.7983 27.0304 12.7854 27.0264C12.7987 27.0292 12.8344 27.0486 12.8007 27.0325C12.7828 27.0239 12.7647 27.0155 12.7471 27.0062C12.7201 26.992 12.6939 26.9764 12.6679 26.9602C12.6152 26.9294 12.5525 26.9208 12.4935 26.9362C12.4345 26.9517 12.384 26.99 12.3532 27.0427C12.3224 27.0953 12.3138 27.1581 12.3293 27.2171C12.3448 27.2761 12.3831 27.3266 12.4357 27.3574V27.3578Z" fill="#211715"/>
<path d="M13.1567 25.7249C13.1739 25.8129 13.1887 25.9016 13.2007 25.9904L13.1925 25.9293C13.2012 25.9741 13.2045 26.0197 13.2024 26.0652L13.2105 26.0041C13.2092 26.0133 13.2069 26.0223 13.2035 26.031L13.2265 25.976C13.2243 25.9808 13.2216 25.9853 13.2186 25.9897L13.2546 25.9431C13.2512 25.9473 13.2473 25.9512 13.2431 25.9546L13.2891 25.9186C13.2835 25.9223 13.2776 25.9254 13.2714 25.9279L13.3262 25.9049C13.3097 25.9119 13.2925 25.917 13.2748 25.9201L13.3359 25.9118C13.3202 25.9139 13.3042 25.9139 13.2885 25.9118L13.3497 25.9201C13.3277 25.9169 13.3069 25.9099 13.2852 25.9055C13.2253 25.8906 13.162 25.8988 13.108 25.9285C13.0819 25.9438 13.0591 25.964 13.0408 25.9881C13.0225 26.0121 13.0092 26.0396 13.0015 26.0688C12.9939 26.098 12.992 26.1285 12.9962 26.1584C13.0003 26.1884 13.0103 26.2172 13.0255 26.2433C13.0558 26.2953 13.1054 26.3333 13.1635 26.3489C13.2049 26.3588 13.2469 26.3665 13.2891 26.3719C13.3407 26.3765 13.3926 26.3695 13.4411 26.3515C13.4917 26.3362 13.538 26.3092 13.5762 26.2727C13.6099 26.2377 13.6347 26.1952 13.6486 26.1486C13.6623 26.1026 13.6665 26.0542 13.6608 26.0065C13.6464 25.8712 13.6263 25.7365 13.5999 25.603C13.5837 25.5452 13.5458 25.496 13.4941 25.4655C13.4415 25.4347 13.3787 25.4261 13.3197 25.4416C13.2607 25.4571 13.2103 25.4953 13.1795 25.548C13.1508 25.6024 13.1427 25.6653 13.1565 25.7252L13.1567 25.7249Z" fill="#211715"/>
<path d="M11.3301 24.5538C11.2551 24.7422 11.263 25.1885 11.6368 25.2534C12.1346 25.2862 12.1997 24.752 12.0508 24.4879C11.9279 24.2716 11.5308 24.1568 11.3301 24.5538Z" fill="#211715"/>
<path d="M15.3149 24.8404C15.3622 25.0375 15.2904 25.4781 14.9113 25.4888C14.4139 25.45 14.426 24.912 14.6116 24.6723C14.7635 24.4755 15.173 24.4186 15.3149 24.8404Z" fill="#211715"/>
<path d="M15.3237 21.6225C15.4516 22.2866 15.6682 22.9305 15.9677 23.5369C16.0906 23.8039 16.2346 24.0606 16.3981 24.3048C16.5157 24.4994 16.6739 24.6662 16.862 24.7938C17.1179 24.9433 17.3497 24.5464 17.0941 24.3966C17.0785 24.3879 17.0634 24.3783 17.0489 24.3678C17.0898 24.3988 17.0365 24.3563 17.0325 24.3529C17.0012 24.3234 16.9707 24.2936 16.942 24.2616C16.8751 24.1859 16.8142 24.1052 16.7597 24.0201C16.6042 23.7799 16.4664 23.5287 16.3475 23.2684C16.077 22.7073 15.8817 22.113 15.7667 21.5009C15.7501 21.4423 15.7112 21.3925 15.6582 21.3624C15.6053 21.3322 15.5426 21.3242 15.4838 21.3399C15.4257 21.3572 15.3765 21.3963 15.3465 21.449C15.3165 21.5017 15.308 21.564 15.3228 21.6228L15.3237 21.6225Z" fill="#211715"/>
<path d="M12.5566 21.913C11.5473 22.5625 10.551 23.2325 9.52722 23.8591C9.27502 24.0134 9.50594 24.4111 9.75928 24.2563C10.7828 23.6297 11.7795 22.9597 12.7888 22.3102C13.0368 22.1505 12.8065 21.7522 12.5566 21.913Z" fill="#211715"/>
<path d="M15.3445 21.4192C14.7916 22.0831 14.085 22.6021 13.286 22.931C13.084 23.0096 12.8772 23.0754 12.6669 23.1279C12.6374 23.1356 12.6079 23.1426 12.5783 23.1492C12.5236 23.1607 12.5188 23.1624 12.5638 23.1545L12.6809 23.2029C12.6961 23.2172 12.7075 23.2351 12.714 23.255C12.7089 23.2306 12.7089 23.2328 12.714 23.2616C12.7131 23.2473 12.7129 23.2328 12.7131 23.2183C12.715 23.1984 12.7164 23.1562 12.7176 23.1467C12.7521 22.846 12.8722 22.5315 12.9307 22.2246C12.9859 21.9354 12.5426 21.8114 12.4871 22.1023C12.4325 22.3889 12.3376 22.6658 12.2857 22.9533C12.2428 23.1896 12.2079 23.6034 12.5572 23.6135C12.7339 23.5999 12.9075 23.559 13.0717 23.4922C13.2672 23.4305 13.4591 23.3581 13.6467 23.2753C14.0031 23.1192 14.3406 22.9232 14.6529 22.6911C15.0256 22.414 15.3666 22.0965 15.6696 21.7445C15.8623 21.5215 15.5384 21.1948 15.3444 21.4191L15.3445 21.4192Z" fill="#211715"/>
<path d="M40.4141 22.7001C40.4543 22.724 40.3991 22.6862 40.3993 22.6865C40.4078 22.6955 40.4169 22.704 40.4266 22.7117C40.4353 22.7204 40.4433 22.7299 40.4517 22.7389C40.4955 22.7862 40.4394 22.7179 40.4548 22.7411C40.4989 22.8077 40.5438 22.8727 40.5839 22.942C40.6827 23.113 40.7702 23.2906 40.8579 23.4675C40.9483 23.6495 41.0371 23.8327 41.1354 24.0107C41.2043 24.1523 41.2943 24.2826 41.4022 24.3972C41.5615 24.5479 41.8146 24.5497 41.9226 24.3356C41.952 24.2826 41.9598 24.2203 41.9444 24.1617C41.9291 24.1032 41.8917 24.0527 41.8402 24.0209C41.7873 23.9908 41.7248 23.9825 41.666 23.998C41.6071 24.0134 41.5567 24.0513 41.5255 24.1035C41.522 24.1125 41.5171 24.1209 41.511 24.1285C41.5665 24.0749 41.5478 24.0839 41.5354 24.0962C41.5164 24.115 41.575 24.0674 41.5699 24.0707C41.5414 24.0885 41.6205 24.0548 41.6287 24.0537C41.6954 24.0456 41.6093 24.0498 41.6756 24.0537C41.7196 24.0565 41.7036 24.0582 41.6913 24.055C41.6708 24.0495 41.7564 24.0852 41.7202 24.0665C41.684 24.0477 41.7577 24.1062 41.7392 24.0822C41.7241 24.063 41.7025 24.0453 41.6859 24.0273C41.6505 23.9885 41.7105 24.0641 41.6905 24.0337C41.6824 24.0212 41.6731 24.0094 41.6645 23.9971C41.6433 23.9661 41.6233 23.9342 41.6038 23.9022C41.5605 23.8305 41.5205 23.7571 41.4814 23.6837C41.3067 23.3529 41.1568 23.0082 40.9669 22.6856C40.8929 22.5339 40.7829 22.4027 40.6465 22.3034C40.3914 22.1518 40.1598 22.5492 40.4143 22.7007L40.4141 22.7001Z" fill="#211715"/>
<path d="M21.6311 23.1718C21.5038 23.0594 21.3469 22.986 21.179 22.9604C21.0111 22.9347 20.8394 22.9578 20.6843 23.027C20.5753 23.0797 20.4793 23.1559 20.4033 23.2502C20.3273 23.3444 20.2732 23.4544 20.2448 23.5721C20.1756 23.8514 20.1665 24.1423 20.2181 24.4254C20.2696 24.7085 20.3806 24.9774 20.5438 25.2144C20.7612 25.5339 21.098 25.8124 21.5084 25.764C21.5689 25.7622 21.6263 25.7374 21.6691 25.6946C21.7118 25.6519 21.7366 25.5944 21.7384 25.534C21.7381 25.4731 21.7137 25.4148 21.6707 25.3718C21.6276 25.3287 21.5693 25.3044 21.5084 25.304C20.9854 25.3652 20.6841 24.621 20.6501 24.195C20.6325 23.9734 20.6356 23.6994 20.7749 23.5147C20.7416 23.559 20.8357 23.4639 20.8186 23.476C20.8592 23.4475 20.9054 23.4279 20.9541 23.4185C21.0149 23.4034 21.0783 23.4026 21.1394 23.4162C21.2005 23.4297 21.2576 23.4573 21.3063 23.4967C21.5276 23.6922 21.8542 23.3675 21.6315 23.1715L21.6311 23.1718Z" fill="#211715"/>
<path d="M29.1866 23.5624C29.2331 23.5266 29.287 23.5014 29.3444 23.4888C29.4018 23.4762 29.4613 23.4764 29.5186 23.4894C29.5608 23.4949 29.6014 23.5089 29.6381 23.5305C29.6748 23.552 29.7068 23.5808 29.7321 23.615C29.7091 23.5866 29.7265 23.6059 29.736 23.6248C29.7469 23.6463 29.7605 23.6659 29.7705 23.6882C29.79 23.7373 29.8046 23.7882 29.8142 23.8402C29.839 23.9732 29.8447 24.1091 29.8311 24.2437C29.8076 24.4746 29.736 24.6981 29.621 24.8997C29.506 25.1094 29.2851 25.4139 29.0079 25.3765C28.9491 25.3624 28.8871 25.3712 28.8346 25.4011C28.7821 25.431 28.7429 25.4798 28.725 25.5375C28.7092 25.5964 28.7172 25.6591 28.7473 25.7121C28.7775 25.765 28.8273 25.804 28.886 25.8204C29.5909 25.9154 30.0188 25.2666 30.2126 24.6762C30.3694 24.1981 30.3646 23.4597 29.8978 23.1509C29.7382 23.0538 29.5519 23.01 29.3658 23.0255C29.1797 23.0411 29.0033 23.1154 28.862 23.2376C28.8194 23.2809 28.7955 23.3393 28.7955 23.4002C28.7955 23.461 28.8194 23.5194 28.862 23.5628C28.9058 23.6048 28.964 23.6282 29.0246 23.6282C29.0853 23.6282 29.1435 23.6048 29.1873 23.5628L29.1866 23.5624Z" fill="#211715"/>
<path d="M28.7496 25.2607C28.7044 25.4623 28.6406 25.6593 28.559 25.8491C28.5488 25.8729 28.4711 26.0435 28.5067 25.9655C28.4897 26.0026 28.4722 26.0396 28.4537 26.076C28.3312 26.3096 28.1896 26.5327 28.0304 26.743C27.6518 27.2528 27.138 27.7917 26.4946 27.9323C26.2056 27.9956 26.328 28.4391 26.617 28.3759C27.3597 28.2135 27.944 27.613 28.3869 27.0295C28.5623 26.8032 28.7175 26.562 28.8509 26.3087C28.8718 26.2679 28.8914 26.2266 28.9097 26.1847C28.9091 26.1861 28.9557 26.0812 28.9301 26.1387C28.9503 26.0937 28.9704 26.0489 28.9894 26.0035C29.0753 25.8031 29.1434 25.5956 29.1931 25.3834C29.2578 25.0951 28.8143 24.9719 28.7496 25.2611V25.2607Z" fill="#211715"/>
<path d="M21.2543 25.3051C21.572 26.7121 22.6443 28.2023 24.1523 28.4358C24.2111 28.4501 24.2731 28.4413 24.3257 28.4114C24.3783 28.3815 24.4175 28.3326 24.4353 28.2748C24.451 28.2159 24.4429 28.1532 24.4128 28.1003C24.3826 28.0473 24.3329 28.0084 24.2743 27.9918C22.9142 27.7813 21.9835 26.449 21.6975 25.1824C21.6324 24.8937 21.1888 25.016 21.254 25.3047L21.2543 25.3051Z" fill="#211715"/>
<path d="M27.9155 18.0677C27.2371 17.6406 26.4667 17.3815 25.6681 17.312C24.8696 17.2424 24.0659 17.3644 23.3239 17.6677C22.7223 17.9208 22.1795 18.2958 21.7299 18.7689C21.2802 19.2421 20.9334 19.8032 20.7112 20.417C20.4067 21.3157 20.3747 22.2844 20.6192 23.2012C20.6918 23.488 21.1355 23.3665 21.0627 23.0789C20.719 21.7219 21.0013 20.2652 21.9459 19.2109C22.3168 18.7943 22.7628 18.4512 23.2606 18.1997C23.9394 17.8726 24.6895 17.7214 25.442 17.7598C26.2393 17.7886 27.0141 18.0322 27.6845 18.4649C27.9345 18.625 28.1654 18.2271 27.9166 18.0677H27.9155Z" fill="#211715"/>
<path d="M29.8576 23.2772C30.1169 22.3455 30.0959 21.3581 29.7973 20.4383C29.5494 19.7107 29.1185 19.0592 28.5459 18.5463C28.3263 18.349 27.9999 18.6728 28.2207 18.8716C28.7373 19.3279 29.1275 19.9096 29.3537 20.5606C29.6299 21.4004 29.6509 22.3033 29.4141 23.155C29.3393 23.4416 29.7829 23.5639 29.8576 23.2772Z" fill="#211715"/>
<path d="M24.5646 26.4948C24.7957 26.6134 25.0522 26.6745 25.312 26.6727C25.5585 26.6749 25.8487 26.6392 26.0533 26.4873C26.1049 26.4555 26.1422 26.4051 26.1576 26.3465C26.173 26.2879 26.1652 26.2256 26.1359 26.1726C26.1046 26.1204 26.0542 26.0826 25.9954 26.0672C25.9366 26.0518 25.8741 26.06 25.8213 26.0901C25.7966 26.1083 25.7704 26.1245 25.7432 26.1386C25.7354 26.1427 25.7273 26.1463 25.7194 26.1501C25.6808 26.1696 25.7363 26.1461 25.7373 26.1431C25.7343 26.1521 25.6783 26.1645 25.6691 26.1674C25.6148 26.1832 25.5594 26.1956 25.5035 26.2044C25.561 26.1942 25.4971 26.2044 25.4882 26.2054C25.4711 26.2072 25.4537 26.2084 25.4366 26.2095C25.3951 26.212 25.3536 26.2129 25.312 26.2126C25.2741 26.2126 25.236 26.211 25.1981 26.2083C25.1774 26.2068 25.1567 26.2048 25.136 26.2029C25.09 26.1989 25.157 26.2072 25.1302 26.2029C25.0738 26.1939 25.0179 26.1818 24.9628 26.1665C24.9398 26.1596 24.9168 26.152 24.8938 26.1435C24.8845 26.14 24.8753 26.1362 24.866 26.1328C24.8248 26.1177 24.9178 26.1573 24.881 26.139C24.8532 26.1252 24.825 26.1121 24.7974 26.0976C24.7448 26.0668 24.682 26.0582 24.623 26.0737C24.564 26.0891 24.5135 26.1274 24.4827 26.1801C24.4519 26.2328 24.4433 26.2955 24.4588 26.3545C24.4743 26.4135 24.5126 26.464 24.5652 26.4948H24.5646Z" fill="#211715"/>
<path d="M25.2045 24.781C25.2376 24.9008 25.2639 25.0223 25.2833 25.1451L25.275 25.084C25.2773 25.1006 25.2776 25.1175 25.276 25.1342L25.2842 25.073C25.283 25.0808 25.281 25.0885 25.2783 25.096L25.3013 25.041C25.299 25.0461 25.2961 25.0509 25.2929 25.0555L25.3289 25.0089C25.3266 25.0119 25.324 25.0145 25.3212 25.017L25.3672 24.9811C25.3568 24.9884 25.3455 24.9945 25.3336 24.9991L25.3886 24.9761C25.3729 24.9825 25.3566 24.9871 25.3399 24.9898L25.401 24.9817C25.3841 24.9838 25.3669 24.9838 25.35 24.9817L25.411 24.9898C25.3941 24.9873 25.3773 24.9832 25.3603 24.9809C25.3306 24.9712 25.2988 24.9697 25.2683 24.9767C25.2379 24.978 25.2083 24.9874 25.1828 25.004C25.1567 25.0192 25.1338 25.0394 25.1156 25.0635C25.0973 25.0876 25.0839 25.115 25.0763 25.1442C25.0686 25.1735 25.0668 25.2039 25.0709 25.2339C25.075 25.2638 25.0849 25.2926 25.1002 25.3187C25.1149 25.3448 25.1346 25.3675 25.1584 25.3857C25.1821 25.4039 25.2092 25.417 25.2382 25.4244C25.2809 25.4303 25.3224 25.4405 25.3658 25.4433C25.4353 25.4448 25.5041 25.429 25.5659 25.3973C25.6037 25.3797 25.6373 25.3543 25.6645 25.3226C25.6916 25.291 25.7117 25.2539 25.7233 25.2138C25.7398 25.1476 25.7402 25.0783 25.7243 25.0118C25.7045 24.8935 25.6783 24.7762 25.6475 24.6601C25.6394 24.631 25.6258 24.6037 25.6072 24.5799C25.5886 24.5561 25.5656 24.5361 25.5393 24.5212C25.513 24.5063 25.4841 24.4967 25.4541 24.493C25.4241 24.4892 25.3937 24.4915 25.3646 24.4995C25.3355 24.5075 25.3082 24.5212 25.2844 24.5398C25.2605 24.5583 25.2406 24.5814 25.2257 24.6077C25.2107 24.6339 25.2011 24.6629 25.1974 24.6929C25.1937 24.7228 25.1959 24.7533 25.2039 24.7824L25.2045 24.781Z" fill="#211715"/>
<path d="M23.2688 23.7216C23.2045 23.9183 23.2414 24.3723 23.6262 24.4143C24.1353 24.4157 24.1667 23.8675 23.998 23.6081C23.8596 23.3957 23.4482 23.3044 23.2688 23.7216Z" fill="#211715"/>
<path d="M27.3452 23.7572C27.406 23.9549 27.3614 24.4082 26.9759 24.4434C26.4668 24.4361 26.4445 23.8874 26.618 23.631C26.7601 23.4211 27.174 23.3369 27.3452 23.7572Z" fill="#211715"/>
<path d="M26.5506 21.3212C26.9139 21.486 27.2409 21.7212 27.5126 22.0133C27.802 22.2955 28.0373 22.6283 28.2068 22.9953C28.2245 23.0531 28.2637 23.102 28.3163 23.1319C28.3688 23.1618 28.4309 23.1705 28.4897 23.1563C28.5483 23.1398 28.5981 23.1008 28.6283 23.0478C28.6584 22.9948 28.6665 22.9321 28.6507 22.8732C28.4629 22.4397 28.1948 22.0456 27.8605 21.7118C27.5572 21.3804 27.191 21.1129 26.7831 20.9248C26.73 20.896 26.6678 20.8884 26.6094 20.9038C26.5509 20.9191 26.5004 20.9562 26.4683 21.0074C26.438 21.0602 26.4296 21.1228 26.4451 21.1817C26.4605 21.2405 26.4986 21.291 26.5509 21.322L26.5506 21.3212Z" fill="#211715"/>
<path d="M22.2387 23.0106C22.5403 22.6917 22.8611 22.3917 23.1993 22.112C23.3606 21.9773 23.5289 21.8512 23.7036 21.7343C23.7768 21.6857 23.8516 21.6393 23.9285 21.5963C23.9487 21.5852 23.969 21.5742 23.9896 21.5635C23.9666 21.5688 23.9426 21.5686 23.9197 21.563C23.8968 21.5573 23.8755 21.5464 23.8576 21.531C23.8583 21.5834 23.8619 21.6357 23.8682 21.6878C23.86 21.9191 24.0042 22.1286 24.2562 22.1119C24.4376 22.1004 24.6369 21.9424 24.7937 21.8554C25.1758 21.6292 25.5714 21.4264 25.9781 21.2483C26.036 21.2305 26.0849 21.1913 26.1148 21.1387C26.1447 21.0861 26.1534 21.0241 26.1391 20.9653C26.1226 20.9066 26.0837 20.8568 26.0307 20.8267C25.9778 20.7966 25.9151 20.7885 25.8562 20.8043C25.4246 20.9895 25.0047 21.201 24.5989 21.4375C24.5069 21.4886 24.4149 21.54 24.3217 21.5908C24.2894 21.6042 24.2586 21.6209 24.2297 21.6405C24.176 21.6618 24.1928 21.6711 24.2801 21.6685C24.3154 21.7399 24.3316 21.7462 24.3286 21.6875C24.3478 21.5602 24.3259 21.4301 24.2662 21.3161C24.2419 21.2666 24.2069 21.2232 24.1637 21.1888C24.1206 21.1544 24.0704 21.1301 24.0167 21.1174C23.8161 21.0734 23.5954 21.2529 23.4385 21.3589C23.2554 21.4823 23.0803 21.6179 22.9095 21.7576C22.5583 22.0452 22.2258 22.3549 21.9141 22.6848C21.7107 22.8999 22.0354 23.2253 22.2393 23.0102L22.2387 23.0106Z" fill="#211715"/>
<path d="M34.5373 25.0626C34.6101 24.6545 34.7404 24.2587 34.9244 23.8872C35.0295 23.6574 35.156 23.4379 35.3023 23.2317C35.4117 23.0721 35.5544 22.9379 35.7204 22.8384C35.9804 22.6968 35.7486 22.2994 35.4882 22.4412C35.0413 22.6848 34.7522 23.1824 34.5404 23.6269C34.329 24.0408 34.1786 24.483 34.0938 24.9399C34.0795 24.9987 34.0882 25.0607 34.1181 25.1133C34.148 25.1659 34.1969 25.2051 34.2548 25.2228C34.3136 25.2386 34.3763 25.2305 34.4293 25.2004C34.4822 25.1703 34.5212 25.1205 34.5377 25.0618L34.5373 25.0626Z" fill="#211715"/>
<path d="M3.6225 41.9538C4.33296 41.0016 5.06228 40.0348 5.6252 38.9855C5.80463 38.6455 5.94427 38.2859 6.04138 37.9139C6.18892 37.3708 6.31622 36.8214 6.44111 36.2731C6.62273 35.4751 6.79496 34.675 6.9578 33.8729C7.01702 33.5839 6.57371 33.4603 6.51425 33.7505C6.25056 35.0385 5.98054 36.3289 5.64831 37.6015C5.56746 37.9564 5.44811 38.3014 5.29239 38.6305C5.03679 39.1129 4.75179 39.5792 4.43899 40.0267C4.04961 40.6025 3.64044 41.1651 3.22461 41.7216C3.19411 41.7744 3.1857 41.8372 3.20121 41.8961C3.21671 41.9551 3.25488 42.0056 3.30741 42.0366C3.36039 42.066 3.42265 42.0738 3.48125 42.0584C3.53984 42.0431 3.59027 42.0057 3.62204 41.9541L3.6225 41.9538Z" fill="#211715"/>
<path d="M44.2886 35.2243C44.5841 37.0319 45.0006 38.8222 45.3955 40.6099C45.528 41.2098 45.6612 41.8097 45.7951 42.4094C45.8595 42.6982 46.3031 42.5759 46.2388 42.2871C45.7951 40.2961 45.3426 38.3059 44.9508 36.3039C44.8727 35.9042 44.7975 35.5039 44.7323 35.102C44.7158 35.0433 44.6768 34.9936 44.6238 34.9634C44.5709 34.9333 44.5082 34.9252 44.4493 34.941C44.3912 34.9584 44.3421 34.9975 44.3121 35.0502C44.2821 35.1029 44.2736 35.1652 44.2883 35.224L44.2886 35.2243Z" fill="#211715"/>
<path d="M33.4121 36.5786C33.8247 38.5148 34.1826 40.4628 34.5437 42.409C34.5977 42.6996 35.0412 42.5766 34.9873 42.2867C34.6257 40.3404 34.2683 38.3925 33.8558 36.4562C33.794 36.1669 33.3506 36.2894 33.4121 36.5786Z" fill="#211715"/>
<path d="M30.2161 33.8659C30.2363 35.0299 30.3067 36.1925 30.363 37.3553C30.4145 38.42 30.4383 39.4857 30.4856 40.5506C30.5122 41.1499 30.5416 41.7489 30.5669 42.3482C30.5793 42.643 31.0394 42.6446 31.0268 42.3482C30.9348 40.1644 30.8501 37.9807 30.7458 35.7976C30.715 35.1536 30.6873 34.5096 30.6761 33.8656C30.6709 33.57 30.2109 33.5691 30.2161 33.8656V33.8659Z" fill="#211715"/>
<path d="M19.6708 42.3481C19.7578 40.2843 19.8344 38.2197 19.9353 36.1569C19.9672 35.5044 19.9952 34.8515 20.0061 34.1982C20.011 33.9021 19.551 33.902 19.5461 34.1982C19.5264 35.3695 19.4526 36.5389 19.3978 37.7089C19.3504 38.7181 19.3288 39.7284 19.2828 40.7377C19.2585 41.2745 19.2325 41.8112 19.2098 42.3477C19.1973 42.6437 19.6574 42.6431 19.6698 42.3477L19.6708 42.3481Z" fill="#211715"/>
<path d="M24.0767 36.8828C23.1588 35.2917 22.2514 33.6934 21.4043 32.0633C21.3485 31.9557 21.2992 31.841 21.2362 31.7375C21.2362 31.7375 21.2086 31.6677 21.21 31.7008C21.21 31.7042 21.1841 31.7533 21.2221 31.693C21.2615 31.6423 21.3057 31.5955 21.3541 31.5534C21.5451 31.3557 21.7451 31.1664 21.9451 30.9784C21.9696 30.9534 21.9881 30.9231 21.9993 30.8899C22.0104 30.8567 22.0139 30.8214 22.0095 30.7866C22.0051 30.7519 21.9929 30.7186 21.9737 30.6892C21.9546 30.6599 21.9291 30.6352 21.8991 30.6172L21.5414 30.413L21.3747 30.3178L21.2792 30.2634C21.2247 30.227 21.2168 30.2256 21.2554 30.2593L21.2868 30.3754C21.2853 30.4114 21.315 30.3353 21.3206 30.3252C21.3389 30.2925 21.3582 30.2604 21.3781 30.2288C21.421 30.1609 21.467 30.0946 21.5154 30.0304C21.6197 29.8947 21.732 29.7654 21.8518 29.6431C22.0778 29.4019 22.3306 29.1872 22.6052 29.0032L22.2673 28.8652C22.5509 30.0398 22.8935 31.1994 23.2938 32.3396C23.6407 33.3746 23.9689 34.4159 24.3287 35.4459C24.5127 35.9714 24.7162 36.4893 24.925 37.0052C24.9428 37.063 24.9819 37.1119 25.0345 37.1418C25.0871 37.1718 25.1491 37.1805 25.2079 37.1662C25.2666 37.1497 25.3164 37.1107 25.3465 37.0578C25.3767 37.0048 25.3847 36.9421 25.3689 36.8832C25.0062 35.9874 24.6854 35.0815 24.3862 34.1628C24.0102 33.0079 23.6043 31.8628 23.2452 30.7021C23.0451 30.0554 22.8608 29.4036 22.7111 28.7433C22.7014 28.7095 22.6842 28.6783 22.6607 28.6521C22.6373 28.626 22.6082 28.6055 22.5756 28.5923C22.543 28.579 22.5079 28.5734 22.4728 28.5757C22.4378 28.5781 22.4037 28.5884 22.3732 28.6058C21.9086 28.9138 21.4991 29.2976 21.1618 29.7413C21.0251 29.919 20.7568 30.2243 20.8469 30.4639C20.9013 30.6085 21.0654 30.6709 21.1903 30.7421L21.6671 31.0143L21.6196 30.653C21.4325 30.8285 21.2463 31.0052 21.0669 31.1887C20.912 31.3472 20.7157 31.5136 20.7577 31.759C20.7946 31.9748 20.9552 32.196 21.0557 32.3889C21.1707 32.6097 21.2869 32.83 21.4045 33.0496C21.8759 33.9318 22.3617 34.8057 22.855 35.6756C23.1278 36.1565 23.4026 36.6363 23.6792 37.115C23.8271 37.3714 24.2247 37.14 24.0764 36.8828H24.0767Z" fill="#211715"/>
<path d="M25.534 37.0136C25.9014 36.0726 26.273 35.1352 26.5891 34.1752C26.9612 33.0455 27.3586 31.9238 27.7103 30.7875C27.9076 30.1504 28.0898 29.5083 28.2371 28.8579L27.8993 28.9953C28.1841 29.1762 28.4457 29.3914 28.678 29.6361C28.8058 29.764 28.9257 29.8995 29.0371 30.0419C29.0819 30.1005 29.1245 30.161 29.1646 30.2227C29.1848 30.2539 29.2046 30.2854 29.2234 30.3175C29.232 30.3322 29.2752 30.4254 29.274 30.3962L29.3054 30.2802C29.3437 30.2462 29.3358 30.2475 29.2816 30.2839L29.1862 30.338L29.0194 30.4328L28.6618 30.636C28.6318 30.654 28.6062 30.6786 28.587 30.708C28.5678 30.7373 28.5555 30.7706 28.5511 30.8053C28.5466 30.8401 28.55 30.8754 28.5611 30.9086C28.5723 30.9419 28.5908 30.9722 28.6153 30.9972C28.7957 31.1658 28.9752 31.3354 29.1487 31.5113C29.2009 31.5642 29.3403 31.6723 29.3532 31.726C29.3433 31.6843 29.3039 31.7919 29.2925 31.8139C29.2663 31.8645 29.24 31.9151 29.2136 31.9656C29.0024 32.37 28.7856 32.7715 28.5634 33.17C28.101 34.0028 27.6218 34.826 27.136 35.6457C26.8643 36.1042 26.5907 36.5617 26.3153 37.0182C26.1623 37.2724 26.5599 37.5039 26.7125 37.2502C27.7468 35.5315 28.7798 33.8074 29.7008 32.0245C29.7776 31.9121 29.8134 31.7767 29.8023 31.641C29.7709 31.5181 29.703 31.4076 29.6076 31.324C29.3937 31.0982 29.1677 30.8843 28.9406 30.672L28.894 31.0332L29.3707 30.7623C29.5026 30.6873 29.6812 30.6193 29.7257 30.4574C29.7928 30.2127 29.5007 29.8928 29.3623 29.7167C29.0211 29.2743 28.6045 28.8955 28.1318 28.5978C28.1013 28.5804 28.0672 28.5702 28.0321 28.5679C27.997 28.5656 27.9619 28.5713 27.9293 28.5846C27.8968 28.5979 27.8677 28.6184 27.8442 28.6446C27.8208 28.6708 27.8036 28.702 27.7939 28.7358C27.5148 29.8911 27.1774 31.0316 26.7831 32.153C26.4298 33.2033 26.0973 34.2633 25.7091 35.3015C25.51 35.834 25.2977 36.3618 25.0909 36.8913C25.0751 36.9502 25.0832 37.0129 25.1133 37.0659C25.1435 37.1189 25.1932 37.1578 25.2519 37.1744C25.3107 37.1891 25.373 37.1806 25.4257 37.1506C25.4784 37.1206 25.5175 37.0715 25.5349 37.0134L25.534 37.0136Z" fill="#211715"/>
<path d="M25.1873 29.2027C24.5683 28.7861 23.961 28.3508 23.3368 27.9423C23.2929 27.9168 23.2417 27.9065 23.1913 27.913C23.1409 27.9195 23.0941 27.9425 23.0581 27.9783C22.8524 28.2252 22.6705 28.4908 22.4629 28.7363C22.428 28.7728 22.4056 28.8196 22.3992 28.8697C22.3927 28.9199 22.4024 28.9708 22.427 29.015C22.8833 29.7256 23.3039 30.4695 23.9403 31.039C23.9655 31.0633 23.9958 31.0817 24.029 31.0927C24.0622 31.1037 24.0974 31.1071 24.1321 31.1027C24.1668 31.0982 24.2001 31.0859 24.2294 31.0669C24.2587 31.0478 24.2834 31.0223 24.3015 30.9924C24.594 30.4816 24.9556 30.0141 25.2697 29.5171C25.4284 29.2662 25.0305 29.0352 24.8725 29.2851C24.5584 29.782 24.1968 30.2494 23.9044 30.7603L24.2657 30.7143C23.6574 30.1697 23.2602 29.4622 22.8242 28.7831L22.7883 29.0617C22.9953 28.8162 23.1778 28.5507 23.3834 28.3038L23.1046 28.3398C23.729 28.7482 24.3362 29.1835 24.9551 29.6001C25.2013 29.7654 25.4319 29.3672 25.1873 29.2027Z" fill="#211715"/>
<path d="M25.8356 30.8354C25.4503 30.8354 25.0651 30.8274 24.6797 30.8271C24.6187 30.8271 24.5602 30.8514 24.5171 30.8945C24.4739 30.9376 24.4497 30.9961 24.4497 31.0571C24.4497 31.1181 24.4739 31.1766 24.5171 31.2198C24.5602 31.2629 24.6187 31.2871 24.6797 31.2871C25.0649 31.2871 25.4502 31.2953 25.8356 31.2954C25.8966 31.2954 25.9551 31.2712 25.9982 31.2281C26.0413 31.1849 26.0655 31.1264 26.0655 31.0654C26.0655 31.0044 26.0413 30.9459 25.9982 30.9028C25.9551 30.8597 25.8966 30.8354 25.8356 30.8354Z" fill="#211715"/>
<path d="M25.8455 30.3496C25.8051 30.5657 25.76 30.7808 25.7103 30.9947C25.6773 31.1124 25.6625 31.2344 25.6664 31.3565C25.6831 31.5658 25.7172 31.775 25.7431 31.9833C25.8439 32.7915 25.9447 33.5998 26.0391 34.4088C26.0409 34.4692 26.0657 34.5267 26.1084 34.5695C26.1512 34.6122 26.2087 34.637 26.2691 34.6388C26.33 34.6384 26.3883 34.6141 26.4313 34.571C26.4744 34.528 26.4987 34.4697 26.4991 34.4088C26.406 33.6114 26.3068 32.8147 26.2074 32.018C26.1809 31.805 26.1527 31.5925 26.1288 31.3787C26.1219 31.2907 26.1304 31.2022 26.154 31.1171C26.2033 30.9029 26.2483 30.6878 26.2891 30.472C26.3433 30.1826 25.9001 30.0585 25.8455 30.3496Z" fill="#211715"/>
<path d="M24.4419 34.4536C24.5553 33.6553 24.6703 32.8571 24.7809 32.0583C24.8107 31.8425 24.8437 31.6265 24.8669 31.4098C24.9004 31.0988 24.7487 30.7815 24.6774 30.484C24.6084 30.1965 24.1646 30.3181 24.2339 30.6062C24.2962 30.8662 24.4364 31.1459 24.4064 31.4167C24.3834 31.6221 24.3561 31.8024 24.3272 32.0101C24.2197 32.7842 24.1087 33.5577 23.9986 34.3314C23.9844 34.3902 23.9931 34.4521 24.0231 34.5047C24.053 34.5573 24.1018 34.5964 24.1596 34.6143C24.2184 34.63 24.2811 34.622 24.3341 34.5918C24.387 34.5617 24.426 34.5119 24.4425 34.4533L24.4419 34.4536Z" fill="#211715"/>
<path d="M25.5066 29.6124C26.1255 29.1958 26.7329 28.7605 27.3571 28.352L27.0783 28.316C27.2839 28.5629 27.466 28.8285 27.6735 29.074L27.6375 28.7954C27.2015 29.4744 26.8044 30.182 26.196 30.7265L26.5574 30.7725C26.2649 30.2617 25.9034 29.7943 25.5892 29.2973C25.4314 29.0477 25.0332 29.2782 25.192 29.5295C25.5062 30.0264 25.8677 30.4939 26.1602 31.0047C26.1783 31.0346 26.203 31.0601 26.2323 31.0791C26.2616 31.0982 26.2949 31.1104 26.3296 31.1149C26.3643 31.1194 26.3995 31.116 26.4327 31.105C26.4659 31.094 26.4962 31.0756 26.5214 31.0513C27.1578 30.4816 27.5784 29.7376 28.0347 29.0273C28.0595 28.9831 28.0693 28.9322 28.0628 28.882C28.0564 28.8318 28.0339 28.785 27.9988 28.7485C27.7918 28.503 27.6093 28.2375 27.4036 27.9906C27.3676 27.9547 27.3208 27.9317 27.2704 27.9252C27.22 27.9187 27.1688 27.9291 27.1249 27.9546C26.5007 28.3631 25.8934 28.7985 25.2744 29.215C25.0305 29.3797 25.2605 29.7784 25.5066 29.6124Z" fill="#211715"/>
<path d="M24.9041 38.2959C24.8278 38.3631 24.7801 38.457 24.7709 38.5583C24.7617 38.6596 24.7916 38.7606 24.8545 38.8405C24.9258 38.9172 25.0228 38.965 25.127 38.9746C25.2313 38.9843 25.3354 38.9551 25.4195 38.8928C25.4589 38.8578 25.4907 38.8151 25.5131 38.7674C25.5355 38.7196 25.5479 38.6679 25.5497 38.6152C25.5515 38.5625 25.5426 38.51 25.5235 38.4609C25.5044 38.4117 25.4755 38.367 25.4386 38.3293C25.3684 38.2606 25.2757 38.2193 25.1776 38.2132C25.0795 38.2071 24.9824 38.2364 24.9041 38.2959Z" fill="#211715"/>
<path d="M38.54 30.0691C37.8815 29.7183 37.2327 29.3478 36.5698 29.0058C36.5167 28.9766 36.4545 28.9689 36.3959 28.9843C36.3374 28.9996 36.2869 29.0368 36.255 29.0883C36.0758 29.3549 35.9223 29.638 35.7411 29.9035C35.7163 29.9476 35.7064 29.9986 35.7129 30.0488C35.7194 30.099 35.7419 30.1458 35.7771 30.1822C36.3069 30.8457 36.8012 31.5298 37.4966 32.0337C37.5227 32.049 37.5516 32.0589 37.5815 32.063C37.6114 32.0672 37.6419 32.0653 37.6711 32.0577C37.7004 32.05 37.7278 32.0366 37.7519 32.0184C37.7759 32.0001 37.7962 31.9772 37.8114 31.9511C38.0495 31.4128 38.3613 30.9109 38.6226 30.3841C38.7537 30.1196 38.3571 29.8865 38.2254 30.1519C37.9641 30.6787 37.6523 31.1807 37.4142 31.719L37.7288 31.6365C37.0714 31.1604 36.6029 30.4841 36.1023 29.8573L36.1383 30.136C36.3194 29.8705 36.473 29.5875 36.6522 29.3208L36.3376 29.4034C37.0005 29.7454 37.6494 30.1163 38.3078 30.4666C38.569 30.6055 38.8016 30.2085 38.54 30.0691Z" fill="#211715"/>
<path d="M39.3556 31.6152C38.9724 31.6547 38.5883 31.6865 38.205 31.726C38.1444 31.7274 38.0867 31.752 38.0439 31.7949C38.001 31.8377 37.9764 31.8954 37.975 31.956C37.9756 32.0168 38.0001 32.0749 38.0431 32.1179C38.0861 32.1609 38.1442 32.1853 38.205 32.186C38.5883 32.1465 38.9724 32.1147 39.3556 32.0752C39.4162 32.0739 39.4739 32.0492 39.5168 32.0063C39.5596 31.9635 39.5843 31.9058 39.5856 31.8452C39.585 31.7844 39.5606 31.7263 39.5176 31.6833C39.4746 31.6403 39.4165 31.6158 39.3556 31.6152Z" fill="#211715"/>
<path d="M37.7072 31.5304C37.7966 31.7806 37.9755 32.0648 37.9667 32.3124C37.9617 32.4537 37.9533 32.5951 37.946 32.7364C37.9171 33.2846 37.8871 33.8327 37.856 34.3809C37.8185 35.0587 37.7819 35.7366 37.746 36.4145C37.7301 36.718 37.7148 37.0216 37.7 37.3252C37.6938 37.4555 37.6878 37.5858 37.6819 37.7162C37.6763 37.8467 37.6482 38.0037 37.7069 38.1238C37.8185 38.3159 37.949 38.4963 38.0965 38.6624C38.2393 38.8464 38.3856 39.0273 38.5356 39.2052C38.6913 39.391 38.8494 39.5747 39.01 39.7564C39.081 39.837 39.1523 39.9172 39.2242 39.997C39.2907 40.0871 39.3703 40.1667 39.4603 40.2334C39.5138 40.2632 39.5743 40.2785 39.6356 40.2776C39.6969 40.2768 39.7569 40.26 39.8096 40.2288C39.9135 40.1441 39.9943 40.0346 40.0447 39.9105C40.1834 39.6679 40.3193 39.4238 40.4524 39.1783C40.5732 38.9552 40.6913 38.7308 40.8068 38.5051C40.9244 38.3034 41.0268 38.0933 41.1131 37.8764C41.1571 37.7425 41.1034 37.5961 41.0721 37.4637C41.0445 37.3465 41.0162 37.2295 40.9873 37.1128C40.9202 36.8397 40.8517 36.5669 40.7816 36.2944C40.6177 35.6534 40.4508 35.0132 40.2809 34.374C40.1335 33.8157 39.9852 33.2576 39.8362 32.6997C39.7914 32.5317 39.7468 32.3637 39.7025 32.1954C39.6669 32.0884 39.6578 31.9743 39.676 31.863C39.7029 31.6352 39.73 31.4078 39.7471 31.179C39.7689 30.8837 39.3088 30.885 39.2871 31.179C39.2704 31.4043 39.2438 31.6282 39.2173 31.8524C39.2007 31.9592 39.2021 32.0681 39.2216 32.1744C39.2441 32.2768 39.2747 32.3779 39.3016 32.4793C39.4242 32.942 39.5473 33.4047 39.6708 33.8674C39.9834 35.0449 40.2991 36.2222 40.5855 37.4065C40.6129 37.5195 40.6336 37.6365 40.666 37.7477C40.6696 37.7599 40.6725 37.7724 40.6745 37.7849C40.6674 37.7347 40.6811 37.7372 40.6539 37.7803C40.6243 37.8344 40.5974 37.8899 40.5734 37.9467C40.5121 38.0711 40.4499 38.1949 40.3869 38.3181C40.2581 38.5695 40.1258 38.819 39.9899 39.0667C39.9186 39.197 39.8465 39.3271 39.7735 39.4568C39.7365 39.5226 39.6992 39.5883 39.6617 39.6539C39.6477 39.6787 39.6336 39.7033 39.6194 39.7279L39.5766 39.8021C39.5451 39.8424 39.5654 39.8462 39.6377 39.8136L39.7393 39.8727C39.5864 39.7323 39.4461 39.5788 39.32 39.414C39.1704 39.244 39.0227 39.0725 38.8768 38.8993C38.7319 38.7268 38.5893 38.5523 38.4506 38.3745C38.3183 38.2266 38.2022 38.0649 38.1043 37.8922L38.1357 38.0084C38.1273 37.8219 38.1336 37.635 38.1543 37.4495C38.1649 37.2239 38.176 36.9982 38.1876 36.7726C38.2143 36.2509 38.242 35.7292 38.2707 35.2076C38.3187 34.329 38.37 33.4505 38.4146 32.5717C38.4196 32.4734 38.4291 32.3739 38.4282 32.2755C38.4253 31.9752 38.2497 31.6855 38.151 31.409C38.0523 31.1324 37.6075 31.2515 37.7073 31.5313L37.7072 31.5304Z" fill="#211715"/>
<path d="M38.906 30.41C39.4787 29.9319 40.038 29.4365 40.6168 28.9659H40.2916C40.5216 29.1904 40.73 29.4357 40.9616 29.6586L40.9256 29.3799C40.5631 30.0976 40.2424 30.8504 39.6951 31.4525L40.0563 31.4991C39.7013 31.0046 39.2813 30.5622 38.9055 30.0846C38.8622 30.0418 38.8038 30.0178 38.7429 30.0178C38.682 30.0178 38.6235 30.0418 38.5802 30.0846C38.5385 30.1285 38.5152 30.1867 38.5152 30.2472C38.5152 30.3078 38.5385 30.366 38.5802 30.4098C38.9317 30.8564 39.3277 31.2691 39.6591 31.7312C39.6773 31.7611 39.7019 31.7865 39.7313 31.8056C39.7606 31.8246 39.7938 31.8369 39.8285 31.8413C39.8632 31.8458 39.8985 31.8424 39.9317 31.8314C39.9649 31.8204 39.9952 31.8021 40.0203 31.7777C40.5966 31.1432 40.9403 30.3683 41.3223 29.6119C41.3469 29.5677 41.3567 29.5168 41.3502 29.4666C41.3437 29.4165 41.3213 29.3697 41.2863 29.3332C41.0547 29.1102 40.8462 28.865 40.6164 28.6405C40.5724 28.5989 40.5142 28.5757 40.4538 28.5757C40.3933 28.5757 40.3351 28.5989 40.2911 28.6405C39.7122 29.1112 39.1527 29.6065 38.5802 30.0846C38.3532 30.2746 38.6801 30.5986 38.906 30.41Z" fill="#211715"/>
<path d="M11.1255 38.3194C11.0428 38.3747 10.9845 38.4595 10.9624 38.5565C10.9404 38.6535 10.9563 38.7552 11.0069 38.8408C11.066 38.9243 11.1538 38.9831 11.2535 39.006C11.3532 39.0288 11.4579 39.0142 11.5474 38.9648C11.5901 38.9359 11.6265 38.8987 11.6544 38.8554C11.6823 38.812 11.7011 38.7635 11.7097 38.7127C11.7183 38.6619 11.7165 38.6099 11.7044 38.5598C11.6923 38.5097 11.6702 38.4626 11.6394 38.4213C11.5802 38.3455 11.4958 38.2934 11.4014 38.2747C11.3071 38.256 11.2091 38.2719 11.1255 38.3194Z" fill="#211715"/>
<path d="M11.8978 36.8508C12.8394 35.2074 13.6989 33.5147 14.4836 31.7909C14.7297 31.2504 14.9634 30.7038 15.1759 30.1491L14.7915 30.2505C15.0353 30.4459 15.2548 30.6698 15.4452 30.9175C15.5409 31.0386 15.6293 31.1653 15.7097 31.297C15.7588 31.3775 15.893 31.5506 15.8844 31.6496L15.9518 31.487C15.909 31.5157 15.862 31.5375 15.8124 31.5517C15.746 31.5828 15.6801 31.615 15.6143 31.6473C15.4915 31.7078 15.3691 31.769 15.2453 31.8271C15.2151 31.8451 15.1895 31.8697 15.1703 31.899C15.151 31.9283 15.1387 31.9616 15.1342 31.9964C15.1297 32.0312 15.1332 32.0665 15.1444 32.0998C15.1555 32.133 15.1741 32.1633 15.1987 32.1883C15.2972 32.2831 15.3994 32.3738 15.4995 32.4669C15.5467 32.5107 15.5935 32.5549 15.6384 32.6011C15.6749 32.6384 15.7242 32.722 15.769 32.7456L15.7948 32.7786C15.817 32.7296 15.8152 32.7269 15.7895 32.7708C15.7478 32.8203 15.7097 32.8728 15.6755 32.9278C15.5976 33.0343 15.5193 33.1403 15.4403 33.246C15.1322 33.6586 14.8179 34.0663 14.4973 34.469C13.8348 35.3051 13.1552 36.1275 12.4724 36.9471C12.2842 37.1729 12.6079 37.5001 12.7976 37.2723C13.3785 36.5751 13.957 35.8759 14.5247 35.1678C15.0882 34.4655 15.6555 33.7597 16.1728 33.0224C16.4876 32.5739 15.8054 32.1334 15.5241 31.8631L15.4781 32.2243C15.6095 32.1627 15.7391 32.0978 15.8691 32.0335C15.9944 31.9721 16.167 31.926 16.2652 31.8257C16.4618 31.6248 16.2422 31.2926 16.1286 31.1002C15.8664 30.6498 15.5237 30.2514 15.1175 29.9249C15.0885 29.8977 15.0531 29.8783 15.0145 29.8685C14.976 29.8587 14.9356 29.8589 14.8971 29.8691C14.8587 29.8793 14.8234 29.899 14.7947 29.9266C14.766 29.9541 14.7448 29.9885 14.7331 30.0265C14.3651 30.9869 13.9296 31.9197 13.4785 32.8439C13.0637 33.6934 12.6497 34.5459 12.2001 35.3773C11.9742 35.7951 11.7373 36.2068 11.5013 36.6193C11.3538 36.8766 11.7511 37.1086 11.8985 36.8515L11.8978 36.8508Z" fill="#211715"/>
<path d="M11.8908 36.7261C11.6689 35.8737 11.4423 35.0242 11.2683 34.1604C11.0641 33.1484 10.8379 32.1414 10.6516 31.1263C10.5474 30.5588 10.457 29.9887 10.3986 29.4146C10.3855 29.2848 10.2591 29.1295 10.1074 29.1928C9.61635 29.4024 9.16767 29.6998 8.78343 30.0705C8.62542 30.2217 8.31585 30.49 8.44027 30.733C8.52183 30.8461 8.62312 30.9434 8.73927 31.0205C8.86094 31.127 8.98077 31.2354 9.10382 31.3402L9.14981 30.9789C8.96904 31.0777 8.78113 31.1639 8.60403 31.2693C8.42245 31.3772 8.18935 31.5151 8.18739 31.754C8.18578 31.948 8.31044 32.1619 8.37967 32.3391C8.4594 32.5431 8.54067 32.7465 8.62347 32.9494C8.97283 33.807 9.34313 34.6561 9.72159 35.5013C9.93295 35.9736 10.1465 36.4451 10.3624 36.9158C10.3935 36.9681 10.4439 37.0061 10.5028 37.0215C10.5616 37.0369 10.6242 37.0286 10.677 36.9982C10.7286 36.9665 10.7659 36.9161 10.7813 36.8575C10.7967 36.7989 10.7889 36.7366 10.7596 36.6836C10.3124 35.7054 9.86901 34.7253 9.44651 33.7362C9.2412 33.2558 9.04252 32.7728 8.85047 32.2872C8.8024 32.1645 8.75495 32.0419 8.70811 31.9192C8.69605 31.8721 8.67877 31.8265 8.65659 31.7833C8.64463 31.7323 8.64006 31.7365 8.6429 31.7958C8.66797 31.777 8.69354 31.7587 8.71961 31.7411C8.92821 31.5993 9.1612 31.4975 9.382 31.3769C9.41231 31.359 9.43816 31.3345 9.45758 31.3052C9.47701 31.2759 9.4895 31.2425 9.49411 31.2077C9.49872 31.1728 9.49533 31.1373 9.48419 31.104C9.47306 31.0706 9.45447 31.0402 9.42984 31.0151C9.32553 30.9264 9.22364 30.8351 9.12095 30.7446C9.07196 30.7014 9.02286 30.6583 8.97306 30.6159C8.93638 30.5847 8.8599 30.5436 8.83794 30.5009L8.86094 30.6782C8.87692 30.5893 9.03137 30.4712 9.09393 30.4101C9.20938 30.2983 9.33204 30.1941 9.46112 30.0983C9.69794 29.9141 9.95609 29.759 10.23 29.6365L9.93882 29.4147C10.0582 30.4587 10.232 31.4957 10.4595 32.5216C10.6578 33.4754 10.837 34.4355 11.0676 35.382C11.1871 35.8726 11.3197 36.3595 11.4471 36.8485C11.5218 37.1347 11.9655 37.0134 11.8907 36.7263L11.8908 36.7261Z" fill="#211715"/>
<path d="M35.7204 22.8387C36.0178 22.6981 36.4016 22.7448 36.7182 22.7708C37.055 22.8116 37.3943 22.8281 37.7334 22.8201C38.3844 22.7797 39.024 22.6316 39.6751 22.5929C39.8291 22.5804 39.9839 22.5817 40.1377 22.5968C40.1897 22.6053 40.2411 22.6168 40.2917 22.6313C40.3368 22.6445 40.3012 22.6305 40.3299 22.6453C40.3429 22.6521 40.4028 22.693 40.3675 22.6645C40.4115 22.706 40.4697 22.7291 40.5301 22.7291C40.5906 22.7291 40.6488 22.706 40.6928 22.6645C40.7355 22.6211 40.7594 22.5627 40.7594 22.5018C40.7594 22.441 40.7355 22.3826 40.6928 22.3392C40.4796 22.1667 40.2105 22.13 39.9431 22.126C39.5919 22.1308 39.2416 22.1617 38.895 22.2187C38.549 22.2658 38.2038 22.3222 37.8556 22.3513C37.5058 22.371 37.155 22.3601 36.8071 22.3187C36.3662 22.2796 35.8992 22.2474 35.4882 22.4418C35.2208 22.5683 35.4537 22.965 35.7204 22.839V22.8387Z" fill="#211715"/>
<path d="M14.1103 31.4849C12.9109 31.9054 11.6354 31.5967 10.5604 30.9955C10.3017 30.8509 10.0696 31.2485 10.3282 31.3927C11.5036 32.0501 12.9211 32.3883 14.2325 31.9284C14.51 31.8311 14.3906 31.3865 14.1103 31.4849Z" fill="#211715"/>
</svg>
